<?xml version="1.0" standalone="no"?>
<!DOCTYPE svg PUBLIC "-//W3C//DTD SVG 1.1//EN" "http://www.w3.org/Graphics/SVG/1.1/DTD/svg11.dtd" >
<svg xmlns="http://www.w3.org/2000/svg" xmlns:xlink="http://www.w3.org/1999/xlink" version="1.1">
<metadata>
Created by FontForge 20170731 at Thu Oct 15 13:35:51 2020
 By Aleksey,,,
Copyright (c) 2017 by Zetafonts. All rights reserved.
</metadata>
<defs>
<font id="AntipastoPro-DemiBold" horiz-adv-x="1063" >
  <font-face 
    font-family="Antipasto Pro DemiBold"
    font-weight="600"
    font-stretch="normal"
    units-per-em="2048"
    panose-1="2 0 5 6 2 0 0 2 0 4"
    ascent="1638"
    descent="-410"
    x-height="965"
    cap-height="1311"
    bbox="-371 -677 2295 1836"
    underline-thickness="102"
    underline-position="-307"
    unicode-range="U+0020-FB03"
  />
<missing-glyph horiz-adv-x="460" 
 />
    <glyph glyph-name="ff" unicode="ff" horiz-adv-x="1238" 
d="M424 1103q-35 -36 -35 -87v-53h94q44 0 74 -29t30 -72t-30 -73t-74 -30h-94v-655q0 -42 -30 -72q-31 -31 -71 -31q-41 0 -72 31t-31 72v655h-67q-43 0 -72 31q-30 35 -30 72q0 43 29.5 72t72.5 29h67v53v4q1 137 95 229q89 86 231 86v-1q42 -2 68.5 -28.5t26.5 -66.5
q0 -39 -26 -68q-28 -27 -68 -32h-1q-53 0 -87 -36zM1008 963h95q44 0 73 -29t29 -72t-29 -72q-31 -31 -73 -31h-95v-655q0 -43 -29 -72q-31 -31 -73 -31q-40 0 -71 31t-31 72v655h-67q-43 0 -72 31q-30 35 -30 72q0 42 30 72q29 29 72 29h67v49q0 144 91 233q85 85 223 90
h11q43 -2 70 -28t27 -68q0 -40 -27.5 -68.5t-68.5 -31.5h-5q-46 -1 -83 -38q-34 -34 -34 -85v-53z" />
    <glyph glyph-name="fi" unicode="fi" horiz-adv-x="1027" 
d="M288 1q-41 0 -72 31t-31 72v655h-67q-43 0 -72 31q-30 35 -30 72q0 43 29.5 72t72.5 29h67v57q1 137 93 227q86 83 221 88h12v-1q42 -2 68.5 -28.5t26.5 -66.5q0 -39 -26 -68q-28 -27 -68 -32h-1q-53 0 -85 -35q-35 -35 -37 -84v-57h94q44 0 74 -29t30 -72t-30 -73
t-74 -30h-94v-655q0 -42 -30 -72q-31 -31 -71 -31zM822 1063q-47 0 -80 33q-32 32 -32 80t32 80q33 33 80 33q48 0 81 -33q34 -34 34 -80t-34 -80q-33 -33 -81 -33zM824 0q-37 0 -72 30q-31 29 -31 71v762q0 44 31 73q35 30 73 30q42 0 71 -30t29 -73v-762q0 -43 -29 -72
t-72 -29z" />
    <glyph glyph-name="ffi" unicode="ffi" horiz-adv-x="1645" 
d="M389 1016v-53h94q44 0 74 -29t30 -72t-30 -73t-74 -30h-94v-655q0 -42 -30 -72q-31 -31 -71 -31q-41 0 -72 31t-31 72v655h-67q-43 0 -72 31q-30 35 -30 72q0 43 29.5 72t72.5 29h67v53v4q1 134 93 226q86 84 225 89h8v-1q42 -2 68.5 -28.5t26.5 -66.5q0 -39 -26 -68
q-28 -27 -68 -32h-1q-53 0 -87 -36q-35 -36 -35 -87zM1008 963h95q44 0 73 -29t29 -72t-29 -72q-31 -31 -73 -31h-95v-655q0 -43 -29 -72q-31 -31 -73 -31q-40 0 -71 31t-31 72v655h-67q-43 0 -72 31q-30 35 -30 72q0 42 30 72q29 29 72 29h67v53v4q1 135 92 226
q89 87 226 89h7q43 -2 70 -28t27 -68q0 -40 -27.5 -68.5t-68.5 -31.5q-52 0 -87 -35t-35 -85v-56zM1442 1063q-47 0 -80 33q-34 34 -34 80t34 80q33 33 80 33t80 -33t33 -80t-33 -80t-80 -33zM1444 966q44 0 72 -30q28 -29 28 -73v-762q0 -43 -29 -72t-72 -29q-42 0 -72 30
q-31 31 -31 71v762q0 44 31 73q35 30 73 30z" />
    <glyph glyph-name="f_j" unicode="fj" horiz-adv-x="1030" 
d="M288 1q-41 0 -72 31t-31 72v655h-67q-43 0 -72 31q-30 35 -30 72q0 43 29.5 72t72.5 29h67v57q1 137 93 227q86 83 221 88h12v-1q42 -2 68.5 -28.5t26.5 -66.5q0 -39 -26 -68q-28 -27 -68 -32h-1q-51 0 -86 -35t-36 -84v-57h94q44 0 74 -29t30 -72t-30 -73t-74 -30h-94
v-655q0 -42 -30 -72q-31 -31 -71 -31zM821 1053q-49 0 -78 32q-31 32 -31 80t33 81t80 33q46 0 79 -33q32 -33 32 -81q0 -46 -34 -80q-32 -32 -81 -32zM600 -296h-4q-43 0 -73 30q-29 29 -29 72q0 45 29 74q30 30 73 30h4q48 0 87 36q36 33 36 86v828q0 43 31 74
q30 30 71 30q43 0 73 -30q29 -29 29 -74v-828q0 -12 -1 -14q-6 -131 -100 -223q-93 -91 -226 -91z" />
    <glyph glyph-name="f_f_j" unicode="ffj" horiz-adv-x="1648" 
d="M423 1101q-34 -34 -34 -85v-53h94q44 0 74 -29t30 -72t-30 -73t-74 -30h-94v-655q0 -42 -30 -72q-31 -31 -71 -31q-41 0 -72 31t-31 72v655h-67q-43 0 -72 31q-30 35 -30 72q0 43 29.5 72t72.5 29h67v57q1 137 93 227q86 83 221 88h12v-1q42 -2 68.5 -28.5t26.5 -66.5
q0 -39 -26 -68q-28 -27 -68 -32h-6q-46 -1 -83 -38zM1205 862q0 -43 -29 -72q-31 -31 -73 -31h-95v-655q0 -43 -29 -72q-31 -31 -73 -31q-40 0 -71 31t-31 72v655h-67q-43 0 -72 31q-30 35 -30 72q0 42 30 72q29 29 72 29h67v53v4q1 135 92 226q89 87 226 89h7q43 -2 70 -28
t27 -68q0 -41 -29 -70q-28 -28 -71 -30q-52 -2 -84 -37q-34 -37 -34 -86v-53h95q44 0 73 -29t29 -72zM1441 1053q-49 0 -78 32q-33 33 -33 80t34 81q33 33 80 33q46 0 79 -33q31 -32 31 -81q0 -47 -33 -80q-32 -32 -80 -32zM1444 964q43 0 72 -30t29 -74v-828v-6q0 -7 -1 -8
q-6 -131 -99 -222q-92 -92 -225 -92h-6q-41 0 -71 30q-31 31 -31 72q0 43 31 74q30 30 71 30h6q48 0 87 36q34 31 34 86v828q0 43 31 74q30 30 72 30z" />
    <glyph glyph-name=".notdef" horiz-adv-x="460" 
 />
    <glyph glyph-name=".null" horiz-adv-x="0" 
 />
    <glyph glyph-name="nonmarkingreturn" horiz-adv-x="682" 
 />
    <glyph glyph-name="space" unicode=" " horiz-adv-x="460" 
 />
    <glyph glyph-name="exclam" unicode="!" horiz-adv-x="484" 
d="M238 313q-43 0 -72 30t-29 74v790q0 43 31 74q30 30 72 30t72 -30q29 -29 29 -74v-790q0 -44 -30 -74t-73 -30zM243 0q-46 0 -78 32t-32 78q0 43 32 76q32 32 78 32q43 0 76 -32q32 -33 32 -76q0 -46 -32 -78q-33 -32 -76 -32z" />
    <glyph glyph-name="quotedbl" unicode="&#x22;" horiz-adv-x="729" 
d="M190 809q-43 0 -72 29t-29 72v299q0 44 30 72q31 29 71 29q42 0 73 -29q30 -28 30 -72v-299q0 -41 -30 -71t-73 -30zM538 809q-43 0 -72.5 29t-29.5 72v299q0 44 30 72q31 29 72 29q43 0 72.5 -29t29.5 -72v-299q0 -43 -29.5 -72t-72.5 -29z" />
    <glyph glyph-name="numbersign" unicode="#" horiz-adv-x="1258" 
d="M700 6q-37 10 -58 35t-21 59q0 14 3 26l49 208h-250l-62 -257q-8 -34 -35 -53.5t-64 -19.5q-16 0 -31 3q-36 7 -57 31t-21 58q0 12 3 24l50 214h-76q-43 0 -69 27.5t-26 71.5q0 45 26.5 76t67.5 31h125l59 250h-79q-43 0 -68.5 27.5t-25.5 73.5q0 44 26 74t67 30h128
l57 239q4 18 18.5 35.5t34.5 27.5q32 15 55 15q13 0 31 -5q33 -10 52 -38.5t19 -65.5q0 -21 -4 -36l-42 -172h246l56 231q8 42 47 65q29 19 61 19q45 0 74 -30t29 -76q0 -22 -4 -37l-42 -172h79q42 0 67 -25.5t29 -70.5q1 -43 -24 -76q-27 -33 -71 -33h-130l-59 -250h94
q42 0 68.5 -27.5t27.5 -71.5q0 -47 -26.5 -77t-68.5 -30h-144l-62 -257q-11 -44 -47 -62q-24 -12 -53 -12q-15 0 -29 3zM473 540h248l59 250h-248z" />
    <glyph glyph-name="dollar" unicode="$" horiz-adv-x="1015" 
d="M516 -179q-37 0 -62.5 25t-25.5 62v85q-128 18 -225 87q-98 69 -140 160q-13 26 -13 54q0 15 5 33q10 32 48 53q23 13 45 13q46 0 95 -61q89 -142 274 -142q100 0 168 50q78 54 78 139q0 83 -79 129q-47 26 -138 48l-27 7q-201 38 -311 124q-127 100 -127 255
q0 142 102 247q92 98 245 124v77q0 35 27 62q25 25 62 25q35 0 60 -25q24 -26 24 -62v-77q99 -15 177.5 -63t123.5 -122q11 -19 11 -38q0 -4 -2 -20q-8 -29 -27 -48q-25 -25 -67 -25q-36 0 -60 19q-65 57 -108 76q-57 24 -135 24q-97 0 -160 -46q-68 -46 -68 -126t89 -125
q53 -27 208 -60q174 -46 264 -118q119 -95 119 -251q0 -150 -104 -260q-101 -109 -261 -135v-87q0 -37 -24.5 -62t-60.5 -25z" />
    <glyph glyph-name="percent" unicode="%" horiz-adv-x="1609" 
d="M377 647q-141 0 -238 99q-99 97 -99 237q0 139 99 238q97 99 238 99q138 0 237 -99q98 -100 98 -238q0 -139 -98 -237q-99 -99 -237 -99zM493 4q-54 28 -54 83q0 17 10 39l527 1131q20 37 54 48q15 6 32 6q21 0 39 -9q31 -16 45 -58q4 -11 4 -29q0 -27 -9 -46l-528 -1120
q-23 -53 -82 -53q-20 0 -38 8zM377 835q59 0 104 44q44 42 44 104t-44 106q-44 41 -104 41q-64 0 -105 -41q-44 -44 -44 -106q0 -60 44 -104t105 -44zM1230 -12q-140 0 -237 99q-98 98 -98 237q0 137 98 237q97 99 237 99q139 0 238 -99q99 -101 99 -237q0 -138 -99 -237
t-238 -99zM1230 175q61 0 105 44q43 43 43 105t-43 105q-42 42 -105 42q-62 0 -104 -42q-44 -44 -44 -105t44 -105t104 -44z" />
    <glyph glyph-name="ampersand" unicode="&#x26;" horiz-adv-x="1190" 
d="M440 -12q-162 0 -279 117q-117 119 -117 281q0 108 52 191q44 72 124 129l-20 18l-5 4q-47 43 -77 105q-36 69 -36 142q0 143 101 244q100 100 243 100q144 0 243 -99q99 -104 99 -244q0 -203 -210 -313l216 -195l134 154q31 37 82 37q37 0 62 -23q35 -32 35 -78
q0 -38 -25 -66l-139 -158l178 -160q47 -41 47 -85q0 -25 -19 -49q-36 -43 -79 -43q-32 0 -62 25l-191 169l-65 -73l-12 -13q-56 -55 -129.5 -86t-150.5 -31zM412 795l2 1h1q73 19 119 70q48 53 48 106q0 60 -42 105q-43 45 -108 45q-62 0 -102 -43q-42 -45 -42 -104
q0 -35 26 -78q21 -33 48 -57zM433 186q80 0 151 64l64 74l-292 260q-125 -65 -125 -188q0 -84 60 -146q59 -64 142 -64z" />
    <glyph glyph-name="quotesingle" unicode="'" horiz-adv-x="381" 
d="M190 811q-41 0 -71 30t-30 72v299q0 44 30 72q31 29 71 29q42 0 73 -29q30 -28 30 -72v-299q0 -42 -30 -72t-73 -30z" />
    <glyph glyph-name="parenleft" unicode="(" horiz-adv-x="738" 
d="M616 -325q-230 0 -358 122q-125 117 -125 316v772q6 193 130 305q131 119 347 120h6q43 0 72 -29t29 -73q0 -43 -29 -71.5t-72 -28.5h-62q-88 0 -152 -70q-63 -70 -65 -161v-762q-2 -92 62 -164q64 -74 155 -74h62q43 0 72 -29.5t29 -72.5t-29 -71.5t-72 -28.5z" />
    <glyph glyph-name="parenright" unicode=")" horiz-adv-x="739" 
d="M85 -325h-6q-43 0 -72 28.5t-29 71.5t29 72.5t72 29.5h62q90 0 154 72q63 69 63 160v763q0 94 -62 164q-64 72 -154 72h-63q-43 0 -72 28.5t-29 71.5q0 44 29 73t72 29h6q221 -2 348 -121q123 -114 128 -307q1 -1 1 -10v-763q-2 -196 -124 -312q-126 -120 -353 -122z" />
    <glyph glyph-name="asterisk" unicode="*" horiz-adv-x="694" 
d="M352 738q-38 0 -72 31q-31 29 -31 73v41l-30 -18q-25 -19 -61 -19q-54 0 -82 42q-20 26 -20 62q0 53 43 82l52 31l-50 30q-45 25 -45 79q0 37 20 63q26 35 67 42q4 1 18 1q33 0 59 -20l29 -17v40q0 43 30.5 73t74.5 30q43 0 72 -29.5t29 -73.5v-39l25 15q23 20 60 20
q53 0 85 -42q19 -25 19 -61q0 -14 -1 -17q-7 -42 -44 -65l-49 -30l51 -30q42 -28 42 -83q0 -34 -18 -60q-29 -43 -82 -43q-36 0 -62 20l-26 16v-40q0 -43 -30 -73q-31 -31 -73 -31z" />
    <glyph glyph-name="plus" unicode="+" horiz-adv-x="841" 
d="M421 229q-43 0 -73 30q-31 31 -31 73v193h-193q-42 0 -73 31q-29 29 -29 72q0 38 29 72q29 31 73 31h193v195q0 43 31 72q35 30 73 30q43 0 73 -30q29 -29 29 -72v-195h195q44 0 73 -31q29 -34 29 -74q0 -43 -29.5 -72t-72.5 -29h-195v-193q0 -44 -29 -73
q-30 -30 -73 -30z" />
    <glyph glyph-name="comma" unicode="," horiz-adv-x="437" 
d="M204 -259q-44 0 -74 30t-30 75v286q0 42 31 76q29 31 73 31t72 -30.5t28 -76.5v-286q0 -46 -27.5 -75.5t-72.5 -29.5z" />
    <glyph glyph-name="hyphen" unicode="-" horiz-adv-x="931" 
d="M748 490h-577q-42 0 -73 31q-30 30 -30 72q0 44 30 74q29 29 73 29h577q47 0 74 -30q30 -35 30 -73q0 -43 -30 -73t-74 -30z" />
    <glyph glyph-name="period" unicode="." horiz-adv-x="476" 
d="M221 -12q-49 0 -85 36t-36 86t36 86q35 35 85 35q51 0 86 -35q36 -36 36 -86t-36 -86t-86 -36z" />
    <glyph glyph-name="slash" unicode="/" horiz-adv-x="604" 
d="M94 5q-41 14 -60 52q-11 24 -11 48q0 19 4 31l354 1101q11 34 37.5 53t60.5 19q14 0 34 -5q40 -13 59 -57q11 -22 11 -51q0 -16 -5 -34l-355 -1089q-12 -33 -39 -52.5t-60 -19.5q-18 0 -30 4z" />
    <glyph glyph-name="zero" unicode="0" horiz-adv-x="1437" 
d="M709 -12q-135 0 -256.5 51t-213.5 144q-93 93 -143.5 214.5t-50.5 255.5q0 183 90 337q88 152 238 239q158 91 336 91q182 0 337 -91q151 -88 239 -239q91 -159 91 -337q0 -134 -51 -255.5t-144 -214.5t-215 -144t-257 -51zM710 191q192 0 327 135q134 134 134 327
q0 93 -35 177.5t-99 148.5q-135 135 -327 135q-94 0 -178.5 -35.5t-147.5 -99.5q-64 -64 -99 -148.5t-35 -177.5q0 -193 134 -327q63 -64 147.5 -99.5t178.5 -35.5z" />
    <glyph glyph-name="one" unicode="1" horiz-adv-x="600" 
d="M367 0q-40 0 -74 31q-31 29 -31 72v925l-60 -37q-29 -15 -61 -15q-56 0 -82 46q-15 24 -15 54q0 13 3 25q9 41 47 63l212 130q24 13 47 15q1 1 7 1h7q42 0 70.5 -30t28.5 -74v-1103q0 -44 -28 -73.5t-71 -29.5z" />
    <glyph glyph-name="two" unicode="2" horiz-adv-x="960" 
d="M813 0h-666q-45 0 -73 32q-30 35 -29 74v10q0 6 1 8q3 23 21 44l7 7l492 524l1 1l6 8q56 59 80 96q48 72 48 130q0 88 -64 140q-62 51 -149 51q-82 0 -141 -45q-63 -47 -75 -121q0 -9 -1 -11q-8 -41 -34 -63t-63 -22q-46 0 -72.5 27.5t-26.5 71.5q0 14 1 19
q8 124 121 229q120 109 288 109q187 0 300 -99q118 -105 118 -276q0 -98 -42 -188q-47 -96 -141 -191l-351 -361h444q44 0 73.5 -29t29.5 -72t-30 -73t-73 -30z" />
    <glyph glyph-name="three" unicode="3" horiz-adv-x="988" 
d="M478 -12q-132 0 -245 67q-118 69 -173 176q-16 28 -16 61q0 52 48 81q26 14 55 14q14 0 26 -3q43 -12 65 -51l3 -6q34 -62 98.5 -99t139.5 -37q111 0 184 76q75 77 75 183q0 103 -75 163q-71 57 -185 57h-94v1q-44 0 -68 29q-29 29 -29 74q0 42 30 72l281 267h-399
q-45 0 -75 26t-30 68q0 39 31 73q29 31 74 31h636q33 0 57 -18t34 -49q7 -15 7 -38q0 -41 -30 -71l-290 -279q152 -40 236 -143q93 -110 93 -263q0 -93 -35.5 -178t-100.5 -149t-150.5 -99.5t-177.5 -35.5z" />
    <glyph glyph-name="four" unicode="4" horiz-adv-x="986" 
d="M913 445q29 -31 29 -72q0 -43 -29 -73t-72 -30h-90v-168q0 -43 -29 -72.5t-72 -29.5q-41 0 -72 31t-31 71v168h-399q-41 0 -72 31t-31 72v4q0 30 16 55l498 831q31 49 86 49q46 0 77 -31q29 -29 29 -75v-730h90q43 0 72 -31zM547 476v387l-246 -387h246z" />
    <glyph glyph-name="five" unicode="5" horiz-adv-x="971" 
d="M458 -11q-130 0 -246 73q-110 71 -162 191q-11 20 -11 47q0 42 30 72q29 29 71 29q31 0 56.5 -17.5t36.5 -45.5q28 -63 90 -106q61 -42 135 -42q102 0 175 73t73 173q0 102 -73 175t-175 73q-115 0 -185 -83q-29 -42 -78 -42q-4 0 -20 2q-39 8 -63 35t-24 64q0 12 1 15
l50 548q8 55 63 77q22 11 46 11h494q44 0 73 -31q30 -35 30 -75q0 -42 -30 -70.5t-73 -28.5h-408l-23 -246q72 26 147 26q185 0 318 -131q131 -133 131 -319q0 -185 -131 -316q-133 -131 -318 -131z" />
    <glyph glyph-name="six" unicode="6" horiz-adv-x="999" 
d="M489 -8q-180 0 -312 130q-130 130 -130 311q0 121 63 226l319 605q21 37 65 51q12 3 25 3q31 0 53 -13q52 -30 52 -86q0 -27 -18 -58l-156 -288q8 0 21 1.5t18 1.5q184 0 314 -130q128 -128 128 -313q0 -183 -128 -311q-130 -130 -314 -130zM486 184q104 0 177 73
q70 70 70 173q0 102 -71 175q-73 71 -176 71t-174 -71q-72 -72 -72 -175t72 -173q71 -73 174 -73z" />
    <glyph glyph-name="seven" unicode="7" horiz-adv-x="976" 
d="M330 4q-18 -5 -32 -5q-26 0 -48 13q-36 19 -44 63q-2 18 -2 20q0 30 14 60l446 952h-506q-44 0 -75 29t-31 71q0 45 31 74q35 30 75 30h668q33 0 60.5 -20.5t39.5 -52.5q4 -13 5 -29v-4q0 -1 -2 -19q-3 -13 -11 -29v-1l-526 -1103q-20 -38 -62 -49z" />
    <glyph glyph-name="eight" unicode="8" horiz-adv-x="934" 
d="M467 -12q-175 0 -299 124t-124 300q0 102 49 190t136 148q-103 90 -103 223q0 143 100 241q97 97 238 97q139 0 238 -97q101 -99 101 -241q0 -131 -105 -220q87 -57 140 -145q53 -91 53 -196q0 -176 -124 -300q-126 -124 -300 -124zM465 845q58 0 100 42t42 100t-42 100
q-43 43 -100 43q-63 0 -101 -41q-42 -45 -42 -102q0 -58 42 -100t101 -42zM467 191q90 0 155 65q64 64 64 156q0 90 -64 154q-65 65 -155 65t-155 -65q-64 -64 -64 -154q0 -92 64 -156q65 -65 155 -65z" />
    <glyph glyph-name="nine" unicode="9" horiz-adv-x="1006" 
d="M501 -5q-16 -4 -28 -4q-27 0 -52 13q-51 29 -51 86q0 28 17 57l156 288q-34 -2 -39 -2q-183 0 -313 130q-129 129 -129 314q0 183 129 312t313 129q183 0 312 -129q130 -128 130 -312q0 -122 -64 -231l-2 -4l-317 -597q-23 -39 -62 -50zM507 633q101 0 174 73
q72 72 72 174q0 99 -72 173q-73 71 -174 71q-104 0 -175 -71q-72 -72 -72 -173q0 -102 72 -174q71 -73 175 -73z" />
    <glyph glyph-name="colon" unicode=":" horiz-adv-x="479" 
d="M223 718q-49 0 -86 37t-37 86q0 51 37 88q36 36 86 36q51 0 87 -36t36 -88q0 -50 -36 -86q-37 -37 -87 -37zM223 -11q-49 0 -86 37t-37 86q0 50 37 87q35 35 86 35q52 0 87 -35q36 -36 36 -87q0 -50 -36 -86q-37 -37 -87 -37z" />
    <glyph glyph-name="semicolon" unicode=";" horiz-adv-x="479" 
d="M223 718q-49 0 -86 37t-37 86q0 51 37 88q36 36 86 36q51 0 87 -36t36 -88q0 -50 -36 -86q-37 -37 -87 -37zM204 -259q-44 0 -74 30t-30 75v286q0 42 31 76q29 31 73 31t72 -30.5t28 -76.5v-286q0 -46 -27.5 -75.5t-72.5 -29.5z" />
    <glyph glyph-name="less" unicode="&#x3c;" horiz-adv-x="766" 
d="M649 276q-15 -4 -24 -4q-21 0 -38 11l-496 268l-4 3q-43 23 -43 72q0 16 4 27q9 30 39 47l499 261q20 11 40 11q46 0 71 -44q12 -22 12 -42q0 -48 -42 -71l-364 -190l361 -196q31 -14 41 -48q3 -11 3 -24q0 -21 -11 -41q-18 -30 -48 -40z" />
    <glyph glyph-name="equal" unicode="=" horiz-adv-x="880" 
d="M713 643h-538q-43 0 -72 31q-30 33 -30 75q0 43 29.5 71.5t72.5 28.5h538q44 0 74 -30t30 -73q0 -37 -30 -72q-28 -31 -74 -31zM713 216h-538q-43 0 -72 31q-30 33 -30 75q0 43 29.5 71.5t72.5 28.5h538q44 0 74 -30t30 -73q0 -37 -30 -72q-28 -31 -74 -31z" />
    <glyph glyph-name="greater" unicode="&#x3e;" horiz-adv-x="792" 
d="M95 276q-32 10 -49 40q-10 16 -10 39q0 11 4 26q10 34 40 48l359 196l-362 190q-42 23 -42 71q0 22 11 42q25 44 72 44q20 0 40 -11l498 -261q44 -26 44 -72q0 -16 -7 -33q-12 -27 -37 -41l-5 -3l-494 -268q-17 -11 -38 -11q-9 0 -24 4z" />
    <glyph glyph-name="question" unicode="?" horiz-adv-x="929" 
d="M369 323q-43 0 -73.5 30.5t-30.5 73.5v181q0 45 31 74q35 30 73 30h108q86 0 146 57q61 59 61 140q0 87 -57 146q-58 61 -150 61q-84 0 -144 -58q-63 -60 -63 -149q0 -44 -28 -74.5t-70 -30.5q-47 0 -75 32q-30 30 -30 73v6q2 170 122 287q120 118 287 118
q168 0 291 -120q121 -124 121 -291q0 -166 -123 -284q-58 -55 -134 -86t-158 -31h-4v-81q0 -44 -28.5 -74t-71.5 -30zM368 -11q-46 0 -77 33q-33 33 -33 76q0 46 33 79q31 33 77 33q44 0 77 -33t33 -79q0 -43 -33 -76t-77 -33z" />
    <glyph glyph-name="at" unicode="@" horiz-adv-x="1519" 
d="M756 -101q-192 0 -361 97q-162 94 -255 256q-96 162 -96 358t96 361q94 161 255 255q167 97 361 97q188 0 361 -96q164 -94 259 -249q100 -162 100 -342q0 -77 -13 -157q-12 -71 -33 -124l-4 -6q-29 -63 -98 -98q-63 -33 -130 -33t-124 42q-56 39 -76 97
q-104 -117 -236 -117q-155 0 -260 108q-109 109 -109 260q0 152 109 261q105 108 260 108q146 0 249 -103q100 -100 106 -250l2 -16v-104q0 -40 21 -66t54 -26q25 0 45 16.5t27 44.5q0 2 2 0q12 60 12 140q0 102 -39.5 195t-110.5 164q-72 72 -168.5 111t-205.5 39
q-104 0 -198 -39t-165 -110q-72 -72 -111 -165.5t-39 -197.5t39 -197.5t111 -164.5t166 -110.5t197 -39.5q75 0 166 27l9 3q11 4 27 4q27 0 50 -13q33 -17 47 -61q3 -14 3 -27q0 -65 -57 -89h-1l-4 -2l-10 -3l-11 -5q-90 -33 -219 -33zM756 437q71 0 121 50q49 50 49 121
q0 74 -49 123t-121 49q-71 0 -121 -49q-50 -50 -50 -123q0 -71 50 -121t121 -50z" />
    <glyph glyph-name="A" unicode="A" horiz-adv-x="1205" 
d="M1049 6q-40 14 -59 54l-128 305h-519l-126 -304q-16 -41 -56 -54q-18 -7 -37 -7q-23 0 -44 9q-57 25 -57 87q0 27 10 47l480 1105q27 63 93 63q67 0 92 -62l476 -1106q10 -20 10 -47q0 -62 -57 -87q-19 -9 -43 -9q-18 0 -35 6zM428 568h348l-175 417z" />
    <glyph glyph-name="B" unicode="B" 
d="M608 0h-374q-43 0 -72 28.5t-29 71.5v1110q0 43 29 72t72 29h361q147 0 254 -105q104 -106 104 -255q0 -150 -108 -255q75 -56 117 -136t42 -175q0 -163 -115 -273q-115 -112 -281 -112zM337 773h252q65 1 113 56q47 52 47 116t-50 114q-48 48 -115 48h-247v-334z
M337 204h264q81 0 140 59t59 136q0 82 -59 136q-60 54 -141 54h-263v-385z" />
    <glyph glyph-name="C" unicode="C" horiz-adv-x="1255" 
d="M705 -12q-178 0 -333 91q-150 88 -238 238q-90 155 -90 335q0 175 87 329q86 153 234 244q154 95 344 95q133 0 255 -50.5t217 -147.5q29 -29 29 -69q0 -44 -28 -72q-35 -30 -73 -30q-44 0 -72 28q-135 135 -329 135q-188 0 -324 -133q-135 -135 -135 -327
q0 -188 130 -323q132 -138 326 -140q190 0 330 135q30 27 72 27t71 -26q29 -29 29 -72q0 -42 -27 -72q-198 -195 -475 -195z" />
    <glyph glyph-name="D" unicode="D" horiz-adv-x="1182" 
d="M460 0h-226q-43 0 -72 28.5t-29 71.5v1110q0 43 29 72t72 29h226q184 0 337 -88q152 -87 239 -236q91 -156 91 -334q0 -176 -91 -332q-86 -145 -239 -233t-337 -88zM337 205h124q193 0 327 128q135 130 135 320q0 187 -133 320q-132 130 -324 132h-129v-900z" />
    <glyph glyph-name="E" unicode="E" horiz-adv-x="933" 
d="M782 0h-555q-41 3 -67.5 31t-26.5 70v1107q0 43 30 73t73 30h546q42 0 72 -30q29 -29 29 -73q0 -43 -29 -72t-72 -29h-445v-354h321q44 1 73 -28t29 -73q0 -42 -29.5 -70t-72.5 -28h-321v-351h445q43 0 72 -30t29 -73q0 -42 -29 -71q-30 -30 -72 -29z" />
    <glyph glyph-name="F" unicode="F" horiz-adv-x="898" 
d="M234 0q-41 0 -71 30t-30 70v1112q0 37 24 66q27 33 77 33h543q42 0 72 -30q29 -29 29 -73q0 -43 -29 -72t-72 -29h-440v-350h302q43 0 72 -29.5t29 -72.5q0 -42 -29 -69.5t-72 -27.5h-302v-458q0 -43 -30 -71q-31 -29 -73 -29z" />
    <glyph glyph-name="G" unicode="G" horiz-adv-x="1382" 
d="M708 -12q-135 0 -256.5 50.5t-213.5 143.5q-92 92 -143 214t-51 256q0 133 49.5 254.5t140.5 215.5q93 94 215 146t256 52q276 0 476 -198q30 -30 30 -71t-29 -70q-35 -30 -72 -30q-44 -1 -73 28q-137 135 -330 135q-91 0 -174.5 -34.5t-147.5 -97.5q-136 -136 -136 -329
t134 -327q63 -64 147.5 -99.5t178.5 -35.5q146 0 247 65.5t138 185.5h-216q-43 0 -72 29.5t-29 72.5t29 72.5t72 29.5l335 -2q44 -1 74.5 -29.5t30.5 -71.5q-6 -117 -55 -219.5t-133 -177.5q-175 -158 -422 -158z" />
    <glyph glyph-name="H" unicode="H" horiz-adv-x="1232" 
d="M234 0q-43 0 -72 28.5t-29 71.5v1110q0 43 29 72t72 29t73 -29t30 -72v-455h559v455q0 43 30 72t73 29t72 -29t29 -72v-1110q0 -42 -30 -71t-73 -29t-72 28.5t-29 71.5v451h-559v-451q0 -42 -30 -71t-73 -29z" />
    <glyph glyph-name="I" unicode="I" horiz-adv-x="470" 
d="M234 0q-43 0 -72 28.5t-29 71.5v1110q0 43 29 72t72 29t73 -29t30 -72v-1110q0 -42 -30 -71t-73 -29z" />
    <glyph glyph-name="J" unicode="J" horiz-adv-x="471" 
d="M-103 -361q-69 0 -95 52q-13 23 -13 50q0 22 11 46q25 50 92 55q102 2 173 74q68 70 68 170v1119q0 40 30 75q29 31 71 31q44 0 74 -31t30 -75l-1 -1126q0 -183 -128 -311q-129 -129 -312 -129z" />
    <glyph glyph-name="K" unicode="K" horiz-adv-x="1126" 
d="M234 0q-43 0 -72 28.5t-29 71.5v1110q0 43 29 72t72 29t73 -29t30 -72v-449l555 521q29 29 73 29q38 -1 71 -34q29 -29 29 -72q0 -39 -32 -71l-385 -361l409 -614q18 -27 18 -59q0 -53 -46 -83q-25 -17 -55 -17q-3 0 -21 2q-41 6 -64 43l-393 587l-159 -150v-382
q0 -42 -30 -71t-73 -29z" />
    <glyph glyph-name="L" unicode="L" horiz-adv-x="878" 
d="M222 0l-8 2q-36 7 -58.5 34t-22.5 64v1109q0 43 30 73q29 29 71 29q44 0 73 -29q30 -30 30 -73v-1006l425 -1q43 0 72 -29.5t29 -72.5t-28 -71q-30 -30 -73 -29h-540z" />
    <glyph glyph-name="M" unicode="M" horiz-adv-x="1451" 
d="M727 0q-66 0 -90 61l-311 762l-102 -735q-5 -39 -32.5 -62.5t-65.5 -23.5q-45 0 -74.5 29t-29.5 72q0 12 1 15l152 1097q5 34 29 58q31 35 75 35q12 0 39 -9q40 -15 56 -54l359 -878l358 878q13 29 37.5 45.5t54.5 16.5q20 0 39 -8l11 -6q50 -22 56 -78l143 -1100
q1 -3 1 -14q0 -42 -30.5 -71t-74.5 -29q-38 0 -66.5 25t-32.5 63l-94 729l-310 -757q-12 -28 -39 -44.5t-59 -16.5z" />
    <glyph glyph-name="N" unicode="N" horiz-adv-x="1232" 
d="M234 0q-43 0 -72 28.5t-29 71.5v1107q0 43 29 72t72 29h2q8 0 16 -2l14 -3q17 -6 30 -16l11 -9q12 -11 19 -25l608 -850v807q0 43 30 72t73 29q46 0 72 -29q29 -31 29 -72v-1110q0 -34 -20 -60.5t-52 -35.5q-14 -4 -18 -4h-12q-35 0 -63 22q-17 13 -19 17l-617 864v-803
q0 -42 -30 -71t-73 -29z" />
    <glyph glyph-name="O" unicode="O" horiz-adv-x="1419" 
d="M708 -12q-135 0 -256.5 51t-213.5 144q-93 93 -143.5 214.5t-50.5 255.5q0 183 90 337q88 152 238 239q158 91 336 91q181 0 336 -91q153 -89 240 -239q91 -159 91 -337q0 -134 -51 -255.5t-144 -214.5t-215 -144t-257 -51zM709 191q192 0 327 135q134 134 134 327
q0 93 -35 177.5t-99 148.5q-135 135 -327 135q-94 0 -178.5 -35.5t-147.5 -99.5q-64 -64 -99 -148.5t-35 -177.5q0 -193 134 -327q63 -64 147.5 -99.5t178.5 -35.5z" />
    <glyph glyph-name="P" unicode="P" horiz-adv-x="1026" 
d="M234 0q-43 0 -72 28.5t-29 71.5v1110q0 43 29 72t72 29h344q162 0 280 -113q115 -112 115 -275q0 -164 -115 -274q-114 -111 -280 -111h-241v-438q0 -42 -30 -71t-73 -29zM337 741h242q78 0 135 57q55 52 55 130t-56 129q-57 52 -135 52h-241v-368z" />
    <glyph glyph-name="Q" unicode="Q" horiz-adv-x="1419" 
d="M1117 -185h-4q-95 2 -165 53q-73 52 -99 134q-75 -14 -141 -14q-135 0 -256.5 51t-213.5 144q-93 93 -143.5 214.5t-50.5 255.5q0 183 90 337q88 152 238 239q158 91 336 91q181 0 336 -91q153 -89 240 -239q91 -159 91 -337q0 -184 -95 -342q-92 -153 -249 -240
q2 -34 27 -57.5t59 -23.5q36 0 61.5 -25t25.5 -62t-25.5 -62.5t-61.5 -25.5zM460 263q26 86 100 138q76 53 168 53q90 0 160 -47q71 -47 101 -122q86 66 133.5 161t47.5 207q0 93 -35 177.5t-99 148.5q-135 135 -327 135q-94 0 -178.5 -35.5t-147.5 -99.5
q-64 -64 -99 -148.5t-35 -177.5q0 -123 57 -226q56 -102 154 -164zM709 191q39 0 104 12q-4 33 -28 54.5t-57 21.5q-36 0 -60.5 -24t-25.5 -58q48 -6 67 -6z" />
    <glyph glyph-name="R" unicode="R" horiz-adv-x="1059" 
d="M234 0q-43 0 -72 28.5t-29 71.5v1110q0 43 29 72t72 29h344q162 0 280 -113q115 -112 115 -275q0 -128 -73 -226q-72 -97 -186 -137l242 -409q15 -25 15 -49q0 -12 -5 -29q-14 -43 -51 -61q-23 -12 -48 -12q-16 0 -27 4q-42 12 -61 47l-285 487h-157v-438q0 -42 -30 -71
t-73 -29zM337 741h242q78 0 135 57q55 52 55 130t-56 129q-57 52 -135 52h-241v-368z" />
    <glyph glyph-name="S" unicode="S" horiz-adv-x="1027" 
d="M515 -13q-150 0 -275 74q-120 69 -170 179q-14 28 -14 54q0 15 5 33q10 31 49 53q23 13 45 13q45 0 94 -61q89 -142 274 -142q100 0 168 50q78 54 78 139q0 83 -79 129q-47 26 -138 48l-27 7q-201 38 -311 124q-127 100 -127 255q0 162 132 273q127 105 298 105
q123 0 228 -48q108 -52 163 -144q12 -21 12 -38q0 -4 -2 -20q-8 -28 -28 -48q-25 -25 -67 -25q-36 0 -60 19q-65 57 -108 76q-57 24 -135 24q-97 0 -160 -46q-68 -46 -68 -126t89 -125q53 -27 208 -60q174 -46 264 -118q119 -95 119 -251q0 -170 -132 -288
q-134 -115 -325 -115z" />
    <glyph glyph-name="T" unicode="T" horiz-adv-x="995" 
d="M488 0q-42 0 -69.5 28.5t-27.5 71.5v1008h-272q-43 0 -72 29t-29 72t29 72.5t72 29.5h745q43 0 72.5 -30t29.5 -73q0 -45 -29 -71q-31 -29 -73 -29h-273v-1008q0 -42 -30 -71t-73 -29z" />
    <glyph glyph-name="U" unicode="U" horiz-adv-x="1161" 
d="M585 -11q-212 0 -352 140q-67 66 -103.5 153.5t-36.5 184.5v740q0 43 30 73t72 30t72 -30t30 -73v-735q0 -115 81 -199q84 -84 206 -84q121 0 199 84q75 81 75 199v738q0 44 30 72q31 29 71 29q43 0 73 -29t30 -72v-743q0 -204 -132 -338q-135 -140 -345 -140z" />
    <glyph glyph-name="V" unicode="V" horiz-adv-x="1198" 
d="M601 0h-9q-64 5 -87 62l-474 1106q-9 20 -9 40q0 44 29 71q13 13 35 21q25 9 40 9q30 0 55 -17t38 -46l382 -890l381 890q16 40 54 54q16 8 38 8q44 0 73 -29t29 -71q0 -15 -9 -40l-474 -1106q-24 -60 -92 -62z" />
    <glyph glyph-name="W" unicode="W" horiz-adv-x="1765" 
d="M599 0q-31 0 -56 16.5t-37 45.5l-476 1106q-8 22 -8 40q0 42 29 71q30 30 75 30q39 0 70 -29q14 -14 23 -34l382 -890l169 390l-181 422q-8 22 -8 40q0 42 29 71q30 30 75 30q39 0 70 -29q14 -14 23 -34l104 -241l104 241q12 30 37 46.5t56 16.5q24 0 39 -7
q42 -16 57 -55q7 -15 7 -39q0 -18 -8 -40l-182 -420l168 -392l385 890q17 41 56 56q14 7 37 7q43 0 73 -30t30 -71q0 -20 -9 -40l-476 -1106q-12 -29 -39 -45.5t-59 -16.5q-65 0 -94 62l-183 425l-183 -425q-12 -29 -38.5 -45.5t-60.5 -16.5z" />
    <glyph glyph-name="X" unicode="X" horiz-adv-x="1220" 
d="M1095 0q-42 0 -75 34l-411 465l-407 -465q-30 -34 -76 -34q-39 0 -68 26q-34 29 -34 76q0 39 25 67l425 483l-426 485q-24 25 -24 65q0 48 33 80q29 26 67 26q44 0 77 -36l408 -465l409 465q30 35 77 35q39 0 65 -26q35 -32 35 -79q0 -40 -26 -66l-424 -484l426 -483
q27 -29 27 -70q0 -47 -34 -73q-29 -26 -69 -26z" />
    <glyph glyph-name="Y" unicode="Y" horiz-adv-x="1100" 
d="M548 0q-43 0 -72.5 28.5t-29.5 71.5v444l-400 593q-24 29 -24 66q0 47 35 79q31 26 71 26q44 0 73 -36l347 -527l345 529q27 35 76 35q34 0 64 -25q38 -32 38 -78q0 -36 -25 -68l-396 -593v-445q0 -43 -29.5 -71.5t-72.5 -28.5z" />
    <glyph glyph-name="Z" unicode="Z" horiz-adv-x="1221" 
d="M156 0l-12 -1q-34 0 -64 27q-35 30 -35 78q0 39 24 65l778 938h-685q-43 0 -72.5 29t-29.5 72q0 44 31 73q35 30 74 30h897q30 -1 55 -19l13 -9q35 -32 35 -76q0 -38 -25 -67l-778 -936h715q43 0 72 -30t29 -73t-29 -72t-72 -29h-921z" />
    <glyph glyph-name="bracketleft" unicode="[" horiz-adv-x="605" 
d="M480 -331h-243q-43 0 -73.5 31t-30.5 75v1430q0 44 30.5 75t73.5 31h242q44 0 74 -32q30 -35 30 -75q0 -42 -30 -69.5t-74 -27.5h-142v-1234h143q44 0 74 -28t30 -70q0 -44 -30.5 -75t-73.5 -31z" />
    <glyph glyph-name="backslash" unicode="\" horiz-adv-x="604" 
d="M467 5q-12 -4 -30 -4q-33 0 -60 19.5t-39 52.5l-354 1089q-6 22 -6 34q0 22 12 51q19 47 58 57q20 5 34 5q34 0 60.5 -19t37.5 -53l355 -1101q4 -12 4 -31q0 -22 -12 -48q-19 -38 -60 -52z" />
    <glyph glyph-name="bracketright" unicode="]" horiz-adv-x="605" 
d="M326 -331h-244q-44 0 -73 31q-31 34 -31 74q0 42 30 70.5t74 28.5h143v1234h-142q-44 0 -73.5 27.5t-29.5 69.5t30 75q28 32 73 32h243q43 0 73 -31t30 -75v-1433q-2 -43 -31 -72q-31 -31 -72 -31z" />
    <glyph glyph-name="asciicircum" unicode="^" horiz-adv-x="1177" 
d="M129 476q-25 0 -49 16q-35 23 -35 69q0 26 16 45l442 630q24 36 67 36q14 0 31 -5q23 -8 39 -30l439 -628q17 -23 17 -50q0 -41 -34 -66q-22 -16 -48 -16q-45 0 -69 35l-373 532l-375 -532q-22 -36 -68 -36z" />
    <glyph glyph-name="underscore" unicode="_" horiz-adv-x="1078" 
d="M899 -207h-727q-47 0 -78 29.5t-31 74.5q0 44 31 72t78 28h727q49 0 80.5 -27.5t31.5 -72.5t-32.5 -74.5t-79.5 -29.5z" />
    <glyph glyph-name="grave" unicode="`" horiz-adv-x="509" 
d="M232 1499l-138 139q-31 31 -31 72q0 42 31 73q34 29 74 29q43 0 73 -30l136 -137q31 -31 31 -74q0 -41 -31 -72t-72 -31q-42 0 -73 31z" />
    <glyph glyph-name="a" unicode="a" horiz-adv-x="1121" 
d="M532 -12q-98 0 -187.5 37.5t-157.5 105.5q-143 143 -143 345t143 345q68 68 157.5 106t187.5 38q202 0 344 -142t144 -343v-376q0 -38 -30 -73q-28 -31 -75 -31q-39 0 -67 26.5t-32 66.5q-129 -105 -284 -105zM532 193q119 0 202 83q82 82 82 200q0 119 -82 201t-202 82
q-117 0 -199 -82q-84 -84 -84 -201q0 -116 84 -200q83 -83 199 -83z" />
    <glyph glyph-name="b" unicode="b" horiz-adv-x="1124" 
d="M593 -11q-158 0 -287 93q-6 -36 -34 -59t-66 -23q-43 0 -72.5 28.5t-29.5 71.5v1110q0 43 29.5 72t72.5 29t72.5 -29t29.5 -72v-338q133 93 285 93q98 0 187.5 -37.5t157.5 -105.5t105 -157.5t37 -188.5q0 -202 -142 -344q-68 -68 -157.5 -105.5t-187.5 -37.5zM593 194
q120 0 202 82t82 200q0 119 -82 201t-202 82q-119 0 -201 -82q-84 -84 -84 -201q0 -116 84 -200q82 -82 201 -82z" />
    <glyph glyph-name="c" unicode="c" horiz-adv-x="952" 
d="M538 -11q-100 0 -190.5 36.5t-158.5 103.5q-69 66 -107 155.5t-38 187.5v1q0 1 1 1v1q-1 0 -1 1q0 202 145 347q68 68 159 106t190 38q98 0 184.5 -34t147.5 -97q37 -37 38 -81q0 -47 -32 -75q-36 -30 -69 -30q-37 0 -93 44q-82 66 -189 66q-113 0 -195 -89
q-77 -83 -77 -193l-1 -2l1 -1q0 -108 76 -190q79 -88 190 -89q114 -5 195 65q55 43 91 43q35 0 71 -30q32 -28 32 -73q-1 -44 -38 -81q-61 -63 -147.5 -97t-184.5 -34z" />
    <glyph glyph-name="d" unicode="d" horiz-adv-x="1123" 
d="M532 -11q-200 0 -345 143q-143 143 -143 344q0 203 143 346q145 143 345 143q152 0 284 -92v337q0 43 29.5 72t72.5 29t72.5 -29t29.5 -72v-1110q0 -43 -29.5 -71.5t-72.5 -28.5q-38 0 -66 23t-35 59q-129 -93 -285 -93zM532 194q120 0 198 78q81 78 86 192v23
q-5 116 -86 194q-80 78 -198 78q-117 0 -199 -82q-84 -84 -84 -201q0 -116 84 -200q82 -82 199 -82z" />
    <glyph glyph-name="e" unicode="e" horiz-adv-x="1069" 
d="M535 -11q-203 0 -347 142q-69 68 -106.5 157.5t-37.5 187.5t37.5 188t106.5 158t159 105.5t188 37.5q97 0 186 -37t158 -105q144 -141 146 -342q0 -43 -28 -70t-72 -27h-655q24 -85 98 -143q71 -57 167 -57q116 0 183 73q34 26 67 26q15 0 34 -7q30 -11 49 -43
q18 -28 18 -57q0 -44 -39 -77q-57 -52 -121 -77q-81 -33 -191 -33zM264 554h551q-23 97 -97 155q-76 61 -180 61q-105 0 -179 -61q-75 -63 -95 -155z" />
    <glyph glyph-name="f" unicode="f" horiz-adv-x="618" 
d="M389 963h94q44 0 74 -29t30 -72t-30 -73t-74 -30h-94v-655q0 -42 -30 -72q-31 -31 -71 -31q-41 0 -72 31t-31 72v655h-67q-43 0 -72 31q-30 35 -30 72q0 43 29.5 72t72.5 29h67v53v4q1 137 95 229q89 86 231 86q45 0 74 -26.5t29 -69.5q0 -42 -29 -71t-74 -29
q-53 0 -87 -36q-35 -36 -35 -87v-53z" />
    <glyph glyph-name="g" unicode="g" horiz-adv-x="1122" 
d="M530 -391q-98 0 -184.5 34t-147.5 97q-37 37 -37 82q-2 45 32 73q36 30 70 30q38 0 91 -44q84 -70 195 -65q103 2 182 80q72 72 83 181q-127 -89 -282 -89q-98 0 -187.5 37.5t-157.5 105.5q-143 143 -143 345t143 345q68 68 157.5 106t187.5 38q151 0 283 -92
q4 39 33.5 65.5t69.5 26.5q43 0 72 -29t29 -72v-358q0 -11 1 -14v-16v-15q-1 -3 -1 -16v-350q-5 -210 -145 -347q-139 -139 -344 -139zM532 193q112 0 194 76q78 75 89 184v47q-11 112 -89 184q-82 75 -194 75q-117 0 -199 -82q-84 -84 -84 -201q0 -116 84 -200
q83 -83 199 -83z" />
    <glyph glyph-name="h" unicode="h" horiz-adv-x="1061" 
d="M865 -2q-43 0 -72 28.5t-29 71.5v389q0 123 -57 200q-59 75 -162 75q-101 0 -168 -73q-66 -71 -71 -181v-407q0 -43 -29 -72t-72 -29t-73 30t-30 71v1106q0 43 31 74q30 30 72 30q43 0 73 -30q28 -28 28 -74v-358q121 116 261 116q178 0 289 -135q111 -133 111 -338v-394
q0 -43 -29.5 -71.5t-72.5 -28.5z" />
    <glyph glyph-name="i" unicode="i" horiz-adv-x="407" 
d="M204 1073q-47 0 -80 33q-34 34 -34 80q0 47 34 81q32 32 80 32t80 -32q33 -33 33 -81q0 -47 -33 -80t-80 -33zM205 0q-42 0 -72 30q-31 31 -31 71v762q0 44 31 73q35 30 73 30q44 0 72 -30q28 -29 28 -73v-762q0 -43 -29 -72t-72 -29z" />
    <glyph glyph-name="j" unicode="j" horiz-adv-x="410" 
d="M204 1073q-47 0 -80 33q-34 34 -34 80q0 47 34 81q32 32 80 32t80 -32q33 -33 33 -81q0 -47 -33 -80t-80 -33zM-18 -296h-6q-41 0 -71 30q-31 31 -31 72q0 43 31 74q30 30 71 30h6q49 0 85 35q36 30 36 83v832q0 43 31 74q30 30 72 30q43 0 72 -30t29 -74v-828
q0 -12 -1 -14q-6 -132 -99 -223q-96 -91 -225 -91z" />
    <glyph glyph-name="k" unicode="k" horiz-adv-x="931" 
d="M206 0q-43 0 -73.5 29t-30.5 71v1110q0 43 31 72t73 29q43 0 71.5 -29t28.5 -72v-647l372 364q28 27 66 27q45 0 73 -31v-2q29 -29 29 -71q0 -40 -30 -70l-232 -221l261 -400q16 -25 16 -56q0 -57 -46 -86q-25 -17 -55 -17q-55 0 -84 46l-244 371l-127 -121v-196
q0 -41 -29 -70q-30 -30 -70 -30z" />
    <glyph glyph-name="l" unicode="l" horiz-adv-x="409" 
d="M205 0q-43 0 -73 29t-30 71v1110q0 43 30 72t73 29t72 -29t29 -72v-1110q0 -43 -29 -71.5t-72 -28.5z" />
    <glyph glyph-name="m" unicode="m" horiz-adv-x="1491" 
d="M205 0q-42 0 -72 30q-31 31 -31 71v762q0 44 31 73q35 30 73 30q37 0 64.5 -24t33.5 -61q93 85 202 85q163 0 260 -120q59 56 136.5 88t156.5 32q155 0 250 -109q94 -108 94 -263v-494q0 -43 -29 -71.5t-71 -28.5q-38 0 -73 30q-31 29 -31 70v497q-2 73 -44 118
q-46 46 -114 46t-126 -47q-56 -45 -61 -113v-501q0 -43 -29 -71.5t-71 -28.5q-38 0 -73 30q-31 29 -31 70v501q-2 70 -45 115q-44 45 -111 45q-69 0 -126 -46q-60 -49 -62 -113v-6q-1 -1 0 -4q2 -3 0 -8v-483q0 -43 -29 -72t-72 -29z" />
    <glyph glyph-name="n" unicode="n" horiz-adv-x="1059" 
d="M865 -2q-43 0 -72 28.5t-29 71.5v394q-2 125 -58 196q-60 74 -161 74q-106 0 -171 -76q-68 -79 -68 -189v-396q0 -43 -29 -72t-72 -29q-42 0 -72 30q-31 31 -31 71v762q0 44 31 73q35 30 73 30q44 0 72 -30q28 -29 28 -73v-14q121 116 261 116q178 0 289 -135
q111 -133 111 -338v-394q0 -43 -29.5 -71.5t-72.5 -28.5z" />
    <glyph glyph-name="o" unicode="o" 
d="M532 -12q-98 0 -187.5 37.5t-157.5 105.5q-143 143 -143 345t143 345q68 68 157.5 106t187.5 38t188 -38t158 -106q142 -144 142 -345t-142 -345q-68 -68 -158 -105.5t-188 -37.5zM532 193q119 0 202 83q82 82 82 200q0 119 -82 201t-202 82q-117 0 -199 -82
q-84 -84 -84 -201q0 -116 84 -200q83 -83 199 -83z" />
    <glyph glyph-name="p" unicode="p" horiz-adv-x="1122" 
d="M204 -346q-43 0 -72.5 28.5t-29.5 71.5v1110q0 43 29.5 72t72.5 29q37 0 69 -27q29 -25 33 -66q133 93 285 93q98 0 187.5 -38t157.5 -106q142 -144 142 -345t-142 -345q-68 -68 -157.5 -105.5t-187.5 -37.5q-159 0 -285 92v-326q0 -43 -29.5 -71.5t-72.5 -28.5zM591 193
q119 0 202 83q81 81 81 200q0 120 -81 201q-82 82 -202 82q-118 0 -200 -82q-84 -84 -84 -201q0 -116 84 -200q83 -83 200 -83z" />
    <glyph glyph-name="q" unicode="q" horiz-adv-x="1120" 
d="M915 -347q-51 0 -79 41q-21 27 -21 60v324q-127 -90 -283 -90q-98 0 -187.5 37.5t-157.5 105.5q-143 143 -143 345t143 345q68 68 157.5 106t187.5 38q151 0 283 -92q4 39 33.5 65.5t69.5 26.5q43 0 72 -29t29 -72v-358q0 -8 1 -10v-12v-725q0 -18 -4 -29
q-11 -47 -57 -67q-20 -10 -44 -10zM532 193q112 0 194 76q78 75 89 184v47q-11 112 -89 184q-82 75 -194 75q-117 0 -199 -82q-84 -84 -84 -201q0 -116 84 -200q83 -83 199 -83z" />
    <glyph glyph-name="r" unicode="r" horiz-adv-x="743" 
d="M206 0q-42 0 -72 30q-31 31 -31 71v762q0 42 31 73q30 30 73 30q44 0 72 -30q28 -29 28 -73q139 102 305 102h4q49 0 77.5 -28t28.5 -74q0 -42 -31 -71.5t-75 -29.5h-4q-127 0 -215 -90q-90 -90 -90 -219v-352q0 -43 -29 -72t-72 -29z" />
    <glyph glyph-name="s" unicode="s" horiz-adv-x="799" 
d="M404 -11q-110 0 -198 41q-105 46 -152 132q-15 27 -15 56q0 27 12 45q25 45 82 45q53 0 91 -48q34 -50 75 -71t104 -21q56 0 103 28q45 26 45 74q0 32 -16 51q-28 37 -95 57l-55 17q-153 54 -222 106q-101 72 -101 184q0 126 104 206q97 76 233 76q94 0 174 -34
q90 -39 124 -104q12 -24 12 -45q0 -30 -23 -55q-28 -31 -66 -31q-18 0 -34 8l-41 30q-35 24 -39 26q-44 25 -92 25q-67 0 -107 -25t-40 -71q0 -44 50 -76q43 -25 124 -49q153 -48 215 -97q93 -73 93 -190q0 -121 -99 -206q-98 -84 -246 -84z" />
    <glyph glyph-name="t" unicode="t" horiz-adv-x="601" 
d="M294 0q-43 0 -73 29t-30 71v659h-73q-43 0 -72 31q-31 34 -31 72q0 43 30 72t73 29h73v247q0 43 30 72t73 29t72 -29t29 -72v-247h88q44 0 73.5 -29t29.5 -72q0 -44 -30 -73.5t-73 -29.5h-88v-659q0 -43 -29 -71.5t-72 -28.5z" />
    <glyph glyph-name="u" unicode="u" horiz-adv-x="1058" 
d="M853 -2q-42 0 -70.5 29.5t-28.5 72.5v15q-121 -116 -262 -116q-178 0 -289 135q-111 134 -111 340v391q0 43 30 72t73 29t72 -29t29 -72v-393q0 -124 59 -196q59 -74 160 -74q103 0 171 76t68 189v395q0 43 29 72.5t72 29.5q44 0 73 -29t29 -73v-762q0 -42 -30 -71
q-34 -31 -74 -31z" />
    <glyph glyph-name="v" unicode="v" horiz-adv-x="939" 
d="M479 0h-13q-42 0 -70 32q-12 12 -20 29l-344 759q-9 20 -9 43q0 19 6 36q13 37 54 57q22 10 40 10q42 0 71 -29q14 -14 23 -34l253 -572l251 572q20 41 57 54q16 8 38 8q40 0 73 -33q29 -29 29 -73q-1 -16 -11 -40l-343 -758q-19 -37 -52 -52l-5 -2q-1 0 -1 -1l-9 -3h-1
q-8 -3 -17 -3z" />
    <glyph glyph-name="w" unicode="w" horiz-adv-x="1355" 
d="M479 0h-15q-36 1 -67 32q-11 11 -19 29l-345 759q-9 20 -9 40q0 43 27 73q31 33 73 33t71 -29q14 -14 23 -34l253 -571l98 223l-119 265q-10 22 -10 43q0 19 6 36q11 37 54 57q22 10 40 10q41 0 70 -29q15 -15 24 -34l44 -101l45 101q16 40 56 54q16 8 38 8q43 0 74 -33
q28 -31 28 -73q-1 -16 -11 -40l-120 -265l99 -222l252 571q13 29 37.5 45.5t54.5 16.5q20 0 42 -10q41 -20 54 -57q7 -15 7 -39q0 -21 -9 -40l-344 -758q-14 -27 -33 -41q-24 -18 -53 -20h-11q-43 0 -69 31q-1 0 -1 1h-1q-14 15 -19 29l-115 252l-114 -252q-6 -14 -19 -28
q-4 -5 -11 -10.5t-13.5 -9.5t-7.5 -4q-16 -7 -35 -9z" />
    <glyph glyph-name="x" unicode="x" horiz-adv-x="1019" 
d="M133 0q-46 0 -75 29q-29 28 -28 70q0 38 29 72l308 309l-312 315q-28 28 -28 71q0 42 30 72t72 30q41 0 72 -31l309 -312l307 310q30 32 73 33q42 0 72 -30t30 -72q0 -44 -27 -72l-312 -314l304 -306q30 -30 31 -72q0 -42 -30 -72t-72 -30q-41 0 -71 30l-304 306
l-304 -306q-30 -30 -74 -30z" />
    <glyph glyph-name="y" unicode="y" horiz-adv-x="939" 
d="M301 -360q-21 0 -40 9q-53 24 -53 82q0 27 12 52l139 313l-327 724q-9 20 -9 43q0 19 6 36q13 37 54 57q22 10 40 10q42 0 71 -29q14 -14 23 -34l250 -566l254 566q20 41 57 54q16 8 38 8q40 0 73 -33q29 -29 29 -73q-1 -16 -11 -40l-510 -1118q-20 -41 -57 -54
q-15 -7 -39 -7z" />
    <glyph glyph-name="z" unicode="z" horiz-adv-x="1032" 
d="M886 0h-740q-61 0 -88 51q-14 23 -14 49q0 40 31 71l571 593h-491q-43 0 -72.5 28.5t-29.5 71.5t29.5 72t72.5 29h711q2 0 20 -2q33 -4 56 -34q21 -24 24 -51q0 -5 1 -6v-6v-4q-1 -40 -29 -68l-2 -2l-572 -593h522q44 0 73 -28t29 -70t-29 -71q-30 -30 -73 -30z" />
    <glyph glyph-name="braceleft" unicode="{" horiz-adv-x="795" 
d="M684 -327q-34 -2 -40 -2q-167 0 -297 114q-141 124 -146 316v293h-46q-45 0 -78 34q-33 33 -33 81q0 47 33 78q31 31 78 31h46v266q3 92 41.5 173t105.5 141q126 113 296 113q6 0 40 -2q43 0 71.5 -29t28.5 -73q0 -43 -28.5 -71.5t-71.5 -28.5h-62q-88 0 -153 -70
q-64 -69 -66 -161v-765q0 -92 64 -162q67 -73 155 -73h62q43 0 71.5 -29.5t28.5 -72.5t-28.5 -72t-71.5 -29z" />
    <glyph glyph-name="bar" unicode="|" horiz-adv-x="470" 
d="M233 -264q-39 0 -70 31q-30 30 -30 73v1366q0 45 30 75t70 30q43 0 73.5 -30.5t30.5 -74.5v-1366q0 -44 -31 -73q-34 -31 -73 -31z" />
    <glyph glyph-name="braceright" unicode="}" horiz-adv-x="797" 
d="M683 587q32 -32 32 -78q0 -48 -32 -81q-34 -34 -78 -34h-47v-283v-2q-2 -193 -142 -321q-128 -117 -302 -117q-5 0 -39 2q-43 0 -72 29t-29 72t29 72.5t72 29.5h62q90 0 156 74q62 68 62 159v2v765q-2 93 -65 161q-65 70 -153 70h-62q-43 0 -72 28.5t-29 71.5q0 44 29 73
t72 29q34 2 40 2q169 0 296 -114q67 -59 105 -141t41 -175q1 -1 1 -10v-253h47q47 0 78 -31z" />
    <glyph glyph-name="asciitilde" unicode="~" horiz-adv-x="1025" 
d="M642 443q-83 0 -180 73q-14 10 -30 21.5t-18 13.5q-38 20 -64 20q-55 0 -109 -67q-4 -6 -15 -20q-29 -29 -71 -29q-43 -2 -73 27q-30 30 -30 72q0 44 29 73q38 50 88 88q83 61 173 61t178 -68q29 -26 51 -38q38 -22 64 -22q61 0 124 86l3 -2l1 2q27 27 68 27q39 0 68 -29
q28 -30 28 -68q0 -34 -22 -64q0 -5 -2 -7q-28 -46 -87 -88q-85 -62 -174 -62z" />
    <glyph glyph-name="exclamdown" unicode="&#xa1;" horiz-adv-x="484" 
d="M243 786q-48 0 -78 33q-32 32 -32 76q0 46 32 78t78 32q43 0 76 -32q32 -32 32 -78q0 -44 -32 -76q-33 -33 -76 -33zM240 -306q-41 0 -72 31t-31 72v791q0 44 29 73.5t72 29.5q44 0 73.5 -29.5t29.5 -73.5v-791q0 -43 -29 -72q-31 -31 -72 -31z" />
    <glyph glyph-name="cent" unicode="&#xa2;" horiz-adv-x="952" 
d="M536 -179q-37 0 -63 25t-26 62v89q-171 30 -287 163t-116 312v1q0 1 1 1v1q-1 0 -1 1q0 182 116 317t289 165v121q0 37 25 62q26 25 63 25q36 0 60.5 -25.5t24.5 -61.5v-120q150 -25 248 -123q37 -37 38 -81q0 -47 -32 -75q-36 -30 -69 -30q-37 0 -93 44q-82 66 -189 66
q-113 0 -195 -89q-77 -83 -77 -193l-1 -2l1 -1q0 -108 76 -190q79 -88 190 -89q114 -5 195 65q55 43 91 43q35 0 71 -30q32 -28 32 -73q-1 -44 -38 -81q-101 -101 -249 -124v-88q0 -37 -24.5 -62t-60.5 -25z" />
    <glyph glyph-name="sterling" unicode="&#xa3;" horiz-adv-x="1016" 
d="M866 0h-601q-43 1 -71 29t-28 71v410h-69q-27 0 -44.5 18t-17.5 45q0 26 17.5 43.5t44.5 17.5h69v333v10q0 2 2 10q8 137 104 228q98 96 232 96h22q43 0 72 -29t29 -72t-29 -72q-30 -30 -77 -30q-64 0 -105 -38q-45 -40 -45 -104h-1v-332h174q27 0 45 -17.5t18 -44.5
t-18 -44.5t-45 -17.5h-174v-306h497q43 0 72 -29t29 -72t-29 -72q-31 -31 -73 -31z" />
    <glyph glyph-name="currency" unicode="&#xa4;" horiz-adv-x="1027" 
d="M124 100q-37 25 -43 66q-2 18 -2 20q0 30 17 55l116 168q-95 109 -95 254q0 134 86 244l-113 162v1q-16 25 -16 55q0 51 46 85q28 18 57 18q14 0 18 -1q39 -7 63 -44l109 -157q67 25 137 25q66 0 133 -24l107 157q31 45 86 45q31 0 57 -18q42 -29 42 -83q0 -31 -18 -59
l-108 -159q91 -105 91 -247q0 -143 -96 -255l110 -157q0 -1 1 -1q18 -28 18 -56q0 -54 -44 -83q-29 -20 -60 -20q-53 0 -82 45l-112 159q-60 -20 -125 -20q-67 0 -124 20l-116 -167q-31 -46 -83 -46q-30 0 -57 18zM504 466q84 0 140 58t56 140q0 81 -56 139q-57 57 -140 57
q-82 0 -137 -57q-58 -60 -58 -139q0 -80 58 -140q56 -58 137 -58z" />
    <glyph glyph-name="yen" unicode="&#xa5;" horiz-adv-x="1241" 
d="M616 0q-43 0 -72 28.5t-29 71.5v153h-166q-27 0 -44.5 18t-17.5 45t17.5 45t44.5 18h166v110h-166q-27 0 -44.5 18.5t-17.5 45.5t17.5 44.5t44.5 17.5h110l-411 522q-23 29 -23 65q0 52 34 80q31 26 70 26q46 0 74 -36l412 -527l412 529q30 35 76 35q35 0 65 -25
q37 -33 37 -78q0 -35 -24 -68l-408 -523h123q27 0 45 -18t18 -44q0 -27 -18 -45.5t-45 -18.5h-177v-110h177q27 0 45 -18.5t18 -44.5q0 -27 -18 -45t-45 -18h-177v-153q0 -42 -30 -71t-73 -29z" />
    <glyph glyph-name="brokenbar" unicode="&#xa6;" horiz-adv-x="471" 
d="M234 572q-40 0 -71 31q-30 30 -30 73v532q0 44 30 74t71 30q44 0 74 -30t30 -74v-532q0 -43 -30 -73q-31 -31 -74 -31zM234 -316q-43 0 -72 29.5t-29 72.5v530q0 43 29 73t72 30q44 0 74 -30t30 -73v-530q0 -42 -30 -72t-74 -30z" />
    <glyph glyph-name="section" unicode="&#xa7;" horiz-adv-x="1030" 
d="M513 -370q-126 0 -228 49q-108 51 -164 144q-10 19 -10 39q0 3 2 19q6 28 26 48q26 26 68 26q32 0 60 -20q58 -55 109 -76q58 -25 134 -25q97 0 161 46q67 48 67 127t-88 118q-48 19 -95 28q-54 11 -114 24q-169 45 -263 126q-120 102 -120 258q0 138 88 243
q-44 65 -44 162q0 163 131 273q123 104 298 104q123 0 230 -48q109 -51 163 -144q10 -19 10 -39q0 -3 -2 -19q-6 -28 -27 -49q-24 -24 -68 -24q-37 0 -60 18q-60 57 -106 77q-59 25 -136 25q-97 0 -160 -46q-68 -49 -68 -127t88 -117q51 -20 95 -29q58 -12 142 -33
q52 -13 113 -39q145 -64 209 -187q33 -63 33 -149q0 -139 -89 -243q44 -65 44 -161q0 -163 -131 -273q-125 -106 -298 -106zM757 293q42 45 42 109q0 86 -86 137q-56 32 -172 62q-167 34 -253 80q-42 -45 -42 -110q0 -84 86 -135q54 -31 172 -63q167 -35 253 -80z" />
    <glyph glyph-name="dieresis" unicode="&#xa8;" horiz-adv-x="798" 
d="M220 1128q-48 0 -81 33t-33 81t33 81q34 34 81 34t81 -34t34 -81t-34 -81q-33 -33 -81 -33zM598 1128q-47 0 -80 33q-34 34 -34 81t34 81t80 34q48 0 82 -34q33 -33 33 -81t-33 -81t-82 -33z" />
    <glyph glyph-name="copyright" unicode="&#xa9;" horiz-adv-x="1455" 
d="M730 -130q-150 0 -284 56.5t-236 158.5q-102 101 -158 236t-56 285q0 204 99 372q102 174 262 265q168 99 373 99q149 0 283.5 -56.5t237.5 -159.5q103 -102 159.5 -236.5t56.5 -283.5q0 -201 -100 -370q-104 -175 -265 -266q-172 -100 -372 -100zM730 45q114 0 217 42.5
t181 120.5t120.5 180.5t42.5 217.5q0 114 -42.5 216t-120.5 180t-181 120.5t-217 42.5t-217 -43t-180 -120q-78 -78 -120.5 -180t-42.5 -216q0 -115 42.5 -217.5t120.5 -180.5q77 -77 180 -120t217 -43zM735 177q-179 0 -304 122q-126 124 -126 299v1q0 1 1 1v1l-1 2
q0 176 126 302q126 124 304 124q176 0 289 -115q32 -29 32 -69q0 -37 -28 -60t-55 -23q-3 0 -19 2q-19 4 -60 33q-74 64 -174 59q-101 -2 -172 -79q-70 -76 -70 -173l-1 -2l1 -1q0 -96 70 -172q73 -80 178 -80q100 0 168 61q41 28 60 32q3 1 17 1q29 0 57 -24q28 -23 28 -60
q0 -39 -32 -68q-112 -114 -289 -114z" />
    <glyph glyph-name="ordfeminine" unicode="&#xaa;" horiz-adv-x="897" 
d="M721 520q-34 0 -58.5 18t-34.5 49q-86 -63 -187 -63q-163 0 -280 117t-117 281t117 281q115 117 280 117q164 0 276 -117q109 -115 109 -281v-296q0 -45 -30 -75q-31 -31 -75 -31zM441 724q83 0 141 58t58 140q0 81 -58 141q-60 58 -141 58t-139 -58q-57 -57 -57 -141
q0 -83 57 -140q58 -58 139 -58z" />
    <glyph glyph-name="guillemotleft" unicode="&#xab;" horiz-adv-x="1287" 
d="M1106 0q-42 0 -73 31l-379 379q-2 0 -2 2q-1 0 -1 1l-3 3q-25 25 -26 62q-5 46 30 81l2 2l380 374q31 31 73 31t73 -31q30 -30 30 -71q0 -42 -30 -72l-313 -307l312 -310q31 -28 31 -73q0 -41 -30 -71q-31 -31 -74 -31zM450 29l-382 382q-31 31 -31 73t31 73l8 7l375 370
q31 31 72 31q40 0 74 -31q31 -31 31 -72t-31 -72l-313 -308l311 -309q31 -31 31 -73q0 -40 -31 -71t-73 -31q-41 0 -72 31z" />
    <glyph glyph-name="logicalnot" unicode="&#xac;" horiz-adv-x="1031" 
d="M841 291q-43 0 -73.5 30.5t-30.5 73.5v132h-590q-41 0 -72 31t-31 72q0 44 30 73.5t73 29.5h696q41 -1 71 -31q29 -29 29 -72v-235q0 -43 -30 -73q-31 -31 -72 -31z" />
    <glyph glyph-name="uni00AD" unicode="&#xad;" horiz-adv-x="931" 
d="M785 534h-629q-30 0 -50 20.5t-20 51.5q0 30 20 50t50 20h629q30 0 51 -20t21 -49q0 -30 -21 -51.5t-51 -21.5z" />
    <glyph glyph-name="registered" unicode="&#xae;" horiz-adv-x="1462" 
d="M733 -123q-199 0 -372 100q-169 100 -262 266q-99 168 -99 369q0 149 56 284.5t158 237.5t236 158.5t283 56.5q203 0 373 -100q163 -94 265 -265q100 -170 100 -372q0 -200 -100 -369q-104 -175 -265 -266q-173 -100 -373 -100zM734 63q112 0 212.5 41.5t177.5 118.5
q160 160 160 389q0 109 -42.5 210.5t-117.5 178.5q-77 77 -177.5 118.5t-212.5 41.5q-228 0 -388 -160q-76 -76 -118 -177.5t-42 -211.5q0 -113 42 -213.5t118 -175.5q75 -76 175.5 -118t212.5 -42zM564 233q-31 0 -51 19.5t-20 49.5v283q5 157 115 266q113 111 269 111h4
q33 0 52 -19t19 -50q0 -30 -20 -49.5t-51 -19.5h-4q-101 0 -172 -71q-74 -74 -74 -175v-276q0 -30 -19.5 -49.5t-47.5 -19.5z" />
    <glyph glyph-name="overscore" unicode="&#xaf;" horiz-adv-x="860" 
d="M665 1119h-404q-37 0 -62.5 26.5t-25.5 64.5q0 37 25 61.5t63 24.5h404q37 0 63 -24q26 -28 26 -62q0 -35 -26 -63t-63 -28z" />
    <glyph glyph-name="degree" unicode="&#xb0;" horiz-adv-x="766" 
d="M409 583q-132 0 -230 98q-97 97 -97 232t97 232q97 95 230 95q135 0 232 -95q95 -92 95 -232q0 -135 -95 -232q-98 -98 -232 -98zM410 755q65 0 111 46t46 111q0 67 -46 113t-111 46q-67 0 -113 -46t-46 -113q0 -65 46 -111t113 -46z" />
    <glyph glyph-name="plusminus" unicode="&#xb1;" horiz-adv-x="841" 
d="M421 397q-42 0 -73 31t-31 72v194h-193q-43 0 -73 30q-29 29 -29 72q0 39 29 73q29 31 73 31h193v194q0 43 31 72q35 30 73 30q43 0 73 -30q29 -29 29 -72v-194h195q44 0 73 -31q29 -34 29 -74q0 -43 -29.5 -72t-72.5 -29h-195v-194q0 -43 -29.5 -73t-72.5 -30zM714 -5
h-577q-43 0 -74 31q-30 30 -30 71q0 43 30.5 73.5t73.5 30.5h577q44 0 73 -31q30 -35 30 -73q0 -41 -30 -71q-31 -31 -73 -31z" />
    <glyph glyph-name="uni00B2" unicode="&#xb2;" horiz-adv-x="706" 
d="M538 511h-390q-34 0 -59.5 19t-34.5 49v3l-1 1q-7 17 -7 41q0 39 26 63l331 310q21 24 21 51q0 35 -21.5 58t-57.5 23q-30 0 -53 -16t-29 -41q-2 -41 -31 -69t-71 -28t-70 30q-29 31 -29 70q0 25 10 45q0 2 1 3q19 73 87 124q76 56 182 56q119 0 203 -73q82 -71 82 -180
q0 -88 -40 -132q-1 0 -1 -2l-7 -9l-199 -204h158q43 0 70.5 -28t27.5 -70q0 -41 -27.5 -67.5t-70.5 -26.5z" />
    <glyph glyph-name="uni00B3" unicode="&#xb3;" horiz-adv-x="619" 
d="M292 513q-77 0 -145 46q-64 41 -102 111q-7 13 -7 30q0 41 36 62q17 9 34 9q36 0 56 -33l5 -10q38 -63 133 -63q51 0 82 34q34 35 34 84q0 46 -33.5 76t-83.5 30h-58v1q-40 0 -63 23q-21 17 -21 45q0 29 19 48l135 139h-211q-32 0 -54 19q-28 23 -28 60t28 63
q23 23 54 23h379q13 0 27 -6q23 -9 38 -31t15 -47q0 -28 -16 -47q-3 -11 -9 -17l-130 -136q77 -28 121 -90t44 -144q0 -115 -82 -197t-197 -82z" />
    <glyph glyph-name="acute" unicode="&#xb4;" horiz-adv-x="509" 
d="M96 1511q-30 30 -30 72q0 44 30 74l136 137q31 31 74 31q38 0 73 -30q31 -31 31 -73q0 -40 -31 -71l-138 -140q-30 -30 -73 -30q-42 0 -72 30z" />
    <glyph glyph-name="uni00B5" unicode="&#xb5;" horiz-adv-x="1186" 
d="M238 -346q-40 0 -74 31q-31 29 -31 72v1105q0 44 31 73q35 30 73 30q42 0 71 -30t29 -73v-431q0 -114 86 -197q85 -83 198 -83q114 0 194 83q79 82 79 197v431q0 43 29 73t72 30t73 -30t30 -73v-432q-2 -199 -139 -343q-66 -68 -153 -105t-185 -37q-154 0 -284 91v-279
q0 -44 -28 -73.5t-71 -29.5z" />
    <glyph glyph-name="paragraph" unicode="&#xb6;" horiz-adv-x="1472" 
d="M670 0q-44 0 -75 30t-31 73v310h-72q-91 0 -173 34t-144 97q-62 62 -96.5 144t-34.5 171q0 186 131 319q62 63 145 98t172 35h861q44 0 73.5 -28t29.5 -70q0 -39 -30 -74q-29 -31 -73 -31h-88v-1005q0 -43 -31 -73t-75 -30q-42 0 -70 34t-28 77v997h-293v-999
q0 -42 -28 -76q-27 -33 -70 -33zM481 621h83v480h-83q-100 0 -169 -71t-69 -171q0 -104 69 -170q68 -68 169 -68z" />
    <glyph glyph-name="middot" unicode="&#xb7;" horiz-adv-x="357" 
d="M172 376q-48 0 -84 36q-35 35 -35 86q0 50 35 85t84 35q50 0 88 -35q35 -35 35 -85q0 -51 -35 -86q-39 -36 -88 -36z" />
    <glyph glyph-name="cedilla" unicode="&#xb8;" horiz-adv-x="481" 
d="M287 -525q-92 0 -156 64t-64 155q0 29 19 48t47 19q26 0 44.5 -19t19.5 -46q0 -38 27.5 -65t64.5 -27q39 0 65 27t26 65q0 42 -29 67t-80 25q-72 0 -72 53v197q0 22 20 38t45 16t45.5 -16t20.5 -38v-126q75 -12 128 -74q50 -59 50 -144q0 -90 -65 -155q-66 -64 -156 -64z
" />
    <glyph glyph-name="uni00B9" unicode="&#xb9;" horiz-adv-x="540" 
d="M342 537q-41 0 -74 30q-30 29 -30 73v384l-70 -40q-26 -14 -51 -14q-57 0 -92 52q-15 25 -15 52q0 15 3 27q11 42 47 64l227 131q24 13 51 15h8q43 -2 72 -31.5t29 -72.5v-567q0 -43 -30.5 -73t-74.5 -30z" />
    <glyph glyph-name="ordmasculine" unicode="&#xba;" horiz-adv-x="897" 
d="M447 524q-162 0 -279 117t-117 281q0 163 117 280q116 116 279 116q165 0 281 -116t116 -280q0 -165 -116 -281q-117 -117 -281 -117zM447 723q83 0 139 58q57 57 57 141q0 81 -57 138t-139 57q-83 0 -140 -57q-58 -56 -58 -138q0 -84 58 -141q57 -58 140 -58z" />
    <glyph glyph-name="guillemotright" unicode="&#xbb;" horiz-adv-x="1287" 
d="M67 31q-31 31 -31 72t31 72l311 310l-312 307q-31 31 -31 72q0 40 31 71t72 31q42 0 73 -31l383 -376q29 -29 30 -66q5 -52 -30 -81l-382 -381q-31 -31 -73 -31q-41 0 -72 31zM650 29q-30 30 -30 71q0 43 30 73l312 309l-314 308q-30 30 -30 72t30 72q34 31 74 31
q42 0 73 -31l373 -370l10 -7q11 -11 20 -31l3 -6q6 -18 6 -37q0 -43 -29 -72l-382 -382q-31 -31 -73 -31t-73 31z" />
    <glyph glyph-name="onequarter" unicode="&#xbc;" horiz-adv-x="1705" 
 />
    <glyph glyph-name="onehalf" unicode="&#xbd;" horiz-adv-x="1650" 
 />
    <glyph glyph-name="threequarters" unicode="&#xbe;" horiz-adv-x="1679" 
 />
    <glyph glyph-name="questiondown" unicode="&#xbf;" horiz-adv-x="940" 
d="M529 783q-44 0 -77 33q-33 30 -33 79q0 44 33 77t77 33q45 0 78 -33q32 -33 32 -77q0 -47 -32 -79q-33 -33 -78 -33zM421 -327q-172 0 -290 121q-122 119 -122 290q0 168 123 286q121 115 292 115h4v80q0 44 29 74.5t71 30.5q43 0 73.5 -30.5t30.5 -74.5v-180
q0 -44 -31 -73q-33 -30 -73 -30h-108q-87 0 -145 -58q-62 -59 -62 -140q0 -86 57 -145q59 -62 150 -62q83 0 142 57q63 59 65 145v5q0 44 28 74t70 30q40 0 74 -29q31 -29 31 -74v-7q-2 -168 -121 -286q-122 -119 -288 -119z" />
    <glyph glyph-name="Agrave" unicode="&#xc0;" horiz-adv-x="1205" 
d="M508 1450l-138 139q-31 31 -31 72q0 42 31 73q34 29 73 29q43 0 73 -30l136 -138q31 -31 31 -73q0 -41 -31 -72t-71 -31q-42 0 -73 31zM1049 6q-40 14 -59 54l-128 305h-519l-126 -304q-16 -41 -56 -54q-18 -7 -37 -7q-23 0 -44 9q-57 25 -57 87q0 27 10 47l480 1105
q27 63 93 63q67 0 92 -62l476 -1106q10 -20 10 -47q0 -62 -57 -87q-19 -9 -43 -9q-18 0 -35 6zM428 568h348l-175 417z" />
    <glyph glyph-name="Aacute" unicode="&#xc1;" horiz-adv-x="1205" 
d="M573 1437q-30 30 -30 71q0 44 30 74l137 137q31 31 73 31q38 0 73 -30q31 -31 31 -72t-31 -72l-138 -139q-31 -31 -73 -31q-41 0 -72 31zM1049 6q-40 14 -59 54l-128 305h-519l-126 -304q-16 -41 -56 -54q-18 -7 -37 -7q-23 0 -44 9q-57 25 -57 87q0 27 10 47l480 1105
q27 63 93 63q67 0 92 -62l476 -1106q10 -20 10 -47q0 -62 -57 -87q-19 -9 -43 -9q-18 0 -35 6zM428 568h348l-175 417z" />
    <glyph glyph-name="Acircumflex" unicode="&#xc2;" horiz-adv-x="1205" 
d="M360 1404q-42 13 -55 56q-4 9 -4 26q0 30 25 55l217 219q22 22 47 25q2 1 9 1h9q6 0 7 -1q24 -3 48 -25l217 -219q25 -25 25 -57q0 -25 -17.5 -48.5t-42.5 -31.5q-9 -4 -26 -4q-32 0 -56 24l-161 161l-160 -161q-24 -24 -56 -24q-17 0 -26 4zM1049 6q-40 14 -59 54
l-128 305h-519l-126 -304q-16 -41 -56 -54q-18 -7 -37 -7q-23 0 -44 9q-57 25 -57 87q0 27 10 47l480 1105q27 63 93 63q67 0 92 -62l476 -1106q10 -20 10 -47q0 -62 -57 -87q-19 -9 -43 -9q-18 0 -35 6zM428 568h348l-175 417z" />
    <glyph glyph-name="Atilde" unicode="&#xc3;" horiz-adv-x="1205" 
d="M724 1411q-70 0 -155 64l-18 14q-22 17 -51 28q-17 5 -28 5q-50 0 -96 -60q-7 -11 -14 -18q-25 -25 -58 -25t-57 24q-25 23 -25 58q-2 33 23 58q24 36 74 75q69 54 146 54q75 0 152 -60l21 -15q24 -19 53 -30q13 -6 28 -6q49 0 98 63q3 3 5 6.5t4 5.5l1 2q23 23 58 23
q34 0 58 -23.5t25 -56.5q0 -30 -24 -57q-20 -35 -74 -76q-69 -53 -146 -53zM1049 6q-40 14 -59 54l-128 305h-519l-126 -304q-16 -41 -56 -54q-18 -7 -37 -7q-23 0 -44 9q-57 25 -57 87q0 27 10 47l480 1105q27 63 93 63q67 0 92 -62l476 -1106q10 -20 10 -47q0 -62 -57 -87
q-19 -9 -43 -9q-18 0 -35 6zM428 568h348l-175 417z" />
    <glyph glyph-name="Adieresis" unicode="&#xc4;" horiz-adv-x="1205" 
d="M409 1416q-48 0 -81 33t-33 81t33 81q34 34 81 34q46 0 80 -34t34 -81t-34 -81q-33 -33 -80 -33zM786 1416q-46 0 -79 33q-34 34 -34 81t34 81t79 34q48 0 82 -34q33 -33 33 -81t-33 -81t-82 -33zM1049 6q-40 14 -59 54l-128 305h-519l-126 -304q-16 -41 -56 -54
q-18 -7 -37 -7q-23 0 -44 9q-57 25 -57 87q0 27 10 47l480 1105q27 63 93 63q67 0 92 -62l476 -1106q10 -20 10 -47q0 -62 -57 -87q-19 -9 -43 -9q-18 0 -35 6zM428 568h348l-175 417z" />
    <glyph glyph-name="Aring" unicode="&#xc5;" horiz-adv-x="1205" 
d="M603 1362q-90 0 -154 66q-65 65 -65 155q0 91 65 156q63 63 154 63q92 0 157 -63q63 -63 63 -156q0 -92 -63 -155q-66 -66 -157 -66zM604 1504q33 0 56 23t23 56t-23 56.5t-56 23.5t-56 -23.5t-23 -56.5t23 -56t56 -23zM1049 6q-40 14 -59 54l-128 305h-519l-126 -304
q-16 -41 -56 -54q-18 -7 -37 -7q-23 0 -44 9q-57 25 -57 87q0 27 10 47l480 1105q27 63 93 63q67 0 92 -62l476 -1106q10 -20 10 -47q0 -62 -57 -87q-19 -9 -43 -9q-18 0 -35 6zM428 568h348l-175 417z" />
    <glyph glyph-name="AE" unicode="&#xc6;" horiz-adv-x="1637" 
d="M127 -3q-37 0 -65 22q-40 29 -40 82q0 36 23 64l851 1099q27 41 78 46q2 0 3 1h2h512q44 0 75 -31q30 -30 30 -75q0 -43 -30 -73q-28 -32 -75 -32h-402v-369h259q45 0 73 -30q30 -35 30 -73q0 -44 -30 -75t-73 -31l-259 -2v-311l400 -1q43 0 74 -31q30 -30 30 -74
t-30 -73q-35 -31 -74 -30h-510q-41 2 -71 32q-29 29 -29 71v155h-498l-171 -220q-35 -41 -83 -41zM544 467h335v431z" />
    <glyph glyph-name="Ccedilla" unicode="&#xc7;" horiz-adv-x="1255" 
d="M735 -538q-90 0 -155 65t-65 155q0 28 19.5 47.5t47.5 19.5q26 0 44 -18.5t19 -46.5q0 -38 27.5 -65.5t64.5 -27.5q38 0 64.5 27.5t26.5 65.5q0 43 -28.5 67.5t-79.5 24.5q-73 0 -73 53v162q-163 13 -305 107q-136 90 -216 236q-82 149 -82 318q0 175 87 329
q86 153 234 244q154 95 344 95q133 0 255 -50.5t217 -147.5q29 -29 29 -69q0 -44 -28 -72q-35 -30 -73 -30q-44 0 -72 28q-135 135 -329 135q-188 0 -324 -133q-135 -135 -135 -327q0 -188 130 -323q132 -138 326 -140q190 0 330 135q30 27 72 27t71 -26q29 -29 29 -72
q0 -42 -27 -72q-171 -168 -402 -191v-92q75 -12 128 -74q50 -59 50 -144q0 -91 -64 -155q-67 -65 -157 -65z" />
    <glyph glyph-name="Egrave" unicode="&#xc8;" horiz-adv-x="933" 
d="M400 1454l-138 139q-31 31 -31 72q0 42 31 73q34 29 74 29q43 0 73 -30l136 -138q30 -30 30 -73q0 -42 -30 -72q-31 -31 -72 -31q-42 0 -73 31zM782 0h-555q-41 3 -67.5 31t-26.5 70v1107q0 43 30 73t73 30h546q42 0 72 -30q29 -29 29 -73q0 -43 -29 -72t-72 -29h-445
v-354h321q44 1 73 -28t29 -73q0 -42 -29.5 -70t-72.5 -28h-321v-351h445q43 0 72 -30t29 -73q0 -42 -29 -71q-30 -30 -72 -29z" />
    <glyph glyph-name="Eacute" unicode="&#xc9;" horiz-adv-x="933" 
d="M414 1428q-31 31 -31 72q0 43 31 74l136 137q31 31 74 31q37 0 72 -30q31 -31 31 -73q0 -40 -31 -71l-138 -140q-30 -30 -73 -30q-41 0 -71 30zM782 0h-555q-41 3 -67.5 31t-26.5 70v1107q0 43 30 73t73 30h546q42 0 72 -30q29 -29 29 -73q0 -43 -29 -72t-72 -29h-445
v-354h321q44 1 73 -28t29 -73q0 -42 -29.5 -70t-72.5 -28h-321v-351h445q43 0 72 -30t29 -73q0 -42 -29 -71q-30 -30 -72 -29z" />
    <glyph glyph-name="Ecircumflex" unicode="&#xca;" horiz-adv-x="933" 
d="M216 1423q-41 13 -55 57q-4 9 -4 25q0 32 24 56l217 219q21 21 47 24q2 1 10 1h9q6 0 7 -1q25 -3 47 -24l217 -219q26 -26 26 -58q0 -25 -18 -48.5t-43 -31.5q-9 -4 -25 -4q-32 0 -57 25l-160 161l-160 -161q-25 -25 -56 -25q-17 0 -26 4zM782 0h-555q-41 3 -67.5 31
t-26.5 70v1107q0 43 30 73t73 30h546q42 0 72 -30q29 -29 29 -73q0 -43 -29 -72t-72 -29h-445v-354h321q44 1 73 -28t29 -73q0 -42 -29.5 -70t-72.5 -28h-321v-351h445q43 0 72 -30t29 -73q0 -42 -29 -71q-30 -30 -72 -29z" />
    <glyph glyph-name="Edieresis" unicode="&#xcb;" horiz-adv-x="933" 
d="M305 1426q-48 0 -81 33t-33 81t33 81q34 34 81 34t81 -34t34 -81t-34 -81q-33 -33 -81 -33zM683 1426q-47 0 -80 33q-34 34 -34 81t34 81t80 34q48 0 82 -34q33 -33 33 -81t-33 -81t-82 -33zM782 0h-555q-41 3 -67.5 31t-26.5 70v1107q0 43 30 73t73 30h546q42 0 72 -30
q29 -29 29 -73q0 -43 -29 -72t-72 -29h-445v-354h321q44 1 73 -28t29 -73q0 -42 -29.5 -70t-72.5 -28h-321v-351h445q43 0 72 -30t29 -73q0 -42 -29 -71q-30 -30 -72 -29z" />
    <glyph glyph-name="Igrave" unicode="&#xcc;" horiz-adv-x="470" 
d="M152 1446l-139 139q-30 30 -30 72q0 43 30 73q34 29 74 29q43 0 73 -30l136 -138q31 -31 31 -73q0 -41 -31 -72t-72 -31t-72 31zM234 0q-43 0 -72 28.5t-29 71.5v1110q0 43 29 72t72 29t73 -29t30 -72v-1110q0 -42 -30 -71t-73 -29z" />
    <glyph glyph-name="Iacute" unicode="&#xcd;" horiz-adv-x="470" 
d="M178 1451q-31 31 -31 72q0 42 31 73l136 138q30 30 74 30q39 0 73 -29q31 -31 31 -73q0 -41 -31 -72l-138 -139q-31 -31 -73 -31q-41 0 -72 31zM234 0q-43 0 -72 28.5t-29 71.5v1110q0 43 29 72t72 29t73 -29t30 -72v-1110q0 -42 -30 -71t-73 -29z" />
    <glyph glyph-name="Icircumflex" unicode="&#xce;" horiz-adv-x="470" 
d="M-4 1413q-42 13 -55 56q-4 9 -4 26q0 31 24 55l217 219q22 22 47 25q2 1 9 1h10q6 0 7 -1q23 -3 47 -25l217 -219q26 -26 26 -57q0 -25 -18 -48.5t-43 -31.5q-9 -4 -25 -4q-32 0 -57 25l-160 160l-160 -160q-25 -25 -56 -25q-17 0 -26 4zM234 0q-43 0 -72 28.5t-29 71.5
v1110q0 43 29 72t72 29t73 -29t30 -72v-1110q0 -42 -30 -71t-73 -29z" />
    <glyph glyph-name="Idieresis" unicode="&#xcf;" horiz-adv-x="470" 
d="M49 1422q-48 0 -81 33t-33 81t33 81q34 34 81 34t81 -34t34 -81t-34 -81q-33 -33 -81 -33zM427 1422q-47 0 -80 33q-34 34 -34 81t34 81t80 34q48 0 82 -34q33 -33 33 -81t-33 -81t-82 -33zM234 0q-43 0 -72 28.5t-29 71.5v1110q0 43 29 72t72 29t73 -29t30 -72v-1110
q0 -42 -30 -71t-73 -29z" />
    <glyph glyph-name="Eth" unicode="&#xd0;" horiz-adv-x="1259" 
d="M463 0h-229q-43 0 -72 28.5t-29 71.5v468h-85q-36 0 -60.5 26t-24.5 63q0 36 24.5 60.5t60.5 24.5h85v468q0 43 29 72t72 29h226q184 0 337 -88q152 -87 239 -236q91 -156 91 -334q0 -179 -90 -331q-88 -147 -239 -234q-155 -88 -335 -88zM337 205h124q193 0 327 128
q135 130 135 320q0 187 -133 320q-132 130 -324 132h-129v-363h126q36 0 61.5 -25t25.5 -60q0 -37 -25 -63t-62 -26h-126v-363z" />
    <glyph glyph-name="Ntilde" unicode="&#xd1;" horiz-adv-x="1232" 
d="M809 1408q-72 0 -155 63l-18 15q-20 15 -51 27q-20 6 -28 6q-49 0 -96 -60q-7 -11 -14 -18q-25 -25 -58 -25t-57 24q-25 23 -25 58q-1 33 23 57q25 38 74 76q68 53 146 53q76 0 152 -59l21 -15q24 -19 53 -30q14 -6 28 -6q48 0 98 63q3 3 5 6.5t3 5.5l2 2q23 23 58 23
q34 0 58 -23.5t25 -56.5q0 -30 -24 -57q-20 -35 -74 -76q-69 -53 -146 -53zM234 0q-43 0 -72 28.5t-29 71.5v1107q0 43 29 72t72 29h2q8 0 16 -2l14 -3q17 -6 30 -16l11 -9q12 -11 19 -25l608 -850v807q0 43 30 72t73 29q46 0 72 -29q29 -31 29 -72v-1110q0 -34 -20 -60.5
t-52 -35.5q-14 -4 -18 -4h-12q-35 0 -63 22q-17 13 -19 17l-617 864v-803q0 -42 -30 -71t-73 -29z" />
    <glyph glyph-name="Ograve" unicode="&#xd2;" horiz-adv-x="1419" 
d="M611 1447l-138 139q-31 31 -31 72q0 42 31 73q34 29 74 29q43 0 73 -30l136 -138q30 -30 30 -73q0 -42 -30 -72q-31 -31 -72 -31q-42 0 -73 31zM708 -12q-135 0 -256.5 51t-213.5 144q-93 93 -143.5 214.5t-50.5 255.5q0 183 90 337q88 152 238 239q158 91 336 91
q181 0 336 -91q153 -89 240 -239q91 -159 91 -337q0 -134 -51 -255.5t-144 -214.5t-215 -144t-257 -51zM709 191q192 0 327 135q134 134 134 327q0 93 -35 177.5t-99 148.5q-135 135 -327 135q-94 0 -178.5 -35.5t-147.5 -99.5q-64 -64 -99 -148.5t-35 -177.5
q0 -193 134 -327q63 -64 147.5 -99.5t178.5 -35.5z" />
    <glyph glyph-name="Oacute" unicode="&#xd3;" horiz-adv-x="1419" 
d="M711 1458q-31 31 -31 72q0 43 31 74l136 137q31 31 74 31q37 0 72 -30q31 -31 31 -73q0 -41 -31 -72l-138 -139q-31 -31 -73 -31q-40 0 -71 31zM708 -12q-135 0 -256.5 51t-213.5 144q-93 93 -143.5 214.5t-50.5 255.5q0 183 90 337q88 152 238 239q158 91 336 91
q181 0 336 -91q153 -89 240 -239q91 -159 91 -337q0 -134 -51 -255.5t-144 -214.5t-215 -144t-257 -51zM709 191q192 0 327 135q134 134 134 327q0 93 -35 177.5t-99 148.5q-135 135 -327 135q-94 0 -178.5 -35.5t-147.5 -99.5q-64 -64 -99 -148.5t-35 -177.5
q0 -193 134 -327q63 -64 147.5 -99.5t178.5 -35.5z" />
    <glyph glyph-name="Ocircumflex" unicode="&#xd4;" horiz-adv-x="1419" 
d="M467 1422q-41 13 -55 57q-4 9 -4 24q0 33 24 57l217 219q21 21 47 24q2 1 10 1h9q6 0 7 -1q25 -3 47 -24l217 -219q26 -26 26 -58q0 -11 -4 -23q-7 -19 -22.5 -35t-34.5 -22q-9 -4 -25 -4q-32 0 -57 25l-160 161l-160 -161q-25 -25 -56 -25q-17 0 -26 4zM708 -12
q-135 0 -256.5 51t-213.5 144q-93 93 -143.5 214.5t-50.5 255.5q0 183 90 337q88 152 238 239q158 91 336 91q181 0 336 -91q153 -89 240 -239q91 -159 91 -337q0 -134 -51 -255.5t-144 -214.5t-215 -144t-257 -51zM709 191q192 0 327 135q134 134 134 327q0 93 -35 177.5
t-99 148.5q-135 135 -327 135q-94 0 -178.5 -35.5t-147.5 -99.5q-64 -64 -99 -148.5t-35 -177.5q0 -193 134 -327q63 -64 147.5 -99.5t178.5 -35.5z" />
    <glyph glyph-name="Otilde" unicode="&#xd5;" horiz-adv-x="1419" 
d="M869 1459q-69 0 -154 64l-19 14l-23 15q-36 18 -56 18q-49 0 -96 -60q-8 -13 -13 -18q-25 -25 -58 -25q-34 0 -58 24q-24 23 -24 58q-2 34 22 58q23 35 75 75q69 54 145 54t153 -60l20 -15q4 -3 26 -16q37 -20 55 -20q49 0 99 64q9 12 10 13q23 23 57 23t57 -23
q26 -26 26 -58q0 -30 -23 -56q-20 -35 -74 -76q-69 -53 -147 -53zM708 -12q-135 0 -256.5 51t-213.5 144q-93 93 -143.5 214.5t-50.5 255.5q0 183 90 337q88 152 238 239q158 91 336 91q181 0 336 -91q153 -89 240 -239q91 -159 91 -337q0 -134 -51 -255.5t-144 -214.5
t-215 -144t-257 -51zM709 191q192 0 327 135q134 134 134 327q0 93 -35 177.5t-99 148.5q-135 135 -327 135q-94 0 -178.5 -35.5t-147.5 -99.5q-64 -64 -99 -148.5t-35 -177.5q0 -193 134 -327q63 -64 147.5 -99.5t178.5 -35.5z" />
    <glyph glyph-name="Odieresis" unicode="&#xd6;" horiz-adv-x="1419" 
d="M508 1422q-48 0 -81 33t-33 81t33 81q34 34 81 34t81 -34t34 -81t-34 -81q-33 -33 -81 -33zM886 1422q-47 0 -80 33q-34 34 -34 81t34 81t80 34q48 0 82 -34q32 -32 32 -81t-32 -81q-33 -33 -82 -33zM708 -12q-135 0 -256.5 51t-213.5 144q-93 93 -143.5 214.5
t-50.5 255.5q0 183 90 337q88 152 238 239q158 91 336 91q181 0 336 -91q153 -89 240 -239q91 -159 91 -337q0 -134 -51 -255.5t-144 -214.5t-215 -144t-257 -51zM709 191q192 0 327 135q134 134 134 327q0 93 -35 177.5t-99 148.5q-135 135 -327 135q-94 0 -178.5 -35.5
t-147.5 -99.5q-64 -64 -99 -148.5t-35 -177.5q0 -193 134 -327q63 -64 147.5 -99.5t178.5 -35.5z" />
    <glyph glyph-name="multiply" unicode="&#xd7;" horiz-adv-x="1009" 
d="M179 53q-44 0 -68 28q-28 26 -28 64q0 37 28 67l274 276l-277 281q-27 27 -27 66q0 36 29 65q28 28 65 28q35 0 66 -28l276 -278l275 276q29 29 67 29q39 0 66 -27q28 -28 28 -65q0 -42 -25 -67l-279 -281l272 -272q27 -27 27 -67q0 -42 -27 -66q-28 -28 -66 -28
q-40 0 -67 27l-271 273l-270 -273q-28 -28 -68 -28z" />
    <glyph glyph-name="Oslash" unicode="&#xd8;" horiz-adv-x="1419" 
d="M710 -12q-208 0 -373 113l-61 -64q-33 -36 -78 -36q-41 0 -67 24q-36 28 -36 79q0 40 24 66l66 72q-141 178 -141 411q0 183 90 337q88 151 239 239q155 91 337 91q202 0 375 -118l62 66q34 37 80 37q33 0 67 -26q36 -29 36 -75q0 -38 -24 -68l-71 -75q139 -181 139 -408
q0 -134 -50.5 -255t-142.5 -215q-92 -93 -214 -144t-257 -51zM331 397l608 649q-103 62 -229 62q-92 0 -176 -35t-147 -98t-98 -147t-35 -175q0 -140 77 -256zM710 198q191 0 321 133q63 63 97.5 146.5t34.5 175.5q0 140 -74 251l-607 -647q103 -59 228 -59z" />
    <glyph glyph-name="Ugrave" unicode="&#xd9;" horiz-adv-x="1161" 
d="M565 1427l-138 140q-31 31 -31 71q0 42 31 73q35 30 74 30q41 0 72 -31l137 -137q30 -30 30 -74q0 -42 -30 -72t-72 -30q-43 0 -73 30zM585 -11q-212 0 -352 140q-67 66 -103.5 153.5t-36.5 184.5v740q0 43 30 73t72 30t72 -30t30 -73v-735q0 -115 81 -199
q84 -84 206 -84q121 0 199 84q75 81 75 199v738q0 44 30 72q31 29 71 29q43 0 73 -29t30 -72v-743q0 -204 -132 -338q-135 -140 -345 -140z" />
    <glyph glyph-name="Uacute" unicode="&#xda;" horiz-adv-x="1161" 
d="M513 1420q-31 31 -31 72q0 43 31 74l136 137q31 31 74 31q38 0 73 -30q30 -30 30 -73q0 -41 -30 -71l-139 -140q-30 -30 -72 -30t-72 30zM585 -11q-212 0 -352 140q-67 66 -103.5 153.5t-36.5 184.5v740q0 43 30 73t72 30t72 -30t30 -73v-735q0 -115 81 -199
q84 -84 206 -84q121 0 199 84q75 81 75 199v738q0 44 30 72q31 29 71 29q43 0 73 -29t30 -72v-743q0 -204 -132 -338q-135 -140 -345 -140z" />
    <glyph glyph-name="Ucircumflex" unicode="&#xdb;" horiz-adv-x="1161" 
d="M329 1377q-42 13 -56 57q-4 9 -4 25q0 30 25 55l217 220q21 21 47 24q2 1 9 1h10q6 0 7 -1q25 -3 47 -24l217 -220q25 -25 25 -57q0 -11 -4 -23q-7 -20 -22 -35.5t-34 -21.5q-9 -4 -26 -4q-31 0 -56 25l-161 161l-159 -161q-25 -25 -57 -25q-16 0 -25 4zM585 -11
q-212 0 -352 140q-67 66 -103.5 153.5t-36.5 184.5v740q0 43 30 73t72 30t72 -30t30 -73v-735q0 -115 81 -199q84 -84 206 -84q121 0 199 84q75 81 75 199v738q0 44 30 72q31 29 71 29q43 0 73 -29t30 -72v-743q0 -204 -132 -338q-135 -140 -345 -140z" />
    <glyph glyph-name="Udieresis" unicode="&#xdc;" horiz-adv-x="1161" 
d="M402 1423q-47 0 -80 33t-33 81t33 81q34 34 80 34q47 0 81 -34t34 -81t-34 -81q-33 -33 -81 -33zM780 1423q-47 0 -80 33t-33 81t33 81q34 34 80 34q48 0 82 -34q33 -33 33 -81t-33 -81t-82 -33zM585 -11q-212 0 -352 140q-67 66 -103.5 153.5t-36.5 184.5v740
q0 43 30 73t72 30t72 -30t30 -73v-735q0 -115 81 -199q84 -84 206 -84q121 0 199 84q75 81 75 199v738q0 44 30 72q31 29 71 29q43 0 73 -29t30 -72v-743q0 -204 -132 -338q-135 -140 -345 -140z" />
    <glyph glyph-name="Yacute" unicode="&#xdd;" horiz-adv-x="1100" 
d="M575 1428q-30 30 -30 72q0 44 30 74l137 137q31 31 73 31q38 0 73 -30q31 -31 31 -73q0 -40 -31 -71l-138 -140q-30 -30 -73 -30q-42 0 -72 30zM548 0q-43 0 -72.5 28.5t-29.5 71.5v444l-400 593q-24 29 -24 66q0 47 35 79q31 26 71 26q44 0 73 -36l347 -527l345 529
q27 35 76 35q34 0 64 -25q38 -32 38 -78q0 -36 -25 -68l-396 -593v-445q0 -43 -29.5 -71.5t-72.5 -28.5z" />
    <glyph glyph-name="Thorn" unicode="&#xde;" horiz-adv-x="1088" 
d="M234 0q-43 0 -72 28.5t-29 71.5v1110q0 43 29 72t72 29t73 -29t30 -72v-88h220q205 0 345 -131q142 -134 142 -334t-142 -331q-140 -131 -346 -131h-219v-95q0 -42 -30 -71t-73 -29zM337 398h222q119 0 201 76q80 77 80 183t-81 185q-79 77 -199 77h-223v-521z" />
    <glyph glyph-name="germandbls" unicode="&#xdf;" horiz-adv-x="1010" 
d="M238 -275q-44 0 -74 30q-31 31 -31 74v1085q0 179 110 289q108 113 282 113q147 0 257 -99q109 -103 109 -249q0 -83 -31 -153t-88 -116q88 -45 141 -129q54 -86 54 -191q0 -147 -99 -254q-111 -119 -277 -125h-4q-42 0 -71.5 29t-29.5 71t29.5 71.5t71.5 29.5h5
q71 0 125 57q51 56 51 132q0 77 -55 129q-53 45 -125 45h-26q-46 0 -79 33q-32 32 -32 79q0 48 32 80t79 32h4q60 1 99 57q33 48 33 117q0 67 -50 111q-50 46 -123 46q-77 0 -125 -45q-56 -53 -57 -156v-1089q0 -43 -31 -74q-30 -30 -74 -30z" />
    <glyph glyph-name="agrave" unicode="&#xe0;" horiz-adv-x="1121" 
d="M461 1129l-138 140q-31 31 -31 71q0 42 31 73q35 30 73 30q42 0 73 -31l136 -137q31 -31 31 -74q0 -41 -31 -72q-30 -30 -71 -30q-43 0 -73 30zM532 -12q-98 0 -187.5 37.5t-157.5 105.5q-143 143 -143 345t143 345q68 68 157.5 106t187.5 38q202 0 344 -142t144 -343
v-376q0 -38 -30 -73q-28 -31 -75 -31q-39 0 -67 26.5t-32 66.5q-129 -105 -284 -105zM532 193q119 0 202 83q82 82 82 200q0 119 -82 201t-202 82q-117 0 -199 -82q-84 -84 -84 -201q0 -116 84 -200q83 -83 199 -83z" />
    <glyph glyph-name="aacute" unicode="&#xe1;" horiz-adv-x="1121" 
d="M528 1128q-30 30 -30 72q0 44 30 74l137 137q31 31 73 31q38 0 73 -30q31 -31 31 -73q0 -40 -31 -71l-138 -140q-30 -30 -73 -30q-42 0 -72 30zM532 -12q-98 0 -187.5 37.5t-157.5 105.5q-143 143 -143 345t143 345q68 68 157.5 106t187.5 38q202 0 344 -142t144 -343
v-376q0 -38 -30 -73q-28 -31 -75 -31q-39 0 -67 26.5t-32 66.5q-129 -105 -284 -105zM532 193q119 0 202 83q82 82 82 200q0 119 -82 201t-202 82q-117 0 -199 -82q-84 -84 -84 -201q0 -116 84 -200q83 -83 199 -83z" />
    <glyph glyph-name="acircumflex" unicode="&#xe2;" horiz-adv-x="1121" 
d="M291 1094q-42 13 -55 56q-5 12 -5 26q0 30 25 55l217 219q22 22 47 25q2 1 9 1h10q6 0 7 -1q23 -3 47 -25l217 -219q26 -26 26 -57q0 -9 -5 -24q-15 -43 -56 -56q-9 -4 -25 -4q-33 0 -57 24l-161 161l-159 -161q-24 -24 -58 -24q-9 0 -24 4zM532 -12q-98 0 -187.5 37.5
t-157.5 105.5q-143 143 -143 345t143 345q68 68 157.5 106t187.5 38q202 0 344 -142t144 -343v-376q0 -38 -30 -73q-28 -31 -75 -31q-39 0 -67 26.5t-32 66.5q-129 -105 -284 -105zM532 193q119 0 202 83q82 82 82 200q0 119 -82 201t-202 82q-117 0 -199 -82
q-84 -84 -84 -201q0 -116 84 -200q83 -83 199 -83z" />
    <glyph glyph-name="atilde" unicode="&#xe3;" horiz-adv-x="1121" 
d="M681 1094q-72 0 -155 63l-18 14q-22 17 -51 28q-17 5 -28 5q-50 0 -96 -59q-8 -13 -14 -19q-24 -24 -58 -24t-57 23q-25 23 -25 59q-1 33 23 57q25 38 74 76q68 53 146 53q76 0 152 -59l21 -16q22 -18 53 -29q14 -6 28 -6q48 0 98 63q9 12 10 13q24 24 58 24t58 -23.5
t25 -56.5q0 -30 -24 -57q-20 -35 -74 -76q-69 -53 -146 -53zM532 -12q-98 0 -187.5 37.5t-157.5 105.5q-143 143 -143 345t143 345q68 68 157.5 106t187.5 38q202 0 344 -142t144 -343v-376q0 -38 -30 -73q-28 -31 -75 -31q-39 0 -67 26.5t-32 66.5q-129 -105 -284 -105z
M532 193q119 0 202 83q82 82 82 200q0 119 -82 201t-202 82q-117 0 -199 -82q-84 -84 -84 -201q0 -116 84 -200q83 -83 199 -83z" />
    <glyph glyph-name="adieresis" unicode="&#xe4;" horiz-adv-x="1121" 
d="M345 1102q-48 0 -81 33t-33 80q0 48 33 81q34 34 81 34t81 -34t34 -81q0 -46 -34 -80q-33 -33 -81 -33zM723 1102q-47 0 -80 33q-34 34 -34 80q0 47 34 81t80 34q48 0 82 -34q33 -33 33 -81q0 -47 -33 -80t-82 -33zM532 -12q-98 0 -187.5 37.5t-157.5 105.5
q-143 143 -143 345t143 345q68 68 157.5 106t187.5 38q202 0 344 -142t144 -343v-376q0 -38 -30 -73q-28 -31 -75 -31q-39 0 -67 26.5t-32 66.5q-129 -105 -284 -105zM532 193q119 0 202 83q82 82 82 200q0 119 -82 201t-202 82q-117 0 -199 -82q-84 -84 -84 -201
q0 -116 84 -200q83 -83 199 -83z" />
    <glyph glyph-name="aring" unicode="&#xe5;" horiz-adv-x="1121" 
d="M536 1036q-90 0 -155 67q-65 65 -65 154q0 91 65 156q64 64 155 64q90 0 156 -64q64 -64 64 -156q0 -90 -64 -154q-67 -67 -156 -67zM537 1179q33 0 55.5 22.5t22.5 55.5t-22.5 56.5t-55.5 23.5t-56 -23.5t-23 -56.5t23 -55.5t56 -22.5zM532 -12q-98 0 -187.5 37.5
t-157.5 105.5q-143 143 -143 345t143 345q68 68 157.5 106t187.5 38q202 0 344 -142t144 -343v-376q0 -38 -30 -73q-28 -31 -75 -31q-39 0 -67 26.5t-32 66.5q-129 -105 -284 -105zM532 193q119 0 202 83q82 82 82 200q0 119 -82 201t-202 82q-117 0 -199 -82
q-84 -84 -84 -201q0 -116 84 -200q83 -83 199 -83z" />
    <glyph glyph-name="ae" unicode="&#xe6;" horiz-adv-x="1854" 
d="M1313 -13q-162 0 -295 97q-7 -37 -35.5 -60.5t-67.5 -23.5t-67 26.5t-32 66.5q-129 -105 -284 -105q-98 0 -187.5 37.5t-157.5 105.5q-143 143 -143 345t143 345q68 68 157.5 106t187.5 38q114 0 213.5 -49t168.5 -137q70 95 174.5 148t224.5 53q204 0 349 -143
q146 -146 148 -349q0 -43 -27.5 -70t-72.5 -27h-667q24 -88 100 -148q76 -59 170 -59q118 0 188 76q34 26 69 26q18 0 34 -6q32 -11 49 -43q17 -28 17 -57q0 -46 -39 -79q-55 -53 -124 -79q-83 -35 -194 -35zM1037 561h564q-22 96 -100 160q-78 62 -184 62q-103 0 -182 -64
q-78 -64 -98 -158zM532 193q119 0 202 83q82 82 82 200q0 119 -82 201t-202 82q-117 0 -199 -82q-84 -84 -84 -201q0 -116 84 -200q83 -83 199 -83z" />
    <glyph glyph-name="ccedilla" unicode="&#xe7;" horiz-adv-x="952" 
d="M575 -527q-91 0 -155 64q-65 65 -65 155q0 28 19.5 47.5t47.5 19.5q26 0 44 -18.5t19 -46.5q0 -37 27.5 -64.5t65.5 -27.5q39 0 65 27t26 65q0 42 -29 67t-80 25q-73 0 -73 53v153q-187 18 -314 153q-129 137 -129 327v1q0 1 1 1v1q-1 0 -1 1q0 202 145 347
q68 68 159 106t190 38q98 0 184.5 -34t147.5 -97q37 -37 38 -81q0 -47 -32 -75q-36 -30 -69 -30q-37 0 -93 44q-82 66 -189 66q-113 0 -195 -89q-77 -83 -77 -193l-1 -2l1 -1q0 -108 76 -190q79 -88 190 -89q114 -5 195 65q55 43 91 43q35 0 71 -30q32 -28 32 -73
q-1 -44 -38 -81q-99 -101 -252 -124v-86q75 -12 128 -74q51 -61 51 -144q0 -90 -65 -155q-66 -64 -157 -64z" />
    <glyph glyph-name="egrave" unicode="&#xe8;" horiz-adv-x="1069" 
d="M458 1133l-139 139q-30 30 -30 71q0 43 30 73q35 30 74 30q42 0 73 -31l136 -137q31 -31 31 -74q0 -40 -31 -71t-72 -31t-72 31zM535 -11q-203 0 -347 142q-69 68 -106.5 157.5t-37.5 187.5t37.5 188t106.5 158t159 105.5t188 37.5q97 0 186 -37t158 -105
q144 -141 146 -342q0 -43 -28 -70t-72 -27h-655q24 -85 98 -143q71 -57 167 -57q116 0 183 73q34 26 67 26q15 0 34 -7q30 -11 49 -43q18 -28 18 -57q0 -44 -39 -77q-57 -52 -121 -77q-81 -33 -191 -33zM264 554h551q-23 97 -97 155q-76 61 -180 61q-105 0 -179 -61
q-75 -63 -95 -155z" />
    <glyph glyph-name="eacute" unicode="&#xe9;" horiz-adv-x="1069" 
d="M531 1121q-30 30 -30 72q0 44 30 74l137 137q31 31 73 31q38 0 73 -30q31 -31 31 -73q0 -40 -31 -71l-138 -140q-30 -30 -73 -30q-42 0 -72 30zM535 -11q-203 0 -347 142q-69 68 -106.5 157.5t-37.5 187.5t37.5 188t106.5 158t159 105.5t188 37.5q97 0 186 -37t158 -105
q144 -141 146 -342q0 -43 -28 -70t-72 -27h-655q24 -85 98 -143q71 -57 167 -57q116 0 183 73q34 26 67 26q15 0 34 -7q30 -11 49 -43q18 -28 18 -57q0 -44 -39 -77q-57 -52 -121 -77q-81 -33 -191 -33zM264 554h551q-23 97 -97 155q-76 61 -180 61q-105 0 -179 -61
q-75 -63 -95 -155z" />
    <glyph glyph-name="ecircumflex" unicode="&#xea;" horiz-adv-x="1069" 
d="M317 1096q-42 13 -55 56q-4 9 -4 26q0 30 25 55l217 219q22 22 47 25q2 1 9 1h9q6 0 7 -1q24 -3 48 -25l217 -219q25 -25 25 -57q0 -25 -17.5 -48.5t-42.5 -31.5q-9 -4 -26 -4q-32 0 -56 24l-161 161l-160 -161q-24 -24 -56 -24q-17 0 -26 4zM535 -11q-203 0 -347 142
q-69 68 -106.5 157.5t-37.5 187.5t37.5 188t106.5 158t159 105.5t188 37.5q97 0 186 -37t158 -105q144 -141 146 -342q0 -43 -28 -70t-72 -27h-655q24 -85 98 -143q71 -57 167 -57q116 0 183 73q34 26 67 26q15 0 34 -7q30 -11 49 -43q18 -28 18 -57q0 -44 -39 -77
q-57 -52 -121 -77q-81 -33 -191 -33zM264 554h551q-23 97 -97 155q-76 61 -180 61q-105 0 -179 -61q-75 -63 -95 -155z" />
    <glyph glyph-name="edieresis" unicode="&#xeb;" horiz-adv-x="1069" 
d="M368 1098q-49 0 -81 32q-33 33 -33 81t33 81q34 34 81 34t81 -34q33 -33 33 -81t-33 -81q-32 -32 -81 -32zM745 1098q-47 0 -79 32q-34 34 -34 81t34 81t79 34q48 0 82 -34q33 -33 33 -81t-33 -81q-32 -32 -82 -32zM535 -11q-203 0 -347 142q-69 68 -106.5 157.5
t-37.5 187.5t37.5 188t106.5 158t159 105.5t188 37.5q97 0 186 -37t158 -105q144 -141 146 -342q0 -43 -28 -70t-72 -27h-655q24 -85 98 -143q71 -57 167 -57q116 0 183 73q34 26 67 26q15 0 34 -7q30 -11 49 -43q18 -28 18 -57q0 -44 -39 -77q-57 -52 -121 -77
q-81 -33 -191 -33zM264 554h551q-23 97 -97 155q-76 61 -180 61q-105 0 -179 -61q-75 -63 -95 -155z" />
    <glyph glyph-name="igrave" unicode="&#xec;" horiz-adv-x="409" 
d="M100 1113l-138 139q-31 31 -31 72q0 42 31 73q34 29 74 29q43 0 73 -30l136 -138q30 -30 30 -73q0 -42 -30 -72q-31 -31 -72 -31q-42 0 -73 31zM206 0q-38 0 -73 30q-31 29 -31 72v760q0 44 31 73q35 30 74 30q44 0 72 -30q28 -29 28 -73v-760q0 -44 -28 -72
q-30 -30 -73 -30z" />
    <glyph glyph-name="iacute" unicode="&#xed;" horiz-adv-x="409" 
d="M140 1116q-30 30 -30 72q0 44 30 74l136 137q31 31 74 31q38 0 73 -30q31 -31 31 -73q0 -41 -31 -72l-138 -139q-31 -31 -73 -31q-41 0 -72 31zM206 0q-38 0 -73 30q-31 29 -31 72v760q0 44 31 73q35 30 74 30q44 0 72 -30q28 -29 28 -73v-760q0 -44 -28 -72
q-30 -30 -73 -30z" />
    <glyph glyph-name="icircumflex" unicode="&#xee;" horiz-adv-x="409" 
d="M-38 1097q-42 13 -55 56q-4 9 -4 26q0 31 24 55l217 219q22 22 47 25q2 1 10 1h9q6 0 7 -1q23 -3 47 -25l217 -219q26 -26 26 -57q0 -12 -4 -24q-15 -42 -57 -56q-9 -4 -25 -4q-32 0 -56 24l-161 161l-160 -161q-24 -24 -56 -24q-17 0 -26 4zM206 0q-38 0 -73 30
q-31 29 -31 72v760q0 44 31 73q35 30 74 30q44 0 72 -30q28 -29 28 -73v-760q0 -44 -28 -72q-30 -30 -73 -30z" />
    <glyph glyph-name="idieresis" unicode="&#xef;" horiz-adv-x="409" 
d="M15 1087q-48 0 -81 33q-32 32 -32 81t32 81q34 34 81 34t81 -34t34 -81t-34 -81q-33 -33 -81 -33zM393 1087q-47 0 -80 33t-33 81t33 81q34 34 80 34q48 0 82 -34q33 -33 33 -81t-33 -81t-82 -33zM206 0q-38 0 -73 30q-31 29 -31 72v760q0 44 31 73q35 30 74 30
q44 0 72 -30q28 -29 28 -73v-760q0 -44 -28 -72q-30 -30 -73 -30z" />
    <glyph glyph-name="eth" unicode="&#xf0;" 
d="M532 -12q-98 0 -187.5 37.5t-157.5 105.5q-143 143 -143 345t143 345q68 68 157.5 106t187.5 38q26 0 50 -3l-47 75l-66 -38q-17 -9 -34 -9q-39 0 -59 39q-9 15 -9 33q0 41 39 60l56 32q-17 26 -17 57q0 55 52 85q23 14 53 14q15 0 27 -3q40 -13 62 -52l76 43
q17 10 33 10q41 0 61 -38q7 -13 7 -33q0 -39 -36 -59l-71 -41l245 -416l4 -8q62 -109 62 -237q0 -201 -142 -345q-68 -68 -158 -105.5t-188 -37.5zM532 193q119 0 202 83q82 82 82 200q0 119 -82 201t-202 82q-117 0 -199 -82q-84 -84 -84 -201q0 -116 84 -200
q83 -83 199 -83z" />
    <glyph glyph-name="ntilde" unicode="&#xf1;" horiz-adv-x="1059" 
d="M691 1090q-71 0 -154 63l-19 14q-22 17 -51 28q-17 5 -28 5q-50 0 -96 -59q-10 -16 -13 -19q-24 -24 -59 -24q-34 0 -57 23q-25 23 -25 59q-1 33 23 57q24 37 75 76q68 53 145 53t153 -59l20 -16q22 -18 53 -29q16 -7 28 -7q48 0 98 64q6 8 11 13q24 24 57 24
q34 0 58 -23.5t25 -56.5q0 -30 -24 -57q-21 -36 -73 -76q-69 -53 -147 -53zM865 -2q-43 0 -72 28.5t-29 71.5v394q-2 125 -58 196q-60 74 -161 74q-106 0 -171 -76q-68 -79 -68 -189v-396q0 -43 -29 -72t-72 -29q-42 0 -72 30q-31 31 -31 71v762q0 44 31 73q35 30 73 30
q44 0 72 -30q28 -29 28 -73v-14q121 116 261 116q178 0 289 -135q111 -133 111 -338v-394q0 -43 -29.5 -71.5t-72.5 -28.5z" />
    <glyph glyph-name="ograve" unicode="&#xf2;" 
d="M442 1127l-138 140q-31 31 -31 71q0 42 31 73q35 30 74 30q42 0 73 -31l136 -137q30 -30 30 -74q0 -42 -30 -72t-72 -30q-43 0 -73 30zM532 -12q-98 0 -187.5 37.5t-157.5 105.5q-143 143 -143 345t143 345q68 68 157.5 106t187.5 38t188 -38t158 -106q142 -144 142 -345
t-142 -345q-68 -68 -158 -105.5t-188 -37.5zM532 193q119 0 202 83q82 82 82 200q0 119 -82 201t-202 82q-117 0 -199 -82q-84 -84 -84 -201q0 -116 84 -200q83 -83 199 -83z" />
    <glyph glyph-name="oacute" unicode="&#xf3;" 
d="M547 1126q-31 31 -31 72q0 43 31 74l136 137q31 31 74 31q37 0 72 -30q31 -31 31 -73q0 -40 -31 -71l-138 -140q-30 -30 -73 -30q-41 0 -71 30zM532 -12q-98 0 -187.5 37.5t-157.5 105.5q-143 143 -143 345t143 345q68 68 157.5 106t187.5 38t188 -38t158 -106
q142 -144 142 -345t-142 -345q-68 -68 -158 -105.5t-188 -37.5zM532 193q119 0 202 83q82 82 82 200q0 119 -82 201t-202 82q-117 0 -199 -82q-84 -84 -84 -201q0 -116 84 -200q83 -83 199 -83z" />
    <glyph glyph-name="ocircumflex" unicode="&#xf4;" 
d="M291 1091q-42 13 -55 56q-5 12 -5 24q0 32 25 57l217 219q21 21 47 24q4 2 9 2h10q5 0 7 -2q25 -3 47 -24l217 -219q26 -26 26 -58q0 -25 -18 -48t-43 -31q-12 -5 -25 -5q-32 0 -57 25l-161 161l-159 -161q-25 -25 -57 -25q-13 0 -25 5zM532 -12q-98 0 -187.5 37.5
t-157.5 105.5q-143 143 -143 345t143 345q68 68 157.5 106t187.5 38t188 -38t158 -106q142 -144 142 -345t-142 -345q-68 -68 -158 -105.5t-188 -37.5zM532 193q119 0 202 83q82 82 82 200q0 119 -82 201t-202 82q-117 0 -199 -82q-84 -84 -84 -201q0 -116 84 -200
q83 -83 199 -83z" />
    <glyph glyph-name="otilde" unicode="&#xf5;" 
d="M671 1084q-70 0 -155 64l-18 14l-24 16q-34 17 -55 17q-50 0 -96 -59q-8 -13 -14 -19q-24 -24 -58 -24t-57 23q-25 23 -25 59q-2 33 22 57q24 37 75 76q68 53 146 53q76 0 152 -59l21 -16q7 -5 25 -16q37 -20 56 -20q48 0 98 64q9 12 10 13q24 24 57 24q34 0 58 -24
q25 -25 25 -58q0 -30 -23 -56q-19 -33 -74 -75q-71 -54 -146 -54zM532 -12q-98 0 -187.5 37.5t-157.5 105.5q-143 143 -143 345t143 345q68 68 157.5 106t187.5 38t188 -38t158 -106q142 -144 142 -345t-142 -345q-68 -68 -158 -105.5t-188 -37.5zM532 193q119 0 202 83
q82 82 82 200q0 119 -82 201t-202 82q-117 0 -199 -82q-84 -84 -84 -201q0 -116 84 -200q83 -83 199 -83z" />
    <glyph glyph-name="odieresis" unicode="&#xf6;" 
d="M344 1089q-49 0 -81 32q-33 33 -33 81t33 81q34 34 81 34t81 -34t34 -81t-34 -81q-32 -32 -81 -32zM722 1089q-48 0 -80 32q-34 34 -34 81t34 81t80 34q48 0 82 -34q33 -33 33 -81t-33 -81q-32 -32 -82 -32zM532 -12q-98 0 -187.5 37.5t-157.5 105.5q-143 143 -143 345
t143 345q68 68 157.5 106t187.5 38t188 -38t158 -106q142 -144 142 -345t-142 -345q-68 -68 -158 -105.5t-188 -37.5zM532 193q119 0 202 83q82 82 82 200q0 119 -82 201t-202 82q-117 0 -199 -82q-84 -84 -84 -201q0 -116 84 -200q83 -83 199 -83z" />
    <glyph glyph-name="divide" unicode="&#xf7;" horiz-adv-x="822" 
d="M423 836q-50 0 -85 35q-36 36 -36 86t36 86t85 36q50 0 86 -36t36 -86t-36 -86q-35 -35 -86 -35zM685 485h-550q-42 0 -68 29q-29 26 -29 68q0 40 28 67.5t69 27.5h550q40 0 70 -28q27 -29 27 -67q0 -40 -28 -68.5t-69 -28.5zM421 101q-50 0 -86 36t-36 85q0 50 36 86
t86 36t86 -36t36 -86q0 -49 -36 -85t-86 -36z" />
    <glyph glyph-name="oslash" unicode="&#xf8;" 
d="M273 -60q-13 -5 -28 -5q-25 0 -49 13q-38 19 -49 63q-3 12 -3 26q0 29 14 52l28 43q-142 142 -142 344t143 345q68 68 157.5 106t187.5 38q104 0 187 -38l9 13q19 37 63 49q15 4 26 4q27 0 52 -13q37 -23 47 -62q4 -16 4 -26q0 -29 -14 -52l-19 -29q133 -142 133 -335
q0 -201 -142 -345q-68 -68 -158 -105.5t-188 -37.5t-175 31l-21 -31q-22 -38 -63 -48zM304 307l297 444q-42 8 -69 8q-117 0 -199 -82q-84 -84 -84 -201q0 -95 55 -169zM532 193q119 0 202 83q82 82 82 200q0 86 -48 158l-292 -436q37 -5 56 -5z" />
    <glyph glyph-name="ugrave" unicode="&#xf9;" horiz-adv-x="1058" 
d="M469 1122l-138 140q-31 31 -31 71q0 42 31 73q35 30 73 30q42 0 73 -31l136 -137q31 -31 31 -74q0 -41 -31 -72q-30 -30 -71 -30q-43 0 -73 30zM853 -2q-42 0 -70.5 29.5t-28.5 72.5v15q-121 -116 -262 -116q-178 0 -289 135q-111 134 -111 340v391q0 43 30 72t73 29
t72 -29t29 -72v-393q0 -124 59 -196q59 -74 160 -74q103 0 171 76t68 189v395q0 43 29 72.5t72 29.5q44 0 73 -29t29 -73v-762q0 -42 -30 -71q-34 -31 -74 -31z" />
    <glyph glyph-name="uacute" unicode="&#xfa;" horiz-adv-x="1058" 
d="M516 1104q-31 31 -31 72q0 42 31 73l136 137q31 31 74 31q39 0 73 -29q30 -30 30 -73q0 -42 -30 -72l-139 -139q-31 -31 -72 -31t-72 31zM853 -2q-42 0 -70.5 29.5t-28.5 72.5v15q-121 -116 -262 -116q-178 0 -289 135q-111 134 -111 340v391q0 43 30 72t73 29t72 -29
t29 -72v-393q0 -124 59 -196q59 -74 160 -74q103 0 171 76t68 189v395q0 43 29 72.5t72 29.5q44 0 73 -29t29 -73v-762q0 -42 -30 -71q-34 -31 -74 -31z" />
    <glyph glyph-name="ucircumflex" unicode="&#xfb;" horiz-adv-x="1058" 
d="M308 1073q-42 13 -55 56q-4 9 -4 26q0 31 24 55l217 220q21 21 48 24q2 1 9 1h9q6 0 7 -1q25 -3 47 -24l217 -220q26 -26 26 -57q0 -12 -4 -24q-15 -43 -56 -56q-9 -4 -26 -4q-31 0 -56 25l-161 160l-160 -160q-25 -25 -56 -25q-17 0 -26 4zM853 -2q-42 0 -70.5 29.5
t-28.5 72.5v15q-121 -116 -262 -116q-178 0 -289 135q-111 134 -111 340v391q0 43 30 72t73 29t72 -29t29 -72v-393q0 -124 59 -196q59 -74 160 -74q103 0 171 76t68 189v395q0 43 29 72.5t72 29.5q44 0 73 -29t29 -73v-762q0 -42 -30 -71q-34 -31 -74 -31z" />
    <glyph glyph-name="udieresis" unicode="&#xfc;" horiz-adv-x="1058" 
d="M346 1080q-48 0 -81 33t-33 81t33 81q34 34 81 34t81 -34t34 -81t-34 -81q-33 -33 -81 -33zM724 1080q-47 0 -80 33q-34 34 -34 81t34 81t80 34q48 0 82 -34q33 -33 33 -81t-33 -81t-82 -33zM853 -2q-42 0 -70.5 29.5t-28.5 72.5v15q-121 -116 -262 -116q-178 0 -289 135
q-111 134 -111 340v391q0 43 30 72t73 29t72 -29t29 -72v-393q0 -124 59 -196q59 -74 160 -74q103 0 171 76t68 189v395q0 43 29 72.5t72 29.5q44 0 73 -29t29 -73v-762q0 -42 -30 -71q-34 -31 -74 -31z" />
    <glyph glyph-name="yacute" unicode="&#xfd;" horiz-adv-x="939" 
d="M523 1110q-30 30 -30 72q0 43 30 73l136 138q30 30 74 30q39 0 73 -29q31 -31 31 -73q0 -41 -31 -72l-138 -139q-31 -31 -73 -31q-41 0 -72 31zM301 -360q-21 0 -40 9q-53 24 -53 82q0 27 12 52l139 313l-327 724q-9 20 -9 43q0 19 6 36q13 37 54 57q22 10 40 10
q42 0 71 -29q14 -14 23 -34l250 -566l254 566q20 41 57 54q16 8 38 8q40 0 73 -33q29 -29 29 -73q-1 -16 -11 -40l-510 -1118q-20 -41 -57 -54q-15 -7 -39 -7z" />
    <glyph glyph-name="thorn" unicode="&#xfe;" horiz-adv-x="1177" 
d="M238 -313q-44 0 -74 30q-31 31 -31 75v1410q0 45 31 76t74 31q44 0 71.5 -30.5t27.5 -76.5v-330q133 93 285 93q98 0 187.5 -38t157.5 -106q142 -144 142 -345t-142 -345q-68 -68 -157.5 -105.5t-187.5 -37.5q-159 0 -285 92v-288q0 -46 -27.5 -75.5t-71.5 -29.5z
M622 193q118 0 201 83q82 82 82 200q0 119 -82 201t-201 82q-118 0 -200 -82q-84 -84 -84 -201q0 -116 84 -200q83 -83 200 -83z" />
    <glyph glyph-name="ydieresis" unicode="&#xff;" horiz-adv-x="939" 
d="M283 1080q-48 0 -81 33t-33 81t33 81q34 34 81 34t81 -34q33 -33 33 -81t-33 -81t-81 -33zM660 1080q-46 0 -79 33q-34 34 -34 81t34 81t79 34q48 0 82 -34q33 -33 33 -81t-33 -81t-82 -33zM301 -360q-21 0 -40 9q-53 24 -53 82q0 27 12 52l139 313l-327 724q-9 20 -9 40
q-1 40 27 73q31 33 73 33q20 0 38 -8q37 -14 56 -55l250 -566l254 566q10 21 24 34q30 28 71 28q17 0 39 -10q42 -20 55 -57q6 -16 6 -36q0 -24 -9 -43l-510 -1118q-8 -18 -23 -33q-32 -28 -73 -28z" />
    <glyph glyph-name="Amacron" unicode="&#x100;" horiz-adv-x="1205" 
d="M807 1400h-404q-37 0 -62.5 26.5t-25.5 64.5q0 37 25 61.5t63 24.5h404q36 0 63 -25q26 -28 26 -61q0 -36 -26 -64q-26 -27 -63 -27zM1049 6q-40 14 -59 54l-128 305h-519l-126 -304q-16 -41 -56 -54q-18 -7 -37 -7q-23 0 -44 9q-57 25 -57 87q0 27 10 47l480 1105
q27 63 93 63q67 0 92 -62l476 -1106q10 -20 10 -47q0 -62 -57 -87q-19 -9 -43 -9q-18 0 -35 6zM428 568h348l-175 417z" />
    <glyph glyph-name="amacron" unicode="&#x101;" horiz-adv-x="1121" 
d="M735 1097h-403q-37 0 -62.5 26.5t-25.5 64.5q0 37 25 61.5t63 24.5h403q37 0 64 -25q25 -26 25 -61q0 -38 -25 -64q-25 -27 -64 -27zM532 -12q-98 0 -187.5 37.5t-157.5 105.5q-143 143 -143 345t143 345q68 68 157.5 106t187.5 38q202 0 344 -142t144 -343v-376
q0 -38 -30 -73q-28 -31 -75 -31q-39 0 -67 26.5t-32 66.5q-129 -105 -284 -105zM532 193q119 0 202 83q82 82 82 200q0 119 -82 201t-202 82q-117 0 -199 -82q-84 -84 -84 -201q0 -116 84 -200q83 -83 199 -83z" />
    <glyph glyph-name="Abreve" unicode="&#x102;" horiz-adv-x="1205" 
d="M604 1406q-96 0 -164 68q-67 67 -67 162q0 30 20 51t49 21q30 0 50.5 -21t20.5 -51q0 -36 27 -63q26 -28 64 -28q40 0 66 28q26 26 26 63q0 30 20 51t50 21t50 -21t20 -51q0 -91 -68 -162q-68 -68 -164 -68zM1049 6q-40 14 -59 54l-128 305h-519l-126 -304
q-16 -41 -56 -54q-18 -7 -37 -7q-23 0 -44 9q-57 25 -57 87q0 27 10 47l480 1105q27 63 93 63q67 0 92 -62l476 -1106q10 -20 10 -47q0 -62 -57 -87q-19 -9 -43 -9q-18 0 -35 6zM428 568h348l-175 417z" />
    <glyph glyph-name="abreve" unicode="&#x103;" horiz-adv-x="1121" 
d="M559 1098q-97 0 -164 67t-67 163q0 30 20 51t49 21q30 0 50.5 -21t20.5 -51q0 -36 27 -63q26 -28 64 -28q40 0 66 28q26 26 26 63q0 30 20 51t50 21t50 -21t20 -51q0 -92 -68 -163q-67 -67 -164 -67zM532 -12q-98 0 -187.5 37.5t-157.5 105.5q-143 143 -143 345t143 345
q68 68 157.5 106t187.5 38q202 0 344 -142t144 -343v-376q0 -38 -30 -73q-28 -31 -75 -31q-39 0 -67 26.5t-32 66.5q-129 -105 -284 -105zM532 193q119 0 202 83q82 82 82 200q0 119 -82 201t-202 82q-117 0 -199 -82q-84 -84 -84 -201q0 -116 84 -200q83 -83 199 -83z" />
    <glyph glyph-name="Aogonek" unicode="&#x104;" horiz-adv-x="1205" 
d="M1078 -404q-92 0 -155 65q-65 63 -65 157q0 95 67 160q1 0 1 2h1l69 68l-3 6l-3 6l-128 305h-519l-126 -304q-16 -41 -56 -54q-18 -7 -37 -7q-23 0 -44 9q-57 25 -57 87q0 27 10 47l480 1105q27 63 93 63q67 0 92 -62l476 -1106q10 -26 10 -48q0 -33 -22 -60
q-3 -6 -8 -11l-137 -136l-8 -6q-25 -27 -25 -63q0 -37 27 -64q25 -27 64 -27t65.5 26t26.5 65q0 28 19 46t49 18q27 0 46 -18.5t19 -45.5v-6q-2 -90 -66 -154q-63 -63 -156 -63zM428 568h348l-175 417z" />
    <glyph glyph-name="aogonek" unicode="&#x105;" horiz-adv-x="1121" 
d="M915 -397q-92 0 -155 65q-65 63 -65 157q0 96 67 161q1 0 1 1h1l64 64q-10 18 -12 42q-129 -105 -284 -105q-98 0 -187.5 37.5t-157.5 105.5q-143 143 -143 345t143 345q68 68 157.5 106t187.5 38q202 0 344 -142t144 -343v-376q0 -31 -21 -62q-3 -6 -8 -11l-137 -135
l-8 -7q-25 -27 -25 -63q0 -37 27 -64q26 -27 64 -27q39 0 66 26t27 65q0 28 18.5 46t48.5 18q27 0 46.5 -18.5t19.5 -45.5v-6q-2 -89 -67 -154q-63 -63 -156 -63zM532 193q119 0 202 83q82 82 82 200q0 119 -82 201t-202 82q-117 0 -199 -82q-84 -84 -84 -201
q0 -116 84 -200q83 -83 199 -83z" />
    <glyph glyph-name="Cacute" unicode="&#x106;" horiz-adv-x="1255" 
d="M716 1461q-31 31 -31 72q0 43 31 74l136 137q31 31 74 31q37 0 72 -30q31 -31 31 -73q0 -40 -31 -71l-138 -140q-30 -30 -73 -30q-41 0 -71 30zM705 -12q-178 0 -333 91q-150 88 -238 238q-90 155 -90 335q0 175 87 329q86 153 234 244q154 95 344 95q133 0 255 -50.5
t217 -147.5q29 -29 29 -69q0 -44 -28 -72q-35 -30 -73 -30q-44 0 -72 28q-135 135 -329 135q-188 0 -324 -133q-135 -135 -135 -327q0 -188 130 -323q132 -138 326 -140q190 0 330 135q30 27 72 27t71 -26q29 -29 29 -72q0 -42 -27 -72q-198 -195 -475 -195z" />
    <glyph glyph-name="cacute" unicode="&#x107;" horiz-adv-x="952" 
d="M504 1128q-31 31 -31 72q0 43 31 74l136 137q31 31 74 31q37 0 72 -30q31 -31 31 -73q0 -40 -31 -71l-138 -140q-30 -30 -73 -30q-41 0 -71 30zM538 -11q-100 0 -190.5 36.5t-158.5 103.5q-69 66 -107 155.5t-38 187.5v1q0 1 1 1v1q-1 0 -1 1q0 202 145 347
q68 68 159 106t190 38q98 0 184.5 -34t147.5 -97q37 -37 38 -81q0 -47 -32 -75q-36 -30 -69 -30q-37 0 -93 44q-82 66 -189 66q-113 0 -195 -89q-77 -83 -77 -193l-1 -2l1 -1q0 -108 76 -190q79 -88 190 -89q114 -5 195 65q55 43 91 43q35 0 71 -30q32 -28 32 -73
q-1 -44 -38 -81q-61 -63 -147.5 -97t-184.5 -34z" />
    <glyph glyph-name="Ccircumflex" unicode="&#x108;" horiz-adv-x="1255" 
d="M470 1424q-41 13 -55 57q-4 9 -4 25q0 32 24 56l217 219q21 21 47 24q2 1 10 1h9q6 0 7 -1q25 -3 47 -24l217 -219q26 -26 26 -58q0 -11 -4 -23q-7 -19 -22.5 -35t-34.5 -22q-9 -4 -25 -4q-32 0 -57 25l-160 161l-160 -161q-25 -25 -56 -25q-17 0 -26 4zM705 -12
q-178 0 -333 91q-150 88 -238 238q-90 155 -90 335q0 175 87 329q86 153 234 244q154 95 344 95q133 0 255 -50.5t217 -147.5q29 -29 29 -69q0 -44 -28 -72q-35 -30 -73 -30q-44 0 -72 28q-135 135 -329 135q-188 0 -324 -133q-135 -135 -135 -327q0 -188 130 -323
q132 -138 326 -140q190 0 330 135q30 27 72 27t71 -26q29 -29 29 -72q0 -42 -27 -72q-198 -195 -475 -195z" />
    <glyph glyph-name="ccircumflex" unicode="&#x109;" horiz-adv-x="952" 
d="M289 1091q-19 6 -34.5 21.5t-21.5 34.5q-4 9 -4 24q0 32 25 57l217 219q21 21 47 24q4 2 9 2h10q5 0 7 -2q25 -3 47 -24l217 -219q26 -26 26 -58q0 -25 -18 -48t-43 -31q-12 -5 -25 -5q-32 0 -57 25l-161 161l-159 -161q-25 -25 -57 -25q-13 0 -25 5zM538 -11
q-100 0 -190.5 36.5t-158.5 103.5q-69 66 -107 155.5t-38 187.5v1q0 1 1 1v1q-1 0 -1 1q0 202 145 347q68 68 159 106t190 38q98 0 184.5 -34t147.5 -97q37 -37 38 -81q0 -47 -32 -75q-36 -30 -69 -30q-37 0 -93 44q-82 66 -189 66q-113 0 -195 -89q-77 -83 -77 -193l-1 -2
l1 -1q0 -108 76 -190q79 -88 190 -89q114 -5 195 65q55 43 91 43q35 0 71 -30q32 -28 32 -73q-1 -44 -38 -81q-61 -63 -147.5 -97t-184.5 -34z" />
    <glyph glyph-name="Cdotaccent" unicode="&#x10a;" horiz-adv-x="1255" 
d="M709 1416q-49 0 -85 36t-36 86t36 86t85 36q50 0 86 -36q35 -35 35 -86t-35 -86q-36 -36 -86 -36zM705 -12q-178 0 -333 91q-150 88 -238 238q-90 155 -90 335q0 175 87 329q86 153 234 244q154 95 344 95q133 0 255 -50.5t217 -147.5q29 -29 29 -69q0 -44 -28 -72
q-35 -30 -73 -30q-44 0 -72 28q-135 135 -329 135q-188 0 -324 -133q-135 -135 -135 -327q0 -188 130 -323q132 -138 326 -140q190 0 330 135q30 27 72 27t71 -26q29 -29 29 -72q0 -42 -27 -72q-198 -195 -475 -195z" />
    <glyph glyph-name="cdotaccent" unicode="&#x10b;" horiz-adv-x="952" 
d="M530 1093q-50 0 -85 35t-35 86t35 86q36 36 85 36q50 0 86 -36t36 -86t-36 -86q-35 -35 -86 -35zM538 -11q-100 0 -190.5 36.5t-158.5 103.5q-69 66 -107 155.5t-38 187.5v1q0 1 1 1v1q-1 0 -1 1q0 202 145 347q68 68 159 106t190 38q98 0 184.5 -34t147.5 -97
q37 -37 38 -81q0 -47 -32 -75q-36 -30 -69 -30q-37 0 -93 44q-82 66 -189 66q-113 0 -195 -89q-77 -83 -77 -193l-1 -2l1 -1q0 -108 76 -190q79 -88 190 -89q114 -5 195 65q55 43 91 43q35 0 71 -30q32 -28 32 -73q-1 -44 -38 -81q-61 -63 -147.5 -97t-184.5 -34z" />
    <glyph glyph-name="Ccaron" unicode="&#x10c;" horiz-adv-x="1255" 
d="M726 1422h-9q-7 0 -9 1q-26 3 -48 25l-217 219q-24 24 -24 55q0 17 4 26q13 43 55 56q15 4 25 4q33 0 57 -24l160 -161l161 161q24 24 57 24q10 0 25 -4q41 -13 56 -55q4 -12 4 -25q0 -31 -26 -57l-217 -219q-24 -22 -47 -25q-1 -1 -7 -1zM705 -12q-178 0 -333 91
q-150 88 -238 238q-90 155 -90 335q0 175 87 329q86 153 234 244q154 95 344 95q133 0 255 -50.5t217 -147.5q29 -29 29 -69q0 -44 -28 -72q-35 -30 -73 -30q-44 0 -72 28q-135 135 -329 135q-188 0 -324 -133q-135 -135 -135 -327q0 -188 130 -323q132 -138 326 -140
q190 0 330 135q30 27 72 27t71 -26q29 -29 29 -72q0 -42 -27 -72q-198 -195 -475 -195z" />
    <glyph glyph-name="ccaron" unicode="&#x10d;" horiz-adv-x="952" 
d="M541 1086h-10q-7 0 -9 1q-25 3 -47 25l-217 219q-25 25 -25 57q0 13 5 25q6 19 21 34t34 21q18 5 24 5q33 0 58 -25l160 -161l160 161q25 25 58 25q6 0 24 -5q19 -6 34.5 -21t22.5 -34q4 -12 4 -24q0 -32 -26 -58l-217 -219q-24 -22 -47 -25q-1 -1 -7 -1zM538 -11
q-100 0 -190.5 36.5t-158.5 103.5q-69 66 -107 155.5t-38 187.5v1q0 1 1 1v1q-1 0 -1 1q0 202 145 347q68 68 159 106t190 38q98 0 184.5 -34t147.5 -97q37 -37 38 -81q0 -47 -32 -75q-36 -30 -69 -30q-37 0 -93 44q-82 66 -189 66q-113 0 -195 -89q-77 -83 -77 -193l-1 -2
l1 -1q0 -108 76 -190q79 -88 190 -89q114 -5 195 65q55 43 91 43q35 0 71 -30q32 -28 32 -73q-1 -44 -38 -81q-61 -63 -147.5 -97t-184.5 -34z" />
    <glyph glyph-name="Dcaron" unicode="&#x10e;" horiz-adv-x="1182" 
d="M529 1416h-9q-7 0 -9 1q-25 3 -47 25l-217 219q-25 25 -25 56q0 17 4 26q6 19 21.5 34t34.5 21q15 4 24 4q34 0 58 -24l159 -161l161 161q24 24 57 24q10 0 25 -4q41 -13 56 -56q4 -12 4 -24q0 -32 -25 -57l-217 -219q-24 -22 -47 -25q-1 -1 -8 -1zM460 0h-226
q-43 0 -72 28.5t-29 71.5v1110q0 43 29 72t72 29h226q184 0 337 -88q152 -87 239 -236q91 -156 91 -334q0 -176 -91 -332q-86 -145 -239 -233t-337 -88zM337 205h124q193 0 327 128q135 130 135 320q0 187 -133 320q-132 130 -324 132h-129v-900z" />
    <glyph glyph-name="dcaron" unicode="&#x10f;" horiz-adv-x="1123" 
d="M540 1089h-10q-7 0 -9 1q-26 3 -47 24l-217 219q-25 25 -25 57q0 13 5 25q6 19 21 34t34 21q18 5 24 5q33 0 58 -25l160 -161l160 161q25 25 58 25q6 0 24 -5q19 -6 34.5 -21t22.5 -34q4 -12 4 -24q0 -32 -26 -58l-217 -219q-22 -21 -47 -24q-1 -1 -7 -1zM532 -11
q-200 0 -345 143q-143 143 -143 344q0 203 143 346q145 143 345 143q152 0 284 -92v337q0 43 29.5 72t72.5 29t72.5 -29t29.5 -72v-1110q0 -43 -29.5 -71.5t-72.5 -28.5q-38 0 -66 23t-35 59q-129 -93 -285 -93zM532 194q120 0 198 78q81 78 86 192v23q-5 116 -86 194
q-80 78 -198 78q-117 0 -199 -82q-84 -84 -84 -201q0 -116 84 -200q82 -82 199 -82z" />
    <glyph glyph-name="Dcroat" unicode="&#x110;" horiz-adv-x="1259" 
d="M463 0h-229q-43 0 -72 28.5t-29 71.5v468h-85q-36 0 -60.5 26t-24.5 63q0 36 24.5 60.5t60.5 24.5h85v468q0 43 29 72t72 29h226q184 0 337 -88q152 -87 239 -236q91 -156 91 -334q0 -179 -90 -331q-88 -147 -239 -234q-155 -88 -335 -88zM337 205h124q193 0 327 128
q135 130 135 320q0 187 -133 320q-132 130 -324 132h-129v-363h126q36 0 61.5 -25t25.5 -60q0 -37 -25 -63t-62 -26h-126v-363z" />
    <glyph glyph-name="dslash" unicode="&#x111;" horiz-adv-x="1123" 
d="M532 -11q-200 0 -345 143q-143 143 -143 344q0 203 143 346q145 143 345 143q152 0 284 -92v136h-123q-30 0 -49.5 18.5t-19.5 48.5t19.5 50t49.5 20h123v64q0 43 29.5 72t72.5 29t72.5 -29t29.5 -72v-64h120q30 0 50.5 -20.5t20.5 -49.5q0 -30 -20 -48.5t-51 -18.5h-120
v-909q0 -43 -29.5 -71.5t-72.5 -28.5q-38 0 -66 23t-35 59q-129 -93 -285 -93zM532 194q120 0 198 78q81 78 86 192v23q-5 116 -86 194q-80 78 -198 78q-117 0 -199 -82q-84 -84 -84 -201q0 -116 84 -200q82 -82 199 -82z" />
    <glyph glyph-name="Emacron" unicode="&#x112;" horiz-adv-x="933" 
d="M686 1412h-403q-37 0 -62.5 26.5t-25.5 64.5q0 37 25 61.5t63 24.5h403q38 0 64 -24q25 -26 25 -62q0 -37 -25 -63q-26 -28 -64 -28zM782 0h-555q-41 3 -67.5 31t-26.5 70v1107q0 43 30 73t73 30h546q42 0 72 -30q29 -29 29 -73q0 -43 -29 -72t-72 -29h-445v-354h321
q44 1 73 -28t29 -73q0 -42 -29.5 -70t-72.5 -28h-321v-351h445q43 0 72 -30t29 -73q0 -42 -29 -71q-30 -30 -72 -29z" />
    <glyph glyph-name="emacron" unicode="&#x113;" horiz-adv-x="1069" 
d="M735 1102h-403q-37 0 -62.5 26.5t-25.5 64.5q0 37 25 61.5t63 24.5h403q37 0 64 -25q25 -26 25 -61q0 -38 -25 -64q-25 -27 -64 -27zM535 -11q-203 0 -347 142q-69 68 -106.5 157.5t-37.5 187.5t37.5 188t106.5 158t159 105.5t188 37.5q97 0 186 -37t158 -105
q144 -141 146 -342q0 -43 -28 -70t-72 -27h-655q24 -85 98 -143q71 -57 167 -57q116 0 183 73q34 26 67 26q15 0 34 -7q30 -11 49 -43q18 -28 18 -57q0 -44 -39 -77q-57 -52 -121 -77q-81 -33 -191 -33zM264 554h551q-23 97 -97 155q-76 61 -180 61q-105 0 -179 -61
q-75 -63 -95 -155z" />
    <glyph glyph-name="Ebreve" unicode="&#x114;" horiz-adv-x="933" 
d="M477 1418q-96 0 -164 68q-67 67 -67 163q0 30 20 50.5t49 20.5q30 0 50.5 -20.5t20.5 -50.5q0 -37 27 -64q25 -27 64 -27q41 0 66 27q26 26 26 64q0 30 20 50.5t50 20.5t50 -20.5t20 -50.5q0 -92 -68 -163q-68 -68 -164 -68zM782 0h-555q-41 3 -67.5 31t-26.5 70v1107
q0 43 30 73t73 30h546q42 0 72 -30q29 -29 29 -73q0 -43 -29 -72t-72 -29h-445v-354h321q44 1 73 -28t29 -73q0 -42 -29.5 -70t-72.5 -28h-321v-351h445q43 0 72 -30t29 -73q0 -42 -29 -71q-30 -30 -72 -29z" />
    <glyph glyph-name="ebreve" unicode="&#x115;" horiz-adv-x="1069" 
d="M569 1089q-96 0 -163 67q-68 68 -68 163q0 30 20.5 51t49.5 21q30 0 50 -21t20 -51q0 -37 27 -64q25 -27 64 -27q41 0 66 27q27 27 27 64q0 30 19.5 51t49.5 21t50 -21t20 -51q0 -92 -68 -163q-67 -67 -164 -67zM535 -11q-203 0 -347 142q-69 68 -106.5 157.5
t-37.5 187.5t37.5 188t106.5 158t159 105.5t188 37.5q97 0 186 -37t158 -105q144 -141 146 -342q0 -43 -28 -70t-72 -27h-655q24 -85 98 -143q71 -57 167 -57q116 0 183 73q34 26 67 26q15 0 34 -7q30 -11 49 -43q18 -28 18 -57q0 -44 -39 -77q-57 -52 -121 -77
q-81 -33 -191 -33zM264 554h551q-23 97 -97 155q-76 61 -180 61q-105 0 -179 -61q-75 -63 -95 -155z" />
    <glyph glyph-name="Edotaccent" unicode="&#x116;" horiz-adv-x="933" 
d="M486 1430q-50 0 -85 35t-35 86t35 86q36 36 85 36q50 0 86 -36t36 -86t-36 -86q-35 -35 -86 -35zM782 0h-555q-41 3 -67.5 31t-26.5 70v1107q0 43 30 73t73 30h546q42 0 72 -30q29 -29 29 -73q0 -43 -29 -72t-72 -29h-445v-354h321q44 1 73 -28t29 -73q0 -42 -29.5 -70
t-72.5 -28h-321v-351h445q43 0 72 -30t29 -73q0 -42 -29 -71q-30 -30 -72 -29z" />
    <glyph glyph-name="edotaccent" unicode="&#x117;" horiz-adv-x="1069" 
d="M546 1096q-49 0 -85 36t-36 86t36 86q35 35 85 35q51 0 86 -35q36 -36 36 -86t-36 -86t-86 -36zM535 -11q-203 0 -347 142q-69 68 -106.5 157.5t-37.5 187.5t37.5 188t106.5 158t159 105.5t188 37.5q97 0 186 -37t158 -105q144 -141 146 -342q0 -43 -28 -70t-72 -27h-655
q24 -85 98 -143q71 -57 167 -57q116 0 183 73q34 26 67 26q15 0 34 -7q30 -11 49 -43q18 -28 18 -57q0 -44 -39 -77q-57 -52 -121 -77q-81 -33 -191 -33zM264 554h551q-23 97 -97 155q-76 61 -180 61q-105 0 -179 -61q-75 -63 -95 -155z" />
    <glyph glyph-name="Eogonek" unicode="&#x118;" horiz-adv-x="933" 
d="M775 -403q-92 0 -155 65q-65 63 -65 157q0 96 67 161q1 0 1 1h1l19 19h-416q-41 3 -67.5 31t-26.5 70v1107q0 43 30 73t73 30h546q42 0 72 -30q29 -29 29 -73q0 -43 -29 -72t-72 -29h-445v-354h321q44 1 73 -28t29 -73q0 -42 -29.5 -70t-72.5 -28h-321v-351h445
q43 0 72 -30t29 -73q0 -39 -27 -69l-5 -6l-137 -136l-8 -6q-25 -27 -25 -63q0 -37 27 -64q26 -27 64 -27q39 0 65.5 26t26.5 65q0 28 19 46t49 18q27 0 46 -18.5t19 -45.5v-6q-2 -90 -66 -154q-63 -63 -156 -63z" />
    <glyph glyph-name="eogonek" unicode="&#x119;" horiz-adv-x="1069" 
d="M779 -323q-91 0 -155 66q-65 63 -65 157q0 42 18 91q-34 -2 -42 -2q-203 0 -347 142q-69 68 -106.5 157.5t-37.5 187.5t37.5 188t106.5 158t159 105.5t188 37.5q97 0 186 -37t158 -105q144 -141 146 -342q0 -43 -28 -70t-72 -27h-655q24 -85 98 -143q71 -57 167 -57
q116 0 183 73q34 26 67 26q15 0 34 -7q30 -11 49 -43q18 -28 18 -56q0 -33 -25 -63l-6 -9l-137 -135l-8 -6q-25 -27 -25 -63q0 -37 27 -64q26 -27 64 -27q39 0 65.5 26t26.5 65q0 28 19 46t49 18q27 0 46 -18.5t19 -45.5v-6q-2 -90 -66 -154t-156 -64zM264 554h551
q-23 97 -97 155q-76 61 -180 61q-105 0 -179 -61q-75 -63 -95 -155z" />
    <glyph glyph-name="Ecaron" unicode="&#x11a;" horiz-adv-x="933" 
d="M525 1418h-9q-7 0 -9 1q-25 3 -47 25l-217 219q-25 25 -25 56q0 17 4 26q6 19 21.5 34t34.5 21q15 4 24 4q33 0 57 -24l160 -161l161 161q24 24 57 24q10 0 25 -4q41 -13 56 -55q4 -12 4 -25q0 -32 -25 -57l-217 -219q-24 -22 -48 -25q-1 -1 -7 -1zM782 0h-555
q-41 3 -67.5 31t-26.5 70v1107q0 43 30 73t73 30h546q42 0 72 -30q29 -29 29 -73q0 -43 -29 -72t-72 -29h-445v-354h321q44 1 73 -28t29 -73q0 -42 -29.5 -70t-72.5 -28h-321v-351h445q43 0 72 -30t29 -73q0 -42 -29 -71q-30 -30 -72 -29z" />
    <glyph glyph-name="ecaron" unicode="&#x11b;" horiz-adv-x="1069" 
d="M561 1101h-9q-7 0 -9 1q-26 3 -47 24l-217 220q-25 25 -25 56q0 16 4 25q6 19 21 34.5t34 21.5q15 4 25 4q32 0 57 -25l160 -160l161 160q25 25 57 25q10 0 25 -4q18 -6 33.5 -21.5t22.5 -34.5q4 -12 4 -24q0 -32 -25 -57l-218 -220q-22 -21 -47 -24q-1 -1 -7 -1z
M535 -11q-203 0 -347 142q-69 68 -106.5 157.5t-37.5 187.5t37.5 188t106.5 158t159 105.5t188 37.5q97 0 186 -37t158 -105q144 -141 146 -342q0 -43 -28 -70t-72 -27h-655q24 -85 98 -143q71 -57 167 -57q116 0 183 73q34 26 67 26q15 0 34 -7q30 -11 49 -43
q18 -28 18 -57q0 -44 -39 -77q-57 -52 -121 -77q-81 -33 -191 -33zM264 554h551q-23 97 -97 155q-76 61 -180 61q-105 0 -179 -61q-75 -63 -95 -155z" />
    <glyph glyph-name="Gcircumflex" unicode="&#x11c;" horiz-adv-x="1382" 
d="M465 1423q-41 13 -55 57q-4 9 -4 25q0 32 24 56l217 219q21 21 47 24q2 1 9 1h10q6 0 7 -1q25 -3 47 -24l217 -219q26 -26 26 -58q0 -25 -18 -48.5t-43 -31.5q-9 -4 -25 -4q-32 0 -57 25l-160 161l-160 -161q-25 -25 -57 -25q-16 0 -25 4zM708 -12q-135 0 -256.5 50.5
t-213.5 143.5q-92 92 -143 214t-51 256q0 133 49.5 254.5t140.5 215.5q93 94 215 146t256 52q276 0 476 -198q30 -30 30 -71t-29 -70q-35 -30 -72 -30q-44 -1 -73 28q-137 135 -330 135q-91 0 -174.5 -34.5t-147.5 -97.5q-136 -136 -136 -329t134 -327q63 -64 147.5 -99.5
t178.5 -35.5q146 0 247 65.5t138 185.5h-216q-43 0 -72 29.5t-29 72.5t29 72.5t72 29.5l335 -2q44 -1 74.5 -29.5t30.5 -71.5q-6 -117 -55 -219.5t-133 -177.5q-175 -158 -422 -158z" />
    <glyph glyph-name="gcircumflex" unicode="&#x11d;" horiz-adv-x="1122" 
d="M296 1100q-42 13 -55 56q-4 9 -4 26q0 31 24 55l217 219q22 22 47 25q2 1 10 1h9q6 0 7 -1q23 -3 47 -25l217 -219q26 -26 26 -57q0 -25 -18 -48.5t-43 -31.5q-9 -4 -25 -4q-33 0 -57 24l-160 161l-160 -161q-24 -24 -56 -24q-17 0 -26 4zM530 -391q-98 0 -184.5 34
t-147.5 97q-37 37 -37 82q-2 45 32 73q36 30 70 30q38 0 91 -44q84 -70 195 -65q103 2 182 80q72 72 83 181q-127 -89 -282 -89q-98 0 -187.5 37.5t-157.5 105.5q-143 143 -143 345t143 345q68 68 157.5 106t187.5 38q151 0 283 -92q4 39 33.5 65.5t69.5 26.5q43 0 72 -29
t29 -72v-358q0 -11 1 -14v-16v-15q-1 -3 -1 -16v-350q-5 -210 -145 -347q-139 -139 -344 -139zM532 193q112 0 194 76q78 75 89 184v47q-11 112 -89 184q-82 75 -194 75q-117 0 -199 -82q-84 -84 -84 -201q0 -116 84 -200q83 -83 199 -83z" />
    <glyph glyph-name="Gbreve" unicode="&#x11e;" horiz-adv-x="1382" 
d="M718 1416q-96 0 -164 68t-68 163q0 30 20.5 50.5t49.5 20.5q30 0 50.5 -20.5t20.5 -50.5q0 -38 26 -64q26 -28 65 -28t65 28q27 27 27 64q0 30 20 50.5t50 20.5t49.5 -20.5t19.5 -50.5q0 -93 -67 -163q-68 -68 -164 -68zM708 -12q-135 0 -256.5 50.5t-213.5 143.5
q-92 92 -143 214t-51 256q0 133 49.5 254.5t140.5 215.5q93 94 215 146t256 52q276 0 476 -198q30 -30 30 -71t-29 -70q-35 -30 -72 -30q-44 -1 -73 28q-137 135 -330 135q-91 0 -174.5 -34.5t-147.5 -97.5q-136 -136 -136 -329t134 -327q63 -64 147.5 -99.5t178.5 -35.5
q146 0 247 65.5t138 185.5h-216q-43 0 -72 29.5t-29 72.5t29 72.5t72 29.5l335 -2q44 -1 74.5 -29.5t30.5 -71.5q-6 -117 -55 -219.5t-133 -177.5q-175 -158 -422 -158z" />
    <glyph glyph-name="gbreve" unicode="&#x11f;" horiz-adv-x="1122" 
d="M529 1094q-96 0 -163 67q-68 68 -68 163q0 30 20.5 51t49.5 21q30 0 50 -21t20 -51q0 -36 27 -63q26 -28 64 -28q40 0 66 28q27 27 27 63q0 30 19.5 51t49.5 21t50 -21t20 -51q0 -92 -68 -163q-67 -67 -164 -67zM530 -391q-98 0 -184.5 34t-147.5 97q-37 37 -37 82
q-2 45 32 73q36 30 70 30q38 0 91 -44q84 -70 195 -65q103 2 182 80q72 72 83 181q-127 -89 -282 -89q-98 0 -187.5 37.5t-157.5 105.5q-143 143 -143 345t143 345q68 68 157.5 106t187.5 38q151 0 283 -92q4 39 33.5 65.5t69.5 26.5q43 0 72 -29t29 -72v-358q0 -11 1 -14
v-16v-15q-1 -3 -1 -16v-350q-5 -210 -145 -347q-139 -139 -344 -139zM532 193q112 0 194 76q78 75 89 184v47q-11 112 -89 184q-82 75 -194 75q-117 0 -199 -82q-84 -84 -84 -201q0 -116 84 -200q83 -83 199 -83z" />
    <glyph glyph-name="Gdotaccent" unicode="&#x120;" horiz-adv-x="1382" 
d="M715 1432q-50 0 -85 35q-36 36 -36 86t36 86t85 36q50 0 86 -36t36 -86t-36 -86q-35 -35 -86 -35zM708 -12q-135 0 -256.5 50.5t-213.5 143.5q-92 92 -143 214t-51 256q0 133 49.5 254.5t140.5 215.5q93 94 215 146t256 52q276 0 476 -198q30 -30 30 -71t-29 -70
q-35 -30 -72 -30q-44 -1 -73 28q-137 135 -330 135q-91 0 -174.5 -34.5t-147.5 -97.5q-136 -136 -136 -329t134 -327q63 -64 147.5 -99.5t178.5 -35.5q146 0 247 65.5t138 185.5h-216q-43 0 -72 29.5t-29 72.5t29 72.5t72 29.5l335 -2q44 -1 74.5 -29.5t30.5 -71.5
q-6 -117 -55 -219.5t-133 -177.5q-175 -158 -422 -158z" />
    <glyph glyph-name="gdotaccent" unicode="&#x121;" horiz-adv-x="1122" 
d="M536 1099q-49 0 -85 36t-36 86t36 86q35 35 85 35q51 0 86 -35t35 -86t-35 -86q-36 -36 -86 -36zM530 -391q-98 0 -184.5 34t-147.5 97q-37 37 -37 82q-2 45 32 73q36 30 70 30q38 0 91 -44q84 -70 195 -65q103 2 182 80q72 72 83 181q-127 -89 -282 -89
q-98 0 -187.5 37.5t-157.5 105.5q-143 143 -143 345t143 345q68 68 157.5 106t187.5 38q151 0 283 -92q4 39 33.5 65.5t69.5 26.5q43 0 72 -29t29 -72v-358q0 -11 1 -14v-16v-15q-1 -3 -1 -16v-350q-5 -210 -145 -347q-139 -139 -344 -139zM532 193q112 0 194 76
q78 75 89 184v47q-11 112 -89 184q-82 75 -194 75q-117 0 -199 -82q-84 -84 -84 -201q0 -116 84 -200q83 -83 199 -83z" />
    <glyph glyph-name="Gcommaaccent" unicode="&#x122;" horiz-adv-x="1382" 
d="M708 -12q-135 0 -256.5 50.5t-213.5 143.5q-92 92 -143 214t-51 256q0 133 49.5 254.5t140.5 215.5q93 94 215 146t256 52q276 0 476 -198q30 -30 30 -71t-29 -70q-35 -30 -72 -30q-44 -1 -73 28q-137 135 -330 135q-91 0 -174.5 -34.5t-147.5 -97.5q-136 -136 -136 -329
t134 -327q63 -64 147.5 -99.5t178.5 -35.5q146 0 247 65.5t138 185.5h-216q-43 0 -72 29.5t-29 72.5t29 72.5t72 29.5l335 -2q44 -1 74.5 -29.5t30.5 -71.5q-6 -117 -55 -219.5t-133 -177.5q-175 -158 -422 -158zM686 -597q-43 0 -72.5 29t-29.5 72v284q0 42 30 71t73 29
q42 0 70 -28.5t28 -71.5v-284q0 -42 -28 -71q-28 -30 -71 -30z" />
    <glyph glyph-name="gcommaaccent" unicode="&#x123;" horiz-adv-x="1122" 
d="M537 1102q-43 0 -73 29t-30 72v284q0 42 30.5 71t73.5 29q42 0 70 -28.5t28 -71.5v-284q0 -40 -29 -71q-28 -30 -70 -30zM530 -391q-98 0 -184.5 34t-147.5 97q-37 37 -37 82q-2 45 32 73q36 30 70 30q38 0 91 -44q84 -70 195 -65q103 2 182 80q72 72 83 181
q-127 -89 -282 -89q-98 0 -187.5 37.5t-157.5 105.5q-143 143 -143 345t143 345q68 68 157.5 106t187.5 38q151 0 283 -92q4 39 33.5 65.5t69.5 26.5q43 0 72 -29t29 -72v-358q0 -11 1 -14v-16v-15q-1 -3 -1 -16v-350q-5 -210 -145 -347q-139 -139 -344 -139zM532 193
q112 0 194 76q78 75 89 184v47q-11 112 -89 184q-82 75 -194 75q-117 0 -199 -82q-84 -84 -84 -201q0 -116 84 -200q83 -83 199 -83z" />
    <glyph glyph-name="Hcircumflex" unicode="&#x124;" horiz-adv-x="1232" 
d="M377 1420q-41 13 -55 57q-5 12 -5 25q0 31 25 56l217 219q21 21 47 24q2 1 9 1h10q6 0 7 -1q25 -3 47 -24l217 -219q26 -26 26 -58q0 -11 -4 -23q-7 -19 -22.5 -35t-34.5 -22q-9 -4 -25 -4q-32 0 -57 25l-161 161l-159 -161q-25 -25 -58 -25q-9 0 -24 4zM234 0
q-43 0 -72 28.5t-29 71.5v1110q0 43 29 72t72 29t73 -29t30 -72v-455h559v455q0 43 30 72t73 29t72 -29t29 -72v-1110q0 -42 -30 -71t-73 -29t-72 28.5t-29 71.5v451h-559v-451q0 -42 -30 -71t-73 -29z" />
    <glyph glyph-name="hcircumflex" unicode="&#x125;" horiz-adv-x="1061" 
d="M-30 1314q-42 13 -55 56q-4 9 -4 26q0 31 24 55l218 219q22 22 47 25q2 1 9 1h9q6 0 7 -1q23 -3 47 -25l217 -219q26 -26 26 -57q0 -12 -4 -24q-15 -43 -56 -56q-9 -4 -26 -4q-32 0 -56 24l-161 161l-160 -161q-24 -24 -56 -24q-17 0 -26 4zM865 -2q-43 0 -72 28.5
t-29 71.5v389q0 123 -57 200q-59 75 -162 75q-101 0 -168 -73q-66 -71 -71 -181v-407q0 -43 -29 -72t-72 -29t-73 30t-30 71v1106q0 43 31 74q30 30 72 30q43 0 73 -30q28 -28 28 -74v-358q121 116 261 116q178 0 289 -135q111 -133 111 -338v-394q0 -43 -29.5 -71.5
t-72.5 -28.5z" />
    <glyph glyph-name="Hbar" unicode="&#x126;" horiz-adv-x="1232" 
d="M234 0q-43 0 -72 28.5t-29 71.5v1110q0 43 29 72t72 29t73 -29t30 -72v-131l559 -1v132q0 43 30 72t73 29t72 -29t29 -72v-1110q0 -42 -30 -71t-73 -29t-72 28.5t-29 71.5v451h-559v-451q0 -42 -30 -71t-73 -29zM337 755h559v141h-559v-141z" />
    <glyph glyph-name="hbar" unicode="&#x127;" horiz-adv-x="1061" 
d="M865 -2q-43 0 -72 28.5t-29 71.5v389q0 123 -57 200q-59 75 -162 75q-101 0 -168 -73q-66 -71 -71 -181v-407q0 -43 -29 -72t-72 -29t-73 30t-30 71v955h-52q-30 0 -51 21t-21 51t21 50t51 20h52v9q0 43 31 74q30 30 72 30q43 0 73 -30q28 -28 28 -74v-9h104
q30 0 50.5 -20.5t20.5 -49.5q0 -30 -20.5 -51t-50.5 -21h-104v-207q121 116 261 116q178 0 289 -135q111 -133 111 -338v-394q0 -43 -29.5 -71.5t-72.5 -28.5z" />
    <glyph glyph-name="Itilde" unicode="&#x128;" horiz-adv-x="470" 
d="M362 1413q-69 0 -154 64l-19 14l-23 15q-36 18 -55 18q-51 0 -97 -60q-8 -13 -13 -18q-25 -25 -58 -25q-34 0 -58 24q-24 23 -24 58q-2 34 22 58q23 35 75 75q69 54 145 54t153 -60l20 -15q8 -7 26 -17q35 -19 55 -19q49 0 99 63q3 3 5 6.5t3 5.5l2 2q23 23 57 23
q35 0 58 -23q25 -25 25 -59q0 -29 -23 -55q-20 -35 -74 -76q-69 -53 -147 -53zM234 0q-43 0 -72 28.5t-29 71.5v1110q0 43 29 72t72 29t73 -29t30 -72v-1110q0 -42 -30 -71t-73 -29z" />
    <glyph glyph-name="itilde" unicode="&#x129;" horiz-adv-x="409" 
d="M326 1094q-72 0 -155 63l-18 14l-24 16q-34 17 -55 17q-51 0 -97 -59q-10 -16 -13 -19q-24 -24 -58 -24q-35 0 -58 23q-24 23 -24 59q-2 33 22 57q24 37 75 76q68 53 146 53q76 0 152 -59l21 -16q7 -5 25 -16q35 -19 56 -19q49 0 98 63q9 12 10 13q24 24 57 24
q34 0 58 -24q25 -25 25 -58q0 -29 -23 -55q-20 -35 -74 -76q-69 -53 -146 -53zM206 0q-38 0 -73 30q-31 29 -31 72v760q0 44 31 73q35 30 74 30q44 0 72 -30q28 -29 28 -73v-760q0 -44 -28 -72q-30 -30 -73 -30z" />
    <glyph glyph-name="Imacron" unicode="&#x12a;" horiz-adv-x="470" 
d="M437 1411h-403q-37 0 -62.5 26.5t-25.5 64.5q0 37 25 61.5t63 24.5h403q39 0 64 -24q25 -26 25 -62q0 -37 -25 -63q-26 -28 -64 -28zM234 0q-43 0 -72 28.5t-29 71.5v1110q0 43 29 72t72 29t73 -29t30 -72v-1110q0 -42 -30 -71t-73 -29z" />
    <glyph glyph-name="imacron" unicode="&#x12b;" horiz-adv-x="409" 
d="M413 1081h-404q-37 0 -62.5 26.5t-25.5 64.5q0 37 25 61.5t63 24.5h404q37 0 63 -24q26 -28 26 -62q0 -35 -26 -63t-63 -28zM206 0q-38 0 -73 30q-31 29 -31 72v760q0 44 31 73q35 30 74 30q44 0 72 -30q28 -29 28 -73v-760q0 -44 -28 -72q-30 -30 -73 -30z" />
    <glyph glyph-name="Ibreve" unicode="&#x12c;" horiz-adv-x="470" 
d="M236 1419q-96 0 -164 68t-68 163q0 30 20.5 50.5t49.5 20.5q30 0 50 -20.5t20 -50.5q0 -37 27 -64q25 -27 65 -27t65 27q27 27 27 64q0 30 19.5 50.5t49.5 20.5t50 -20.5t20 -50.5q0 -92 -68 -163q-68 -68 -163 -68zM234 0q-43 0 -72 28.5t-29 71.5v1110q0 43 29 72
t72 29t73 -29t30 -72v-1110q0 -42 -30 -71t-73 -29z" />
    <glyph glyph-name="ibreve" unicode="&#x12d;" horiz-adv-x="409" 
d="M211 1094q-97 0 -164 67t-67 163q0 30 20 51t49 21q30 0 50.5 -21t20.5 -51q0 -37 26 -63q26 -28 65 -28t65 28q27 27 27 63q0 30 20 51t50 21t49.5 -21t19.5 -51q0 -93 -67 -163q-67 -67 -164 -67zM206 0q-38 0 -73 30q-31 29 -31 72v760q0 44 31 73q35 30 74 30
q44 0 72 -30q28 -29 28 -73v-760q0 -44 -28 -72q-30 -30 -73 -30z" />
    <glyph glyph-name="Iogonek" unicode="&#x12e;" horiz-adv-x="470" 
d="M387 -111q27 0 46.5 -18.5t19.5 -45.5v-6q-2 -89 -67 -154q-63 -63 -156 -63q-92 0 -155 65q-65 63 -65 157q0 96 67 161q1 0 1 1h1l66 65q-12 21 -12 49v1110q0 43 29 72t72 29t73 -29t30 -72v-1110q0 -51 -42 -82l-126 -123l-8 -7q-25 -27 -25 -63q0 -37 27 -64
q25 -27 64 -27t65.5 26t26.5 65q0 28 19 46t49 18z" />
    <glyph glyph-name="iogonek" unicode="&#x12f;" horiz-adv-x="409" 
d="M204 1073q-47 0 -80 33q-34 34 -34 80q0 47 34 81q32 32 80 32t80 -32q33 -33 33 -81q0 -47 -33 -80t-80 -33zM208 -392q-93 0 -156 65q-64 62 -64 157q0 97 66 161q1 0 1 1h1l60 59q-14 23 -14 50v762q0 44 31 73q35 30 73 30q44 0 72 -30q28 -29 28 -73v-762
q0 -19 -9 -42q-4 -13 -13 -23l-138 -135l-8 -6q-24 -25 -24 -64q0 -37 26 -63q26 -28 65 -28t65.5 26t26.5 65q0 28 19 46.5t49 18.5q27 0 46 -19t19 -46v-6q-2 -90 -66 -154q-63 -63 -156 -63z" />
    <glyph glyph-name="Idot" unicode="&#x130;" horiz-adv-x="470" 
d="M236 1420q-49 0 -85 36t-36 86t36 86t85 36q50 0 86 -36q35 -35 35 -86t-35 -86q-36 -36 -86 -36zM234 0q-43 0 -72 28.5t-29 71.5v1110q0 43 29 72t72 29t73 -29t30 -72v-1110q0 -42 -30 -71t-73 -29z" />
    <glyph glyph-name="dotlessi" unicode="&#x131;" horiz-adv-x="409" 
d="M206 0q-38 0 -73 30q-31 29 -31 72v760q0 44 31 73q35 30 74 30q44 0 72 -30q28 -29 28 -73v-760q0 -44 -28 -72q-30 -30 -73 -30z" />
    <glyph glyph-name="IJ" unicode="&#x132;" horiz-adv-x="941" 
d="M234 0q-43 0 -72 28.5t-29 71.5v1110q0 43 29 72t72 29t73 -29t30 -72v-1110q0 -42 -30 -71t-73 -29zM368 -361q-69 0 -95 52q-13 23 -13 50q0 22 11 46q25 50 93 55q101 2 172 74q68 70 68 170v1119q0 40 30 75q29 31 72 31q44 0 73.5 -31t29.5 -75l-1 -1126
q0 -183 -128 -311q-129 -129 -312 -129z" />
    <glyph glyph-name="ij" unicode="&#x133;" horiz-adv-x="965" 
d="M246 1073q-47 0 -80 33q-34 34 -34 80q0 47 34 81q32 32 80 32t80 -32q33 -33 33 -81q0 -47 -33 -80t-80 -33zM724 1073q-47 0 -80 33q-34 34 -34 80q0 47 34 81q32 32 80 32t80 -32q34 -34 34 -81q0 -46 -34 -80q-33 -33 -80 -33zM247 0q-42 0 -72 30q-31 31 -31 71v762
q0 44 31 73q35 30 73 30q43 0 71 -30q29 -31 29 -73v-762q0 -43 -29 -72t-72 -29zM502 -296h-5q-42 0 -72 30q-31 31 -31 72q0 43 31 74q30 30 72 30h5q49 0 85 35q37 31 37 83v832q0 44 30 74t72 30q43 0 72 -30t29 -74v-828q0 -12 -1 -14q-6 -132 -99 -223
q-96 -91 -225 -91z" />
    <glyph glyph-name="Jcircumflex" unicode="&#x134;" horiz-adv-x="471" 
d="M-12 1417q-42 13 -56 57q-4 9 -4 25q0 30 25 55l217 220q21 21 47 24q2 1 9 1h10q6 0 7 -1q25 -3 47 -24l217 -220q25 -25 25 -57q0 -25 -17.5 -48.5t-42.5 -31.5q-9 -4 -26 -4q-31 0 -56 25l-161 160l-159 -160q-25 -25 -57 -25q-16 0 -25 4zM-103 -361q-69 0 -95 52
q-13 23 -13 50q0 22 11 46q25 50 92 55q102 2 173 74q68 70 68 170v1119q0 40 30 75q29 31 71 31q44 0 74 -31t30 -75l-1 -1126q0 -183 -128 -311q-129 -129 -312 -129z" />
    <glyph glyph-name="jcircumflex" unicode="&#x135;" horiz-adv-x="412" 
d="M-17 1079q-42 13 -56 57q-4 9 -4 24q0 32 25 57l217 219q21 21 47 24q2 1 9 1h9q7 0 8 -1q25 -3 47 -24l217 -219q25 -25 25 -58q0 -25 -17.5 -48.5t-42.5 -31.5q-9 -4 -26 -4q-31 0 -56 25l-161 161l-159 -161q-25 -25 -57 -25q-16 0 -25 4zM-28 -306h-5q-42 0 -72 30
q-31 31 -31 71q0 44 30 74.5t73 30.5h5q55 0 94 39q37 37 37 92v829q0 47 31 75q35 30 73 30q43 0 73 -30q29 -29 29 -75v-829q0 -11 -1 -13q-6 -138 -102 -229q-97 -95 -234 -95z" />
    <glyph glyph-name="Kcommaaccent" unicode="&#x136;" horiz-adv-x="1126" 
d="M234 0q-43 0 -72 28.5t-29 71.5v1110q0 43 29 72t72 29t73 -29t30 -72v-449l555 521q29 29 73 29q38 -1 71 -34q29 -29 29 -72q0 -39 -32 -71l-385 -361l409 -614q18 -27 18 -59q0 -53 -46 -83q-25 -17 -55 -17q-3 0 -21 2q-41 6 -64 43l-393 587l-159 -150v-382
q0 -42 -30 -71t-73 -29zM624 -515q-43 0 -73 29t-30 72v284q0 42 30.5 71t73.5 29q42 0 70 -28.5t28 -71.5v-284q0 -40 -29 -71q-28 -30 -70 -30z" />
    <glyph glyph-name="kcommaaccent" unicode="&#x137;" horiz-adv-x="901" 
d="M206 0q-43 0 -73.5 29t-30.5 71v1110q0 43 31 72t73 29q43 0 71.5 -29t28.5 -72v-647l372 364q28 27 66 27q45 0 73 -31v-2q29 -29 29 -71q0 -40 -30 -70l-232 -221l261 -400q16 -25 16 -56q0 -57 -46 -86q-25 -17 -55 -17q-55 0 -84 46l-244 371l-127 -121v-196
q0 -41 -29 -70q-30 -30 -70 -30zM474 -489q-43 0 -72.5 29t-29.5 72v284q0 42 30 71t73 29q42 0 70 -28.5t28 -71.5v-284q0 -43 -28 -72q-27 -29 -71 -29z" />
    <glyph glyph-name="kgreenlandic" unicode="&#x138;" horiz-adv-x="901" 
d="M206 0q-43 0 -73.5 29t-30.5 71v1023q0 43 31 72t73 29q43 0 71.5 -29t28.5 -72v-560l372 364q28 27 66 27q45 0 73 -31v-2q29 -29 29 -71q0 -40 -30 -70l-270 -256l331 -354q19 -21 24 -45q3 -13 3 -27q0 -42 -31 -71q-30 -28 -70 -28q-43 0 -72 31l-325 361l-101 -95
v-196q0 -41 -29 -70q-30 -30 -70 -30z" />
    <glyph glyph-name="Lacute" unicode="&#x139;" horiz-adv-x="878" 
d="M203 1450q-31 31 -31 72q0 42 31 73l136 138q30 30 74 30q38 0 72 -29q31 -31 31 -73q0 -41 -31 -72l-138 -139q-31 -31 -73 -31q-40 0 -71 31zM222 0l-8 2q-36 7 -58.5 34t-22.5 64v1109q0 43 30 73q29 29 71 29q44 0 73 -29q30 -30 30 -73v-1006l425 -1q43 0 72 -29.5
t29 -72.5t-28 -71q-30 -30 -73 -29h-540z" />
    <glyph glyph-name="lacute" unicode="&#x13a;" horiz-adv-x="409" 
d="M165 1444q-31 31 -31 72q0 42 31 73l136 137q31 31 74 31q37 0 72 -30q31 -31 31 -72t-31 -72l-138 -139q-31 -31 -72 -31t-72 31zM205 0q-43 0 -73 29t-30 71v1110q0 43 30 72t73 29t72 -29t29 -72v-1110q0 -43 -29 -71.5t-72 -28.5z" />
    <glyph glyph-name="Lcommaaccent" unicode="&#x13b;" horiz-adv-x="878" 
d="M222 0l-8 2q-36 7 -58.5 34t-22.5 64v1109q0 43 30 73q29 29 71 29q44 0 73 -29q30 -30 30 -73v-1006l425 -1q43 0 72 -29.5t29 -72.5t-28 -71q-30 -30 -73 -29h-540zM541 -567q-43 0 -73 29t-30 72v284q0 42 30.5 71t73.5 29q42 0 70 -28.5t28 -71.5v-284q0 -41 -29 -72
q-27 -29 -70 -29z" />
    <glyph glyph-name="lcommaaccent" unicode="&#x13c;" horiz-adv-x="409" 
d="M205 0q-43 0 -73 29t-30 71v1110q0 43 30 72t73 29t72 -29t29 -72v-1110q0 -43 -29 -71.5t-72 -28.5zM200 -535q-43 0 -73 29.5t-30 72.5v283q0 42 30.5 71.5t73.5 29.5q42 0 70 -29t28 -72v-283q0 -41 -29 -72q-28 -30 -70 -30z" />
    <glyph glyph-name="Lcaron" unicode="&#x13d;" horiz-adv-x="878" 
d="M253 1420h-9q-8 0 -10 1q-25 3 -47 25l-217 219q-24 24 -24 56q0 17 4 26q6 19 21 34t34 21q15 4 25 4q33 0 57 -24l160 -161l161 161q24 24 56 24q16 0 25 -4q19 -6 34.5 -21t22.5 -34q4 -12 4 -25q0 -31 -26 -57l-217 -219q-24 -22 -47 -25q-1 -1 -7 -1zM222 0l-8 2
q-36 7 -58.5 34t-22.5 64v1109q0 43 30 73q29 29 71 29q44 0 73 -29q30 -30 30 -73v-1006l425 -1q43 0 72 -29.5t29 -72.5t-28 -71q-30 -30 -73 -29h-540z" />
    <glyph glyph-name="lcaron" unicode="&#x13e;" horiz-adv-x="409" 
d="M205 0q-43 0 -73 29t-30 71v1110q0 43 30 72t73 29t72 -29t29 -72v-1110q0 -43 -29 -71.5t-72 -28.5zM509 823q-43 0 -72.5 29.5t-29.5 72.5v283q0 43 30 72t73 29q42 0 70 -29t28 -72v-283q0 -43 -28 -72q-28 -30 -71 -30z" />
    <glyph glyph-name="Ldot" unicode="&#x13f;" horiz-adv-x="878" 
d="M222 0l-8 2q-36 7 -58.5 34t-22.5 64v1109q0 43 30 73q29 29 71 29q44 0 73 -29q30 -30 30 -73v-1006l425 -1q43 0 72 -29.5t29 -72.5t-28 -71q-30 -30 -73 -29h-540zM664 527q-49 0 -85 36t-36 86t36 86t85 36q50 0 86 -36q35 -35 35 -86t-35 -86q-36 -36 -86 -36z" />
    <glyph glyph-name="ldot" unicode="&#x140;" horiz-adv-x="409" 
d="M205 0q-43 0 -73 29t-30 71v1110q0 43 30 72t73 29t72 -29t29 -72v-1110q0 -43 -29 -71.5t-72 -28.5zM510 521q-49 0 -85 36t-36 86t36 86t85 36q50 0 86 -36t36 -86t-36 -86t-86 -36z" />
    <glyph glyph-name="Lslash" unicode="&#x141;" horiz-adv-x="878" 
d="M781 0h-543q-40 0 -74 31q-31 29 -31 72v423l-67 -24q-17 -5 -27 -5q-27 0 -47 20q-10 8 -15 23q-4 9 -4 24q0 22 11.5 39t32.5 24l116 43v536q0 47 31 75q35 30 74 30t74 -30q31 -28 31 -75v-457l87 32q9 4 26 4q28 0 48 -19t20 -48q0 -22 -12 -39t-33 -24l-136 -51
v-394l438 -1q43 0 73.5 -31t30.5 -75q0 -43 -30 -73q-32 -32 -74 -30z" />
    <glyph glyph-name="lslash" unicode="&#x142;" horiz-adv-x="409" 
d="M205 0q-43 0 -73 29t-30 71v440l-74 -30q-9 -4 -26 -4q-48 0 -67 46q-4 11 -4 27q0 46 45 65l126 50v516q0 43 30 72t73 29t72 -29t29 -72v-434l65 26q12 5 26 5q22 0 40 -12t25 -33q5 -13 5 -29q0 -48 -45 -65l-116 -47v-521q0 -43 -29 -71.5t-72 -28.5z" />
    <glyph glyph-name="Nacute" unicode="&#x143;" horiz-adv-x="1232" 
d="M523 1448q-30 30 -30 72q0 43 30 73l136 138q30 30 74 30q39 0 73 -29q31 -31 31 -73q0 -41 -31 -72l-138 -139q-31 -31 -73 -31q-41 0 -72 31zM234 0q-43 0 -72 28.5t-29 71.5v1107q0 43 29 72t72 29h2q8 0 16 -2l14 -3q17 -6 30 -16l11 -9q12 -11 19 -25l608 -850v807
q0 43 30 72t73 29q46 0 72 -29q29 -31 29 -72v-1110q0 -34 -20 -60.5t-52 -35.5q-14 -4 -18 -4h-12q-35 0 -63 22q-17 13 -19 17l-617 864v-803q0 -42 -30 -71t-73 -29z" />
    <glyph glyph-name="nacute" unicode="&#x144;" horiz-adv-x="1059" 
d="M602 1123q-31 31 -31 72q0 43 31 74l136 137q31 31 74 31q38 0 73 -30q30 -30 30 -73q0 -41 -30 -71l-139 -140q-30 -30 -72 -30t-72 30zM865 -2q-43 0 -72 28.5t-29 71.5v394q-2 125 -58 196q-60 74 -161 74q-106 0 -171 -76q-68 -79 -68 -189v-396q0 -43 -29 -72
t-72 -29q-42 0 -72 30q-31 31 -31 71v762q0 44 31 73q35 30 73 30q44 0 72 -30q28 -29 28 -73v-14q121 116 261 116q178 0 289 -135q111 -133 111 -338v-394q0 -43 -29.5 -71.5t-72.5 -28.5z" />
    <glyph glyph-name="Ncommaaccent" unicode="&#x145;" horiz-adv-x="1232" 
d="M234 0q-43 0 -72 28.5t-29 71.5v1107q0 43 29 72t72 29h2q8 0 16 -2l14 -3q17 -6 30 -16l11 -9q12 -11 19 -25l608 -850v807q0 43 30 72t73 29q46 0 72 -29q29 -31 29 -72v-1110q0 -34 -20 -60.5t-52 -35.5q-14 -4 -18 -4h-12q-35 0 -63 22q-17 13 -19 17l-617 864v-803
q0 -42 -30 -71t-73 -29zM672 -496q-43 0 -73 29.5t-30 72.5v283q0 42 30.5 71.5t73.5 29.5q42 0 70 -29t28 -72v-283q0 -41 -29 -72q-28 -30 -70 -30z" />
    <glyph glyph-name="ncommaaccent" unicode="&#x146;" horiz-adv-x="1059" 
d="M865 -2q-43 0 -72 28.5t-29 71.5v394q-2 125 -58 196q-60 74 -161 74q-106 0 -171 -76q-68 -79 -68 -189v-396q0 -43 -29 -72t-72 -29q-42 0 -72 30q-31 31 -31 71v762q0 44 31 73q35 30 73 30q44 0 72 -30q28 -29 28 -73v-14q121 116 261 116q178 0 289 -135
q111 -133 111 -338v-394q0 -43 -29.5 -71.5t-72.5 -28.5zM570 -493q-43 0 -72.5 29.5t-29.5 72.5v283q0 43 30 72t73 29q42 0 70.5 -29t28.5 -72v-283q0 -41 -29 -72q-28 -30 -71 -30z" />
    <glyph glyph-name="Ncaron" unicode="&#x147;" horiz-adv-x="1232" 
d="M627 1392h-10q-7 0 -9 1q-26 3 -47 24l-217 219q-25 25 -25 57q0 13 5 25q6 19 21 34.5t34 21.5q15 4 24 4q33 0 58 -25l160 -161l160 161q25 25 58 25q9 0 24 -4q19 -6 34.5 -21.5t22.5 -34.5q4 -12 4 -24q0 -32 -26 -58l-217 -219q-22 -21 -47 -24q-1 -1 -7 -1zM234 0
q-43 0 -72 28.5t-29 71.5v1107q0 43 29 72t72 29h2q8 0 16 -2l14 -3q17 -6 30 -16l11 -9q12 -11 19 -25l608 -850v807q0 43 30 72t73 29q46 0 72 -29q29 -31 29 -72v-1110q0 -34 -20 -60.5t-52 -35.5q-14 -4 -18 -4h-12q-35 0 -63 22q-17 13 -19 17l-617 864v-803
q0 -42 -30 -71t-73 -29z" />
    <glyph glyph-name="ncaron" unicode="&#x148;" horiz-adv-x="1059" 
d="M577 1089h-10q-7 0 -9 1q-26 3 -47 24l-217 219q-25 25 -25 57q0 16 4 25q6 19 21.5 34t34.5 21q18 5 24 5q33 0 58 -25l159 -161l161 161q25 25 57 25q7 0 25 -5q41 -13 56 -55q4 -12 4 -24q0 -33 -25 -58l-217 -219q-22 -21 -47 -24q-1 -1 -7 -1zM865 -2
q-43 0 -72 28.5t-29 71.5v394q-2 125 -58 196q-60 74 -161 74q-106 0 -171 -76q-68 -79 -68 -189v-396q0 -43 -29 -72t-72 -29q-42 0 -72 30q-31 31 -31 71v762q0 44 31 73q35 30 73 30q44 0 72 -30q28 -29 28 -73v-14q121 116 261 116q178 0 289 -135q111 -133 111 -338
v-394q0 -43 -29.5 -71.5t-72.5 -28.5z" />
    <glyph glyph-name="napostrophe" unicode="&#x149;" horiz-adv-x="1093" 
d="M852 -2q-43 0 -72 28.5t-29 71.5v394q-1 123 -59 196q-60 74 -161 74q-106 0 -171 -76q-67 -78 -67 -189v-396q0 -43 -29.5 -72t-72.5 -29q-41 0 -71 30q-31 31 -31 71v732q-27 -9 -42 -9q-43 0 -72.5 29.5t-29.5 72.5v283q0 43 30 72t73 29q42 0 70 -29t28 -72v-255
q22 12 47 12q43 0 71 -30q29 -31 29 -73v-14q121 116 261 116q178 0 289 -135q110 -132 110 -338v-394q0 -43 -29 -71.5t-72 -28.5z" />
    <glyph glyph-name="Eng" unicode="&#x14a;" horiz-adv-x="1232" 
d="M854 -309h-20q-44 0 -73 28.5t-29 71.5t29.5 72t72.5 29h4q70 0 113 37q45 37 45 100v37l-659 853v-816q0 -44 -28 -73.5t-71 -29.5q-40 0 -74 31q-31 29 -31 72v1100q0 39 25 67q16 26 54 37q16 4 28 4q24 0 50 -14q20 -13 32 -27l674 -870v803q0 44 29 74t72 30t73 -30
t30 -74v-1181q-2 -138 -104 -234q-99 -97 -242 -97z" />
    <glyph glyph-name="eng" unicode="&#x14b;" horiz-adv-x="1059" 
d="M558 -306h-20q-44 0 -72.5 28.5t-28.5 71.5t29 72t72 29h20q65 0 130 51q75 56 76 133v413q-2 125 -58 196q-60 74 -161 74t-168 -73q-66 -71 -71 -181v-407q0 -43 -29 -72t-72 -29q-42 0 -72 30q-31 31 -31 71v762q0 44 31 73q35 30 73 30q44 0 72 -30q28 -29 28 -73
v-14q121 116 261 116q178 0 289 -135q111 -133 111 -338v-388q-1 -2 -1 -9q0 -2 -2 -10h3q0 -163 -134 -281q-59 -52 -131.5 -81t-143.5 -29z" />
    <glyph glyph-name="Omacron" unicode="&#x14c;" horiz-adv-x="1419" 
d="M918 1413h-404q-37 0 -62.5 26.5t-25.5 64.5q0 37 25 61.5t63 24.5h404q38 0 63 -24q26 -28 26 -62q0 -35 -26 -63t-63 -28zM708 -12q-135 0 -256.5 51t-213.5 144q-93 93 -143.5 214.5t-50.5 255.5q0 183 90 337q88 152 238 239q158 91 336 91q181 0 336 -91
q153 -89 240 -239q91 -159 91 -337q0 -134 -51 -255.5t-144 -214.5t-215 -144t-257 -51zM709 191q192 0 327 135q134 134 134 327q0 93 -35 177.5t-99 148.5q-135 135 -327 135q-94 0 -178.5 -35.5t-147.5 -99.5q-64 -64 -99 -148.5t-35 -177.5q0 -193 134 -327
q63 -64 147.5 -99.5t178.5 -35.5z" />
    <glyph glyph-name="omacron" unicode="&#x14d;" 
d="M728 1082h-403q-37 0 -62.5 27t-25.5 65q0 37 25 61.5t63 24.5h403q37 0 64 -25q25 -26 25 -61q0 -38 -25 -64q-26 -28 -64 -28zM532 -12q-98 0 -187.5 37.5t-157.5 105.5q-143 143 -143 345t143 345q68 68 157.5 106t187.5 38t188 -38t158 -106q142 -144 142 -345
t-142 -345q-68 -68 -158 -105.5t-188 -37.5zM532 193q119 0 202 83q82 82 82 200q0 119 -82 201t-202 82q-117 0 -199 -82q-84 -84 -84 -201q0 -116 84 -200q83 -83 199 -83z" />
    <glyph glyph-name="Obreve" unicode="&#x14e;" horiz-adv-x="1419" 
d="M712 1423q-96 0 -164 68t-68 163q0 30 20.5 50.5t49.5 20.5q30 0 50.5 -20.5t20.5 -50.5q0 -38 26 -64q25 -27 65 -27t65 27q27 27 27 64q0 30 19.5 50.5t49.5 20.5t50 -20.5t20 -50.5q0 -93 -67 -163q-68 -68 -164 -68zM708 -12q-135 0 -256.5 51t-213.5 144
q-93 93 -143.5 214.5t-50.5 255.5q0 183 90 337q88 152 238 239q158 91 336 91q181 0 336 -91q153 -89 240 -239q91 -159 91 -337q0 -134 -51 -255.5t-144 -214.5t-215 -144t-257 -51zM709 191q192 0 327 135q134 134 134 327q0 93 -35 177.5t-99 148.5q-135 135 -327 135
q-94 0 -178.5 -35.5t-147.5 -99.5q-64 -64 -99 -148.5t-35 -177.5q0 -193 134 -327q63 -64 147.5 -99.5t178.5 -35.5z" />
    <glyph glyph-name="obreve" unicode="&#x14f;" 
d="M527 1089q-96 0 -163 67q-68 68 -68 163q0 30 20.5 51t49.5 21q30 0 50 -21t20 -51q0 -37 27 -64q25 -27 64 -27q41 0 66 27q27 27 27 64q0 30 19.5 51t49.5 21t50 -21t20 -51q0 -92 -68 -163q-67 -67 -164 -67zM532 -12q-98 0 -187.5 37.5t-157.5 105.5
q-143 143 -143 345t143 345q68 68 157.5 106t187.5 38t188 -38t158 -106q142 -144 142 -345t-142 -345q-68 -68 -158 -105.5t-188 -37.5zM532 193q119 0 202 83q82 82 82 200q0 119 -82 201t-202 82q-117 0 -199 -82q-84 -84 -84 -201q0 -116 84 -200q83 -83 199 -83z" />
    <glyph glyph-name="Ohungarumlaut" unicode="&#x150;" horiz-adv-x="1419" 
d="M531 1399q-37 0 -61 26q-27 25 -27 63q0 35 27 62l125 126q27 27 63 27t62 -26q28 -28 28 -62q0 -35 -28 -63l-126 -127q-26 -26 -63 -26zM910 1399q-38 0 -62 26q-27 25 -27 63q0 35 27 62l125 126q27 27 64 27q35 0 61 -26q27 -27 27 -62q0 -37 -26 -63l-126 -127
q-26 -26 -63 -26zM708 -12q-135 0 -256.5 51t-213.5 144q-93 93 -143.5 214.5t-50.5 255.5q0 183 90 337q88 152 238 239q158 91 336 91q181 0 336 -91q153 -89 240 -239q91 -159 91 -337q0 -134 -51 -255.5t-144 -214.5t-215 -144t-257 -51zM709 191q192 0 327 135
q134 134 134 327q0 93 -35 177.5t-99 148.5q-135 135 -327 135q-94 0 -178.5 -35.5t-147.5 -99.5q-64 -64 -99 -148.5t-35 -177.5q0 -193 134 -327q63 -64 147.5 -99.5t178.5 -35.5z" />
    <glyph glyph-name="ohungarumlaut" unicode="&#x151;" 
d="M386 1073q-36 0 -61 27q-27 25 -27 62q0 36 27 63l125 126q26 26 63 26q36 0 61 -25q28 -28 28 -63q0 -34 -28 -62l-125 -127q-27 -27 -63 -27zM765 1073q-38 0 -63 27q-26 24 -26 62q0 37 26 63l125 126q26 26 65 26q35 0 60 -25q28 -28 28 -63t-27 -62l-126 -127
q-27 -27 -62 -27zM532 -12q-98 0 -187.5 37.5t-157.5 105.5q-143 143 -143 345t143 345q68 68 157.5 106t187.5 38t188 -38t158 -106q142 -144 142 -345t-142 -345q-68 -68 -158 -105.5t-188 -37.5zM532 193q119 0 202 83q82 82 82 200q0 119 -82 201t-202 82
q-117 0 -199 -82q-84 -84 -84 -201q0 -116 84 -200q83 -83 199 -83z" />
    <glyph glyph-name="OE" unicode="&#x152;" horiz-adv-x="2158" 
d="M708 -12q-135 0 -256.5 51t-213.5 144q-93 93 -143.5 214.5t-50.5 255.5q0 183 90 337q88 152 238 239q158 91 336 91q137 0 258.5 -52t217.5 -148v88q0 44 29 73q30 30 73 30h547q42 0 72 -30q28 -28 28 -73q0 -43 -28.5 -72t-71.5 -29h-445v-354h321q43 1 73 -28
q28 -28 28 -73q0 -42 -29 -70t-72 -28h-321v-351h445q42 0 71 -30t29 -73t-28 -71q-30 -30 -72 -29h-555q-41 3 -67.5 31t-26.5 70v85q-95 -95 -217 -146.5t-259 -51.5zM709 191q192 0 327 135q134 134 134 327q0 93 -35 177.5t-99 148.5q-135 135 -327 135
q-94 0 -178.5 -35.5t-147.5 -99.5q-64 -64 -99 -148.5t-35 -177.5q0 -193 134 -327q63 -64 147.5 -99.5t178.5 -35.5z" />
    <glyph glyph-name="oe" unicode="&#x153;" horiz-adv-x="1841" 
d="M532 -12q-98 0 -187.5 37.5t-157.5 105.5q-143 143 -143 345t143 345q68 68 157.5 106t187.5 38q113 0 219 -52q98 -50 168 -139q69 90 170.5 140.5t217.5 50.5q97 0 186 -37t158 -105q144 -141 146 -342q0 -43 -28 -70t-72 -27h-655q24 -85 98 -143q71 -57 167 -57
q116 0 183 73q34 26 68 26q14 0 33 -7q30 -11 49 -43q18 -28 18 -57q0 -44 -39 -77q-57 -52 -121 -77q-81 -33 -191 -33q-116 0 -217.5 50t-170.5 139q-71 -88 -168 -138q-101 -52 -219 -52zM1036 554h551q-23 97 -97 155q-76 61 -180 61t-178 -61q-77 -64 -96 -155z
M532 193q119 0 202 83q82 82 82 200q0 119 -82 201t-202 82q-117 0 -199 -82q-84 -84 -84 -201q0 -116 84 -200q83 -83 199 -83z" />
    <glyph glyph-name="Racute" unicode="&#x154;" horiz-adv-x="1059" 
d="M440 1451q-30 30 -30 72q0 43 30 73l137 138q30 30 73 30q39 0 73 -29q31 -31 31 -73q0 -41 -31 -72l-138 -139q-31 -31 -73 -31q-41 0 -72 31zM234 0q-43 0 -72 28.5t-29 71.5v1110q0 43 29 72t72 29h344q162 0 280 -113q115 -112 115 -275q0 -128 -73 -226
q-72 -97 -186 -137l242 -409q15 -25 15 -49q0 -12 -5 -29q-14 -43 -51 -61q-23 -12 -48 -12q-16 0 -27 4q-42 12 -61 47l-285 487h-157v-438q0 -42 -30 -71t-73 -29zM337 741h242q78 0 135 57q55 52 55 130t-56 129q-57 52 -135 52h-241v-368z" />
    <glyph glyph-name="racute" unicode="&#x155;" horiz-adv-x="743" 
d="M420 1129q-31 31 -31 72q0 43 31 74l136 137q31 31 74 31q37 0 72 -30q31 -31 31 -73q0 -40 -31 -71l-138 -140q-30 -30 -72 -30t-72 30zM206 0q-42 0 -72 30q-31 31 -31 71v762q0 42 31 73q30 30 73 30q44 0 72 -30q28 -29 28 -73q139 102 305 102h4q49 0 77.5 -28
t28.5 -74q0 -42 -31 -71.5t-75 -29.5h-4q-127 0 -215 -90q-90 -90 -90 -219v-352q0 -43 -29 -72t-72 -29z" />
    <glyph glyph-name="Rcommaaccent" unicode="&#x156;" horiz-adv-x="1059" 
d="M234 0q-43 0 -72 28.5t-29 71.5v1110q0 43 29 72t72 29h344q162 0 280 -113q115 -112 115 -275q0 -128 -73 -226q-72 -97 -186 -137l242 -409q15 -25 15 -49q0 -12 -5 -29q-14 -43 -51 -61q-23 -12 -48 -12q-16 0 -27 4q-42 12 -61 47l-285 487h-157v-438q0 -42 -30 -71
t-73 -29zM337 741h242q78 0 135 57q55 52 55 130t-56 129q-57 52 -135 52h-241v-368zM556 -475q-43 0 -72.5 29t-29.5 72v284q0 42 30 71t73 29q42 0 70 -28.5t28 -71.5v-284q0 -42 -28 -71q-28 -30 -71 -30z" />
    <glyph glyph-name="rcommaaccent" unicode="&#x157;" horiz-adv-x="743" 
d="M206 0q-42 0 -72 30q-31 31 -31 71v762q0 42 31 73q30 30 73 30q44 0 72 -30q28 -29 28 -73q139 102 305 102h4q49 0 77.5 -28t28.5 -74q0 -42 -31 -71.5t-75 -29.5h-4q-127 0 -215 -90q-90 -90 -90 -219v-352q0 -43 -29 -72t-72 -29zM200 -548q-43 0 -73 29.5t-30 72.5
v283q0 42 30.5 71.5t73.5 29.5q42 0 70 -29t28 -72v-283q0 -41 -29 -72q-28 -30 -70 -30z" />
    <glyph glyph-name="Rcaron" unicode="&#x158;" horiz-adv-x="1059" 
d="M535 1428h-10q-5 0 -9 2q-26 3 -47 24l-217 219q-25 25 -25 57q0 16 4 25q6 19 21.5 34t34.5 21q18 5 24 5q33 0 58 -25l159 -161l161 161q25 25 56 25q14 0 26 -5q41 -13 56 -55q4 -12 4 -24q0 -33 -25 -58l-217 -219q-22 -21 -47 -24q-2 -2 -7 -2zM234 0
q-43 0 -72 28.5t-29 71.5v1110q0 43 29 72t72 29h344q162 0 280 -113q115 -112 115 -275q0 -128 -73 -226q-72 -97 -186 -137l242 -409q15 -25 15 -49q0 -12 -5 -29q-14 -43 -51 -61q-23 -12 -48 -12q-16 0 -27 4q-42 12 -61 47l-285 487h-157v-438q0 -42 -30 -71t-73 -29z
M337 741h242q78 0 135 57q55 52 55 130t-56 129q-57 52 -135 52h-241v-368z" />
    <glyph glyph-name="rcaron" unicode="&#x159;" horiz-adv-x="743" 
d="M498 1087h-10q-5 0 -9 2q-26 3 -47 24l-217 219q-25 25 -25 57q0 13 5 25q6 19 21 34t34 21q18 5 24 5q33 0 58 -25l160 -161l160 161q25 25 57 25q13 0 25 -5q19 -6 34.5 -21t22.5 -34q4 -12 4 -24q0 -32 -26 -58l-217 -219q-22 -21 -47 -24q-2 -2 -7 -2zM206 0
q-42 0 -72 30q-31 31 -31 71v762q0 42 31 73q30 30 73 30q44 0 72 -30q28 -29 28 -73q139 102 305 102h4q49 0 77.5 -28t28.5 -74q0 -42 -31 -71.5t-75 -29.5h-4q-127 0 -215 -90q-90 -90 -90 -219v-352q0 -43 -29 -72t-72 -29z" />
    <glyph glyph-name="Sacute" unicode="&#x15a;" horiz-adv-x="1027" 
d="M488 1450q-30 30 -30 72q0 43 30 73l137 138q30 30 73 30q39 0 73 -29q31 -31 31 -73q0 -41 -31 -72l-138 -139q-31 -31 -73 -31q-41 0 -72 31zM515 -13q-150 0 -275 74q-120 69 -170 179q-14 28 -14 54q0 15 5 33q10 31 49 53q23 13 45 13q45 0 94 -61q89 -142 274 -142
q100 0 168 50q78 54 78 139q0 83 -79 129q-47 26 -138 48l-27 7q-201 38 -311 124q-127 100 -127 255q0 162 132 273q127 105 298 105q123 0 228 -48q108 -52 163 -144q12 -21 12 -38q0 -4 -2 -20q-8 -28 -28 -48q-25 -25 -67 -25q-36 0 -60 19q-65 57 -108 76
q-57 24 -135 24q-97 0 -160 -46q-68 -46 -68 -126t89 -125q53 -27 208 -60q174 -46 264 -118q119 -95 119 -251q0 -170 -132 -288q-134 -115 -325 -115z" />
    <glyph glyph-name="sacute" unicode="&#x15b;" horiz-adv-x="799" 
d="M412 1120q-31 31 -31 72q0 43 31 74l136 137q31 31 74 31q37 0 72 -30q31 -31 31 -73q0 -40 -31 -71l-138 -140q-30 -30 -73 -30q-41 0 -71 30zM404 -11q-110 0 -198 41q-105 46 -152 132q-15 27 -15 56q0 27 12 45q25 45 82 45q53 0 91 -48q34 -50 75 -71t104 -21
q56 0 103 28q45 26 45 74q0 32 -16 51q-28 37 -95 57l-55 17q-153 54 -222 106q-101 72 -101 184q0 126 104 206q97 76 233 76q94 0 174 -34q90 -39 124 -104q12 -24 12 -45q0 -30 -23 -55q-28 -31 -66 -31q-18 0 -34 8l-41 30q-35 24 -39 26q-44 25 -92 25q-67 0 -107 -25
t-40 -71q0 -44 50 -76q43 -25 124 -49q153 -48 215 -97q93 -73 93 -190q0 -121 -99 -206q-98 -84 -246 -84z" />
    <glyph glyph-name="Scircumflex" unicode="&#x15c;" horiz-adv-x="1027" 
d="M286 1430q-20 6 -35 21t-21 35q-4 9 -4 25q0 31 25 56l217 219q21 21 47 24q2 1 9 1h10q6 0 7 -1q25 -3 47 -24l217 -219q25 -25 25 -58q0 -25 -17.5 -48t-42.5 -31q-12 -5 -26 -5q-31 0 -56 25l-161 161l-159 -161q-25 -25 -57 -25q-13 0 -25 5zM515 -13q-150 0 -275 74
q-120 69 -170 179q-14 28 -14 54q0 15 5 33q10 31 49 53q23 13 45 13q45 0 94 -61q89 -142 274 -142q100 0 168 50q78 54 78 139q0 83 -79 129q-47 26 -138 48l-27 7q-201 38 -311 124q-127 100 -127 255q0 162 132 273q127 105 298 105q123 0 228 -48q108 -52 163 -144
q12 -21 12 -38q0 -4 -2 -20q-8 -28 -28 -48q-25 -25 -67 -25q-36 0 -60 19q-65 57 -108 76q-57 24 -135 24q-97 0 -160 -46q-68 -46 -68 -126t89 -125q53 -27 208 -60q174 -46 264 -118q119 -95 119 -251q0 -170 -132 -288q-134 -115 -325 -115z" />
    <glyph glyph-name="scircumflex" unicode="&#x15d;" horiz-adv-x="799" 
d="M170 1102q-42 13 -55 56q-4 9 -4 26q0 31 24 55l217 219q22 22 47 25q2 1 10 1h9q6 0 7 -1q23 -3 47 -25l217 -219q26 -26 26 -57q0 -25 -18 -48.5t-43 -31.5q-9 -4 -25 -4q-33 0 -57 24l-160 161l-160 -161q-24 -24 -56 -24q-17 0 -26 4zM404 -11q-110 0 -198 41
q-105 46 -152 132q-15 27 -15 56q0 27 12 45q25 45 82 45q53 0 91 -48q34 -50 75 -71t104 -21q56 0 103 28q45 26 45 74q0 32 -16 51q-28 37 -95 57l-55 17q-153 54 -222 106q-101 72 -101 184q0 126 104 206q97 76 233 76q94 0 174 -34q90 -39 124 -104q12 -24 12 -45
q0 -30 -23 -55q-28 -31 -66 -31q-18 0 -34 8l-41 30q-35 24 -39 26q-44 25 -92 25q-67 0 -107 -25t-40 -71q0 -44 50 -76q43 -25 124 -49q153 -48 215 -97q93 -73 93 -190q0 -121 -99 -206q-98 -84 -246 -84z" />
    <glyph glyph-name="Scedilla" unicode="&#x15e;" horiz-adv-x="1027" 
d="M550 -515q-92 0 -156 64t-64 155q0 29 19 48.5t47 19.5q26 0 44.5 -19t19.5 -47q0 -38 27 -65t65 -27q39 0 65 27t26 65q0 43 -28.5 67.5t-79.5 24.5q-73 0 -73 54v138q-134 12 -243 84q-105 67 -149 166q-14 28 -14 54q0 15 5 33q10 31 49 53q23 13 45 13q45 0 94 -61
q89 -142 274 -142q100 0 168 50q78 54 78 139q0 83 -79 129q-47 26 -138 48l-27 7q-201 38 -311 124q-127 100 -127 255q0 162 132 273q127 105 298 105q123 0 228 -48q108 -52 163 -144q12 -21 12 -38q0 -4 -2 -20q-8 -28 -28 -48q-25 -25 -67 -25q-36 0 -60 19
q-65 57 -108 76q-57 24 -135 24q-97 0 -160 -46q-68 -46 -68 -126t89 -125q53 -27 208 -60q174 -46 264 -118q119 -95 119 -251q0 -154 -108 -265q-108 -109 -271 -132v-71q75 -12 128 -74q50 -59 50 -144q0 -91 -64 -155q-66 -64 -157 -64z" />
    <glyph glyph-name="scedilla" unicode="&#x15f;" horiz-adv-x="799" 
d="M438 -489q-91 0 -155 64q-65 65 -65 155q0 28 19 47.5t48 19.5q26 0 44 -18.5t19 -46.5q0 -38 27 -65t65 -27q39 0 65 27t26 65q0 43 -28.5 67.5t-79.5 24.5q-73 0 -73 53v115q-89 7 -170 50q-84 45 -126 120q-15 27 -15 56q0 27 12 45q25 45 82 45q53 0 91 -48
q34 -50 75 -71t104 -21q56 0 103 28q45 26 45 74q0 52 -57 85q-21 13 -54 23l-55 17q-153 54 -222 106q-101 72 -101 184q0 126 104 206q97 76 233 76q94 0 174 -34q90 -39 124 -104q12 -24 12 -45q0 -30 -23 -55q-28 -31 -66 -31q-18 0 -34 8l-41 30q-41 32 -81 44
q-20 7 -50 7q-67 0 -107 -25t-40 -71q0 -44 50 -76q43 -25 124 -49q153 -48 215 -97q93 -73 93 -190q0 -108 -74 -184q-76 -79 -194 -99v-48q75 -12 128 -74q50 -59 50 -144q0 -91 -64 -155q-66 -64 -157 -64z" />
    <glyph glyph-name="Scaron" unicode="&#x160;" horiz-adv-x="1027" 
d="M551 1414h-9q-8 0 -10 1q-25 3 -47 25l-217 219q-24 24 -24 56q0 17 4 26q6 19 21 34t34 21q15 4 25 4q33 0 57 -24l160 -161l161 161q24 24 57 24q9 0 24 -4q19 -6 34.5 -21t22.5 -34q4 -12 4 -25q0 -31 -26 -57l-217 -219q-24 -22 -47 -25q-1 -1 -7 -1zM515 -13
q-150 0 -275 74q-120 69 -170 179q-14 28 -14 54q0 15 5 33q10 31 49 53q23 13 45 13q45 0 94 -61q89 -142 274 -142q100 0 168 50q78 54 78 139q0 83 -79 129q-47 26 -138 48l-27 7q-201 38 -311 124q-127 100 -127 255q0 162 132 273q127 105 298 105q123 0 228 -48
q108 -52 163 -144q12 -21 12 -38q0 -4 -2 -20q-8 -28 -28 -48q-25 -25 -67 -25q-36 0 -60 19q-65 57 -108 76q-57 24 -135 24q-97 0 -160 -46q-68 -46 -68 -126t89 -125q53 -27 208 -60q174 -46 264 -118q119 -95 119 -251q0 -170 -132 -288q-134 -115 -325 -115z" />
    <glyph glyph-name="scaron" unicode="&#x161;" horiz-adv-x="799" 
d="M418 1087h-9q-6 0 -10 2q-26 3 -47 24l-217 219q-24 24 -24 57q0 16 4 25q6 19 21 34t34 21q18 5 25 5q32 0 57 -25l160 -161l160 161q25 25 57 25q13 0 25 -5q19 -6 34.5 -21t22.5 -34q4 -12 4 -24q0 -32 -26 -58l-217 -219q-22 -21 -47 -24q-2 -2 -7 -2zM404 -11
q-110 0 -198 41q-105 46 -152 132q-15 27 -15 56q0 27 12 45q25 45 82 45q53 0 91 -48q34 -50 75 -71t104 -21q56 0 103 28q45 26 45 74q0 32 -16 51q-28 37 -95 57l-55 17q-153 54 -222 106q-101 72 -101 184q0 126 104 206q97 76 233 76q94 0 174 -34q90 -39 124 -104
q12 -24 12 -45q0 -30 -23 -55q-28 -31 -66 -31q-18 0 -34 8l-41 30q-35 24 -39 26q-44 25 -92 25q-67 0 -107 -25t-40 -71q0 -44 50 -76q43 -25 124 -49q153 -48 215 -97q93 -73 93 -190q0 -121 -99 -206q-98 -84 -246 -84z" />
    <glyph glyph-name="uni0162" unicode="&#x162;" horiz-adv-x="995" 
d="M488 0q-42 0 -69.5 28.5t-27.5 71.5v1008h-272q-43 0 -72 29t-29 72t29 72.5t72 29.5h745q43 0 72.5 -30t29.5 -73q0 -45 -29 -71q-31 -29 -73 -29h-273v-1008q0 -42 -30 -71t-73 -29zM494 -596q-43 0 -73 29t-30 72v284q0 42 30.5 71t73.5 29q42 0 70 -28.5t28 -71.5
v-284q0 -40 -29 -71q-28 -30 -70 -30z" />
    <glyph glyph-name="uni0163" unicode="&#x163;" horiz-adv-x="601" 
d="M294 0q-43 0 -73 29t-30 71v659h-73q-43 0 -72 31q-31 34 -31 72q0 43 30 72t73 29h73v247q0 43 30 72t73 29t72 -29t29 -72v-247h88q44 0 73.5 -29t29.5 -72q0 -44 -30 -73.5t-73 -29.5h-88v-659q0 -43 -29 -71.5t-72 -28.5zM497 -565q-43 0 -73 29t-30 72v284
q0 42 30.5 71t73.5 29q42 0 70 -28.5t28 -71.5v-284q0 -41 -29 -72q-27 -29 -70 -29z" />
    <glyph glyph-name="Tcaron" unicode="&#x164;" horiz-adv-x="995" 
d="M479 1425h-9q-7 0 -9 1q-25 3 -47 25l-217 219q-25 25 -25 56q0 17 4 26q6 19 21 34t34 21q15 4 25 4q33 0 57 -24l160 -161l161 161q24 24 56 24q17 0 26 -4q41 -13 56 -55q4 -12 4 -25q0 -32 -25 -57l-217 -219q-24 -22 -48 -25q-1 -1 -7 -1zM488 0q-42 0 -69.5 28.5
t-27.5 71.5v1008h-272q-43 0 -72 29t-29 72t29 72.5t72 29.5h745q43 0 72.5 -30t29.5 -73q0 -45 -29 -71q-31 -29 -73 -29h-273v-1008q0 -42 -30 -71t-73 -29z" />
    <glyph glyph-name="tcaron" unicode="&#x165;" horiz-adv-x="601" 
d="M580 1047q-33 0 -56 22t-23 55v217q0 33 23 55t57 22q32 0 53 -22t21 -55v-217q0 -33 -21 -55t-54 -22zM294 0q-43 0 -73 29t-30 71v659h-73q-43 0 -72 31q-31 34 -31 72q0 43 30 72t73 29h73v247q0 43 30 72t73 29t72 -29t29 -72v-247h88q44 0 73.5 -29t29.5 -72
q0 -44 -30 -73.5t-73 -29.5h-88v-659q0 -43 -29 -71.5t-72 -28.5z" />
    <glyph glyph-name="Tbar" unicode="&#x166;" horiz-adv-x="995" 
d="M487 0q-42 0 -69 28.5t-27 71.5v428h-202q-39 0 -64.5 27t-25.5 67q0 38 25.5 63t64.5 25h202v398h-332q-43 0 -72 29t-29 72t29 72.5t72 29.5h864q43 0 72 -30t29 -73q0 -45 -29 -71q-31 -29 -72 -29h-333v-398h186q38 0 66 -26q26 -26 26 -62q0 -39 -26.5 -66.5
t-65.5 -27.5h-186v-428q0 -40 -30 -70t-73 -30z" />
    <glyph glyph-name="tbar" unicode="&#x167;" horiz-adv-x="601" 
d="M393 0q-43 0 -72.5 28.5t-29.5 71.5v252h-65q-37 0 -62.5 25.5t-25.5 63.5q0 37 25.5 63.5t62.5 26.5h65v228h-74q-43 0 -72 31q-30 33 -30 72q0 43 29.5 72t72.5 29h74v247q0 43 29.5 72t72.5 29t72.5 -29t29.5 -72v-247h88q43 0 72.5 -29t29.5 -72q0 -44 -29.5 -73.5
t-72.5 -29.5h-88v-228h59q37 0 63 -26q27 -27 27 -64t-26.5 -63t-63.5 -26h-59v-252q0 -43 -29.5 -71.5t-72.5 -28.5z" />
    <glyph glyph-name="Utilde" unicode="&#x168;" horiz-adv-x="1161" 
d="M730 1406q-72 0 -155 63l-18 15q-20 15 -51 27q-20 6 -28 6q-50 0 -96 -60q-8 -13 -13 -18q-25 -25 -59 -25q-33 0 -57 24q-25 23 -25 58q-1 33 23 57q24 37 75 76q68 53 145 53t153 -59l20 -15q24 -19 53 -30q14 -6 28 -6q49 0 98 63q9 12 11 14q23 23 57 23t58 -23.5
t25 -56.5q0 -30 -24 -57q-21 -36 -73 -76q-69 -53 -147 -53zM585 -11q-212 0 -352 140q-67 66 -103.5 153.5t-36.5 184.5v740q0 43 30 73t72 30t72 -30t30 -73v-735q0 -115 81 -199q84 -84 206 -84q121 0 199 84q75 81 75 199v738q0 44 30 72q31 29 71 29q43 0 73 -29
t30 -72v-743q0 -204 -132 -338q-135 -140 -345 -140z" />
    <glyph glyph-name="utilde" unicode="&#x169;" horiz-adv-x="1058" 
d="M674 1083q-70 0 -155 64l-18 14q-22 17 -51 28q-17 5 -28 5q-50 0 -96 -59q-8 -13 -14 -19q-24 -24 -58 -24t-57 23q-25 23 -25 59q-1 33 23 57q25 38 74 76q68 53 146 53q75 0 152 -60l21 -15q24 -19 53 -30q14 -6 28 -6q48 0 98 64q9 12 10 13q24 24 58 24t58 -23.5
t25 -56.5q0 -31 -24 -58q-19 -33 -74 -75q-71 -54 -146 -54zM853 -2q-42 0 -70.5 29.5t-28.5 72.5v15q-121 -116 -262 -116q-178 0 -289 135q-111 134 -111 340v391q0 43 30 72t73 29t72 -29t29 -72v-393q0 -124 59 -196q59 -74 160 -74q103 0 171 76t68 189v395
q0 43 29 72.5t72 29.5q44 0 73 -29t29 -73v-762q0 -42 -30 -71q-34 -31 -74 -31z" />
    <glyph glyph-name="Umacron" unicode="&#x16a;" horiz-adv-x="1161" 
d="M799 1412h-404q-37 0 -62.5 26.5t-25.5 64.5q0 37 25 61.5t63 24.5h404q37 0 63 -24q26 -28 26 -62q0 -35 -26 -63t-63 -28zM585 -11q-212 0 -352 140q-67 66 -103.5 153.5t-36.5 184.5v740q0 43 30 73t72 30t72 -30t30 -73v-735q0 -115 81 -199q84 -84 206 -84
q121 0 199 84q75 81 75 199v738q0 44 30 72q31 29 71 29q43 0 73 -29t30 -72v-743q0 -204 -132 -338q-135 -140 -345 -140z" />
    <glyph glyph-name="umacron" unicode="&#x16b;" horiz-adv-x="1058" 
d="M744 1083h-403q-37 0 -62.5 27t-25.5 65q0 37 25 61.5t63 24.5h403q37 0 64 -25q26 -28 26 -61q0 -36 -26 -64t-64 -28zM853 -2q-42 0 -70.5 29.5t-28.5 72.5v15q-121 -116 -262 -116q-178 0 -289 135q-111 134 -111 340v391q0 43 30 72t73 29t72 -29t29 -72v-393
q0 -124 59 -196q59 -74 160 -74q103 0 171 76t68 189v395q0 43 29 72.5t72 29.5q44 0 73 -29t29 -73v-762q0 -42 -30 -71q-34 -31 -74 -31z" />
    <glyph glyph-name="Ubreve" unicode="&#x16c;" horiz-adv-x="1161" 
d="M579 1382q-96 0 -164 68t-68 163q0 30 20.5 50.5t49.5 20.5q30 0 50 -20.5t20 -50.5q0 -37 27 -64q25 -27 65 -27q39 0 65 27q27 27 27 64q0 30 19.5 50.5t49.5 20.5t50 -20.5t20 -50.5q0 -92 -68 -163q-68 -68 -163 -68zM585 -11q-212 0 -352 140q-67 66 -103.5 153.5
t-36.5 184.5v740q0 43 30 73t72 30t72 -30t30 -73v-735q0 -115 81 -199q84 -84 206 -84q121 0 199 84q75 81 75 199v738q0 44 30 72q31 29 71 29q43 0 73 -29t30 -72v-743q0 -204 -132 -338q-135 -140 -345 -140z" />
    <glyph glyph-name="ubreve" unicode="&#x16d;" horiz-adv-x="1058" 
d="M558 1072q-96 0 -164 68q-67 67 -67 163q0 30 20 50.5t49 20.5q30 0 50.5 -20.5t20.5 -50.5q0 -37 27 -64q26 -28 64 -28q40 0 66 28q26 26 26 64q0 30 20 50.5t50 20.5t50 -20.5t20 -50.5q0 -92 -68 -163q-68 -68 -164 -68zM853 -2q-42 0 -70.5 29.5t-28.5 72.5v15
q-121 -116 -262 -116q-178 0 -289 135q-111 134 -111 340v391q0 43 30 72t73 29t72 -29t29 -72v-393q0 -124 59 -196q59 -74 160 -74q103 0 171 76t68 189v395q0 43 29 72.5t72 29.5q44 0 73 -29t29 -73v-762q0 -42 -30 -71q-34 -31 -74 -31z" />
    <glyph glyph-name="Uring" unicode="&#x16e;" horiz-adv-x="1161" 
d="M583 1321q-90 0 -155 67q-64 64 -64 154q0 92 64 156q63 63 155 63q91 0 156 -63q64 -64 64 -156q0 -90 -64 -154q-67 -67 -156 -67zM584 1463q33 0 56 23t23 56t-23 56.5t-56 23.5t-56 -23.5t-23 -56.5t23 -56t56 -23zM585 -11q-212 0 -352 140q-67 66 -103.5 153.5
t-36.5 184.5v740q0 43 30 73t72 30t72 -30t30 -73v-735q0 -115 81 -199q84 -84 206 -84q121 0 199 84q75 81 75 199v738q0 44 30 72q31 29 71 29q43 0 73 -29t30 -72v-743q0 -204 -132 -338q-135 -140 -345 -140z" />
    <glyph glyph-name="uring" unicode="&#x16f;" horiz-adv-x="1058" 
d="M550 1019q-91 0 -155 66q-64 64 -64 155q0 92 64 156q63 63 155 63t157 -63q63 -63 63 -156q0 -92 -63 -155q-66 -66 -157 -66zM551 1161q33 0 56 23t23 56t-23 56.5t-56 23.5t-56 -23.5t-23 -56.5t23 -56t56 -23zM853 -2q-42 0 -70.5 29.5t-28.5 72.5v15
q-121 -116 -262 -116q-178 0 -289 135q-111 134 -111 340v391q0 43 30 72t73 29t72 -29t29 -72v-393q0 -124 59 -196q59 -74 160 -74q103 0 171 76t68 189v395q0 43 29 72.5t72 29.5q44 0 73 -29t29 -73v-762q0 -42 -30 -71q-34 -31 -74 -31z" />
    <glyph glyph-name="Uhungarumlaut" unicode="&#x170;" horiz-adv-x="1161" 
d="M384 1364q-36 0 -61 27q-27 25 -27 62q0 36 27 63l124 125q27 27 64 27q35 0 61 -26q28 -28 28 -62t-28 -62l-126 -127q-27 -27 -62 -27zM763 1364q-38 0 -63 27q-26 24 -26 62q0 37 26 63l125 125q27 27 65 27q34 0 60 -26q28 -28 28 -62q0 -35 -27 -62l-126 -127
q-27 -27 -62 -27zM585 -11q-212 0 -352 140q-67 66 -103.5 153.5t-36.5 184.5v740q0 43 30 73t72 30t72 -30t30 -73v-735q0 -115 81 -199q84 -84 206 -84q121 0 199 84q75 81 75 199v738q0 44 30 72q31 29 71 29q43 0 73 -29t30 -72v-743q0 -204 -132 -338
q-135 -140 -345 -140z" />
    <glyph glyph-name="uhungarumlaut" unicode="&#x171;" horiz-adv-x="1058" 
d="M350 1054q-37 0 -61 26q-27 25 -27 63q0 35 27 62l125 126q27 27 63 27t62 -26q27 -27 27 -62q0 -36 -27 -63l-126 -127q-26 -26 -63 -26zM729 1054q-38 0 -62 26q-27 25 -27 63q0 35 27 62l125 126q27 27 64 27q34 0 60 -26q28 -28 28 -62q0 -37 -26 -63l-126 -127
q-26 -26 -63 -26zM853 -2q-42 0 -70.5 29.5t-28.5 72.5v15q-121 -116 -262 -116q-178 0 -289 135q-111 134 -111 340v391q0 43 30 72t73 29t72 -29t29 -72v-393q0 -124 59 -196q59 -74 160 -74q103 0 171 76t68 189v395q0 43 29 72.5t72 29.5q44 0 73 -29t29 -73v-762
q0 -42 -30 -71q-34 -31 -74 -31z" />
    <glyph glyph-name="Uogonek" unicode="&#x172;" horiz-adv-x="1161" 
d="M857 -297q-92 0 -156 66q-64 62 -64 156q0 35 9 68q-23 -4 -61 -4q-212 0 -352 140q-67 66 -103.5 153.5t-36.5 184.5v740q0 43 30 73t72 30t72 -30t30 -73v-735q0 -115 81 -199q84 -84 206 -84q121 0 199 84q75 81 75 199v738q0 44 30 72q31 29 71 29q43 0 73 -29
t30 -72v-743q0 -193 -123 -328l-6 -8l-137 -135l-9 -6q-24 -25 -24 -64q0 -36 27 -63q26 -28 64 -28q39 0 65.5 26t26.5 65q0 28 19 46.5t49 18.5q27 0 46 -19t19 -46v-6q-2 -89 -66 -153t-156 -64z" />
    <glyph glyph-name="uogonek" unicode="&#x173;" horiz-adv-x="1058" 
d="M859 -389q-93 0 -156 65q-64 62 -64 157q0 96 67 161q1 0 1 1h1l57 57q-11 25 -11 48v15q-121 -116 -262 -116q-178 0 -289 135q-111 134 -111 340v391q0 43 30 72t73 29t72 -29t29 -72v-393q0 -124 59 -196q59 -74 160 -74q103 0 171 76t68 189v395q0 43 29 72.5
t72 29.5q44 0 73 -29t29 -73v-762q0 -54 -47 -86l-112 -110l-8 -6q-25 -27 -25 -64q0 -36 27 -63q26 -28 64 -28q39 0 65.5 26t26.5 65q0 28 19 46.5t49 18.5q27 0 46 -19t19 -46v-6q-2 -90 -66 -154q-63 -63 -156 -63z" />
    <glyph glyph-name="Wcircumflex" unicode="&#x174;" horiz-adv-x="1765" 
d="M657 1421q-41 13 -55 57q-4 9 -4 25q0 31 25 56l217 219q21 21 47 24q2 1 9 1h9q6 0 7 -1q25 -3 47 -24l218 -219q25 -25 25 -58q0 -11 -4 -23q-7 -20 -22 -35.5t-34 -21.5q-9 -4 -26 -4q-31 0 -56 25l-161 161l-160 -161q-25 -25 -57 -25q-10 0 -25 4zM599 0
q-31 0 -56 16.5t-37 45.5l-476 1106q-8 22 -8 40q0 42 29 71q30 30 75 30q39 0 70 -29q14 -14 23 -34l382 -890l169 390l-181 422q-8 22 -8 40q0 42 29 71q30 30 75 30q39 0 70 -29q14 -14 23 -34l104 -241l104 241q12 30 37 46.5t56 16.5q24 0 39 -7q42 -16 57 -55
q7 -15 7 -39q0 -18 -8 -40l-182 -420l168 -392l385 890q17 41 56 56q14 7 37 7q43 0 73 -30t30 -71q0 -20 -9 -40l-476 -1106q-12 -29 -39 -45.5t-59 -16.5q-65 0 -94 62l-183 425l-183 -425q-12 -29 -38.5 -45.5t-60.5 -16.5z" />
    <glyph glyph-name="wcircumflex" unicode="&#x175;" horiz-adv-x="1355" 
d="M683 1061h-9q-7 0 -9 1q-27 3 -48 24l-217 220q-24 24 -24 56q0 17 4 26q6 19 21 34t34 21q15 4 25 4q32 0 57 -25l160 -160l161 160q25 25 56 25q17 0 26 -4q41 -13 56 -55q4 -12 4 -25q0 -31 -26 -57l-217 -220q-22 -21 -47 -24q-1 -1 -7 -1zM479 0h-15q-36 1 -67 32
q-11 11 -19 29l-345 759q-9 20 -9 40q0 43 27 73q31 33 73 33t71 -29q14 -14 23 -34l253 -571l98 223l-119 265q-10 22 -10 43q0 19 6 36q11 37 54 57q22 10 40 10q41 0 70 -29q15 -15 24 -34l44 -101l45 101q16 40 56 54q16 8 38 8q43 0 74 -33q28 -31 28 -73
q-1 -16 -11 -40l-120 -265l99 -222l252 571q13 29 37.5 45.5t54.5 16.5q20 0 42 -10q41 -20 54 -57q7 -15 7 -39q0 -21 -9 -40l-344 -758q-14 -27 -33 -41q-24 -18 -52 -20h-12q-43 0 -69 31q-1 0 -1 1h-1v1q-12 10 -19 28l-115 252l-114 -252q-6 -14 -19 -28
q-4 -5 -11 -10.5t-13.5 -9.5t-7.5 -4q-16 -7 -35 -9z" />
    <glyph glyph-name="Ycircumflex" unicode="&#x176;" horiz-adv-x="1100" 
d="M381 1408q-42 13 -55 56q-4 9 -4 25q0 32 24 56l217 219q22 22 47 25q2 1 10 1h9q6 0 7 -1q23 -3 47 -25l217 -219q26 -26 26 -57q0 -12 -4 -24q-15 -42 -57 -56q-9 -4 -25 -4q-33 0 -57 24l-160 161l-160 -161q-24 -24 -56 -24q-17 0 -26 4zM548 0q-43 0 -72.5 28.5
t-29.5 71.5v444l-400 593q-24 29 -24 66q0 47 35 79q31 26 71 26q44 0 73 -36l347 -527l345 529q27 35 76 35q34 0 64 -25q38 -32 38 -78q0 -36 -25 -68l-396 -593v-445q0 -43 -29.5 -71.5t-72.5 -28.5z" />
    <glyph glyph-name="ycircumflex" unicode="&#x177;" horiz-adv-x="939" 
d="M201 1089q-19 6 -34.5 21.5t-21.5 34.5q-4 9 -4 25q0 31 25 56l217 219q21 21 47 24q2 1 9 1h10q6 0 7 -1q25 -3 47 -24l217 -219q25 -25 25 -58q0 -25 -17.5 -48t-42.5 -31q-12 -5 -26 -5q-31 0 -56 25l-161 161l-159 -161q-25 -25 -58 -25q-6 0 -24 5zM301 -360
q-21 0 -40 9q-53 24 -53 82q0 27 12 52l139 313l-327 724q-9 20 -9 43q0 19 6 36q13 37 54 57q22 10 40 10q42 0 71 -29q14 -14 23 -34l250 -566l254 566q20 41 57 54q16 8 38 8q40 0 73 -33q29 -29 29 -73q-1 -16 -11 -40l-510 -1118q-20 -41 -57 -54q-15 -7 -39 -7z" />
    <glyph glyph-name="Ydieresis" unicode="&#x178;" horiz-adv-x="1100" 
d="M421 1383q-48 0 -81 33t-33 81t33 81q34 34 81 34t81 -34t34 -81t-34 -81q-33 -33 -81 -33zM799 1383q-47 0 -80 33q-34 34 -34 81t34 81t80 34q48 0 82 -34q32 -32 32 -81t-32 -81q-33 -33 -82 -33zM548 0q-43 0 -72.5 28.5t-29.5 71.5v444l-400 593q-24 29 -24 66
q0 47 35 79q31 26 71 26q44 0 73 -36l347 -527l345 529q27 35 76 35q34 0 64 -25q38 -32 38 -78q0 -36 -25 -68l-396 -593v-445q0 -43 -29.5 -71.5t-72.5 -28.5z" />
    <glyph glyph-name="Zacute" unicode="&#x179;" horiz-adv-x="1221" 
d="M574 1462q-30 30 -30 72q0 44 30 74l137 137q31 31 73 31q38 0 73 -30q31 -31 31 -73q0 -40 -31 -71l-138 -140q-30 -30 -73 -30q-42 0 -72 30zM156 0l-12 -1q-34 0 -64 27q-35 30 -35 78q0 39 24 65l778 938h-685q-43 0 -72.5 29t-29.5 72q0 44 31 73q35 30 74 30h897
q30 -1 55 -19l13 -9q35 -32 35 -76q0 -38 -25 -67l-778 -936h715q43 0 72 -30t29 -73t-29 -72t-72 -29h-921z" />
    <glyph glyph-name="zacute" unicode="&#x17a;" horiz-adv-x="1032" 
d="M471 1121q-31 31 -31 72q0 43 31 74l136 137q31 31 74 31q38 0 73 -30q30 -30 30 -73q0 -41 -30 -71l-139 -140q-30 -30 -72 -30t-72 30zM886 0h-740q-61 0 -88 51q-14 23 -14 49q0 40 31 71l571 593h-491q-43 0 -72.5 28.5t-29.5 71.5t29.5 72t72.5 29h711q2 0 20 -2
q33 -4 56 -34q21 -24 24 -51q0 -5 1 -6v-6v-4q-1 -40 -29 -68l-2 -2l-572 -593h522q44 0 73 -28t29 -70t-29 -71q-30 -30 -73 -30z" />
    <glyph glyph-name="Zdotaccent" unicode="&#x17b;" horiz-adv-x="1221" 
d="M638 1416q-49 0 -85 36t-36 86t36 86t85 36q50 0 86 -36t36 -86t-36 -86t-86 -36zM156 0l-12 -1q-34 0 -64 27q-35 30 -35 78q0 39 24 65l778 938h-685q-43 0 -72.5 29t-29.5 72q0 44 31 73q35 30 74 30h897q30 -1 55 -19l13 -9q35 -32 35 -76q0 -38 -25 -67l-778 -936
h715q43 0 72 -30t29 -73t-29 -72t-72 -29h-921z" />
    <glyph glyph-name="zdotaccent" unicode="&#x17c;" horiz-adv-x="1032" 
d="M526 1097q-49 0 -85 36q-35 35 -35 86t35 86t85 35q51 0 86 -35q36 -36 36 -86t-36 -86t-86 -36zM886 0h-740q-61 0 -88 51q-14 23 -14 49q0 40 31 71l571 593h-491q-43 0 -72.5 28.5t-29.5 71.5t29.5 72t72.5 29h711q2 0 20 -2q33 -4 56 -34q21 -24 24 -51q0 -5 1 -6v-6
v-4q-1 -40 -29 -68l-2 -2l-572 -593h522q44 0 73 -28t29 -70t-29 -71q-30 -30 -73 -30z" />
    <glyph glyph-name="Zcaron" unicode="&#x17d;" horiz-adv-x="1221" 
d="M667 1433h-10q-7 0 -9 1q-26 3 -47 24l-217 219q-25 25 -25 57q0 13 5 25q6 19 21 34.5t34 21.5q15 4 24 4q33 0 58 -25l159 -161l161 161q25 25 58 25q9 0 24 -4q18 -6 33.5 -21.5t22.5 -34.5q5 -15 5 -24q0 -32 -26 -58l-217 -219q-22 -21 -47 -24q-1 -1 -7 -1zM156 0
l-12 -1q-34 0 -64 27q-35 30 -35 78q0 39 24 65l778 938h-685q-43 0 -72.5 29t-29.5 72q0 44 31 73q35 30 74 30h897q30 -1 55 -19l13 -9q35 -32 35 -76q0 -38 -25 -67l-778 -936h715q43 0 72 -30t29 -73t-29 -72t-72 -29h-921z" />
    <glyph glyph-name="zcaron" unicode="&#x17e;" horiz-adv-x="1032" 
d="M551 1083h-9q-8 0 -10 1q-25 3 -47 25l-217 219q-24 24 -24 56q0 17 4 26q6 19 21 34t34 21q15 4 25 4q33 0 57 -24l160 -161l161 161q24 24 57 24q9 0 24 -4q19 -6 34.5 -21t22.5 -34q4 -12 4 -25q0 -31 -26 -57l-217 -219q-24 -22 -47 -25q-1 -1 -7 -1zM886 0h-740
q-61 0 -88 51q-14 23 -14 49q0 40 31 71l571 593h-491q-43 0 -72.5 28.5t-29.5 71.5t29.5 72t72.5 29h711q2 0 20 -2q33 -4 56 -34q21 -24 24 -51q0 -5 1 -6v-6v-4q-1 -40 -29 -68l-2 -2l-572 -593h522q44 0 73 -28t29 -70t-29 -71q-30 -30 -73 -30z" />
    <glyph glyph-name="longs" unicode="&#x17f;" horiz-adv-x="1707" 
 />
    <glyph glyph-name="florin" unicode="&#x192;" horiz-adv-x="718" 
d="M458 963h94q44 0 73.5 -29t29.5 -72q0 -44 -29.5 -73.5t-73.5 -29.5h-94v-655q0 -42 -30 -72q-31 -31 -72 -31q-40 0 -71 31t-31 72v655h-68q-42 0 -71 31q-30 35 -30 72q0 43 29 72t72 29h68v53v4q1 138 94 229q89 86 232 86q45 0 74 -26.5t29 -69.5q0 -41 -30 -71
q-29 -29 -73 -29q-52 0 -87 -36t-35 -87v-53z" />
    <glyph glyph-name="AEacute" unicode="&#x1fc;" horiz-adv-x="1652" 
d="M1046 1453q-31 31 -31 72q0 42 31 73l136 138q30 30 73 30q39 0 73 -29q31 -31 31 -73q0 -41 -31 -72l-138 -139q-31 -31 -73 -31q-40 0 -71 31zM127 -3q-37 0 -65 22q-40 29 -40 82q0 36 23 64l851 1099q27 41 78 46q2 0 3 1h2h512q44 0 75 -31q30 -30 30 -75
q0 -43 -30 -73q-28 -32 -75 -32h-402v-369h259q45 0 73 -30q30 -35 30 -73q0 -44 -30 -75t-73 -31l-259 -2v-311l400 -1q43 0 74 -31q30 -30 30 -74t-30 -73q-35 -31 -74 -30h-510q-41 2 -71 32q-29 29 -29 71v155h-498l-171 -220q-35 -41 -83 -41zM544 467h335v431z" />
    <glyph glyph-name="aeacute" unicode="&#x1fd;" horiz-adv-x="1854" 
d="M953 1116q-30 30 -30 72q0 44 30 74l137 137q31 31 73 31q38 0 73 -30q31 -31 31 -73q0 -41 -31 -72l-138 -139q-31 -31 -73 -31q-41 0 -72 31zM1313 -13q-162 0 -295 97q-7 -37 -35.5 -60.5t-67.5 -23.5t-67 26.5t-32 66.5q-129 -105 -284 -105q-98 0 -187.5 37.5
t-157.5 105.5q-143 143 -143 345t143 345q68 68 157.5 106t187.5 38q114 0 213.5 -49t168.5 -137q70 95 174.5 148t224.5 53q204 0 349 -143q146 -146 148 -349q0 -43 -27.5 -70t-72.5 -27h-667q24 -88 100 -148q76 -59 170 -59q118 0 188 76q34 26 69 26q18 0 34 -6
q32 -11 49 -43q17 -28 17 -57q0 -46 -39 -79q-55 -53 -124 -79q-83 -35 -194 -35zM1037 561h564q-22 96 -100 160q-78 62 -184 62q-103 0 -182 -64q-78 -64 -98 -158zM532 193q119 0 202 83q82 82 82 200q0 119 -82 201t-202 82q-117 0 -199 -82q-84 -84 -84 -201
q0 -116 84 -200q83 -83 199 -83z" />
    <glyph glyph-name="Oslashacute" unicode="&#x1fe;" horiz-adv-x="1419" 
d="M708 1460q-31 31 -31 72q0 43 31 74l136 137q31 31 74 31q37 0 72 -30q31 -31 31 -73q0 -41 -31 -72l-138 -139q-30 -30 -73 -30q-41 0 -71 30zM710 -12q-208 0 -373 113l-61 -64q-33 -36 -78 -36q-41 0 -67 24q-36 28 -36 79q0 40 24 66l66 72q-141 178 -141 411
q0 183 90 337q88 151 239 239q155 91 337 91q202 0 375 -118l62 66q34 37 80 37q33 0 67 -26q36 -29 36 -75q0 -38 -24 -68l-71 -75q139 -181 139 -408q0 -134 -50.5 -255t-142.5 -215q-92 -93 -214 -144t-257 -51zM331 397l608 649q-103 62 -229 62q-92 0 -176 -35
t-147 -98t-98 -147t-35 -175q0 -140 77 -256zM710 198q191 0 321 133q63 63 97.5 146.5t34.5 175.5q0 140 -74 251l-607 -647q103 -59 228 -59z" />
    <glyph glyph-name="oslashacute" unicode="&#x1ff;" 
d="M554 1135q-31 31 -31 71q0 43 31 74l136 137q31 31 74 31q38 0 73 -30q30 -30 30 -72t-30 -72l-139 -139q-31 -31 -72 -31t-72 31zM273 -60q-13 -5 -28 -5q-25 0 -49 13q-38 19 -49 63q-3 12 -3 26q0 29 14 52l28 43q-142 142 -142 344t143 345q68 68 157.5 106t187.5 38
q104 0 187 -38l9 13q19 37 63 49q15 4 26 4q27 0 52 -13q37 -23 47 -62q4 -16 4 -26q0 -29 -14 -52l-19 -29q133 -142 133 -335q0 -201 -142 -345q-68 -68 -158 -105.5t-188 -37.5t-175 31l-21 -31q-22 -38 -63 -48zM304 307l297 444q-42 8 -69 8q-117 0 -199 -82
q-84 -84 -84 -201q0 -95 55 -169zM532 193q119 0 202 83q82 82 82 200q0 86 -48 158l-292 -436q37 -5 56 -5z" />
    <glyph glyph-name="Scommaaccent" unicode="&#x218;" horiz-adv-x="1027" 
d="M515 -13q-150 0 -275 74q-120 69 -170 179q-14 28 -14 54q0 15 5 33q10 31 49 53q23 13 45 13q45 0 94 -61q89 -142 274 -142q100 0 168 50q78 54 78 139q0 83 -79 129q-47 26 -138 48l-27 7q-201 38 -311 124q-127 100 -127 255q0 162 132 273q127 105 298 105
q123 0 228 -48q108 -52 163 -144q12 -21 12 -38q0 -4 -2 -20q-8 -28 -28 -48q-25 -25 -67 -25q-36 0 -60 19q-65 57 -108 76q-57 24 -135 24q-97 0 -160 -46q-68 -46 -68 -126t89 -125q53 -27 208 -60q174 -46 264 -118q119 -95 119 -251q0 -170 -132 -288
q-134 -115 -325 -115zM534 -548q-43 0 -73 29.5t-30 72.5v283q0 42 30.5 71.5t73.5 29.5q42 0 70 -29t28 -72v-283q0 -41 -29 -72q-28 -30 -70 -30z" />
    <glyph glyph-name="scommaaccent" unicode="&#x219;" horiz-adv-x="799" 
d="M404 -11q-110 0 -198 41q-105 46 -152 132q-15 27 -15 56q0 27 12 45q25 45 82 45q53 0 91 -48q34 -50 75 -71t104 -21q56 0 103 28q45 26 45 74q0 32 -16 51q-28 37 -95 57l-55 17q-153 54 -222 106q-101 72 -101 184q0 126 104 206q97 76 233 76q94 0 174 -34
q90 -39 124 -104q12 -24 12 -45q0 -30 -23 -55q-28 -31 -66 -31q-18 0 -34 8l-41 30q-35 24 -39 26q-44 25 -92 25q-67 0 -107 -25t-40 -71q0 -44 50 -76q43 -25 124 -49q153 -48 215 -97q93 -73 93 -190q0 -121 -99 -206q-98 -84 -246 -84zM394 -537q-43 0 -72.5 29.5
t-29.5 72.5v283q0 43 30 72t73 29q42 0 70.5 -29t28.5 -72v-283q0 -41 -29 -72q-28 -30 -71 -30z" />
    <glyph glyph-name="uni021A" unicode="&#x21a;" horiz-adv-x="1117" 
d="M558 0q-42 0 -69.5 28.5t-27.5 71.5v1008h-331q-43 0 -72 29t-29 72t29 72.5t72 29.5h862q43 0 73 -30t30 -73q0 -42 -30 -71t-73 -29h-332v-1008q0 -43 -29.5 -71.5t-72.5 -28.5zM557 -579q-44 0 -73.5 30.5t-29.5 75.5v286q0 42 30 75q29 31 73 31q45 0 72.5 -30
t27.5 -76v-286q0 -46 -27.5 -76t-72.5 -30z" />
    <glyph glyph-name="uni021B" unicode="&#x21b;" horiz-adv-x="601" 
d="M668 -12q-99 0 -188.5 36.5t-157.5 103.5q-68 68 -106 156.5t-38 186.5v675q0 40 31 74q29 30 72 30q40 0 74 -29q32 -32 32 -75v-180h370q42 0 72 -30t30 -73q0 -41 -30 -69q-31 -29 -72 -29h-370v-295q0 -117 81 -198t200 -81q105 0 181 65q21 21 42 28q17 6 36 6
q32 0 62 -25q30 -28 30 -70q0 -49 -38 -87q-126 -120 -313 -120zM274 -496q-43 0 -72 31q-31 34 -31 76v286q0 41 31 75q29 31 72 31q45 0 73 -30t28 -76v-286q0 -46 -28 -76.5t-73 -30.5z" />
    <glyph glyph-name="uni0237" unicode="&#x237;" horiz-adv-x="472" 
d="M2 -306h-5q-43 0 -73 30t-30 71q0 44 30 74.5t73 30.5h5q54 0 93 39q38 38 38 92v829q0 47 31 75q35 30 73 30q42 0 72 -30t30 -75v-829q0 -11 -1 -13q-6 -138 -102 -229q-97 -95 -234 -95z" />
    <glyph glyph-name="circumflex" unicode="&#x2c6;" horiz-adv-x="747" 
d="M111 1158q-20 6 -35 21t-21 35q-4 9 -4 26q0 30 25 55l217 219q22 22 47 25q2 1 9 1h9q7 0 8 -1q23 -3 47 -25l217 -219q25 -25 25 -57q0 -25 -17.5 -48.5t-42.5 -31.5q-9 -4 -26 -4q-31 0 -56 25l-161 160l-159 -160q-25 -25 -58 -25q-9 0 -24 4z" />
    <glyph glyph-name="caron" unicode="&#x2c7;" horiz-adv-x="745" 
d="M353 1151h-9q-7 0 -9 1q-25 3 -47 25l-217 219q-25 25 -25 56q0 17 4 26q6 19 21 34t34 21q15 4 25 4q32 0 57 -25l160 -160l161 160q25 25 56 25q17 0 26 -4q41 -13 56 -55q4 -12 4 -25q0 -32 -25 -57l-217 -219q-24 -22 -48 -25q-1 -1 -7 -1z" />
    <glyph glyph-name="uni02C9" unicode="&#x2c9;" horiz-adv-x="905" 
d="M748 1128h-590q-37 0 -63 29q-25 25 -25 64t24.5 64.5t63.5 25.5h590q37 0 62.5 -25.5t25.5 -64.5q0 -37 -27 -64q-26 -29 -61 -29z" />
    <glyph glyph-name="breve" unicode="&#x2d8;" horiz-adv-x="559" 
d="M262 1107q-96 0 -164 68q-67 67 -67 162q0 30 20 51t49 21q30 0 50.5 -21t20.5 -51q0 -36 27 -63q26 -28 64 -28q40 0 66 28q26 26 26 63q0 30 20 51t50 21t50 -21t20 -51q0 -91 -68 -162q-68 -68 -164 -68z" />
    <glyph glyph-name="dotaccent" unicode="&#x2d9;" horiz-adv-x="391" 
d="M172 1119q-49 0 -85 36t-36 86t36 86t85 36q50 0 86 -36t36 -86t-36 -86t-86 -36z" />
    <glyph glyph-name="ring" unicode="&#x2da;" horiz-adv-x="485" 
d="M220 1089q-90 0 -154 66q-65 65 -65 155t65 155q64 64 154 64q91 0 157 -64q63 -63 63 -155t-63 -155q-66 -66 -157 -66zM221 1231q33 0 56 23t23 56t-23 56.5t-56 23.5t-56 -23.5t-23 -56.5t23 -56t56 -23z" />
    <glyph glyph-name="ogonek" unicode="&#x2db;" horiz-adv-x="483" 
d="M171 -550q-92 0 -156 66q-64 62 -64 156q0 97 66 161q1 0 1 1h1l138 136q11 11 30 11q13 0 16 -1q22 -6 45 -24q15 -15 15 -37t-16 -41l-137 -135l-9 -6q-24 -25 -24 -64q0 -37 26 -63q26 -28 65 -28t65.5 26t26.5 65q0 28 19 46.5t49 18.5q27 0 46 -19t19 -46v-6
q-2 -89 -66 -153t-156 -64z" />
    <glyph glyph-name="tilde" unicode="&#x2dc;" horiz-adv-x="825" 
d="M529 1116q-69 0 -154 64l-19 14q-22 17 -51 28q-17 5 -27 5q-51 0 -97 -60q-8 -13 -13 -18q-25 -25 -58 -25q-34 0 -58 24q-24 22 -24 58q-2 34 22 58q23 35 75 75q69 54 145 54t153 -60l20 -15q23 -19 54 -30q13 -6 27 -6q49 0 99 64q9 12 10 13q23 23 57 23t58 -23
t25 -56q0 -32 -23 -58q-20 -35 -74 -76q-69 -53 -147 -53z" />
    <glyph glyph-name="hungarumlaut" unicode="&#x2dd;" horiz-adv-x="917" 
d="M205 1437q-38 0 -62 26q-26 24 -26 63q0 36 26 62l125 126q27 27 64 27q35 0 61 -26q28 -28 28 -62q0 -35 -28 -63l-126 -127q-26 -26 -62 -26zM584 1437q-39 0 -63 26q-26 24 -26 63q0 36 26 62l125 126q27 27 65 27q34 0 60 -26q28 -28 28 -62q0 -36 -27 -63l-126 -127
q-26 -26 -62 -26z" />
    <glyph glyph-name="uni0326" unicode="&#x326;" horiz-adv-x="0" 
d="M-268 -677q-43 0 -73 29.5t-30 72.5v283q0 42 30.5 71.5t73.5 29.5q42 0 70 -29t28 -72v-283q0 -41 -29 -72q-28 -30 -70 -30z" />
    <glyph glyph-name="uni037E" unicode="&#x37e;" horiz-adv-x="454" 
d="M194 -2q-44 0 -73 31q-31 34 -31 74v286q0 42 31 76q29 31 73 31t72 -30.5t28 -76.5v-286q0 -46 -27.5 -75.5t-72.5 -29.5z" />
    <glyph glyph-name="tonos" unicode="&#x384;" horiz-adv-x="403" 
d="M168 1042q-43 0 -72.5 29t-29.5 72v200q0 44 29 73q30 30 73 30q42 0 71 -30t29 -73v-200q0 -42 -29 -71q-30 -30 -71 -30z" />
    <glyph glyph-name="dieresistonos" unicode="&#x385;" horiz-adv-x="1036" 
d="M481 1209q-43 0 -72.5 29t-29.5 72v200q0 43 30 73t72 30q43 0 72 -30t29 -73v-200q0 -41 -30 -71t-71 -30zM195 1113q-49 0 -85 36t-36 86t36 86t85 36q50 0 86 -36q35 -35 35 -86t-35 -86q-36 -36 -86 -36zM771 1113q-49 0 -85 36t-36 86t36 86t85 36q50 0 86 -36
t36 -86t-36 -86t-86 -36z" />
    <glyph glyph-name="Alphatonos" unicode="&#x386;" horiz-adv-x="1205" 
d="M602 1433q-43 0 -72.5 28.5t-29.5 71.5v201q0 43 29 72q30 30 73 30t71.5 -29.5t28.5 -72.5v-201q0 -42 -29 -71t-71 -29zM1049 6q-40 14 -59 54l-128 305h-519l-126 -304q-16 -41 -56 -54q-18 -7 -37 -7q-23 0 -44 9q-57 25 -57 87q0 27 10 47l480 1105q27 63 93 63
q67 0 92 -62l476 -1106q10 -20 10 -47q0 -62 -57 -87q-19 -9 -43 -9q-18 0 -35 6zM428 568h348l-175 417z" />
    <glyph glyph-name="anoteleia" unicode="&#x387;" horiz-adv-x="423" 
d="M181 400q-48 0 -80 35q-33 33 -33 81t33 81q34 34 80 34q49 0 83 -34t34 -81t-34 -81q-32 -35 -83 -35z" />
    <glyph glyph-name="Epsilontonos" unicode="&#x388;" horiz-adv-x="933" 
d="M606 1419q-43 0 -72.5 29t-29.5 72v200q0 43 30 73t72 30q43 0 72 -30t29 -73v-200q0 -41 -30 -71t-71 -30zM782 0h-555q-41 3 -67.5 31t-26.5 70v1107q0 43 30 73t73 30h546q42 0 72 -30q29 -29 29 -73q0 -43 -29 -72t-72 -29h-445v-354h321q44 1 73 -28t29 -73
q0 -42 -29.5 -70t-72.5 -28h-321v-351h445q43 0 72 -30t29 -73q0 -42 -29 -71q-30 -30 -72 -29z" />
    <glyph glyph-name="Etatonos" unicode="&#x389;" horiz-adv-x="1232" 
d="M694 1347q-43 0 -72.5 28.5t-29.5 71.5v201q0 42 30 72t72 30q43 0 72 -29.5t29 -72.5v-201q0 -41 -30 -71q-29 -29 -71 -29zM234 0q-43 0 -72 28.5t-29 71.5v1110q0 43 29 72t72 29t73 -29t30 -72v-455h559v455q0 43 30 72t73 29t72 -29t29 -72v-1110q0 -42 -30 -71
t-73 -29t-72 28.5t-29 71.5v451h-559v-451q0 -42 -30 -71t-73 -29z" />
    <glyph glyph-name="Iotatonos" unicode="&#x38a;" horiz-adv-x="470" 
d="M233 1418q-43 0 -72.5 29t-29.5 72v200q0 43 30 73t72 30q43 0 72 -30t29 -73v-200q0 -41 -30 -71t-71 -30zM234 0q-43 0 -72 28.5t-29 71.5v1110q0 43 29 72t72 29t73 -29t30 -72v-1110q0 -42 -30 -71t-73 -29z" />
    <glyph glyph-name="Omicrontonos" unicode="&#x38c;" horiz-adv-x="1419" 
d="M725 1422q-43 0 -72.5 29t-29.5 72v200q0 44 29 73q30 30 73 30q42 0 71 -30t29 -73v-200q0 -42 -29 -71q-30 -30 -71 -30zM708 -12q-135 0 -256.5 51t-213.5 144q-93 93 -143.5 214.5t-50.5 255.5q0 183 90 337q88 152 238 239q158 91 336 91q181 0 336 -91
q153 -89 240 -239q91 -159 91 -337q0 -134 -51 -255.5t-144 -214.5t-215 -144t-257 -51zM709 191q192 0 327 135q134 134 134 327q0 93 -35 177.5t-99 148.5q-135 135 -327 135q-94 0 -178.5 -35.5t-147.5 -99.5q-64 -64 -99 -148.5t-35 -177.5q0 -193 134 -327
q63 -64 147.5 -99.5t178.5 -35.5z" />
    <glyph glyph-name="Upsilontonos" unicode="&#x38e;" horiz-adv-x="1085" 
d="M548 1378q-43 0 -73 29t-30 72v200q0 43 30 73t73 30q42 0 71 -30t29 -73v-200q0 -41 -30 -71t-70 -30zM607 0q-43 0 -72 28.5t-29 71.5v444l-401 593q-24 29 -24 66q0 46 36 79q31 26 70 26q44 0 73 -36l347 -527l345 529q27 35 76 35q35 0 65 -25q37 -31 37 -78
q0 -36 -25 -68l-395 -593v-445q0 -42 -30 -71t-73 -29z" />
    <glyph glyph-name="Omegatonos" unicode="&#x38f;" horiz-adv-x="1315" 
d="M473 0l-200 3q-41 -1 -72 30t-31 73q0 40 31 74q29 31 72 31l107 -1v44q-125 80 -194 204q-72 129 -72 279q0 119 44.5 225t126.5 188q170 170 413 170q119 0 225 -44t186 -126t124 -188t44 -225q0 -149 -72 -280q-72 -128 -192 -204v-43l104 1q44 0 75 -31t31 -74
q0 -44 -31 -73q-35 -31 -75 -30l-199 -3h-6q-20 0 -29 4q-1 0 -2 1q-3 1 -5 1q-31 11 -49.5 37.5t-18.5 59.5v234q0 67 55 93v1q97 39 152 118q58 83 58 203q0 141 -107 250q-113 115 -268 115q-156 0 -269 -113q-113 -111 -113 -252q0 -115 59 -198q54 -77 140 -117
q32 -10 50.5 -36.5t18.5 -63.5v-234q0 -31 -16.5 -56.5t-44.5 -37.5h-2l-2 -1q-22 -8 -40 -8h-6zM13 910q-43 0 -72.5 29t-29.5 72v200q0 43 30 73t72 30q43 0 72 -30t29 -73v-200q0 -41 -30 -71t-71 -30z" />
    <glyph glyph-name="iotadieresistonos" unicode="&#x390;" horiz-adv-x="409" 
d="M215 1180q-43 0 -72.5 28.5t-29.5 71.5v201q0 43 29 72q30 30 73 30t71.5 -29.5t28.5 -72.5v-201q0 -42 -29 -71t-71 -29zM-72 1083q-49 0 -85 36t-36 86t36 86t85 36q50 0 86 -36t36 -86t-36 -86t-86 -36zM505 1083q-49 0 -85 36t-36 86t36 86t85 36q50 0 86 -36t36 -86
t-36 -86t-86 -36zM206 0q-38 0 -73 30q-31 29 -31 72v760q0 44 31 73q35 30 74 30q44 0 72 -30q28 -29 28 -73v-760q0 -44 -28 -72q-30 -30 -73 -30z" />
    <glyph glyph-name="Alpha" unicode="&#x391;" horiz-adv-x="1205" 
d="M1049 6q-40 14 -59 54l-128 305h-519l-126 -304q-16 -41 -56 -54q-18 -7 -37 -7q-23 0 -44 9q-57 25 -57 87q0 27 10 47l480 1105q27 63 93 63q67 0 92 -62l476 -1106q10 -20 10 -47q0 -62 -57 -87q-19 -9 -43 -9q-18 0 -35 6zM428 568h348l-175 417z" />
    <glyph glyph-name="Beta" unicode="&#x392;" 
d="M608 0h-374q-43 0 -72 28.5t-29 71.5v1110q0 43 29 72t72 29h361q147 0 254 -105q104 -106 104 -255q0 -150 -108 -255q75 -56 117 -136t42 -175q0 -163 -115 -273q-115 -112 -281 -112zM337 773h252q65 1 113 56q47 52 47 116t-50 114q-48 48 -115 48h-247v-334z
M337 204h264q81 0 140 59t59 136q0 82 -59 136q-60 54 -141 54h-263v-385z" />
    <glyph glyph-name="Gamma" unicode="&#x393;" horiz-adv-x="960" 
d="M238 -2q-43 0 -74 31t-31 74v1102q0 39 23 67.5t60 36.5q2 1 12 1q2 0 3 1h2h595q45 0 74 -31q30 -35 30 -75q0 -42 -30 -70.5t-74 -28.5h-491v-1003q0 -44 -28.5 -74.5t-70.5 -30.5z" />
    <glyph glyph-name="Epsilon" unicode="&#x395;" horiz-adv-x="933" 
d="M782 0h-555q-41 3 -67.5 31t-26.5 70v1107q0 43 30 73t73 30h546q42 0 72 -30q29 -29 29 -73q0 -43 -29 -72t-72 -29h-445v-354h321q44 1 73 -28t29 -73q0 -42 -29.5 -70t-72.5 -28h-321v-351h445q43 0 72 -30t29 -73q0 -42 -29 -71q-30 -30 -72 -29z" />
    <glyph glyph-name="Zeta" unicode="&#x396;" horiz-adv-x="1221" 
d="M156 0l-12 -1q-34 0 -64 27q-35 30 -35 78q0 39 24 65l778 938h-685q-43 0 -72.5 29t-29.5 72q0 44 31 73q35 30 74 30h897q30 -1 55 -19l13 -9q35 -32 35 -76q0 -38 -25 -67l-778 -936h715q43 0 72 -30t29 -73t-29 -72t-72 -29h-921z" />
    <glyph glyph-name="Eta" unicode="&#x397;" horiz-adv-x="1232" 
d="M234 0q-43 0 -72 28.5t-29 71.5v1110q0 43 29 72t72 29t73 -29t30 -72v-455h559v455q0 43 30 72t73 29t72 -29t29 -72v-1110q0 -42 -30 -71t-73 -29t-72 28.5t-29 71.5v451h-559v-451q0 -42 -30 -71t-73 -29z" />
    <glyph glyph-name="Theta" unicode="&#x398;" horiz-adv-x="1419" 
d="M708 -12q-135 0 -256.5 51t-213.5 144q-93 93 -143.5 214.5t-50.5 255.5q0 183 90 337q88 152 238 239q158 91 336 91q181 0 336 -91q153 -89 240 -239q91 -159 91 -337q0 -134 -51 -255.5t-144 -214.5t-215 -144t-257 -51zM709 191q192 0 327 135q134 134 134 327
q0 93 -35 177.5t-99 148.5q-135 135 -327 135q-94 0 -178.5 -35.5t-147.5 -99.5q-64 -64 -99 -148.5t-35 -177.5q0 -193 134 -327q63 -64 147.5 -99.5t178.5 -35.5zM970 554h-524q-44 0 -73.5 28t-29.5 71q0 44 30 74.5t73 30.5h524q42 0 73 -31t31 -74q0 -42 -30 -70.5
t-74 -28.5z" />
    <glyph glyph-name="Iota" unicode="&#x399;" horiz-adv-x="470" 
d="M234 0q-43 0 -72 28.5t-29 71.5v1110q0 43 29 72t72 29t73 -29t30 -72v-1110q0 -42 -30 -71t-73 -29z" />
    <glyph glyph-name="Kappa" unicode="&#x39a;" horiz-adv-x="1126" 
d="M234 0q-43 0 -72 28.5t-29 71.5v1110q0 43 29 72t72 29t73 -29t30 -72v-449l555 521q29 29 73 29q38 -1 71 -34q29 -29 29 -72q0 -39 -32 -71l-385 -361l409 -614q18 -27 18 -59q0 -53 -46 -83q-25 -17 -55 -17q-3 0 -21 2q-41 6 -64 43l-393 587l-159 -150v-382
q0 -42 -30 -71t-73 -29z" />
    <glyph glyph-name="Lambda" unicode="&#x39b;" horiz-adv-x="1196" 
d="M125 0q-43 0 -75 34q-28 30 -27 71q0 19 8 41l470 1101q12 28 38 44.5t57 16.5q32 0 58 -16.5t38 -44.5l473 -1101q10 -23 10 -43q0 -15 -8 -36q-15 -42 -56 -58q-19 -9 -41 -9q-39 0 -73 29q-15 12 -23 33l-377 875l-375 -875q-18 -41 -57 -55q-17 -7 -40 -7z" />
    <glyph glyph-name="Mu" unicode="&#x39c;" horiz-adv-x="1451" 
d="M727 0q-66 0 -90 61l-311 762l-102 -735q-5 -39 -32.5 -62.5t-65.5 -23.5q-45 0 -74.5 29t-29.5 72q0 12 1 15l152 1097q5 34 29 58q31 35 75 35q12 0 39 -9q40 -15 56 -54l359 -878l358 878q13 29 37.5 45.5t54.5 16.5q20 0 39 -8l11 -6q50 -22 56 -78l143 -1100
q1 -3 1 -14q0 -42 -30.5 -71t-74.5 -29q-38 0 -66.5 25t-32.5 63l-94 729l-310 -757q-12 -28 -39 -44.5t-59 -16.5z" />
    <glyph glyph-name="Nu" unicode="&#x39d;" horiz-adv-x="1232" 
d="M234 0q-43 0 -72 28.5t-29 71.5v1107q0 43 29 72t72 29h2q8 0 16 -2l14 -3q17 -6 30 -16l11 -9q12 -11 19 -25l608 -850v807q0 43 30 72t73 29q46 0 72 -29q29 -31 29 -72v-1110q0 -34 -20 -60.5t-52 -35.5q-14 -4 -18 -4h-12q-35 0 -63 22q-17 13 -19 17l-617 864v-803
q0 -42 -30 -71t-73 -29z" />
    <glyph glyph-name="Xi" unicode="&#x39e;" horiz-adv-x="998" 
d="M850 1107h-702q-44 0 -74 27.5t-30 70.5t31 74q32 32 73 32h702q43 0 73 -31t30 -75q0 -42 -29.5 -70t-73.5 -28zM716 577h-435q-45 0 -74.5 25.5t-29.5 67.5q0 39 31 73q29 31 73 31h435q40 1 75 -29q30 -27 30 -74q0 -42 -30 -68t-75 -26zM851 0h-710q-42 0 -69.5 30
t-27.5 74q0 45 28 78q27 34 69 34h710q42 0 74 -34q29 -34 29 -79q0 -44 -29 -73q-32 -32 -74 -30z" />
    <glyph glyph-name="Omicron" unicode="&#x39f;" horiz-adv-x="1419" 
d="M708 -12q-135 0 -256.5 51t-213.5 144q-93 93 -143.5 214.5t-50.5 255.5q0 183 90 337q88 152 238 239q158 91 336 91q181 0 336 -91q153 -89 240 -239q91 -159 91 -337q0 -134 -51 -255.5t-144 -214.5t-215 -144t-257 -51zM709 191q192 0 327 135q134 134 134 327
q0 93 -35 177.5t-99 148.5q-135 135 -327 135q-94 0 -178.5 -35.5t-147.5 -99.5q-64 -64 -99 -148.5t-35 -177.5q0 -193 134 -327q63 -64 147.5 -99.5t178.5 -35.5z" />
    <glyph glyph-name="Pi" unicode="&#x3a0;" horiz-adv-x="1232" 
d="M238 0q-40 0 -74 31q-31 29 -31 72v1102q0 44 30.5 75t73.5 31h759q42 -1 73 -32q29 -31 29 -74v-1102q0 -43 -31 -72q-34 -31 -74 -31q-43 0 -71.5 29.5t-28.5 73.5v998h-556v-998q0 -44 -28 -73.5t-71 -29.5z" />
    <glyph glyph-name="Rho" unicode="&#x3a1;" horiz-adv-x="1026" 
d="M234 0q-43 0 -72 28.5t-29 71.5v1110q0 43 29 72t72 29h344q162 0 280 -113q115 -112 115 -275q0 -164 -115 -274q-114 -111 -280 -111h-241v-438q0 -42 -30 -71t-73 -29zM337 741h242q78 0 135 57q55 52 55 130t-56 129q-57 52 -135 52h-241v-368z" />
    <glyph glyph-name="Sigma" unicode="&#x3a3;" horiz-adv-x="914" 
d="M784 0h-632q-46 0 -79 33q-28 26 -28 65q0 41 31 83l391 481l-389 468q-32 41 -32 84q0 38 27 65q30 30 69 31q6 0 8 1h6h628q43 0 73.5 -31t30.5 -75q0 -43 -26.5 -70.5t-69.5 -27.5h-431l308 -370l10 -15q19 -25 19 -57q0 -11 -1 -14q-2 -31 -17 -49q-6 -12 -11 -17
l-305 -375h420q43 0 73.5 -31t30.5 -75q0 -38 -30 -73q-29 -31 -74 -31z" />
    <glyph glyph-name="Tau" unicode="&#x3a4;" horiz-adv-x="995" 
d="M488 0q-42 0 -69.5 28.5t-27.5 71.5v1008h-272q-43 0 -72 29t-29 72t29 72.5t72 29.5h745q43 0 72.5 -30t29.5 -73q0 -45 -29 -71q-31 -29 -73 -29h-273v-1008q0 -42 -30 -71t-73 -29z" />
    <glyph glyph-name="Upsilon" unicode="&#x3a5;" horiz-adv-x="1100" 
d="M548 0q-43 0 -72.5 28.5t-29.5 71.5v444l-400 593q-24 29 -24 66q0 47 35 79q31 26 71 26q44 0 73 -36l347 -527l345 529q27 35 76 35q34 0 64 -25q38 -32 38 -78q0 -36 -25 -68l-396 -593v-445q0 -43 -29.5 -71.5t-72.5 -28.5z" />
    <glyph glyph-name="Phi" unicode="&#x3a6;" horiz-adv-x="1251" 
d="M622 -22q-40 0 -74 31q-31 29 -31 73v19q-204 38 -339 193t-135 369q0 213 135 368q133 154 339 192v3q0 44 31 73q35 30 74 30q44 0 74.5 -30t30.5 -73v-1q209 -37 343 -191q137 -159 137 -371q0 -216 -137 -372q-135 -157 -343 -191v-18q0 -43 -30.5 -73.5t-74.5 -30.5
zM727 1011v-699q119 30 196 126q76 95 76 225q0 128 -76 223q-76 94 -196 125zM517 314v695q-116 -33 -191 -126q-76 -96 -76 -220q0 -127 76 -223q75 -93 191 -126z" />
    <glyph glyph-name="Chi" unicode="&#x3a7;" horiz-adv-x="1260" 
d="M1106 0q-42 0 -75 34l-410 465l-408 -465q-30 -34 -76 -34q-38 0 -67 26q-35 30 -35 76q0 39 25 67l425 483l-426 485q-24 25 -24 65q0 47 34 80q29 26 66 26q44 0 77 -36l409 -465l408 465q30 35 77 35q39 0 65 -26q35 -32 35 -79q0 -41 -25 -66l-424 -484l426 -483
q26 -28 26 -70q0 -47 -33 -73q-29 -26 -70 -26z" />
    <glyph glyph-name="Psi" unicode="&#x3a8;" horiz-adv-x="1268" 
d="M638 0q-40 0 -74 31q-30 29 -30 72v296q-186 6 -316 141q-129 131 -129 319v348q0 45 31 74q35 30 74 30q44 0 71.5 -29t27.5 -75v-352q0 -100 71 -171q72 -72 170 -78v601q0 47 31 74q35 30 75 30q42 0 69.5 -30t27.5 -74v-601q106 6 172 82q65 77 67 182v337
q0 44 27 74t69 30q45 0 75.5 -30t30.5 -74v-348q0 -188 -128 -319q-129 -135 -313 -141v-296q0 -44 -28 -73.5t-71 -29.5z" />
    <glyph glyph-name="Iotadieresis" unicode="&#x3aa;" horiz-adv-x="470" 
d="M46 1431q-49 0 -81 32q-33 33 -33 81t33 81q34 34 81 34t81 -34t34 -81t-34 -81q-32 -32 -81 -32zM424 1431q-48 0 -80 32q-34 34 -34 81t34 81t80 34q48 0 82 -34q33 -33 33 -81t-33 -81q-32 -32 -82 -32zM234 0q-43 0 -72 28.5t-29 71.5v1110q0 43 29 72t72 29t73 -29
t30 -72v-1110q0 -42 -30 -71t-73 -29z" />
    <glyph glyph-name="Upsilondieresis" unicode="&#x3ab;" horiz-adv-x="1100" 
d="M337 1414q-48 0 -81 33t-33 81t33 81t81 33t81 -33q34 -34 34 -81t-34 -81q-33 -33 -81 -33zM715 1414q-47 0 -80 33q-34 34 -34 81t34 81q33 33 80 33q49 0 82 -33q32 -32 32 -81t-32 -81q-33 -33 -82 -33zM548 0q-43 0 -72.5 28.5t-29.5 71.5v444l-400 593
q-24 29 -24 66q0 47 35 79q31 26 71 26q44 0 73 -36l347 -527l345 529q27 35 76 35q34 0 64 -25q38 -32 38 -78q0 -36 -25 -68l-396 -593v-445q0 -43 -29.5 -71.5t-72.5 -28.5z" />
    <glyph glyph-name="alphatonos" unicode="&#x3ac;" horiz-adv-x="1121" 
d="M546 1109q-43 0 -73 29t-30 71v201q0 43 30 73q29 29 73 29q43 0 71.5 -29.5t28.5 -72.5v-201q0 -40 -30 -70t-70 -30zM532 -12q-98 0 -187.5 37.5t-157.5 105.5q-143 143 -143 345t143 345q68 68 157.5 106t187.5 38q202 0 344 -142t144 -343v-376q0 -38 -30 -73
q-28 -31 -75 -31q-39 0 -67 26.5t-32 66.5q-129 -105 -284 -105zM532 193q119 0 202 83q82 82 82 200q0 119 -82 201t-202 82q-117 0 -199 -82q-84 -84 -84 -201q0 -116 84 -200q83 -83 199 -83z" />
    <glyph glyph-name="epsilontonos" unicode="&#x3ad;" horiz-adv-x="765" 
d="M436 1094q-43 0 -72.5 28.5t-29.5 71.5v201q0 42 30 72t72 30q43 0 72 -29.5t29 -72.5v-201q0 -41 -30 -71q-29 -29 -71 -29zM606 0h-278q-117 0 -200 85q-84 86 -84 202q0 102 94 196q-94 86 -94 193q0 120 85 205q83 83 204 83h273q44 0 73 -29q30 -30 30 -73
q0 -42 -30 -72t-73 -30h-255q-41 -1 -68.5 -25t-27.5 -62t26 -62t67 -26h169q45 0 75 -27t30 -69q0 -41 -30.5 -68.5t-74.5 -27.5h-167q-38 0 -64 -28q-29 -29 -29 -67q0 -40 28 -66q25 -28 66 -28h255q43 0 73 -29t30 -72q0 -42 -30 -72q-31 -31 -73 -31z" />
    <glyph glyph-name="etatonos" unicode="&#x3ae;" horiz-adv-x="1059" 
d="M568 1111q-43 0 -72.5 28.5t-29.5 71.5v201q0 43 30 73q29 29 72 29t72 -29.5t29 -72.5v-201q0 -40 -30 -70t-71 -30zM857 -348q-39 0 -73 29q-30 27 -30 71v738q0 119 -56 192q-61 80 -167 80q-107 0 -167 -78q-58 -75 -58 -190v-396q0 -43 -28 -71.5t-71 -28.5
q-39 0 -74 30q-31 29 -31 70v397q0 199 117 333q122 138 312 138t309 -137q114 -131 116 -329v-748q0 -43 -28 -71.5t-71 -28.5z" />
    <glyph glyph-name="iotatonos" unicode="&#x3af;" horiz-adv-x="409" 
d="M206 1091q-43 0 -73 29t-30 71v201q0 42 30 72t73 30t71.5 -29.5t28.5 -72.5v-201q0 -41 -30 -71q-29 -29 -70 -29zM206 0q-38 0 -73 30q-31 29 -31 72v760q0 44 31 73q35 30 74 30q44 0 72 -30q28 -29 28 -73v-760q0 -44 -28 -72q-30 -30 -73 -30z" />
    <glyph glyph-name="upsilondieresistonos" unicode="&#x3b0;" horiz-adv-x="1058" 
d="M561 1181q-43 0 -72.5 28.5t-29.5 71.5v201q0 43 29 72q30 30 73 30t72 -29.5t29 -72.5v-201q0 -41 -30 -71q-29 -29 -71 -29zM274 1084q-49 0 -85 36q-35 35 -35 86t35 86q36 36 85 36q50 0 86 -36t36 -86t-36 -86t-86 -36zM851 1084q-49 0 -85 36t-36 86t36 86t85 36
q50 0 86 -36t36 -86t-36 -86t-86 -36zM553 -12q-89 0 -171 33t-145 93q-132 126 -143 305q-1 2 -1 13v429q0 43 31 73.5t75 30.5q42 0 70 -30t28 -74v-420q0 -104 76 -177q74 -74 180 -74q105 0 180 75t76 178v418q0 44 28.5 74.5t70.5 30.5q39 0 74 -30q31 -28 31 -75v-424
v-4q-1 -1 -1 -5q-6 -179 -140 -311q-134 -129 -319 -129z" />
    <glyph glyph-name="alpha" unicode="&#x3b1;" horiz-adv-x="1121" 
d="M532 -12q-98 0 -187.5 37.5t-157.5 105.5q-143 143 -143 345t143 345q68 68 157.5 106t187.5 38q202 0 344 -142t144 -343v-376q0 -38 -30 -73q-28 -31 -75 -31q-39 0 -67 26.5t-32 66.5q-129 -105 -284 -105zM532 193q119 0 202 83q82 82 82 200q0 119 -82 201t-202 82
q-117 0 -199 -82q-84 -84 -84 -201q0 -116 84 -200q83 -83 199 -83z" />
    <glyph glyph-name="beta" unicode="&#x3b2;" horiz-adv-x="966" 
d="M244 -275q-44 0 -74 30q-31 31 -31 74v1085q0 179 110 289q108 113 282 113q147 0 257 -99q109 -103 109 -249q0 -83 -31 -153t-88 -116q90 -46 142 -129q53 -84 53 -191q0 -147 -99 -254q-111 -119 -277 -125h-4q-42 0 -71 29t-29 71t29 71.5t71 29.5h5q71 0 125 57
q51 56 51 132q0 77 -55 129q-53 45 -125 45h-26q-46 0 -79 33q-32 32 -32 79q0 48 32 80t79 32h4q60 1 99 57q34 49 34 117q0 66 -51 111q-50 46 -123 46q-76 0 -124 -45q-57 -54 -58 -156v-1089q0 -43 -31 -74q-30 -30 -74 -30z" />
    <glyph glyph-name="gamma" unicode="&#x3b3;" horiz-adv-x="983" 
d="M490 -348q-41 0 -72 31t-31 71v326l-340 742q-8 22 -8 41q0 42 30 72q31 31 74 31q41 0 71 -30q15 -15 23 -34l255 -575l253 575q19 41 58 56q16 8 38 8q45 0 73 -31q29 -31 29 -72q0 -19 -8 -41l-342 -746v-322q0 -43 -30 -72.5t-73 -29.5z" />
    <glyph glyph-name="delta" unicode="&#x3b4;" 
d="M532 -12q-98 0 -187.5 37.5t-157.5 105.5q-143 143 -143 345q0 188 127 328q60 66 140 107.5t169 50.5l-175 193q-18 24 -19 54v13q0 39 28 64.5t69 25.5h526q42 0 70.5 -27t28.5 -67q0 -42 -28.5 -71.5t-70.5 -29.5h-310l274 -292l7 -7q140 -143 140 -342
q0 -201 -142 -345q-68 -68 -158 -105.5t-188 -37.5zM532 193q119 0 202 83q82 82 82 200q0 119 -82 201t-202 82q-117 0 -199 -82q-84 -84 -84 -201q0 -116 84 -200q83 -83 199 -83z" />
    <glyph glyph-name="epsilon" unicode="&#x3b5;" horiz-adv-x="765" 
d="M606 0h-278q-117 0 -200 85q-84 86 -84 202q0 102 94 196q-94 86 -94 193q0 120 85 205q83 83 204 83h273q44 0 73 -29q30 -30 30 -73q0 -42 -30 -72t-73 -30h-255q-41 -1 -68.5 -25t-27.5 -62t26 -62t67 -26h169q45 0 75 -27t30 -69q0 -41 -30.5 -68.5t-74.5 -27.5h-167
q-38 0 -64 -28q-29 -29 -29 -67q0 -40 28 -66q25 -28 66 -28h255q43 0 73 -29t30 -72q0 -42 -30 -72q-31 -31 -73 -31z" />
    <glyph glyph-name="zeta" unicode="&#x3b6;" horiz-adv-x="920" 
d="M436 -400h-5q-40 1 -68.5 28t-28.5 65q0 39 28.5 66t69.5 27q48 0 81 33q34 33 34 75q0 53 -38 81q-36 25 -82 25h-39q-169 0 -258 106q-86 100 -86 241q0 60 24 121.5t64 104.5l3 4l444 530h-446q-44 0 -74 28t-30 70t30 75q29 31 74 31h661q42 0 73 -31t31 -75
q0 -29 -13 -48q-7 -13 -15 -21l-579 -690q-45 -52 -45 -102q0 -61 37 -101q41 -44 101 -44h41q139 0 223 -84q84 -82 84 -213q0 -128 -85 -213q-87 -87 -211 -89z" />
    <glyph glyph-name="eta" unicode="&#x3b7;" horiz-adv-x="1059" 
d="M857 -348q-39 0 -73 29q-30 27 -30 71v738q0 119 -56 192q-61 80 -167 80q-107 0 -167 -78q-58 -75 -58 -190v-396q0 -43 -28 -71.5t-71 -28.5q-39 0 -74 30q-31 29 -31 70v397q0 199 117 333q122 138 312 138t309 -137q114 -131 116 -329v-748q0 -43 -28 -71.5
t-71 -28.5z" />
    <glyph glyph-name="theta" unicode="&#x3b8;" 
d="M532 -12q-98 0 -187.5 37.5t-157.5 105.5q-143 143 -143 345t143 345q68 68 157.5 106t187.5 38t188 -38t158 -106q142 -144 142 -345t-142 -345q-68 -68 -158 -105.5t-188 -37.5zM264 569h537q-29 83 -102 137q-72 53 -167 53q-94 0 -166 -53q-73 -54 -102 -137z
M532 193q94 0 165 53q74 52 102 134h-534q33 -83 103 -134q71 -53 164 -53z" />
    <glyph glyph-name="iota" unicode="&#x3b9;" horiz-adv-x="409" 
d="M206 0q-38 0 -73 30q-31 29 -31 72v760q0 44 31 73q35 30 74 30q44 0 72 -30q28 -29 28 -73v-760q0 -44 -28 -72q-30 -30 -73 -30z" />
    <glyph glyph-name="kappa" unicode="&#x3ba;" horiz-adv-x="988" 
d="M827 -1q-43 0 -73 33l-344 363l-73 -67v-226q0 -42 -30 -72t-73 -30t-72 29.5t-29 72.5v760q0 43 29 73t72 30t73 -30t30 -73v-256l355 331q34 28 72 28h78q42 0 72 -30t30 -73q0 -37 -30 -72q-29 -31 -72 -31h-39l-243 -224l342 -362q30 -30 30 -73q-1 -41 -32 -72
q-29 -29 -73 -29z" />
    <glyph glyph-name="lambda" unicode="&#x3bb;" horiz-adv-x="1030" 
d="M80 15q-37 24 -44 67q-2 18 -2 20q0 33 17 59l342 536l-279 445q-20 29 -20 62q0 14 1 17q4 43 41 66q27 19 61 19q14 0 17 -1q44 -8 67 -44l693 -1100q17 -26 17 -59q0 -15 -1 -19q-8 -44 -45 -68q-27 -18 -56 -18q-51 0 -82 45l-293 464l-296 -464q-31 -45 -81 -45
q-30 0 -57 18z" />
    <glyph glyph-name="uni03BC" unicode="&#x3bc;" horiz-adv-x="1105" 
d="M238 -346q-39 0 -74 30q-31 29 -31 70v1112q0 43 31 71q34 29 74 29q43 0 71 -28.5t28 -71.5v-396q0 -111 72 -189t184 -78q108 0 182 80q71 77 71 191v392q0 42 30 71t73 29t71.5 -28.5t28.5 -71.5v-396q0 -95 -34 -181.5t-96 -151.5q-133 -139 -326 -139
q-139 0 -256 78v-327q0 -42 -28.5 -68.5t-70.5 -26.5z" />
    <glyph glyph-name="nu" unicode="&#x3bd;" horiz-adv-x="961" 
d="M496 0q-35 -2 -64 14.5t-41 47.5l-348 759q-7 15 -7 38q0 20 8 42q16 40 55 55q25 9 40 9q37 0 72 -30q13 -13 22 -34l254 -575l254 575q19 41 58 56q16 8 38 8q45 0 73 -31q29 -31 29 -72q0 -19 -8 -41l-347 -759q-17 -36 -48 -52l-8 -3q-10 -4 -20 -6q-2 -1 -12 -1z
" />
    <glyph glyph-name="xi" unicode="&#x3be;" horiz-adv-x="832" 
d="M700 115q84 -84 84 -214q0 -126 -86 -215q-87 -87 -214 -87h-1q-40 1 -68.5 27.5t-28.5 65.5t28.5 66t69.5 27h1q46 0 80 34t34 73q0 58 -42 86q-37 23 -89 22h-29q-162 0 -278 116q-117 117 -117 277q0 95 41.5 174.5t116.5 132.5q-119 95 -119 248q0 155 107 259
q102 102 256 104h1h185q43 0 72.5 -29t29.5 -72t-29 -72q-30 -30 -73 -30h-193q-66 0 -109 -43q-46 -45 -46 -110q0 -59 39 -104q38 -44 95 -52h162q43 0 72 -29t29 -72t-29 -72q-30 -30 -72 -30h-141q-83 0 -137 -60q-55 -61 -55 -141q0 -79 55 -139q54 -57 136 -57h39
q137 0 223 -84z" />
    <glyph glyph-name="omicron" unicode="&#x3bf;" 
d="M532 -12q-98 0 -187.5 37.5t-157.5 105.5q-143 143 -143 345t143 345q68 68 157.5 106t187.5 38t188 -38t158 -106q142 -144 142 -345t-142 -345q-68 -68 -158 -105.5t-188 -37.5zM532 193q119 0 202 83q82 82 82 200q0 119 -82 201t-202 82q-117 0 -199 -82
q-84 -84 -84 -201q0 -116 84 -200q83 -83 199 -83z" />
    <glyph glyph-name="pi" unicode="&#x3c0;" horiz-adv-x="1251" 
d="M367 -2q-40 0 -74 31q-31 29 -31 72v654h-115q-43 0 -72 30q-31 34 -31 74q0 44 30 75t73 31h979q44 0 74 -32q30 -35 30 -75q0 -44 -30 -74q-31 -31 -74 -29h-113v-654q0 -43 -31 -72q-34 -31 -75 -31q-42 0 -69.5 29.5t-27.5 73.5v654h-344v-654q0 -44 -28 -73.5
t-71 -29.5z" />
    <glyph glyph-name="rho" unicode="&#x3c1;" horiz-adv-x="1122" 
d="M204 -346q-43 0 -72.5 28.5t-29.5 71.5v1110q0 43 29.5 72t72.5 29q37 0 69 -27q29 -25 33 -66q133 93 285 93q98 0 187.5 -38t157.5 -106q142 -144 142 -345t-142 -345q-68 -68 -157.5 -105.5t-187.5 -37.5q-159 0 -285 92v-326q0 -43 -29.5 -71.5t-72.5 -28.5zM591 193
q119 0 202 83q81 81 81 200q0 120 -81 201q-82 82 -202 82q-118 0 -200 -82q-84 -84 -84 -201q0 -116 84 -200q83 -83 200 -83z" />
    <glyph glyph-name="uni03C2" unicode="&#x3c2;" horiz-adv-x="960" 
d="M620 -400h-2q-40 1 -68.5 27.5t-28.5 65.5t29.5 66t69.5 27h1q46 0 80 34q33 31 33 74q0 60 -48 87q-35 19 -100 19h-48q-100 0 -190.5 35t-158.5 100q-145 137 -145 337v1q0 1 1 1v1q-1 0 -1 1q0 202 145 347q68 68 159 106t190 38q98 0 184.5 -34t147.5 -97
q37 -37 38 -81q0 -47 -32 -75q-36 -30 -69 -30q-37 0 -93 44q-82 66 -189 66q-113 0 -195 -89q-77 -83 -77 -193l-1 -2l1 -1q0 -106 76 -188q82 -87 190 -88h93q140 0 224 -84q84 -82 84 -213q0 -126 -86 -215q-87 -87 -214 -87z" />
    <glyph glyph-name="sigma" unicode="&#x3c3;" horiz-adv-x="1141" 
d="M532 -12q-98 0 -187.5 37.5t-157.5 105.5q-143 143 -143 345t143 345q68 68 157.5 106t187.5 38h463q43 0 73 -30t30 -73q0 -42 -30 -72q-31 -31 -73 -31h-65q90 -128 90 -283q0 -201 -142 -345q-68 -68 -158 -105.5t-188 -37.5zM532 193q119 0 202 83q82 82 82 200
q0 119 -82 201t-202 82q-117 0 -199 -82q-84 -84 -84 -201q0 -116 84 -200q83 -83 199 -83z" />
    <glyph glyph-name="tau" unicode="&#x3c4;" horiz-adv-x="1009" 
d="M506 0q-43 0 -71 29.5t-28 73.5v657l-281 1q-44 0 -73.5 28t-29.5 70q0 45 29.5 75.5t73.5 30.5h757q43 0 74 -31t31 -75q0 -42 -30.5 -70.5t-74.5 -28.5h-273v-657q0 -43 -30 -72q-34 -31 -74 -31z" />
    <glyph glyph-name="upsilon" unicode="&#x3c5;" horiz-adv-x="1058" 
d="M553 -12q-89 0 -171 33t-145 93q-132 126 -143 305q-1 2 -1 13v429q0 43 31 73.5t75 30.5q42 0 70 -30t28 -74v-420q0 -104 76 -177q74 -74 180 -74q105 0 180 75t76 178v418q0 44 28.5 74.5t70.5 30.5q39 0 74 -30q31 -28 31 -75v-424v-4q-1 -1 -1 -5q-6 -179 -140 -311
q-134 -129 -319 -129z" />
    <glyph glyph-name="phi" unicode="&#x3c6;" horiz-adv-x="1199" 
d="M596 -347q-44 0 -74 30.5t-30 73.5v229q-195 34 -320 171q-128 139 -128 326q0 111 39 199q35 79 120 167q29 29 71 29t71 -29q30 -30 30 -61q0 -33 -32 -78q-52 -56 -71 -95q-32 -58 -32 -129q0 -114 70 -193q71 -80 182 -106v548q0 118 74 192q77 77 205 77
q107 0 200 -59q108 -80 150 -188q34 -86 34 -218q0 -218 -132 -370q-129 -150 -328 -184v-228q0 -44 -28.5 -74t-70.5 -30zM695 707v-518q114 29 183 126q67 92 67 213q0 97 -19 154.5t-69 92.5q-39 24 -76 24q-35 0 -59.5 -26t-26.5 -66z" />
    <glyph glyph-name="chi" unicode="&#x3c7;" horiz-adv-x="1006" 
d="M864 -303q-39 6 -64 43l-298 424l-297 -424q-30 -44 -86 -44q-32 0 -57 17q-37 25 -43 66q-2 18 -2 20q0 32 18 58l341 487l-323 460q-18 26 -18 57q0 55 44 84q27 19 60 19q15 0 18 -1q45 -9 67 -43l278 -397l277 398q31 43 84 43q34 0 61 -19q37 -24 44 -64q1 -3 1 -17
q0 -33 -19 -60l-322 -461l341 -486q17 -26 17 -60q0 -14 -1 -18q-7 -42 -44 -66q-27 -18 -57 -18q-4 0 -20 2z" />
    <glyph glyph-name="psi" unicode="&#x3c8;" horiz-adv-x="1208" 
d="M611 -389q-42 0 -73 31t-31 73v280q-167 33 -291 159q-127 127 -127 289v418q0 46 32 74q35 30 75 30q42 0 69.5 -30t27.5 -74v-422q0 -83 64 -149q66 -67 150 -93v663q0 46 32 74q35 30 74 30q42 0 70 -30t28 -74v-662q90 34 144 94q60 66 60 146v422q0 44 29.5 75
t71.5 31q43 0 73 -31t30 -75v-423q-1 -154 -126 -283q-116 -120 -282 -158v-281q0 -44 -28.5 -74t-71.5 -30z" />
    <glyph glyph-name="omega" unicode="&#x3c9;" horiz-adv-x="1510" 
d="M471 -12q-156 0 -269 111t-113 268v496q0 43 30 73q29 29 71 29q44 0 73 -29q30 -30 30 -73v-496q0 -74 53 -125q53 -53 127 -53q72 0 125 53q53 51 53 125v496q0 42 31 73q29 29 72 29q42 0 71 -29q30 -30 30 -73v-494q0 -12 -1 -14q6 -69 58 -116q57 -50 123 -50
q73 0 125 52q55 54 57 124v498q0 45 30 73q31 29 73 29q43 0 72 -29q28 -28 28 -73v-497q-2 -156 -114 -268q-112 -110 -272 -110q-169 0 -281 123q-53 -59 -126.5 -91t-155.5 -32z" />
    <glyph glyph-name="iotadieresis" unicode="&#x3ca;" horiz-adv-x="409" 
d="M206 0q-38 0 -73 30q-31 29 -31 72v760q0 44 31 73q35 30 74 30q44 0 72 -30q28 -29 28 -73v-760q0 -44 -28 -72q-30 -30 -73 -30z" />
    <glyph glyph-name="upsilondieresis" unicode="&#x3cb;" horiz-adv-x="1058" 
d="M361 1092q-48 0 -80 32q-33 33 -33 81t33 81q34 34 80 34q47 0 81 -34t34 -81t-34 -81q-32 -32 -81 -32zM739 1092q-48 0 -80 32q-33 33 -33 81t33 81q34 34 80 34q48 0 82 -34q33 -33 33 -81t-33 -81q-32 -32 -82 -32zM553 -12q-89 0 -171 33t-145 93q-132 126 -143 305
q-1 2 -1 13v429q0 43 31 73.5t75 30.5q42 0 70 -30t28 -74v-420q0 -104 76 -177q74 -74 180 -74q105 0 180 75t76 178v418q0 44 28.5 74.5t70.5 30.5q39 0 74 -30q31 -28 31 -75v-424v-4q-1 -1 -1 -5q-6 -179 -140 -311q-134 -129 -319 -129z" />
    <glyph glyph-name="omicrontonos" unicode="&#x3cc;" 
d="M538 1089q-43 0 -73 29t-30 71v201q0 42 30 72t73 30t71.5 -29.5t28.5 -72.5v-201q0 -41 -30 -71q-29 -29 -70 -29zM532 -12q-98 0 -187.5 37.5t-157.5 105.5q-143 143 -143 345t143 345q68 68 157.5 106t187.5 38t188 -38t158 -106q142 -144 142 -345t-142 -345
q-68 -68 -158 -105.5t-188 -37.5zM532 193q119 0 202 83q82 82 82 200q0 119 -82 201t-202 82q-117 0 -199 -82q-84 -84 -84 -201q0 -116 84 -200q83 -83 199 -83z" />
    <glyph glyph-name="upsilontonos" unicode="&#x3cd;" horiz-adv-x="1058" 
d="M560 1035q-43 0 -72.5 29t-29.5 72v200q0 44 29 73q30 30 73 30q42 0 71 -30t29 -73v-200q0 -42 -29 -71q-30 -30 -71 -30zM553 -12q-89 0 -171 33t-145 93q-132 126 -143 305q-1 2 -1 13v429q0 43 31 73.5t75 30.5q42 0 70 -30t28 -74v-420q0 -104 76 -177
q74 -74 180 -74q105 0 180 75t76 178v418q0 44 28.5 74.5t70.5 30.5q39 0 74 -30q31 -28 31 -75v-424v-4q-1 -1 -1 -5q-6 -179 -140 -311q-134 -129 -319 -129z" />
    <glyph glyph-name="omegatonos" unicode="&#x3ce;" horiz-adv-x="1510" 
d="M753 1092q-43 0 -73 29t-30 71v201q0 42 30 72t73 30t71.5 -29.5t28.5 -72.5v-201q0 -41 -30 -71q-29 -29 -70 -29zM471 -12q-156 0 -269 111t-113 268v496q0 43 30 73q29 29 71 29q44 0 73 -29q30 -30 30 -73v-496q0 -74 53 -125q53 -53 127 -53q72 0 125 53
q53 51 53 125v496q0 42 31 73q29 29 72 29q42 0 71 -29q30 -30 30 -73v-494q0 -12 -1 -14q6 -69 58 -116q57 -50 123 -50q73 0 125 52q55 54 57 124v498q0 45 30 73q31 29 73 29q43 0 72 -29q28 -28 28 -73v-497q-2 -156 -114 -268q-112 -110 -272 -110q-169 0 -281 123
q-53 -59 -126.5 -91t-155.5 -32z" />
    <glyph glyph-name="uni03D0" unicode="&#x3d0;" horiz-adv-x="1011" 
d="M555 -9h-3q-215 1 -327 128q-92 105 -92 260v535q0 11 1 13q1 170 113 280q109 109 278 109q147 0 257 -99q109 -103 109 -249q0 -83 -31 -153t-88 -116q88 -45 141 -129q54 -86 54 -191q0 -147 -113 -262q-57 -59 -134 -92t-165 -34zM552 191h19q80 0 140 60
q57 57 57 134q0 79 -55 131q-51 48 -125 48h-26q-46 0 -79 33q-32 32 -32 79q0 48 32 80t79 32q63 0 102 56q34 51 34 118t-50 111q-50 46 -123 46q-77 0 -128 -45q-59 -53 -60 -156v-528q0 -80 56 -136q63 -63 159 -63z" />
    <glyph glyph-name="uni03D1" unicode="&#x3d1;" horiz-adv-x="1034" 
d="M424 -7h-2q-41 0 -73 32q-31 31 -31 72t31 75q31 31 75 31h4q98 0 158 54t60 135v108h-204q-163 1 -281 121q-117 119 -117 284q0 168 119 285q118 118 286 118q166 0 282 -116q118 -118 120 -282v-204h36q44 0 74 -30q29 -29 29 -73q0 -39 -29 -73q-29 -30 -74 -30h-36
v-111q-5 -165 -127 -280q-126 -116 -300 -116zM443 706h203v197q0 83 -55 140q-56 58 -139 58q-81 0 -142 -59q-59 -59 -59 -142q0 -79 55 -137q52 -55 137 -57z" />
    <glyph glyph-name="uni03F0" unicode="&#x3f0;" horiz-adv-x="1083" 
d="M162 0q-46 0 -75 29q-30 29 -29 70q0 37 30 72l307 309l-311 315q-29 29 -29 71q0 41 31 72q30 30 72 30q40 0 71 -31l310 -312l307 310q30 32 73 33q41 0 71 -30q31 -31 31 -72q0 -42 -28 -72l-311 -314l304 -306q30 -30 31 -72q0 -42 -30 -72t-73 -30q-40 0 -70 30
l-304 306l-304 -306q-30 -30 -74 -30z" />
    <glyph glyph-name="uni0401" unicode="&#x401;" horiz-adv-x="933" 
d="M317 1463q-47 0 -80 33t-33 81t33 81q34 34 80 34q47 0 81 -34t34 -81t-34 -81q-33 -33 -81 -33zM695 1463q-47 0 -80 33t-33 81t33 81q34 34 80 34q48 0 82 -34q33 -33 33 -81t-33 -81t-82 -33zM782 0h-555q-41 3 -67.5 31t-26.5 70v1107q0 43 30 73t73 30h546
q42 0 72 -30q29 -29 29 -73q0 -43 -29 -72t-72 -29h-445v-354h321q44 1 73 -28t29 -73q0 -42 -29.5 -70t-72.5 -28h-321v-351h445q43 0 72 -30t29 -73q0 -42 -29 -71q-30 -30 -72 -29z" />
    <glyph glyph-name="uni0402" unicode="&#x402;" horiz-adv-x="1124" 
d="M607 -406q-41 0 -72 31t-31 73t31 73q30 30 72 30q102 0 148 45.5t46 145.5v91q-1 2 -1 15v389q0 122 -58 200q-59 75 -161 75q-101 0 -168 -73q-66 -71 -71 -181v-407q0 -43 -29 -72t-72 -29t-73 30t-30 71v925h-87q-44 0 -72 25.5t-28 67.5q0 41 28 66t72 25h87
q0 40 32 72q29 29 71 29t70.5 -29t30.5 -72h117q43 0 70.5 -25t27.5 -67t-27.5 -67.5t-70.5 -24.5h-117v-177q121 116 261 116q178 0 289 -135q110 -132 110 -338v-73h2v-428q0 -189 -106 -292q-106 -105 -291 -105z" />
    <glyph glyph-name="uni0403" unicode="&#x403;" horiz-adv-x="982" 
d="M557 1450q-31 31 -31 72q0 42 31 73l136 138q30 30 74 30q39 0 73 -29q30 -30 30 -73q0 -42 -30 -72l-139 -139q-31 -31 -72 -31t-72 31zM239 -2q-43 0 -74 31t-31 74v1102q0 39 23 67.5t60 36.5q2 1 12 1q2 0 3 1h2h595q45 0 74 -31q30 -35 30 -75q0 -42 -30 -70.5
t-74 -28.5h-491v-1003q0 -44 -28.5 -74.5t-70.5 -30.5z" />
    <glyph glyph-name="uni0404" unicode="&#x404;" horiz-adv-x="1259" 
d="M715 -12q-175 0 -330 91q-151 88 -240 238q-93 156 -93 335q0 172 90 329q87 150 239 243q155 95 336 95q132 0 253 -49.5t216 -144.5l3 -3q31 -29 31 -71q0 -44 -30 -74q-31 -31 -74 -31q-44 -2 -74 29l-3 3q-137 132 -323 132q-154 0 -279 -98t-163 -248h461
q45 0 75 -30t30 -72q0 -38 -30 -73q-28 -31 -75 -31h-464q34 -153 155 -255q121 -106 290 -106q190 0 323 133q29 27 75 27q45 -1 74 -29q30 -30 30 -73q0 -42 -30 -72q-95 -95 -217.5 -145t-255.5 -50z" />
    <glyph glyph-name="uni0405" unicode="&#x405;" horiz-adv-x="1007" 
d="M506 -13q-151 0 -276 74q-120 69 -170 179q-13 26 -13 54q0 15 5 33q10 32 48 53q23 13 45 13q46 0 95 -61q89 -142 274 -142q100 0 168 50q78 54 78 139q0 83 -79 129q-47 26 -138 48l-27 7q-201 38 -311 124q-127 100 -127 255q0 162 132 273q127 105 298 105
q123 0 228 -48q108 -52 163 -144q11 -19 11 -38q0 -4 -2 -20q-8 -29 -27 -48q-25 -25 -67 -25q-36 0 -60 19q-65 57 -108 76q-57 24 -135 24q-97 0 -160 -46q-68 -46 -68 -126t89 -125q50 -26 208 -60q174 -46 264 -118q119 -95 119 -251q0 -169 -133 -288
q-134 -115 -324 -115z" />
    <glyph glyph-name="uni0406" unicode="&#x406;" horiz-adv-x="470" 
d="M234 0q-43 0 -72 28.5t-29 71.5v1110q0 43 29 72t72 29t73 -29t30 -72v-1110q0 -42 -30 -71t-73 -29z" />
    <glyph glyph-name="uni0407" unicode="&#x407;" horiz-adv-x="470" 
d="M55 1421q-48 0 -81 33q-32 32 -32 81t32 81q34 34 81 34t81 -34t34 -81t-34 -81q-33 -33 -81 -33zM433 1421q-47 0 -80 33q-34 34 -34 81t34 81t80 34q48 0 82 -34q33 -33 33 -81t-33 -81t-82 -33zM234 0q-43 0 -72 28.5t-29 71.5v1110q0 43 29 72t72 29t73 -29t30 -72
v-1110q0 -42 -30 -71t-73 -29z" />
    <glyph glyph-name="uni0408" unicode="&#x408;" horiz-adv-x="471" 
d="M-103 -361q-69 0 -95 52q-13 23 -13 50q0 22 11 46q25 50 92 55q102 2 173 74q68 70 68 170v1119q0 40 30 75q29 31 71 31q44 0 74 -31t30 -75l-1 -1126q0 -183 -128 -311q-129 -129 -312 -129z" />
    <glyph glyph-name="uni0409" unicode="&#x409;" horiz-adv-x="2025" 
d="M145 -3q-41 0 -72 31t-31 72q0 44 31 75t72 31h5q97 1 139 44.5t43 144.5v810v12q0 7 5 22l4 11q12 28 37.5 44.5t56.5 16.5h729q44 0 75 -31t31 -75v-445h328q75 0 146 -30.5t125 -84.5q110 -112 110 -272q0 -157 -110 -265q-111 -108 -271 -108h-434q-39 0 -73 31
q-31 29 -31 72v998h-517v-711q-2 -188 -107 -290q-108 -103 -291 -103zM1270 211l328 1q75 0 124 51q50 52 50 119q0 71 -52 118q-51 49 -124 49h-326v-338z" />
    <glyph glyph-name="uni040A" unicode="&#x40a;" horiz-adv-x="1869" 
d="M238 0q-40 0 -74 31q-31 29 -31 72v1102q0 48 32 75q35 30 75 30q43 0 73 -30t30 -75v-452h560v468q0 46 31 74q35 30 75 30q39 0 74 -30q31 -28 31 -74v-466h334q153 0 267 -114q111 -116 111 -271q0 -156 -111 -262q-110 -108 -267 -108h-439q-44 0 -75 30t-31 73v443
h-560v-443q0 -43 -30.5 -73t-74.5 -30zM1114 211l334 1q71 0 122 51q49 49 49 116q0 70 -50 117q-51 48 -122 48h-333v-333z" />
    <glyph glyph-name="uni040B" unicode="&#x40b;" horiz-adv-x="1061" 
d="M865 -2q-43 0 -72 28.5t-29 71.5v389q0 123 -57 200q-59 75 -162 75q-101 0 -168 -73q-66 -71 -71 -181v-407q0 -43 -29 -72t-72 -29t-73 30t-30 71v1000h-102q-39 0 -65.5 27.5t-26.5 66.5t26.5 64.5t65.5 25.5h137q34 26 68 26q37 0 66 -26h139q38 0 64 -26.5t26 -65.5
t-27 -66q-26 -26 -63 -26h-104v-252q121 116 261 116q178 0 289 -135q111 -133 111 -338v-394q0 -43 -29.5 -71.5t-72.5 -28.5z" />
    <glyph glyph-name="uni040C" unicode="&#x40c;" horiz-adv-x="1126" 
d="M534 1397q-31 31 -31 71q0 43 31 74l136 137q31 31 73 31q38 0 73 -30q31 -31 31 -72t-31 -72l-138 -139q-31 -31 -73 -31q-40 0 -71 31zM234 0q-43 0 -72 28.5t-29 71.5v1110q0 43 29 72t72 29t73 -29t30 -72v-449l555 521q29 29 73 29q38 -1 71 -34q29 -29 29 -72
q0 -39 -32 -71l-385 -361l409 -614q18 -27 18 -59q0 -53 -46 -83q-25 -17 -55 -17q-3 0 -21 2q-41 6 -64 43l-393 587l-159 -150v-382q0 -42 -30 -71t-73 -29z" />
    <glyph glyph-name="uni040E" unicode="&#x40e;" horiz-adv-x="1016" 
d="M544 1413q-96 0 -164 68t-68 163q0 30 20.5 50.5t49.5 20.5q30 0 50.5 -20.5t20.5 -50.5q0 -38 26 -64q26 -28 65 -28t65 28q27 27 27 64q0 30 20 50.5t50 20.5t49.5 -20.5t19.5 -50.5q0 -93 -67 -163q-68 -68 -164 -68zM163 -9q-45 0 -74.5 25t-29.5 66q0 44 31 75
q30 30 73 30q92 -4 140 44q33 33 84 144l9 24l-358 768q-7 15 -7 38q0 20 8 42q17 41 55 56q21 8 38 8q19 0 41 -8q37 -14 55 -56l272 -602l264 602q20 43 57 56q22 8 41 8q16 0 37 -8q41 -18 55 -56q9 -25 9 -42q0 -15 -9 -38l-353 -776l-11 -25q-99 -213 -178 -287
q-94 -88 -249 -88z" />
    <glyph glyph-name="uni040F" unicode="&#x40f;" horiz-adv-x="1293" 
d="M654 -279q-41 0 -72 31t-31 73v175h-318q-42 1 -70 29t-30 71v1103q0 44 31 75t75 31q42 0 70 -31t28 -75v-993h620v993q0 44 28 75t70 31q43 0 74 -31t31 -75v-1099q0 -35 -19 -60l-2 -3l-3 -3q-32 -38 -80 -38h-295v-175q0 -44 -31 -73q-36 -31 -76 -31z" />
    <glyph glyph-name="uni0410" unicode="&#x410;" horiz-adv-x="1205" 
d="M1049 6q-40 14 -59 54l-128 305h-519l-126 -304q-16 -41 -56 -54q-18 -7 -37 -7q-23 0 -44 9q-57 25 -57 87q0 27 10 47l480 1105q27 63 93 63q67 0 92 -62l476 -1106q10 -20 10 -47q0 -62 -57 -87q-19 -9 -43 -9q-18 0 -35 6zM428 568h348l-175 417z" />
    <glyph glyph-name="uni0411" unicode="&#x411;" 
d="M612 0h-373q-44 0 -75 30t-31 73v1102q0 56 48 88q2 2 14 7l5 3q17 7 34 8h566q44 0 74 -30t30 -73t-30 -72t-74 -29h-462v-327l274 1q166 0 281 -115t115 -280q0 -162 -115 -274t-281 -112zM338 204h273q83 0 138 57q55 56 55 136q0 83 -56 139q-55 55 -139 55h-271
v-387z" />
    <glyph glyph-name="uni0412" unicode="&#x412;" 
d="M608 0h-374q-43 0 -72 28.5t-29 71.5v1110q0 43 29 72t72 29h361q147 0 254 -105q104 -106 104 -255q0 -150 -108 -255q75 -56 117 -136t42 -175q0 -163 -115 -273q-115 -112 -281 -112zM337 773h252q65 1 113 56q47 52 47 116t-50 114q-48 48 -115 48h-247v-334z
M337 204h264q81 0 140 59t59 136q0 82 -59 136q-60 54 -141 54h-263v-385z" />
    <glyph glyph-name="uni0413" unicode="&#x413;" horiz-adv-x="899" 
d="M234 -2q-42 0 -73 31t-31 74v1102q0 39 23 67.5t60 36.5q2 1 12 1q2 0 3 1h2h544q45 0 74 -31q30 -35 30 -75q0 -42 -30 -70.5t-74 -28.5h-440v-1003q0 -44 -29 -74.5t-71 -30.5z" />
    <glyph glyph-name="uni0414" unicode="&#x414;" horiz-adv-x="1239" 
d="M103 -285q-37 0 -72 30q-31 29 -31 73v286q0 43 29.5 72t73.5 29h8v1q99 0 142 44t44 145v810q0 53 41 83l4 4q16 10 24 12q1 1 3 1q9 4 14 4q3 0 6 0.5t5 1t3 0.5h602q43 0 72.5 -30t29.5 -73v-1003h29q36 -1 63 -24l5 -4q12 -12 15 -17l5 -7l3 -7q10 -20 10 -43v-285
q0 -43 -30 -73t-73 -30q-42 0 -72 30q-31 31 -31 73v182h-820v-182q0 -44 -29 -73q-30 -30 -73 -30zM464 205h432v900h-395v-710q-2 -112 -37 -190z" />
    <glyph glyph-name="uni0415" unicode="&#x415;" horiz-adv-x="933" 
d="M782 0h-555q-41 3 -67.5 31t-26.5 70v1107q0 43 30 73t73 30h546q42 0 72 -30q29 -29 29 -73q0 -43 -29 -72t-72 -29h-445v-354h321q44 1 73 -28t29 -73q0 -42 -29.5 -70t-72.5 -28h-321v-351h445q43 0 72 -30t29 -73q0 -42 -29 -71q-30 -30 -72 -29z" />
    <glyph glyph-name="uni0416" unicode="&#x416;" horiz-adv-x="1798" 
d="M172 -1q-38 0 -68 28q-31 32 -31 75q0 42 30 75l463 525l-365 404h-59q-43 0 -72 29t-29 72t29 73t72 30h109q11 0 22 -3l10 -2q19 -6 30 -17l8 -5l12 -14l394 -435h64v371q0 43 30.5 73.5t73.5 30.5q42 0 70.5 -29.5t28.5 -72.5v-371h76l403 446q31 29 73 29h107
q44 0 74 -30t30 -73t-30 -72t-74 -29h-63l-368 -408l466 -523q30 -30 30 -75q-1 -42 -32 -73q-29 -27 -68 -27q-42 0 -76 34l-532 595h-16v-526q0 -44 -28.5 -74t-70.5 -30q-44 0 -74 30t-30 73v526h-18l-526 -597q-33 -33 -75 -33z" />
    <glyph glyph-name="uni0417" unicode="&#x417;" horiz-adv-x="955" 
d="M504 1h-354q-43 0 -74 31t-31 74t31 74t74 31h348q65 1 114 50q46 46 46 116q0 68 -49 124q-48 53 -117 53h-201q-43 0 -74 31t-31 74q0 41 31 75q31 31 74 31h204q68 0 116 48q49 49 49 117t-50 118q-49 49 -117 51h-343q-44 0 -74 30q-31 31 -31 75q0 43 31 74t74 31
h354q156 0 264 -108q110 -108 110 -265q0 -165 -126 -278q126 -118 126 -282q0 -155 -110 -265t-264 -110z" />
    <glyph glyph-name="uni0418" unicode="&#x418;" horiz-adv-x="1232" 
d="M222 0l-9 2l-8 2q-32 9 -52 35.5t-20 60.5v1110q0 41 29 72q26 29 71 29q43 0 73.5 -29.5t30.5 -71.5v-807l608 851l1 1q6 12 17 23l11 9l2 1l12 7q0 1 2 1l14 7l14 3h1q1 1 7 1l2 1h1h7q43 0 72.5 -29t29.5 -72v-1107q0 -43 -29.5 -71.5t-72.5 -28.5t-72.5 28.5
t-29.5 71.5v803l-618 -864q-7 -9 -18 -17q-25 -21 -59 -22h-17z" />
    <glyph glyph-name="uni0419" unicode="&#x419;" horiz-adv-x="1232" 
d="M717 1409q-96 0 -164 68t-68 162q0 30 20.5 51t49.5 21q30 0 50.5 -21t20.5 -51q0 -37 26 -63q26 -28 65 -28t65 28q27 27 27 63q0 30 20 51t50 21t49.5 -21t19.5 -51q0 -92 -67 -162q-68 -68 -164 -68zM222 0l-9 2l-8 2q-32 9 -52 35.5t-20 60.5v1110q0 41 29 72
q26 29 71 29q43 0 73.5 -29.5t30.5 -71.5v-807l608 851l1 1q6 12 17 23l11 9l4 2l3 2q2 2 9 5l14 7l14 3l2 1h2h5q1 1 8 1h7q39 -2 68 -31q28 -28 28 -70v-1107q0 -43 -29.5 -71.5t-72.5 -28.5t-72.5 28.5t-29.5 71.5v803l-618 -864q-7 -9 -18 -17q-25 -21 -59 -22h-17z" />
    <glyph glyph-name="uni041A" unicode="&#x41a;" horiz-adv-x="1126" 
d="M234 0q-43 0 -72 28.5t-29 71.5v1110q0 43 29 72t72 29t73 -29t30 -72v-449l555 521q29 29 73 29q38 -1 71 -34q29 -29 29 -72q0 -39 -32 -71l-385 -361l409 -614q18 -27 18 -59q0 -53 -46 -83q-25 -17 -55 -17q-3 0 -21 2q-41 6 -64 43l-393 587l-159 -150v-382
q0 -42 -30 -71t-73 -29z" />
    <glyph glyph-name="uni041B" unicode="&#x41b;" horiz-adv-x="1196" 
d="M125 0q-43 0 -75 34q-28 30 -27 71q0 19 8 41l470 1101q12 28 38 44.5t57 16.5q32 0 58 -16.5t38 -44.5l473 -1101q10 -23 10 -43q0 -15 -8 -36q-15 -42 -56 -58q-19 -9 -41 -9q-39 0 -73 29q-15 12 -23 33l-377 875l-375 -875q-18 -41 -57 -55q-17 -7 -40 -7z" />
    </font>
</defs>
</svg>
