<?xml version="1.0" standalone="no"?>
<!DOCTYPE svg PUBLIC "-//W3C//DTD SVG 1.1//EN" "http://www.w3.org/Graphics/SVG/1.1/DTD/svg11.dtd" >
<svg xmlns="http://www.w3.org/2000/svg" xmlns:xlink="http://www.w3.org/1999/xlink" version="1.1">
<metadata>
Created by FontForge 20170731 at Mon Sep  7 10:33:08 2020
 By Aleksey,,,
Copyright (c) 2017 by Zetafonts. All rights reserved.
</metadata>
<defs>
<font id="FONTSPRINGDEMO-AntipastoProBold" horiz-adv-x="612" >
  <font-face 
    font-family="FSP DEMO - Antipasto Pro"
    font-weight="800"
    font-stretch="normal"
    units-per-em="2048"
    panose-1="0 0 9 0 0 0 0 0 0 0"
    ascent="1638"
    descent="-410"
    x-height="965"
    cap-height="1311"
    bbox="-199 -396 1742 1340"
    underline-thickness="102"
    underline-position="-255"
    unicode-range="U+0020-007E"
  />
<missing-glyph 
d="M103 202q-6 0 -9 -1v-101q2 -1 9 -1q19 0 25.5 12.5t6.5 39.5t-6.5 39t-25.5 12zM259 165v-25h-41v-39h48v-24h-78v148h78v-25h-48v-35h41zM101 75q-23 0 -36 2v146q26 4 37 4q34 0 48.5 -18.5t14.5 -57.5q0 -40 -15 -58t-49 -18zM293 225h40l19 -82l20 82h41
q1 -21 3.5 -79.5t2.5 -68.5h-30q0 53 -3 106l-20 -84h-28l-21 84h-1q-2 -70 -2 -106h-28q2 85 7 148zM494 75q-30 0 -42.5 18t-12.5 58t12.5 58t42.5 18t42.5 -18t12.5 -58t-12.5 -58t-42.5 -18zM494 202q-25 0 -25 -51q0 -52 25 -52q15 0 20 12t5 40t-5 39.5t-20 11.5z
M483 508q35 0 49.5 -21t14.5 -44q0 -22 -17 -36t-36 -17q-106 -11 -170 -74q3 8 8.5 21t23 46t35 58t43 46t49.5 21zM142 455q27 0 53.5 -20t44.5 -48t33 -56t22 -48l7 -20q-59 74 -160 74q-25 0 -44 15t-19 38q0 27 16.5 46t46.5 19zM322 607q19 -19 24 -51.5t-1.5 -65.5
t-15.5 -63.5t-18 -49.5l-9 -19q10 96 -62 165q-18 18 -22 41t12 42q19 19 43 20.5t49 -19.5z" />
    <glyph glyph-name=".notdef" 
d="M103 202q-6 0 -9 -1v-101q2 -1 9 -1q19 0 25.5 12.5t6.5 39.5t-6.5 39t-25.5 12zM259 165v-25h-41v-39h48v-24h-78v148h78v-25h-48v-35h41zM101 75q-23 0 -36 2v146q26 4 37 4q34 0 48.5 -18.5t14.5 -57.5q0 -40 -15 -58t-49 -18zM293 225h40l19 -82l20 82h41
q1 -21 3.5 -79.5t2.5 -68.5h-30q0 53 -3 106l-20 -84h-28l-21 84h-1q-2 -70 -2 -106h-28q2 85 7 148zM494 75q-30 0 -42.5 18t-12.5 58t12.5 58t42.5 18t42.5 -18t12.5 -58t-12.5 -58t-42.5 -18zM494 202q-25 0 -25 -51q0 -52 25 -52q15 0 20 12t5 40t-5 39.5t-20 11.5z
M483 508q35 0 49.5 -21t14.5 -44q0 -22 -17 -36t-36 -17q-106 -11 -170 -74q3 8 8.5 21t23 46t35 58t43 46t49.5 21zM142 455q27 0 53.5 -20t44.5 -48t33 -56t22 -48l7 -20q-59 74 -160 74q-25 0 -44 15t-19 38q0 27 16.5 46t46.5 19zM322 607q19 -19 24 -51.5t-1.5 -65.5
t-15.5 -63.5t-18 -49.5l-9 -19q10 96 -62 165q-18 18 -22 41t12 42q19 19 43 20.5t49 -19.5z" />
    <glyph glyph-name=".null" horiz-adv-x="0" 
 />
    <glyph glyph-name="nonmarkingreturn" horiz-adv-x="682" 
 />
    <glyph glyph-name="space" unicode=" " horiz-adv-x="460" 
 />
    <glyph glyph-name="exclam" unicode="!" 
d="M103 202q-6 0 -9 -1v-101q2 -1 9 -1q19 0 25.5 12.5t6.5 39.5t-6.5 39t-25.5 12zM259 165v-25h-41v-39h48v-24h-78v148h78v-25h-48v-35h41zM101 75q-23 0 -36 2v146q26 4 37 4q34 0 48.5 -18.5t14.5 -57.5q0 -40 -15 -58t-49 -18zM293 225h40l19 -82l20 82h41
q1 -21 3.5 -79.5t2.5 -68.5h-30q0 53 -3 106l-20 -84h-28l-21 84h-1q-2 -70 -2 -106h-28q2 85 7 148zM494 75q-30 0 -42.5 18t-12.5 58t12.5 58t42.5 18t42.5 -18t12.5 -58t-12.5 -58t-42.5 -18zM494 202q-25 0 -25 -51q0 -52 25 -52q15 0 20 12t5 40t-5 39.5t-20 11.5z
M483 508q35 0 49.5 -21t14.5 -44q0 -22 -17 -36t-36 -17q-106 -11 -170 -74q3 8 8.5 21t23 46t35 58t43 46t49.5 21zM142 455q27 0 53.5 -20t44.5 -48t33 -56t22 -48l7 -20q-59 74 -160 74q-25 0 -44 15t-19 38q0 27 16.5 46t46.5 19zM322 607q19 -19 24 -51.5t-1.5 -65.5
t-15.5 -63.5t-18 -49.5l-9 -19q10 96 -62 165q-18 18 -22 41t12 42q19 19 43 20.5t49 -19.5z" />
    <glyph glyph-name="quotedbl" unicode="&#x22;" 
d="M103 202q-6 0 -9 -1v-101q2 -1 9 -1q19 0 25.5 12.5t6.5 39.5t-6.5 39t-25.5 12zM259 165v-25h-41v-39h48v-24h-78v148h78v-25h-48v-35h41zM101 75q-23 0 -36 2v146q26 4 37 4q34 0 48.5 -18.5t14.5 -57.5q0 -40 -15 -58t-49 -18zM293 225h40l19 -82l20 82h41
q1 -21 3.5 -79.5t2.5 -68.5h-30q0 53 -3 106l-20 -84h-28l-21 84h-1q-2 -70 -2 -106h-28q2 85 7 148zM494 75q-30 0 -42.5 18t-12.5 58t12.5 58t42.5 18t42.5 -18t12.5 -58t-12.5 -58t-42.5 -18zM494 202q-25 0 -25 -51q0 -52 25 -52q15 0 20 12t5 40t-5 39.5t-20 11.5z
M483 508q35 0 49.5 -21t14.5 -44q0 -22 -17 -36t-36 -17q-106 -11 -170 -74q3 8 8.5 21t23 46t35 58t43 46t49.5 21zM142 455q27 0 53.5 -20t44.5 -48t33 -56t22 -48l7 -20q-59 74 -160 74q-25 0 -44 15t-19 38q0 27 16.5 46t46.5 19zM322 607q19 -19 24 -51.5t-1.5 -65.5
t-15.5 -63.5t-18 -49.5l-9 -19q10 96 -62 165q-18 18 -22 41t12 42q19 19 43 20.5t49 -19.5z" />
    <glyph glyph-name="numbersign" unicode="#" 
d="M103 202q-6 0 -9 -1v-101q2 -1 9 -1q19 0 25.5 12.5t6.5 39.5t-6.5 39t-25.5 12zM259 165v-25h-41v-39h48v-24h-78v148h78v-25h-48v-35h41zM101 75q-23 0 -36 2v146q26 4 37 4q34 0 48.5 -18.5t14.5 -57.5q0 -40 -15 -58t-49 -18zM293 225h40l19 -82l20 82h41
q1 -21 3.5 -79.5t2.5 -68.5h-30q0 53 -3 106l-20 -84h-28l-21 84h-1q-2 -70 -2 -106h-28q2 85 7 148zM494 75q-30 0 -42.5 18t-12.5 58t12.5 58t42.5 18t42.5 -18t12.5 -58t-12.5 -58t-42.5 -18zM494 202q-25 0 -25 -51q0 -52 25 -52q15 0 20 12t5 40t-5 39.5t-20 11.5z
M483 508q35 0 49.5 -21t14.5 -44q0 -22 -17 -36t-36 -17q-106 -11 -170 -74q3 8 8.5 21t23 46t35 58t43 46t49.5 21zM142 455q27 0 53.5 -20t44.5 -48t33 -56t22 -48l7 -20q-59 74 -160 74q-25 0 -44 15t-19 38q0 27 16.5 46t46.5 19zM322 607q19 -19 24 -51.5t-1.5 -65.5
t-15.5 -63.5t-18 -49.5l-9 -19q10 96 -62 165q-18 18 -22 41t12 42q19 19 43 20.5t49 -19.5z" />
    <glyph glyph-name="dollar" unicode="$" 
d="M103 202q-6 0 -9 -1v-101q2 -1 9 -1q19 0 25.5 12.5t6.5 39.5t-6.5 39t-25.5 12zM259 165v-25h-41v-39h48v-24h-78v148h78v-25h-48v-35h41zM101 75q-23 0 -36 2v146q26 4 37 4q34 0 48.5 -18.5t14.5 -57.5q0 -40 -15 -58t-49 -18zM293 225h40l19 -82l20 82h41
q1 -21 3.5 -79.5t2.5 -68.5h-30q0 53 -3 106l-20 -84h-28l-21 84h-1q-2 -70 -2 -106h-28q2 85 7 148zM494 75q-30 0 -42.5 18t-12.5 58t12.5 58t42.5 18t42.5 -18t12.5 -58t-12.5 -58t-42.5 -18zM494 202q-25 0 -25 -51q0 -52 25 -52q15 0 20 12t5 40t-5 39.5t-20 11.5z
M483 508q35 0 49.5 -21t14.5 -44q0 -22 -17 -36t-36 -17q-106 -11 -170 -74q3 8 8.5 21t23 46t35 58t43 46t49.5 21zM142 455q27 0 53.5 -20t44.5 -48t33 -56t22 -48l7 -20q-59 74 -160 74q-25 0 -44 15t-19 38q0 27 16.5 46t46.5 19zM322 607q19 -19 24 -51.5t-1.5 -65.5
t-15.5 -63.5t-18 -49.5l-9 -19q10 96 -62 165q-18 18 -22 41t12 42q19 19 43 20.5t49 -19.5z" />
    <glyph glyph-name="percent" unicode="%" 
d="M103 202q-6 0 -9 -1v-101q2 -1 9 -1q19 0 25.5 12.5t6.5 39.5t-6.5 39t-25.5 12zM259 165v-25h-41v-39h48v-24h-78v148h78v-25h-48v-35h41zM101 75q-23 0 -36 2v146q26 4 37 4q34 0 48.5 -18.5t14.5 -57.5q0 -40 -15 -58t-49 -18zM293 225h40l19 -82l20 82h41
q1 -21 3.5 -79.5t2.5 -68.5h-30q0 53 -3 106l-20 -84h-28l-21 84h-1q-2 -70 -2 -106h-28q2 85 7 148zM494 75q-30 0 -42.5 18t-12.5 58t12.5 58t42.5 18t42.5 -18t12.5 -58t-12.5 -58t-42.5 -18zM494 202q-25 0 -25 -51q0 -52 25 -52q15 0 20 12t5 40t-5 39.5t-20 11.5z
M483 508q35 0 49.5 -21t14.5 -44q0 -22 -17 -36t-36 -17q-106 -11 -170 -74q3 8 8.5 21t23 46t35 58t43 46t49.5 21zM142 455q27 0 53.5 -20t44.5 -48t33 -56t22 -48l7 -20q-59 74 -160 74q-25 0 -44 15t-19 38q0 27 16.5 46t46.5 19zM322 607q19 -19 24 -51.5t-1.5 -65.5
t-15.5 -63.5t-18 -49.5l-9 -19q10 96 -62 165q-18 18 -22 41t12 42q19 19 43 20.5t49 -19.5z" />
    <glyph glyph-name="ampersand" unicode="&#x26;" 
d="M103 202q-6 0 -9 -1v-101q2 -1 9 -1q19 0 25.5 12.5t6.5 39.5t-6.5 39t-25.5 12zM259 165v-25h-41v-39h48v-24h-78v148h78v-25h-48v-35h41zM101 75q-23 0 -36 2v146q26 4 37 4q34 0 48.5 -18.5t14.5 -57.5q0 -40 -15 -58t-49 -18zM293 225h40l19 -82l20 82h41
q1 -21 3.5 -79.5t2.5 -68.5h-30q0 53 -3 106l-20 -84h-28l-21 84h-1q-2 -70 -2 -106h-28q2 85 7 148zM494 75q-30 0 -42.5 18t-12.5 58t12.5 58t42.5 18t42.5 -18t12.5 -58t-12.5 -58t-42.5 -18zM494 202q-25 0 -25 -51q0 -52 25 -52q15 0 20 12t5 40t-5 39.5t-20 11.5z
M483 508q35 0 49.5 -21t14.5 -44q0 -22 -17 -36t-36 -17q-106 -11 -170 -74q3 8 8.5 21t23 46t35 58t43 46t49.5 21zM142 455q27 0 53.5 -20t44.5 -48t33 -56t22 -48l7 -20q-59 74 -160 74q-25 0 -44 15t-19 38q0 27 16.5 46t46.5 19zM322 607q19 -19 24 -51.5t-1.5 -65.5
t-15.5 -63.5t-18 -49.5l-9 -19q10 96 -62 165q-18 18 -22 41t12 42q19 19 43 20.5t49 -19.5z" />
    <glyph glyph-name="quotesingle" unicode="'" 
d="M103 202q-6 0 -9 -1v-101q2 -1 9 -1q19 0 25.5 12.5t6.5 39.5t-6.5 39t-25.5 12zM259 165v-25h-41v-39h48v-24h-78v148h78v-25h-48v-35h41zM101 75q-23 0 -36 2v146q26 4 37 4q34 0 48.5 -18.5t14.5 -57.5q0 -40 -15 -58t-49 -18zM293 225h40l19 -82l20 82h41
q1 -21 3.5 -79.5t2.5 -68.5h-30q0 53 -3 106l-20 -84h-28l-21 84h-1q-2 -70 -2 -106h-28q2 85 7 148zM494 75q-30 0 -42.5 18t-12.5 58t12.5 58t42.5 18t42.5 -18t12.5 -58t-12.5 -58t-42.5 -18zM494 202q-25 0 -25 -51q0 -52 25 -52q15 0 20 12t5 40t-5 39.5t-20 11.5z
M483 508q35 0 49.5 -21t14.5 -44q0 -22 -17 -36t-36 -17q-106 -11 -170 -74q3 8 8.5 21t23 46t35 58t43 46t49.5 21zM142 455q27 0 53.5 -20t44.5 -48t33 -56t22 -48l7 -20q-59 74 -160 74q-25 0 -44 15t-19 38q0 27 16.5 46t46.5 19zM322 607q19 -19 24 -51.5t-1.5 -65.5
t-15.5 -63.5t-18 -49.5l-9 -19q10 96 -62 165q-18 18 -22 41t12 42q19 19 43 20.5t49 -19.5z" />
    <glyph glyph-name="parenleft" unicode="(" 
d="M103 202q-6 0 -9 -1v-101q2 -1 9 -1q19 0 25.5 12.5t6.5 39.5t-6.5 39t-25.5 12zM259 165v-25h-41v-39h48v-24h-78v148h78v-25h-48v-35h41zM101 75q-23 0 -36 2v146q26 4 37 4q34 0 48.5 -18.5t14.5 -57.5q0 -40 -15 -58t-49 -18zM293 225h40l19 -82l20 82h41
q1 -21 3.5 -79.5t2.5 -68.5h-30q0 53 -3 106l-20 -84h-28l-21 84h-1q-2 -70 -2 -106h-28q2 85 7 148zM494 75q-30 0 -42.5 18t-12.5 58t12.5 58t42.5 18t42.5 -18t12.5 -58t-12.5 -58t-42.5 -18zM494 202q-25 0 -25 -51q0 -52 25 -52q15 0 20 12t5 40t-5 39.5t-20 11.5z
M483 508q35 0 49.5 -21t14.5 -44q0 -22 -17 -36t-36 -17q-106 -11 -170 -74q3 8 8.5 21t23 46t35 58t43 46t49.5 21zM142 455q27 0 53.5 -20t44.5 -48t33 -56t22 -48l7 -20q-59 74 -160 74q-25 0 -44 15t-19 38q0 27 16.5 46t46.5 19zM322 607q19 -19 24 -51.5t-1.5 -65.5
t-15.5 -63.5t-18 -49.5l-9 -19q10 96 -62 165q-18 18 -22 41t12 42q19 19 43 20.5t49 -19.5z" />
    <glyph glyph-name="parenright" unicode=")" 
d="M103 202q-6 0 -9 -1v-101q2 -1 9 -1q19 0 25.5 12.5t6.5 39.5t-6.5 39t-25.5 12zM259 165v-25h-41v-39h48v-24h-78v148h78v-25h-48v-35h41zM101 75q-23 0 -36 2v146q26 4 37 4q34 0 48.5 -18.5t14.5 -57.5q0 -40 -15 -58t-49 -18zM293 225h40l19 -82l20 82h41
q1 -21 3.5 -79.5t2.5 -68.5h-30q0 53 -3 106l-20 -84h-28l-21 84h-1q-2 -70 -2 -106h-28q2 85 7 148zM494 75q-30 0 -42.5 18t-12.5 58t12.5 58t42.5 18t42.5 -18t12.5 -58t-12.5 -58t-42.5 -18zM494 202q-25 0 -25 -51q0 -52 25 -52q15 0 20 12t5 40t-5 39.5t-20 11.5z
M483 508q35 0 49.5 -21t14.5 -44q0 -22 -17 -36t-36 -17q-106 -11 -170 -74q3 8 8.5 21t23 46t35 58t43 46t49.5 21zM142 455q27 0 53.5 -20t44.5 -48t33 -56t22 -48l7 -20q-59 74 -160 74q-25 0 -44 15t-19 38q0 27 16.5 46t46.5 19zM322 607q19 -19 24 -51.5t-1.5 -65.5
t-15.5 -63.5t-18 -49.5l-9 -19q10 96 -62 165q-18 18 -22 41t12 42q19 19 43 20.5t49 -19.5z" />
    <glyph glyph-name="asterisk" unicode="*" 
d="M103 202q-6 0 -9 -1v-101q2 -1 9 -1q19 0 25.5 12.5t6.5 39.5t-6.5 39t-25.5 12zM259 165v-25h-41v-39h48v-24h-78v148h78v-25h-48v-35h41zM101 75q-23 0 -36 2v146q26 4 37 4q34 0 48.5 -18.5t14.5 -57.5q0 -40 -15 -58t-49 -18zM293 225h40l19 -82l20 82h41
q1 -21 3.5 -79.5t2.5 -68.5h-30q0 53 -3 106l-20 -84h-28l-21 84h-1q-2 -70 -2 -106h-28q2 85 7 148zM494 75q-30 0 -42.5 18t-12.5 58t12.5 58t42.5 18t42.5 -18t12.5 -58t-12.5 -58t-42.5 -18zM494 202q-25 0 -25 -51q0 -52 25 -52q15 0 20 12t5 40t-5 39.5t-20 11.5z
M483 508q35 0 49.5 -21t14.5 -44q0 -22 -17 -36t-36 -17q-106 -11 -170 -74q3 8 8.5 21t23 46t35 58t43 46t49.5 21zM142 455q27 0 53.5 -20t44.5 -48t33 -56t22 -48l7 -20q-59 74 -160 74q-25 0 -44 15t-19 38q0 27 16.5 46t46.5 19zM322 607q19 -19 24 -51.5t-1.5 -65.5
t-15.5 -63.5t-18 -49.5l-9 -19q10 96 -62 165q-18 18 -22 41t12 42q19 19 43 20.5t49 -19.5z" />
    <glyph glyph-name="plus" unicode="+" 
d="M103 202q-6 0 -9 -1v-101q2 -1 9 -1q19 0 25.5 12.5t6.5 39.5t-6.5 39t-25.5 12zM259 165v-25h-41v-39h48v-24h-78v148h78v-25h-48v-35h41zM101 75q-23 0 -36 2v146q26 4 37 4q34 0 48.5 -18.5t14.5 -57.5q0 -40 -15 -58t-49 -18zM293 225h40l19 -82l20 82h41
q1 -21 3.5 -79.5t2.5 -68.5h-30q0 53 -3 106l-20 -84h-28l-21 84h-1q-2 -70 -2 -106h-28q2 85 7 148zM494 75q-30 0 -42.5 18t-12.5 58t12.5 58t42.5 18t42.5 -18t12.5 -58t-12.5 -58t-42.5 -18zM494 202q-25 0 -25 -51q0 -52 25 -52q15 0 20 12t5 40t-5 39.5t-20 11.5z
M483 508q35 0 49.5 -21t14.5 -44q0 -22 -17 -36t-36 -17q-106 -11 -170 -74q3 8 8.5 21t23 46t35 58t43 46t49.5 21zM142 455q27 0 53.5 -20t44.5 -48t33 -56t22 -48l7 -20q-59 74 -160 74q-25 0 -44 15t-19 38q0 27 16.5 46t46.5 19zM322 607q19 -19 24 -51.5t-1.5 -65.5
t-15.5 -63.5t-18 -49.5l-9 -19q10 96 -62 165q-18 18 -22 41t12 42q19 19 43 20.5t49 -19.5z" />
    <glyph glyph-name="comma" unicode="," horiz-adv-x="478" 
d="M91 -121v257q0 56 37 94.5t92 38.5t90 -38.5t35 -94.5v-257q0 -56 -35 -94t-90 -38t-92 38t-37 94z" />
    <glyph glyph-name="hyphen" unicode="-" 
d="M103 202q-6 0 -9 -1v-101q2 -1 9 -1q19 0 25.5 12.5t6.5 39.5t-6.5 39t-25.5 12zM259 165v-25h-41v-39h48v-24h-78v148h78v-25h-48v-35h41zM101 75q-23 0 -36 2v146q26 4 37 4q34 0 48.5 -18.5t14.5 -57.5q0 -40 -15 -58t-49 -18zM293 225h40l19 -82l20 82h41
q1 -21 3.5 -79.5t2.5 -68.5h-30q0 53 -3 106l-20 -84h-28l-21 84h-1q-2 -70 -2 -106h-28q2 85 7 148zM494 75q-30 0 -42.5 18t-12.5 58t12.5 58t42.5 18t42.5 -18t12.5 -58t-12.5 -58t-42.5 -18zM494 202q-25 0 -25 -51q0 -52 25 -52q15 0 20 12t5 40t-5 39.5t-20 11.5z
M483 508q35 0 49.5 -21t14.5 -44q0 -22 -17 -36t-36 -17q-106 -11 -170 -74q3 8 8.5 21t23 46t35 58t43 46t49.5 21zM142 455q27 0 53.5 -20t44.5 -48t33 -56t22 -48l7 -20q-59 74 -160 74q-25 0 -44 15t-19 38q0 27 16.5 46t46.5 19zM322 607q19 -19 24 -51.5t-1.5 -65.5
t-15.5 -63.5t-18 -49.5l-9 -19q10 96 -62 165q-18 18 -22 41t12 42q19 19 43 20.5t49 -19.5z" />
    <glyph glyph-name="period" unicode="." horiz-adv-x="519" 
d="M91 136q0 61 43.5 104.5t104.5 43.5q60 0 103 -43.5t43 -104.5t-43 -104t-103 -43q-61 0 -104.5 43t-43.5 104z" />
    <glyph glyph-name="slash" unicode="/" 
d="M103 202q-6 0 -9 -1v-101q2 -1 9 -1q19 0 25.5 12.5t6.5 39.5t-6.5 39t-25.5 12zM259 165v-25h-41v-39h48v-24h-78v148h78v-25h-48v-35h41zM101 75q-23 0 -36 2v146q26 4 37 4q34 0 48.5 -18.5t14.5 -57.5q0 -40 -15 -58t-49 -18zM293 225h40l19 -82l20 82h41
q1 -21 3.5 -79.5t2.5 -68.5h-30q0 53 -3 106l-20 -84h-28l-21 84h-1q-2 -70 -2 -106h-28q2 85 7 148zM494 75q-30 0 -42.5 18t-12.5 58t12.5 58t42.5 18t42.5 -18t12.5 -58t-12.5 -58t-42.5 -18zM494 202q-25 0 -25 -51q0 -52 25 -52q15 0 20 12t5 40t-5 39.5t-20 11.5z
M483 508q35 0 49.5 -21t14.5 -44q0 -22 -17 -36t-36 -17q-106 -11 -170 -74q3 8 8.5 21t23 46t35 58t43 46t49.5 21zM142 455q27 0 53.5 -20t44.5 -48t33 -56t22 -48l7 -20q-59 74 -160 74q-25 0 -44 15t-19 38q0 27 16.5 46t46.5 19zM322 607q19 -19 24 -51.5t-1.5 -65.5
t-15.5 -63.5t-18 -49.5l-9 -19q10 96 -62 165q-18 18 -22 41t12 42q19 19 43 20.5t49 -19.5z" />
    <glyph glyph-name="zero" unicode="0" horiz-adv-x="1442" 
d="M709 1320q181 0 334.5 -89.5t243 -243t89.5 -334.5t-89.5 -334t-243 -242t-334.5 -89q-136 0 -259.5 52.5t-212 141.5t-140.5 212t-52 259t52 259t140.5 212.5t212 142.5t259.5 53zM1120 653q0 171 -119.5 290.5t-290.5 119.5t-290.5 -119.5t-119.5 -290.5
q0 -173 119 -291.5t291 -118.5t291 118.5t119 291.5z" />
    <glyph glyph-name="one" unicode="1" horiz-adv-x="653" 
d="M265 959l-24 -14q-35 -19 -75 -19q-53 0 -87.5 36t-34.5 89q0 73 64 110l213 130q30 18 64 18q4 1 11 1q48 0 81.5 -31.5t39.5 -79.5q2 -8 2 -13v-1057q0 -55 -34.5 -92t-88.5 -37q-55 0 -93 37t-38 92v830z" />
    <glyph glyph-name="two" unicode="2" horiz-adv-x="972" 
d="M531 708v1q3 4 23.5 25t36.5 40t35 45.5t30 54.5t11 54q0 68 -51.5 109t-120.5 41q-67 0 -117 -36t-61 -100q-10 -52 -42 -78.5t-78 -26.5q-57 0 -91 32t-34 89q0 9 2 25v2q6 59 39 117.5t85 107t129 79t163 30.5q192 0 310 -101t118 -278q0 -106 -45 -199t-150 -200
l-278 -287h355q55 0 92 -35.5t37 -89.5q0 -55 -37 -92t-92 -37h-627q-55 0 -92 38t-37 93q0 21 6 39v2q1 2 1 3l5 10q1 1 1 2t0.5 1.5t0.5 1.5q7 13 25 31z" />
    <glyph glyph-name="three" unicode="3" horiz-adv-x="1014" 
d="M930 1092l-253 -238q133 -44 212.5 -147t79.5 -247q0 -128 -64 -236.5t-173.5 -172t-237.5 -63.5q-134 0 -251.5 68t-177.5 181q-21 42 -21 75q0 51 38 84.5t89 33.5q35 0 73 -23t46 -55q28 -50 84.5 -80t119.5 -30q92 0 156.5 63.5t64.5 154.5q0 87 -61 129t-160 42
h-100v1q-51 0 -86.5 38t-35.5 89q0 53 39 90l233 216h-324q-55 0 -92 32.5t-37 84.5q0 54 37.5 91.5t91.5 37.5h625q73 0 107 -67l2 -6l4 -11q9 -21 9 -46q0 -52 -37 -89z" />
    <glyph glyph-name="four" unicode="4" 
d="M103 202q-6 0 -9 -1v-101q2 -1 9 -1q19 0 25.5 12.5t6.5 39.5t-6.5 39t-25.5 12zM259 165v-25h-41v-39h48v-24h-78v148h78v-25h-48v-35h41zM101 75q-23 0 -36 2v146q26 4 37 4q34 0 48.5 -18.5t14.5 -57.5q0 -40 -15 -58t-49 -18zM293 225h40l19 -82l20 82h41
q1 -21 3.5 -79.5t2.5 -68.5h-30q0 53 -3 106l-20 -84h-28l-21 84h-1q-2 -70 -2 -106h-28q2 85 7 148zM494 75q-30 0 -42.5 18t-12.5 58t12.5 58t42.5 18t42.5 -18t12.5 -58t-12.5 -58t-42.5 -18zM494 202q-25 0 -25 -51q0 -52 25 -52q15 0 20 12t5 40t-5 39.5t-20 11.5z
M483 508q35 0 49.5 -21t14.5 -44q0 -22 -17 -36t-36 -17q-106 -11 -170 -74q3 8 8.5 21t23 46t35 58t43 46t49.5 21zM142 455q27 0 53.5 -20t44.5 -48t33 -56t22 -48l7 -20q-59 74 -160 74q-25 0 -44 15t-19 38q0 27 16.5 46t46.5 19zM322 607q19 -19 24 -51.5t-1.5 -65.5
t-15.5 -63.5t-18 -49.5l-9 -19q10 96 -62 165q-18 18 -22 41t12 42q19 19 43 20.5t49 -19.5z" />
    <glyph glyph-name="five" unicode="5" horiz-adv-x="989" 
d="M668 441q0 84 -59.5 143.5t-143.5 59.5q-86 0 -146 -62q-36 -50 -97 -50q-55 0 -93.5 35.5t-38.5 89.5q0 12 1 18l38 526q4 35 28 62.5t58 38.5q21 9 47 9h472q53 0 90 -38t37 -93q0 -52 -37 -87.5t-90 -35.5h-361l-13 -174q51 12 105 12q188 0 321 -133t133 -321
q0 -187 -133 -319t-321 -132q-135 0 -246.5 73.5t-165.5 192.5q-13 25 -13 58q0 52 37 89t89 37q41 0 74.5 -25t45.5 -63q25 -50 73 -80.5t106 -30.5q84 0 143.5 58.5t59.5 141.5z" />
    <glyph glyph-name="six" unicode="6" horiz-adv-x="999" 
d="M418 1254q40 68 114 68q52 0 89 -36t37 -88q0 -38 -20 -71l-135 -254q88 -3 167 -38.5t136 -94t90.5 -139t33.5 -168.5q0 -182 -129 -311t-312 -129q-182 0 -311.5 129t-129.5 311q0 115 52 208l5 10zM485 627q-82 0 -139.5 -57.5t-57.5 -140.5q0 -82 57.5 -139.5
t139.5 -57.5q83 0 141 57.5t58 139.5q0 83 -58 140.5t-141 57.5z" />
    <glyph glyph-name="seven" unicode="7" horiz-adv-x="1011" 
d="M195 119q0 38 17 75l418 863h-445q-55 0 -93 36t-38 89q0 54 38.5 91.5t92.5 37.5h651q54 0 92.5 -38.5t38.5 -92.5q0 -32 -18 -63l-520 -1050q-18 -32 -49 -50t-66 -18q-52 0 -85.5 34t-33.5 86z" />
    <glyph glyph-name="eight" unicode="8" horiz-adv-x="958" 
d="M475 1311q144 0 248 -100.5t104 -251.5q0 -116 -87 -203q80 -61 127 -147t47 -186q0 -181 -127.5 -308t-307.5 -127q-181 0 -308 127t-127 308q0 98 45 182.5t123 145.5q-88 88 -88 208q0 151 104 251.5t247 100.5zM368 978q0 -43 32 -75t75 -32q44 0 76.5 32t32.5 75
t-32.5 75.5t-76.5 32.5q-43 0 -75 -32t-32 -76zM299 423q0 -75 52.5 -127.5t127.5 -52.5q74 0 127 52.5t53 127.5q0 74 -53.5 127.5t-126.5 53.5q-75 0 -127.5 -53t-52.5 -128z" />
    <glyph glyph-name="nine" unicode="9" horiz-adv-x="1002" 
d="M339 116q0 37 20 70l135 253q-117 3 -215 63t-154.5 160.5t-56.5 218.5q0 182 128.5 311t311.5 129q182 0 311.5 -129t129.5 -311q0 -114 -55 -213l-3 -5l-311 -604q-39 -67 -115 -67q-52 0 -89 36t-37 88zM512 687q82 0 140 57.5t58 140.5q0 82 -58 139t-140 57
q-83 0 -141 -57t-58 -139q0 -83 58 -140.5t141 -57.5z" />
    <glyph glyph-name="colon" unicode=":" horiz-adv-x="522" 
d="M389 815q0 -61 -43.5 -104.5t-104.5 -43.5q-62 0 -106 43.5t-44 104.5t44.5 105.5t105.5 44.5t104.5 -44t43.5 -106zM241 287q61 0 104.5 -44t43.5 -105t-43.5 -105t-104.5 -44q-62 0 -106 44t-44 105t44.5 105t105.5 44z" />
    <glyph glyph-name="semicolon" unicode=";" horiz-adv-x="522" 
d="M389 815q0 -61 -43.5 -104.5t-104.5 -43.5q-62 0 -106 43.5t-44 104.5t44.5 105.5t105.5 44.5t104.5 -44t43.5 -106zM220 -253q-55 0 -92 38t-37 94v257q0 56 37 94.5t92 38.5t90 -38.5t35 -94.5v-257q0 -56 -35 -94t-90 -38z" />
    <glyph glyph-name="less" unicode="&#x3c;" 
d="M103 202q-6 0 -9 -1v-101q2 -1 9 -1q19 0 25.5 12.5t6.5 39.5t-6.5 39t-25.5 12zM259 165v-25h-41v-39h48v-24h-78v148h78v-25h-48v-35h41zM101 75q-23 0 -36 2v146q26 4 37 4q34 0 48.5 -18.5t14.5 -57.5q0 -40 -15 -58t-49 -18zM293 225h40l19 -82l20 82h41
q1 -21 3.5 -79.5t2.5 -68.5h-30q0 53 -3 106l-20 -84h-28l-21 84h-1q-2 -70 -2 -106h-28q2 85 7 148zM494 75q-30 0 -42.5 18t-12.5 58t12.5 58t42.5 18t42.5 -18t12.5 -58t-12.5 -58t-42.5 -18zM494 202q-25 0 -25 -51q0 -52 25 -52q15 0 20 12t5 40t-5 39.5t-20 11.5z
M483 508q35 0 49.5 -21t14.5 -44q0 -22 -17 -36t-36 -17q-106 -11 -170 -74q3 8 8.5 21t23 46t35 58t43 46t49.5 21zM142 455q27 0 53.5 -20t44.5 -48t33 -56t22 -48l7 -20q-59 74 -160 74q-25 0 -44 15t-19 38q0 27 16.5 46t46.5 19zM322 607q19 -19 24 -51.5t-1.5 -65.5
t-15.5 -63.5t-18 -49.5l-9 -19q10 96 -62 165q-18 18 -22 41t12 42q19 19 43 20.5t49 -19.5z" />
    <glyph glyph-name="equal" unicode="=" 
d="M103 202q-6 0 -9 -1v-101q2 -1 9 -1q19 0 25.5 12.5t6.5 39.5t-6.5 39t-25.5 12zM259 165v-25h-41v-39h48v-24h-78v148h78v-25h-48v-35h41zM101 75q-23 0 -36 2v146q26 4 37 4q34 0 48.5 -18.5t14.5 -57.5q0 -40 -15 -58t-49 -18zM293 225h40l19 -82l20 82h41
q1 -21 3.5 -79.5t2.5 -68.5h-30q0 53 -3 106l-20 -84h-28l-21 84h-1q-2 -70 -2 -106h-28q2 85 7 148zM494 75q-30 0 -42.5 18t-12.5 58t12.5 58t42.5 18t42.5 -18t12.5 -58t-12.5 -58t-42.5 -18zM494 202q-25 0 -25 -51q0 -52 25 -52q15 0 20 12t5 40t-5 39.5t-20 11.5z
M483 508q35 0 49.5 -21t14.5 -44q0 -22 -17 -36t-36 -17q-106 -11 -170 -74q3 8 8.5 21t23 46t35 58t43 46t49.5 21zM142 455q27 0 53.5 -20t44.5 -48t33 -56t22 -48l7 -20q-59 74 -160 74q-25 0 -44 15t-19 38q0 27 16.5 46t46.5 19zM322 607q19 -19 24 -51.5t-1.5 -65.5
t-15.5 -63.5t-18 -49.5l-9 -19q10 96 -62 165q-18 18 -22 41t12 42q19 19 43 20.5t49 -19.5z" />
    <glyph glyph-name="greater" unicode="&#x3e;" 
d="M103 202q-6 0 -9 -1v-101q2 -1 9 -1q19 0 25.5 12.5t6.5 39.5t-6.5 39t-25.5 12zM259 165v-25h-41v-39h48v-24h-78v148h78v-25h-48v-35h41zM101 75q-23 0 -36 2v146q26 4 37 4q34 0 48.5 -18.5t14.5 -57.5q0 -40 -15 -58t-49 -18zM293 225h40l19 -82l20 82h41
q1 -21 3.5 -79.5t2.5 -68.5h-30q0 53 -3 106l-20 -84h-28l-21 84h-1q-2 -70 -2 -106h-28q2 85 7 148zM494 75q-30 0 -42.5 18t-12.5 58t12.5 58t42.5 18t42.5 -18t12.5 -58t-12.5 -58t-42.5 -18zM494 202q-25 0 -25 -51q0 -52 25 -52q15 0 20 12t5 40t-5 39.5t-20 11.5z
M483 508q35 0 49.5 -21t14.5 -44q0 -22 -17 -36t-36 -17q-106 -11 -170 -74q3 8 8.5 21t23 46t35 58t43 46t49.5 21zM142 455q27 0 53.5 -20t44.5 -48t33 -56t22 -48l7 -20q-59 74 -160 74q-25 0 -44 15t-19 38q0 27 16.5 46t46.5 19zM322 607q19 -19 24 -51.5t-1.5 -65.5
t-15.5 -63.5t-18 -49.5l-9 -19q10 96 -62 165q-18 18 -22 41t12 42q19 19 43 20.5t49 -19.5z" />
    <glyph glyph-name="question" unicode="?" horiz-adv-x="905" 
d="M478 493v-34q0 -54 -35.5 -92t-88.5 -38q-55 0 -92.5 38t-37.5 92v159q0 53 38 90.5t92 37.5h114q65 0 115.5 46t50.5 110q0 66 -45.5 115t-119.5 49q-66 0 -116 -45.5t-51 -113.5v-5q0 -55 -34.5 -93t-87.5 -38q-55 0 -93.5 38.5t-38.5 92.5v7q3 170 126 290.5
t294 120.5q172 0 296 -123t124 -295q0 -166 -121 -284.5t-289 -124.5zM219 121q0 56 39 95t94 39q54 0 93 -39.5t39 -94.5q0 -53 -39 -92.5t-93 -39.5q-55 0 -94 39t-39 93z" />
    <glyph glyph-name="at" unicode="@" 
d="M103 202q-6 0 -9 -1v-101q2 -1 9 -1q19 0 25.5 12.5t6.5 39.5t-6.5 39t-25.5 12zM259 165v-25h-41v-39h48v-24h-78v148h78v-25h-48v-35h41zM101 75q-23 0 -36 2v146q26 4 37 4q34 0 48.5 -18.5t14.5 -57.5q0 -40 -15 -58t-49 -18zM293 225h40l19 -82l20 82h41
q1 -21 3.5 -79.5t2.5 -68.5h-30q0 53 -3 106l-20 -84h-28l-21 84h-1q-2 -70 -2 -106h-28q2 85 7 148zM494 75q-30 0 -42.5 18t-12.5 58t12.5 58t42.5 18t42.5 -18t12.5 -58t-12.5 -58t-42.5 -18zM494 202q-25 0 -25 -51q0 -52 25 -52q15 0 20 12t5 40t-5 39.5t-20 11.5z
M483 508q35 0 49.5 -21t14.5 -44q0 -22 -17 -36t-36 -17q-106 -11 -170 -74q3 8 8.5 21t23 46t35 58t43 46t49.5 21zM142 455q27 0 53.5 -20t44.5 -48t33 -56t22 -48l7 -20q-59 74 -160 74q-25 0 -44 15t-19 38q0 27 16.5 46t46.5 19zM322 607q19 -19 24 -51.5t-1.5 -65.5
t-15.5 -63.5t-18 -49.5l-9 -19q10 96 -62 165q-18 18 -22 41t12 42q19 19 43 20.5t49 -19.5z" />
    <glyph glyph-name="A" unicode="A" horiz-adv-x="1212" 
d="M371 335l-106 -259q-14 -36 -46 -56t-71 -20q-53 0 -89 33.5t-36 87.5q0 29 12 57l460 1056q35 77 116 77q37 0 68 -20.5t46 -55.5l454 -1057q12 -28 12 -58q0 -52 -35.5 -86t-87.5 -34q-37 0 -69 20.5t-48 55.5l-108 259h-472zM475 589h261l-132 316z" />
    <glyph glyph-name="B" unicode="B" horiz-adv-x="1091" 
d="M996 939q0 -138 -94 -245q65 -56 102 -134t37 -166q0 -165 -117 -279.5t-284 -114.5h-380q-53 0 -90 36t-37 89v1061q0 53 37 89t90 36h365q154 0 262.5 -108.5t108.5 -263.5zM387 1057v-265h221q54 0 93.5 43t39.5 96q0 52 -40 89t-92 37h-222zM387 562v-308h244
q61 0 108.5 48.5t47.5 110.5q0 61 -47 105t-109 44h-244z" />
    <glyph glyph-name="C" unicode="C" horiz-adv-x="1261" 
d="M1179 184q-98 -97 -221 -146.5t-256 -49.5t-254.5 52.5t-210 141.5t-141 212t-52.5 258q0 130 50.5 252t137 213.5t211.5 147t266 55.5q130 0 252.5 -50t219.5 -147q37 -36 37 -88q0 -53 -38 -89t-91 -36t-87 34q-119 119 -294 119q-167 0 -288 -119t-121 -290
t119.5 -291t290.5 -120q169 0 290 118q35 35 90 35q53 0 89 -35t36 -88q0 -54 -35 -89z" />
    <glyph glyph-name="D" unicode="D" horiz-adv-x="1206" 
d="M488 1311h-228q-53 0 -90 -36t-37 -89v-1061q0 -53 37 -89t90 -36h228q182 0 335 85.5t243 236t90 331.5q0 135 -53 257.5t-142.5 210t-213 139t-259.5 51.5zM387 255v799h102q172 0 291.5 -115.5t119.5 -285.5q0 -172 -119 -285t-292 -113h-102z" />
    <glyph glyph-name="E" unicode="E" horiz-adv-x="952" 
d="M260 1311h521q53 0 89 -37t36 -90t-36 -90t-89 -37h-394v-281h283q52 0 87.5 -36t35.5 -89q0 -52 -36.5 -87t-90.5 -35h-279v-276h394q53 0 89 -37t36 -91q0 -53 -34.5 -89t-86.5 -36h-535q-51 5 -84 39.5t-33 85.5v1059q0 53 36.5 90t90.5 37z" />
    <glyph glyph-name="F" unicode="F" horiz-adv-x="916" 
d="M387 125q0 -53 -37 -89t-90 -36q-54 0 -90.5 36t-36.5 89v1064q2 48 33 85t94 37h510q52 0 88.5 -37t36.5 -90t-36.5 -90t-88.5 -37h-383v-278h249q53 0 90 -36.5t37 -89.5q0 -52 -37 -86.5t-90 -34.5h-249v-407z" />
    <glyph glyph-name="G" unicode="G" horiz-adv-x="1383" 
d="M702 1320q277 0 478 -198q37 -36 37 -88t-37.5 -89t-90.5 -37q-51 0 -88 36q-122 119 -295 119q-109 0 -202.5 -54t-149 -148.5t-55.5 -207.5q0 -173 119 -291.5t291 -118.5q119 0 203 44t121 130h-147q-53 0 -89 37t-36 90q0 52 36 89.5t89 37.5l301 -2q54 0 91.5 -35.5
t37.5 -90.5q-3 -156 -85.5 -284t-220.5 -199.5t-302 -71.5q-136 0 -259 52.5t-211.5 141t-141 211.5t-52.5 258q0 180 86.5 333.5t238.5 244.5t333 91z" />
    <glyph glyph-name="H" unicode="H" horiz-adv-x="1261" 
d="M260 1311q53 0 90 -36t37 -89v-406h487v406q0 53 38 89t92 36q53 0 88.5 -36t35.5 -89v-1061q0 -53 -37 -89t-90 -36t-90 36t-37 89v401h-487v-401q0 -53 -37 -89t-90 -36t-90 36t-37 89v1061q0 53 37 89t90 36z" />
    <glyph glyph-name="I" unicode="I" horiz-adv-x="520" 
d="M133 125v1061q0 53 37 89t90 36t90 -36t37 -89v-1061q0 -53 -37 -89t-90 -36t-90 36t-37 89z" />
    <glyph glyph-name="J" unicode="J" horiz-adv-x="521" 
d="M-65 -365q-64 0 -99 37.5t-35 88.5q0 50 33.5 87.5t94.5 40.5q85 3 144.5 63t59.5 144v1084q0 55 36.5 93t90.5 38t91 -38t37 -93l-1 -1094q0 -186 -132.5 -318.5t-319.5 -132.5z" />
    <glyph glyph-name="K" unicode="K" horiz-adv-x="1153" 
d="M387 125q0 -53 -37 -89t-90 -36t-90 36t-37 89v1061q0 53 37 89t90 36t90 -36t37 -89v-371l482 461q36 35 86 35q53 0 91 -38t38 -91q0 -54 -38 -91l-338 -321l381 -572q22 -34 22 -71q0 -52 -38 -89.5t-90 -37.5q-66 0 -104 56l-360 537l-132 -126v-342z" />
    <glyph glyph-name="L" unicode="L" horiz-adv-x="903" 
d="M244 1h-4l-11 2q-42 10 -69 43.5t-27 78.5v1061q0 53 37 89t90 36t90 -36t37 -89v-933l374 -1q53 0 89.5 -37t36.5 -90t-35 -89t-87 -36h-510q-7 0 -11 1z" />
    <glyph glyph-name="M" unicode="M" horiz-adv-x="1460" 
d="M755 1q-1 0 -3 -1h-18q-9 0 -13 1q-5 0 -7 1q-1 0 -3 0.5t-3 0.5l-9 2l-7 3q-48 17 -70 70l-258 631l-85 -600q-7 -48 -42.5 -78t-82.5 -30q-52 0 -89.5 36.5t-37.5 88.5q0 12 1 18l149 1050q4 40 33 70q41 44 97 44q37 0 69.5 -20.5t48.5 -56.5l316 -774l315 774
q15 36 46.5 56.5t68.5 20.5q23 0 48 -10q14 -7 29 -17q48 -31 55 -88l138 -1052q1 -5 1 -15q0 -53 -37.5 -89.5t-90.5 -36.5q-48 0 -84.5 31t-41.5 79l-78 590l-254 -622q-13 -32 -40.5 -52.5t-60.5 -24.5z" />
    <glyph glyph-name="N" unicode="N" horiz-adv-x="1261" 
d="M1039 1311q53 0 89 -36t36 -89v-1061q0 -44 -26.5 -77.5t-66.5 -43.5q-12 -4 -28 -4h-8q-43 0 -77 27q-11 7 -22 22l-549 758v-682q0 -53 -37 -89t-90 -36t-90 36t-37 89v1057q0 51 34 86t85 38h1q1 1 2 1h6q6 0 20 -2q31 -4 59 -27q6 -4 9 -7q12 -11 23 -29l539 -746
v690q0 53 37.5 89t90.5 36z" />
    <glyph glyph-name="O" unicode="O" horiz-adv-x="1419" 
d="M708 1320q181 0 334.5 -89.5t243 -243t89.5 -334.5t-89.5 -334t-243 -242t-334.5 -89q-136 0 -259.5 52.5t-212 141.5t-140.5 212t-52 259t52 259t140.5 212.5t212 142.5t259.5 53zM1119 653q0 171 -119.5 290.5t-290.5 119.5t-290.5 -119.5t-119.5 -290.5
q0 -173 119 -291.5t291 -118.5t291 118.5t119 291.5z" />
    <glyph glyph-name="P" unicode="P" horiz-adv-x="1059" 
d="M387 125q0 -53 -37 -89t-90 -36t-90 36t-37 89v1061q0 53 37 89t90 36h341q166 0 283.5 -116.5t117.5 -281.5t-117 -279.5t-284 -114.5h-214v-394zM602 1060h-215v-287h215q58 0 102.5 45t44.5 103t-44 98.5t-103 40.5z" />
    <glyph glyph-name="Q" unicode="Q" horiz-adv-x="1419" 
d="M1217 -78q0 -45 -32 -76.5t-76 -31.5h-5q-94 1 -169 52t-106 133q-63 -11 -121 -11q-136 0 -259.5 52.5t-212 141.5t-140.5 212t-52 259t52 259t140.5 212.5t212 142.5t259.5 53q181 0 334.5 -89.5t243 -243t89.5 -334.5q0 -178 -87 -329t-234 -240q0 -23 16 -38t39 -15
q44 0 76 -32t32 -77zM453 330q33 80 107 129t168 49q86 0 156.5 -42t107.5 -112q127 119 127 299q0 171 -119.5 290.5t-290.5 119.5t-290.5 -119.5t-119.5 -290.5q0 -98 41 -182t113 -141zM728 291q-22 0 -37 -13t-18 -34q12 -1 36 -1q36 0 72 6q-4 19 -18.5 30.5
t-34.5 11.5z" />
    <glyph glyph-name="R" unicode="R" horiz-adv-x="1090" 
d="M387 519v-394q0 -53 -37 -89t-90 -36t-90 36t-37 89v1061q0 53 37 89t90 36h341q166 0 283.5 -116.5t117.5 -281.5q0 -117 -62.5 -213t-165.5 -143l209 -370q16 -28 16 -60q0 -53 -38 -90t-91 -37q-71 0 -108 63l-257 456h-118zM602 1060h-215v-287h215q58 0 102.5 45
t44.5 103t-44 98.5t-103 40.5z" />
    <glyph glyph-name="S" unicode="S" horiz-adv-x="1037" 
d="M540 520q-465 80 -465 400q0 114 61.5 206.5t164 143t222.5 50.5q127 0 237.5 -50.5t165.5 -143.5q13 -22 13 -48q0 -49 -35.5 -82t-85.5 -33q-41 0 -74 22q-38 28 -51 36.5t-41.5 22.5t-56 18t-68.5 4q-89 0 -143 -40t-54 -104q0 -19 4 -34t16 -28t22 -22t33 -18.5
t39 -15t49.5 -13.5t53.5 -12t63 -13q7 -1 10 -2q371 -84 371 -368q0 -172 -135 -290.5t-336 -118.5q-153 0 -279 73.5t-178 182.5q-16 36 -16 67q0 49 37 86t86 37q57 0 118 -75q85 -117 241 -117q83 0 146 38.5t63 102.5q0 36 -15 61t-44 39t-55.5 21t-65.5 14z" />
    <glyph glyph-name="T" unicode="T" horiz-adv-x="1033" 
d="M509 0q-52 0 -86.5 36t-34.5 89v933h-242q-53 0 -89.5 37t-36.5 90t36.5 89.5t89.5 36.5h728q52 0 89 -37.5t37 -90.5t-36.5 -89t-89.5 -36h-237v-933q0 -53 -37 -89t-91 -36z" />
    <glyph glyph-name="U" unicode="U" horiz-adv-x="1190" 
d="M347 486q0 -102 71 -174t181 -72q109 0 174 71.5t65 174.5v700q0 53 37 89t90 36t90 -36t37 -89v-707q0 -207 -137.5 -348.5t-353.5 -141.5q-217 0 -362.5 142.5t-145.5 347.5v705q0 53 37 90t90 37t90 -37t37 -90v-698z" />
    <glyph glyph-name="V" unicode="V" horiz-adv-x="1204" 
d="M267 1231l338 -787l335 787q15 35 47 56t69 21q52 0 89 -36t37 -88q0 -25 -11 -50l-451 -1056q-16 -36 -48 -56.5t-69 -20.5q-83 0 -118 77l-452 1056q-10 23 -10 50q0 53 37.5 88.5t90.5 35.5q37 0 69 -21t47 -56z" />
    <glyph glyph-name="W" unicode="W" horiz-adv-x="1768" 
d="M1153 1q-36 1 -67 21t-46 56l-158 367l-157 -367q-16 -36 -48 -56.5t-69 -20.5h-10q-36 1 -67 21t-46 56l-453 1056q-10 23 -10 49q0 52 37.5 89t90.5 37q37 0 69 -21t48 -57l338 -787l138 323l-156 367q-10 23 -10 49q0 52 37.5 89t90.5 37q37 0 69 -21t48 -57l61 -141
l60 141q16 36 48.5 56.5t70.5 20.5q51 0 88 -36.5t37 -87.5q0 -27 -10 -50l-157 -365l140 -325l338 787q16 36 48.5 56.5t70.5 20.5q51 0 88 -36t37 -88q0 -27 -10 -50l-453 -1056q-15 -36 -46.5 -56.5t-69.5 -20.5h-10z" />
    <glyph glyph-name="X" unicode="X" horiz-adv-x="1239" 
d="M1215 1177q0 -49 -31 -83l-394 -442l395 -441q33 -37 33 -84q0 -53 -37.5 -90.5t-90.5 -37.5q-55 0 -95 43l-375 420l-375 -420q-40 -43 -94 -43q-52 0 -90 38t-38 91q0 48 32 83l395 440l-396 443q-31 34 -31 84q0 53 36 91t89 38q58 0 97 -44l375 -420l375 420
q37 43 95 43q53 0 89 -37.5t36 -91.5z" />
    <glyph glyph-name="Y" unicode="Y" horiz-adv-x="1139" 
d="M245 1263l321 -499l320 501q37 43 93 43q52 0 90.5 -37t38.5 -88q0 -45 -32 -87l-383 -582v-389q0 -53 -37 -89t-90 -36t-89.5 36t-36.5 89v388l-388 581q-29 38 -29 83q0 54 37.5 92.5t91.5 38.5q57 0 93 -45z" />
    <glyph glyph-name="Z" unicode="Z" horiz-adv-x="1247" 
d="M75 211l713 846h-609q-53 0 -89.5 37t-36.5 90t38 90t92 37h877q33 -1 60 -19q15 -8 25 -15q43 -37 43 -94q0 -49 -32 -85l-713 -844h635q52 0 88.5 -37t36.5 -90t-36.5 -90t-88.5 -37h-907q-52 0 -89.5 37.5t-37.5 90.5q0 44 31 83z" />
    <glyph glyph-name="bracketleft" unicode="[" 
d="M103 202q-6 0 -9 -1v-101q2 -1 9 -1q19 0 25.5 12.5t6.5 39.5t-6.5 39t-25.5 12zM259 165v-25h-41v-39h48v-24h-78v148h78v-25h-48v-35h41zM101 75q-23 0 -36 2v146q26 4 37 4q34 0 48.5 -18.5t14.5 -57.5q0 -40 -15 -58t-49 -18zM293 225h40l19 -82l20 82h41
q1 -21 3.5 -79.5t2.5 -68.5h-30q0 53 -3 106l-20 -84h-28l-21 84h-1q-2 -70 -2 -106h-28q2 85 7 148zM494 75q-30 0 -42.5 18t-12.5 58t12.5 58t42.5 18t42.5 -18t12.5 -58t-12.5 -58t-42.5 -18zM494 202q-25 0 -25 -51q0 -52 25 -52q15 0 20 12t5 40t-5 39.5t-20 11.5z
M483 508q35 0 49.5 -21t14.5 -44q0 -22 -17 -36t-36 -17q-106 -11 -170 -74q3 8 8.5 21t23 46t35 58t43 46t49.5 21zM142 455q27 0 53.5 -20t44.5 -48t33 -56t22 -48l7 -20q-59 74 -160 74q-25 0 -44 15t-19 38q0 27 16.5 46t46.5 19zM322 607q19 -19 24 -51.5t-1.5 -65.5
t-15.5 -63.5t-18 -49.5l-9 -19q10 96 -62 165q-18 18 -22 41t12 42q19 19 43 20.5t49 -19.5z" />
    <glyph glyph-name="backslash" unicode="\" 
d="M103 202q-6 0 -9 -1v-101q2 -1 9 -1q19 0 25.5 12.5t6.5 39.5t-6.5 39t-25.5 12zM259 165v-25h-41v-39h48v-24h-78v148h78v-25h-48v-35h41zM101 75q-23 0 -36 2v146q26 4 37 4q34 0 48.5 -18.5t14.5 -57.5q0 -40 -15 -58t-49 -18zM293 225h40l19 -82l20 82h41
q1 -21 3.5 -79.5t2.5 -68.5h-30q0 53 -3 106l-20 -84h-28l-21 84h-1q-2 -70 -2 -106h-28q2 85 7 148zM494 75q-30 0 -42.5 18t-12.5 58t12.5 58t42.5 18t42.5 -18t12.5 -58t-12.5 -58t-42.5 -18zM494 202q-25 0 -25 -51q0 -52 25 -52q15 0 20 12t5 40t-5 39.5t-20 11.5z
M483 508q35 0 49.5 -21t14.5 -44q0 -22 -17 -36t-36 -17q-106 -11 -170 -74q3 8 8.5 21t23 46t35 58t43 46t49.5 21zM142 455q27 0 53.5 -20t44.5 -48t33 -56t22 -48l7 -20q-59 74 -160 74q-25 0 -44 15t-19 38q0 27 16.5 46t46.5 19zM322 607q19 -19 24 -51.5t-1.5 -65.5
t-15.5 -63.5t-18 -49.5l-9 -19q10 96 -62 165q-18 18 -22 41t12 42q19 19 43 20.5t49 -19.5z" />
    <glyph glyph-name="bracketright" unicode="]" 
d="M103 202q-6 0 -9 -1v-101q2 -1 9 -1q19 0 25.5 12.5t6.5 39.5t-6.5 39t-25.5 12zM259 165v-25h-41v-39h48v-24h-78v148h78v-25h-48v-35h41zM101 75q-23 0 -36 2v146q26 4 37 4q34 0 48.5 -18.5t14.5 -57.5q0 -40 -15 -58t-49 -18zM293 225h40l19 -82l20 82h41
q1 -21 3.5 -79.5t2.5 -68.5h-30q0 53 -3 106l-20 -84h-28l-21 84h-1q-2 -70 -2 -106h-28q2 85 7 148zM494 75q-30 0 -42.5 18t-12.5 58t12.5 58t42.5 18t42.5 -18t12.5 -58t-12.5 -58t-42.5 -18zM494 202q-25 0 -25 -51q0 -52 25 -52q15 0 20 12t5 40t-5 39.5t-20 11.5z
M483 508q35 0 49.5 -21t14.5 -44q0 -22 -17 -36t-36 -17q-106 -11 -170 -74q3 8 8.5 21t23 46t35 58t43 46t49.5 21zM142 455q27 0 53.5 -20t44.5 -48t33 -56t22 -48l7 -20q-59 74 -160 74q-25 0 -44 15t-19 38q0 27 16.5 46t46.5 19zM322 607q19 -19 24 -51.5t-1.5 -65.5
t-15.5 -63.5t-18 -49.5l-9 -19q10 96 -62 165q-18 18 -22 41t12 42q19 19 43 20.5t49 -19.5z" />
    <glyph glyph-name="asciicircum" unicode="^" 
d="M103 202q-6 0 -9 -1v-101q2 -1 9 -1q19 0 25.5 12.5t6.5 39.5t-6.5 39t-25.5 12zM259 165v-25h-41v-39h48v-24h-78v148h78v-25h-48v-35h41zM101 75q-23 0 -36 2v146q26 4 37 4q34 0 48.5 -18.5t14.5 -57.5q0 -40 -15 -58t-49 -18zM293 225h40l19 -82l20 82h41
q1 -21 3.5 -79.5t2.5 -68.5h-30q0 53 -3 106l-20 -84h-28l-21 84h-1q-2 -70 -2 -106h-28q2 85 7 148zM494 75q-30 0 -42.5 18t-12.5 58t12.5 58t42.5 18t42.5 -18t12.5 -58t-12.5 -58t-42.5 -18zM494 202q-25 0 -25 -51q0 -52 25 -52q15 0 20 12t5 40t-5 39.5t-20 11.5z
M483 508q35 0 49.5 -21t14.5 -44q0 -22 -17 -36t-36 -17q-106 -11 -170 -74q3 8 8.5 21t23 46t35 58t43 46t49.5 21zM142 455q27 0 53.5 -20t44.5 -48t33 -56t22 -48l7 -20q-59 74 -160 74q-25 0 -44 15t-19 38q0 27 16.5 46t46.5 19zM322 607q19 -19 24 -51.5t-1.5 -65.5
t-15.5 -63.5t-18 -49.5l-9 -19q10 96 -62 165q-18 18 -22 41t12 42q19 19 43 20.5t49 -19.5z" />
    <glyph glyph-name="underscore" unicode="_" 
d="M103 202q-6 0 -9 -1v-101q2 -1 9 -1q19 0 25.5 12.5t6.5 39.5t-6.5 39t-25.5 12zM259 165v-25h-41v-39h48v-24h-78v148h78v-25h-48v-35h41zM101 75q-23 0 -36 2v146q26 4 37 4q34 0 48.5 -18.5t14.5 -57.5q0 -40 -15 -58t-49 -18zM293 225h40l19 -82l20 82h41
q1 -21 3.5 -79.5t2.5 -68.5h-30q0 53 -3 106l-20 -84h-28l-21 84h-1q-2 -70 -2 -106h-28q2 85 7 148zM494 75q-30 0 -42.5 18t-12.5 58t12.5 58t42.5 18t42.5 -18t12.5 -58t-12.5 -58t-42.5 -18zM494 202q-25 0 -25 -51q0 -52 25 -52q15 0 20 12t5 40t-5 39.5t-20 11.5z
M483 508q35 0 49.5 -21t14.5 -44q0 -22 -17 -36t-36 -17q-106 -11 -170 -74q3 8 8.5 21t23 46t35 58t43 46t49.5 21zM142 455q27 0 53.5 -20t44.5 -48t33 -56t22 -48l7 -20q-59 74 -160 74q-25 0 -44 15t-19 38q0 27 16.5 46t46.5 19zM322 607q19 -19 24 -51.5t-1.5 -65.5
t-15.5 -63.5t-18 -49.5l-9 -19q10 96 -62 165q-18 18 -22 41t12 42q19 19 43 20.5t49 -19.5z" />
    <glyph glyph-name="grave" unicode="`" 
d="M103 202q-6 0 -9 -1v-101q2 -1 9 -1q19 0 25.5 12.5t6.5 39.5t-6.5 39t-25.5 12zM259 165v-25h-41v-39h48v-24h-78v148h78v-25h-48v-35h41zM101 75q-23 0 -36 2v146q26 4 37 4q34 0 48.5 -18.5t14.5 -57.5q0 -40 -15 -58t-49 -18zM293 225h40l19 -82l20 82h41
q1 -21 3.5 -79.5t2.5 -68.5h-30q0 53 -3 106l-20 -84h-28l-21 84h-1q-2 -70 -2 -106h-28q2 85 7 148zM494 75q-30 0 -42.5 18t-12.5 58t12.5 58t42.5 18t42.5 -18t12.5 -58t-12.5 -58t-42.5 -18zM494 202q-25 0 -25 -51q0 -52 25 -52q15 0 20 12t5 40t-5 39.5t-20 11.5z
M483 508q35 0 49.5 -21t14.5 -44q0 -22 -17 -36t-36 -17q-106 -11 -170 -74q3 8 8.5 21t23 46t35 58t43 46t49.5 21zM142 455q27 0 53.5 -20t44.5 -48t33 -56t22 -48l7 -20q-59 74 -160 74q-25 0 -44 15t-19 38q0 27 16.5 46t46.5 19zM322 607q19 -19 24 -51.5t-1.5 -65.5
t-15.5 -63.5t-18 -49.5l-9 -19q10 96 -62 165q-18 18 -22 41t12 42q19 19 43 20.5t49 -19.5z" />
    <glyph glyph-name="a" unicode="a" horiz-adv-x="1121" 
d="M532 965q131 0 242.5 -64.5t177.5 -175.5t68 -242v-353q0 -54 -37.5 -92t-92.5 -38q-38 0 -67 19t-44 50q-119 -80 -247 -80q-131 0 -243.5 65.5t-178.5 177.5t-66 244t66 245t178.5 178.5t243.5 65.5zM532 244q98 0 166 67.5t68 164.5t-68 165t-166 68q-96 0 -164.5 -68
t-68.5 -165q0 -96 68.5 -164t164.5 -68z" />
    <glyph glyph-name="b" unicode="b" horiz-adv-x="1124" 
d="M593 965q99 0 189.5 -39t155.5 -104.5t103.5 -156t38.5 -189.5q0 -132 -65 -244t-177.5 -177.5t-244.5 -65.5q-138 0 -253 70q-38 -59 -109 -59q-53 0 -90 36t-37 89v1061q0 53 37 89t90 36t90 -36t37 -89v-282q109 61 235 61zM593 244q97 0 165 67.5t68 164.5
q0 98 -68 165.5t-165 67.5q-96 0 -165 -68t-69 -165q0 -96 69 -164t165 -68z" />
    <glyph glyph-name="c" unicode="c" horiz-adv-x="969" 
d="M683 658q-67 51 -149 51q-94 0 -162 -69t-68 -164q0 -94 68 -161.5t163 -67.5q84 0 148 50q68 53 115 53q50 0 88.5 -38t38.5 -87q0 -58 -46 -104q-63 -64 -151 -98t-185 -34q-207 0 -353 140.5t-146 344.5q0 135 67 248.5t182 179t250 65.5q98 0 185.5 -34t150.5 -98
q46 -47 46 -106q0 -49 -38 -87t-88 -38t-116 54z" />
    <glyph glyph-name="d" unicode="d" horiz-adv-x="1124" 
d="M532 965q123 0 234 -60v281q0 53 37 89t90 36t90 -36t37 -89v-1061q0 -53 -37 -89t-90 -36q-73 0 -109 59q-115 -70 -252 -70q-131 0 -243.5 65.5t-178.5 177.5t-66 244t66 245t178.5 178.5t243.5 65.5zM766 485q-4 95 -71.5 159.5t-162.5 64.5q-96 0 -164.5 -68
t-68.5 -165q0 -96 68.5 -164t164.5 -68q98 0 166 67.5t68 164.5v9z" />
    <glyph glyph-name="e" unicode="e" horiz-adv-x="1071" 
d="M327 362q30 -60 86 -95t123 -35q50 0 79 11t55 33q40 32 84 32q22 0 43 -8q35 -12 58 -48t23 -75q0 -57 -50 -97q-107 -91 -292 -91q-202 0 -347 143t-145 344q0 133 66.5 246t179.5 178t246 65q131 0 243.5 -64.5t179 -175.5t68.5 -242q0 -54 -35 -87.5t-90 -33.5h-575z
M766 573q-27 68 -87.5 109t-138.5 41q-76 0 -135.5 -42t-85.5 -108h447z" />
    <glyph glyph-name="f" unicode="f" horiz-adv-x="653" 
d="M179 128v581h-38q-52 0 -89.5 37.5t-37.5 90.5t37 89.5t90 36.5h38v55q4 150 100 236t240 86q56 0 92.5 -32.5t36.5 -86.5q0 -52 -37.5 -88.5t-91.5 -36.5q-36 0 -62 -26t-25 -63v-44h68q55 0 91.5 -36.5t36.5 -89.5q0 -54 -37 -91t-91 -37h-68v-581q0 -54 -36.5 -91
t-89.5 -37t-90 37t-37 91z" />
    <glyph glyph-name="g" unicode="g" horiz-adv-x="1121" 
d="M1019 840v-334q0 -5 0.5 -15t0.5 -15t-0.5 -15.5t-0.5 -15.5v-357q-3 -204 -145.5 -344t-346.5 -140q-98 0 -186 34t-150 98q-46 46 -46 104q0 50 38.5 88t87.5 38q50 0 116 -54q65 -50 151 -50q80 0 141 51.5t80 130.5q-107 -55 -227 -55q-131 0 -243.5 65.5
t-178.5 177.5t-66 244t66 245t178.5 178.5t243.5 65.5q132 0 247 -68q15 31 45.5 49.5t67.5 18.5q53 0 90 -36t37 -89zM765 453v47q-9 89 -75.5 149t-157.5 60q-96 0 -164.5 -68t-68.5 -165q0 -96 68.5 -164t164.5 -68q91 0 157.5 60t75.5 149z" />
    <glyph glyph-name="h" unicode="h" horiz-adv-x="1080" 
d="M356 126q0 -52 -37 -89t-89 -37q-54 0 -91 36.5t-37 89.5v1057q0 54 37.5 91t90.5 37t89.5 -37t36.5 -91v-304q109 86 223 86q118 0 211.5 -64t144.5 -172t51 -239v-368q0 -52 -37 -88t-90 -36q-52 0 -89 36t-37 88v368q-2 97 -51 160t-132 63q-86 0 -140 -61t-54 -155
v-371z" />
    <glyph glyph-name="i" unicode="i" horiz-adv-x="458" 
d="M366 1187q0 -56 -41 -96t-97 -40t-96 40t-40 96q0 57 40 96.5t96 39.5q57 0 97.5 -39.5t40.5 -96.5zM102 840q0 52 38 89t92 37q52 0 88 -36.5t36 -89.5v-714q0 -52 -37 -89t-89 -37q-53 0 -90.5 37t-37.5 89v714z" />
    <glyph glyph-name="j" unicode="j" horiz-adv-x="461" 
d="M92 1187q0 57 40 96.5t96 39.5q57 0 97.5 -39.5t40.5 -96.5q0 -56 -41 -96t-97 -40t-96 40t-40 96zM17 -43q35 0 60 23.5t27 58.5v797q0 54 37.5 91t90.5 37t89.5 -37t36.5 -91v-793q0 -7 -1 -10q-5 -137 -100 -232.5t-231 -98.5q-2 0 -5 -0.5t-4 -0.5h-1q-53 1 -90 37.5
t-37 90.5q0 53 37 90.5t90 37.5h1z" />
    <glyph glyph-name="k" unicode="k" horiz-adv-x="968" 
d="M844 911q37 -37 37 -88q0 -52 -38 -87l-196 -186l229 -352q21 -33 21 -71q0 -52 -37.5 -89.5t-89.5 -37.5q-67 0 -104 57l-207 315l-104 -99v-149q0 -52 -36.5 -88t-87.5 -36q-53 0 -91 36t-38 88v1063q0 52 38 88t91 36t89 -36t36 -88v-581l316 312q34 34 82 34
q51 0 90 -40v-1z" />
    <glyph glyph-name="l" unicode="l" horiz-adv-x="458" 
d="M102 125v1061q0 53 37 89t90 36t90 -36t37 -89v-1061q0 -53 -37 -89t-90 -36t-90 36t-37 89z" />
    <glyph glyph-name="m" unicode="m" horiz-adv-x="1515" 
d="M891 575v-451q0 -52 -36 -88t-88 -36q-53 0 -91.5 36t-38.5 88v454q-2 61 -32.5 97.5t-88.5 36.5t-107.5 -37.5t-52.5 -91.5v-5v-2q0 -2 0.5 -4.5t0.5 -5.5q0 -6 -1 -10v-430q0 -52 -37 -89t-89 -37q-53 0 -90.5 37t-37.5 89v714q0 52 38 89t92 37q37 0 67.5 -19.5
t44.5 -52.5q84 73 187 73q153 0 253 -108q131 108 289 108q160 0 256.5 -114t96.5 -282v-447q0 -52 -35.5 -88t-87.5 -36q-53 0 -92 36t-39 88v454q-2 61 -32.5 97.5t-87.5 36.5q-60 0 -110.5 -41t-50.5 -96z" />
    <glyph glyph-name="n" unicode="n" horiz-adv-x="1079" 
d="M232 966q42 0 75 -25.5t44 -64.5q110 89 228 89q178 0 291.5 -136t115.5 -337v-370q0 -52 -37 -88t-90 -36q-52 0 -89 36t-37 88v368q-2 97 -51 160t-132 63q-84 0 -138 -58.5t-56 -148.5v-380q0 -52 -37 -89t-89 -37q-53 0 -90.5 37t-37.5 89v714q0 52 38 89t92 37z" />
    <glyph glyph-name="o" unicode="o" horiz-adv-x="1063" 
d="M532 965q132 0 244.5 -65.5t178 -178.5t65.5 -245t-65.5 -244t-178 -177.5t-244.5 -65.5q-131 0 -243.5 65.5t-178.5 177.5t-66 244t66 245t178.5 178.5t243.5 65.5zM532 244q98 0 166 67.5t68 164.5t-68 165t-166 68q-96 0 -164.5 -68t-68.5 -165q0 -96 68.5 -164
t164.5 -68z" />
    <glyph glyph-name="p" unicode="p" horiz-adv-x="1122" 
d="M356 -221q0 -53 -37 -89t-90 -36t-90 36t-37 89v1061q0 53 37 89t90 36q36 0 66.5 -19t47.5 -50q114 69 248 69q99 0 189.5 -39t155.5 -104.5t103.5 -156t38.5 -189.5q0 -132 -65 -244t-177.5 -177.5t-244.5 -65.5q-127 0 -235 60v-270zM591 244q97 0 165 67.5t68 164.5
q0 98 -68 165.5t-165 67.5q-96 0 -165 -68t-69 -165q0 -96 69 -164t165 -68z" />
    <glyph glyph-name="q" unicode="q" horiz-adv-x="1121" 
d="M1019 840v-334q0 -4 0.5 -12t0.5 -11v-697q0 -14 -3 -26q-6 -45 -40.5 -74.5t-81.5 -31.5h-5q-48 0 -84 33q-41 36 -41 92v268q-110 -58 -233 -58q-131 0 -243.5 65.5t-178.5 177.5t-66 244t66 245t178.5 178.5t243.5 65.5q132 0 247 -68q15 31 45.5 49.5t67.5 18.5
q53 0 90 -36t37 -89zM765 500q-9 89 -75.5 149t-157.5 60q-96 0 -164.5 -68t-68.5 -165q0 -96 68.5 -164t164.5 -68q91 0 157.5 59.5t75.5 148.5v48z" />
    <glyph glyph-name="r" unicode="r" horiz-adv-x="770" 
d="M233 966q39 0 70 -21.5t45 -55.5q121 75 261 76h7q61 0 97 -35t36 -91q0 -54 -39 -90t-94 -36h-5q-104 -2 -179 -78.5t-75 -182.5v-326q0 -52 -36.5 -89t-89.5 -37t-90.5 37t-37.5 89v714q0 52 38 89t92 37z" />
    <glyph glyph-name="s" unicode="s" horiz-adv-x="818" 
d="M60 671q0 128 103 212.5t247 84.5q44 0 95.5 -11t103 -32t86 -59.5t34.5 -87.5q0 -44 -34 -76t-78 -32q-22 0 -39 8q-20 8 -47 26.5t-51 29t-52 10.5q-113 0 -113 -66q0 -32 36 -51.5t121 -46.5q53 -17 91 -32.5t79 -40.5t66 -54t41.5 -71t16.5 -94q0 -127 -99.5 -213
t-252.5 -86q-105 0 -208 44t-152 131q-20 37 -20 70q0 48 34.5 80t82.5 32q66 0 114 -58q33 -41 65 -59t82 -18q44 0 76 17t32 48q0 15 -7.5 28t-15.5 21t-25.5 16.5t-25 11.5t-26.5 9l-20 6q-62 22 -102.5 39t-90 45t-78.5 57t-49 71t-20 91z" />
    <glyph glyph-name="t" unicode="t" horiz-adv-x="643" 
d="M191 963v223q0 53 37 89t90 36t90 -36t37 -89v-223h57q54 0 90.5 -36.5t36.5 -89.5q0 -54 -36.5 -91t-90.5 -37h-57v-584q0 -53 -37 -89t-90 -36t-90 36t-37 89v584h-48q-53 0 -90 37.5t-37 90.5t37 89.5t90 36.5h48z" />
    <glyph glyph-name="u" unicode="u" horiz-adv-x="1078" 
d="M345 478q0 -99 49.5 -163t134.5 -64t139.5 61t54.5 155v371q0 53 36.5 89.5t89.5 36.5q52 0 89.5 -37t37.5 -89v-714q0 -52 -38 -89t-91 -37q-43 0 -76 25.5t-44 64.5q-110 -89 -227 -89q-178 0 -293 137.5t-115 339.5v366q0 52 37 88t90 36t89.5 -36t36.5 -88v-364z" />
    <glyph glyph-name="v" unicode="v" horiz-adv-x="957" 
d="M390 37q-17 15 -28 39l-328 709q-11 23 -11 53q0 53 36.5 90.5t88.5 37.5q36 0 68 -20.5t48 -56.5l215 -478l212 478q16 35 48 55.5t68 20.5q52 0 90 -37.5t38 -89.5q0 -28 -12 -54l-327 -708q-13 -25 -31 -42q-14 -14 -34 -23q-15 -7 -34 -10q-5 -1 -17 -1h-4
q-2 0 -7 0.5t-7 0.5q-22 4 -35 10q-19 8 -37 26z" />
    <glyph glyph-name="w" unicode="w" horiz-adv-x="1363" 
d="M887 411l213 478q15 35 46.5 55.5t68.5 20.5q52 0 89.5 -37.5t37.5 -89.5q0 -31 -11 -54l-327 -708q-13 -25 -31 -42q-13 -13 -33 -23q-16 -7 -36 -10q-2 0 -7 -0.5t-8 -0.5h-7q-1 0 -5.5 0.5t-6.5 0.5q-20 4 -34 10q-20 9 -34 23q-20 17 -31 42l-87 187l-86 -187
q-13 -25 -31 -42q-14 -14 -33 -23q-17 -8 -37 -10q-5 -1 -15 -1h-5q-2 0 -6 0.5t-7 0.5q-22 4 -35 10q-19 8 -37 26q-15 14 -27 39l-329 709q-11 23 -11 53q0 53 37 90.5t89 37.5q36 0 67.5 -20.5t47.5 -56.5l215 -478l66 148l-105 226q-12 25 -12 53q0 52 37.5 90t89.5 38
q36 0 68 -20.5t48 -56.5l10 -24l10 24q16 35 48 55.5t68 20.5q52 0 90 -37.5t38 -89.5q0 -28 -12 -54l-105 -226z" />
    <glyph glyph-name="x" unicode="x" horiz-adv-x="1022" 
d="M951 217q37 -37 37 -91q0 -53 -37 -89.5t-90 -36.5q-52 0 -89 37l-260 260l-260 -261q-38 -36 -91 -36t-91 35t-38 88q0 51 37 89l264 265l-275 277q-35 35 -35 87q0 53 37.5 90.5t90.5 37.5q52 0 89 -38l272 -274l269 272q37 39 92 39q53 0 89.5 -37.5t36.5 -90.5
q0 -52 -33 -86l-275 -277z" />
    <glyph glyph-name="y" unicode="y" horiz-adv-x="957" 
d="M190 -249q0 31 15 64l137 304l-308 666q-11 23 -11 53q0 53 36.5 90.5t88.5 37.5q36 0 68 -20.5t48 -56.5l213 -473l214 473q16 35 48 55.5t68 20.5q52 0 90 -37.5t38 -89.5q0 -28 -12 -54l-498 -1071q-16 -35 -48 -55t-69 -20q-50 0 -84 32t-34 81z" />
    <glyph glyph-name="z" unicode="z" horiz-adv-x="1046" 
d="M971 887l4 -13q5 -17 5 -33q0 -54 -41 -93l-493 -501h430q53 0 89.5 -34.5t36.5 -86.5q0 -53 -36.5 -89.5t-89.5 -36.5h-705q-35 0 -64.5 18t-44.5 48q-17 28 -17 60q0 50 37 87l492 502h-396q-53 0 -89 36.5t-36 89.5q0 52 36 88t89 36h676q10 0 24 -2q34 -4 66 -35
q17 -19 26 -38q0 -2 1 -3z" />
    <glyph glyph-name="braceleft" unicode="{" 
d="M103 202q-6 0 -9 -1v-101q2 -1 9 -1q19 0 25.5 12.5t6.5 39.5t-6.5 39t-25.5 12zM259 165v-25h-41v-39h48v-24h-78v148h78v-25h-48v-35h41zM101 75q-23 0 -36 2v146q26 4 37 4q34 0 48.5 -18.5t14.5 -57.5q0 -40 -15 -58t-49 -18zM293 225h40l19 -82l20 82h41
q1 -21 3.5 -79.5t2.5 -68.5h-30q0 53 -3 106l-20 -84h-28l-21 84h-1q-2 -70 -2 -106h-28q2 85 7 148zM494 75q-30 0 -42.5 18t-12.5 58t12.5 58t42.5 18t42.5 -18t12.5 -58t-12.5 -58t-42.5 -18zM494 202q-25 0 -25 -51q0 -52 25 -52q15 0 20 12t5 40t-5 39.5t-20 11.5z
M483 508q35 0 49.5 -21t14.5 -44q0 -22 -17 -36t-36 -17q-106 -11 -170 -74q3 8 8.5 21t23 46t35 58t43 46t49.5 21zM142 455q27 0 53.5 -20t44.5 -48t33 -56t22 -48l7 -20q-59 74 -160 74q-25 0 -44 15t-19 38q0 27 16.5 46t46.5 19zM322 607q19 -19 24 -51.5t-1.5 -65.5
t-15.5 -63.5t-18 -49.5l-9 -19q10 96 -62 165q-18 18 -22 41t12 42q19 19 43 20.5t49 -19.5z" />
    <glyph glyph-name="bar" unicode="|" 
d="M103 202q-6 0 -9 -1v-101q2 -1 9 -1q19 0 25.5 12.5t6.5 39.5t-6.5 39t-25.5 12zM259 165v-25h-41v-39h48v-24h-78v148h78v-25h-48v-35h41zM101 75q-23 0 -36 2v146q26 4 37 4q34 0 48.5 -18.5t14.5 -57.5q0 -40 -15 -58t-49 -18zM293 225h40l19 -82l20 82h41
q1 -21 3.5 -79.5t2.5 -68.5h-30q0 53 -3 106l-20 -84h-28l-21 84h-1q-2 -70 -2 -106h-28q2 85 7 148zM494 75q-30 0 -42.5 18t-12.5 58t12.5 58t42.5 18t42.5 -18t12.5 -58t-12.5 -58t-42.5 -18zM494 202q-25 0 -25 -51q0 -52 25 -52q15 0 20 12t5 40t-5 39.5t-20 11.5z
M483 508q35 0 49.5 -21t14.5 -44q0 -22 -17 -36t-36 -17q-106 -11 -170 -74q3 8 8.5 21t23 46t35 58t43 46t49.5 21zM142 455q27 0 53.5 -20t44.5 -48t33 -56t22 -48l7 -20q-59 74 -160 74q-25 0 -44 15t-19 38q0 27 16.5 46t46.5 19zM322 607q19 -19 24 -51.5t-1.5 -65.5
t-15.5 -63.5t-18 -49.5l-9 -19q10 96 -62 165q-18 18 -22 41t12 42q19 19 43 20.5t49 -19.5z" />
    <glyph glyph-name="braceright" unicode="}" 
d="M103 202q-6 0 -9 -1v-101q2 -1 9 -1q19 0 25.5 12.5t6.5 39.5t-6.5 39t-25.5 12zM259 165v-25h-41v-39h48v-24h-78v148h78v-25h-48v-35h41zM101 75q-23 0 -36 2v146q26 4 37 4q34 0 48.5 -18.5t14.5 -57.5q0 -40 -15 -58t-49 -18zM293 225h40l19 -82l20 82h41
q1 -21 3.5 -79.5t2.5 -68.5h-30q0 53 -3 106l-20 -84h-28l-21 84h-1q-2 -70 -2 -106h-28q2 85 7 148zM494 75q-30 0 -42.5 18t-12.5 58t12.5 58t42.5 18t42.5 -18t12.5 -58t-12.5 -58t-42.5 -18zM494 202q-25 0 -25 -51q0 -52 25 -52q15 0 20 12t5 40t-5 39.5t-20 11.5z
M483 508q35 0 49.5 -21t14.5 -44q0 -22 -17 -36t-36 -17q-106 -11 -170 -74q3 8 8.5 21t23 46t35 58t43 46t49.5 21zM142 455q27 0 53.5 -20t44.5 -48t33 -56t22 -48l7 -20q-59 74 -160 74q-25 0 -44 15t-19 38q0 27 16.5 46t46.5 19zM322 607q19 -19 24 -51.5t-1.5 -65.5
t-15.5 -63.5t-18 -49.5l-9 -19q10 96 -62 165q-18 18 -22 41t12 42q19 19 43 20.5t49 -19.5z" />
    <glyph glyph-name="asciitilde" unicode="~" 
d="M103 202q-6 0 -9 -1v-101q2 -1 9 -1q19 0 25.5 12.5t6.5 39.5t-6.5 39t-25.5 12zM259 165v-25h-41v-39h48v-24h-78v148h78v-25h-48v-35h41zM101 75q-23 0 -36 2v146q26 4 37 4q34 0 48.5 -18.5t14.5 -57.5q0 -40 -15 -58t-49 -18zM293 225h40l19 -82l20 82h41
q1 -21 3.5 -79.5t2.5 -68.5h-30q0 53 -3 106l-20 -84h-28l-21 84h-1q-2 -70 -2 -106h-28q2 85 7 148zM494 75q-30 0 -42.5 18t-12.5 58t12.5 58t42.5 18t42.5 -18t12.5 -58t-12.5 -58t-42.5 -18zM494 202q-25 0 -25 -51q0 -52 25 -52q15 0 20 12t5 40t-5 39.5t-20 11.5z
M483 508q35 0 49.5 -21t14.5 -44q0 -22 -17 -36t-36 -17q-106 -11 -170 -74q3 8 8.5 21t23 46t35 58t43 46t49.5 21zM142 455q27 0 53.5 -20t44.5 -48t33 -56t22 -48l7 -20q-59 74 -160 74q-25 0 -44 15t-19 38q0 27 16.5 46t46.5 19zM322 607q19 -19 24 -51.5t-1.5 -65.5
t-15.5 -63.5t-18 -49.5l-9 -19q10 96 -62 165q-18 18 -22 41t12 42q19 19 43 20.5t49 -19.5z" />
    </font>
</defs>
</svg>
