<?xml version="1.0" standalone="no"?>
<!DOCTYPE svg PUBLIC "-//W3C//DTD SVG 1.1//EN" "http://www.w3.org/Graphics/SVG/1.1/DTD/svg11.dtd" >
<svg xmlns="http://www.w3.org/2000/svg" xmlns:xlink="http://www.w3.org/1999/xlink" version="1.1">
<metadata>
Created by FontForge 20170731 at Wed Nov 30 13:03:23 2016
 By Aleksey,,,
Copyright (c) 2011 by Monocromo s.n.c. All rights reserved.
</metadata>
<defs>
<font id="Opificio-BoldRounded" horiz-adv-x="700" >
  <font-face 
    font-family="Opificio"
    font-weight="700"
    font-stretch="normal"
    units-per-em="1000"
    panose-1="2 0 8 6 2 0 0 2 0 4"
    ascent="800"
    descent="-200"
    x-height="500"
    cap-height="700"
    bbox="-103 -290 1014 1001"
    underline-thickness="50"
    underline-position="-150"
    unicode-range="U+000D-FB02"
  />
<missing-glyph horiz-adv-x="702" 
d="M553 551v-410l-52 -52l-51 51v238l-98 -98l-98 99v-238l-52 -52l-51 52v408l40 40l162 -162l162 162zM252 142v239l-49 48v-336zM551 142v406l-160 -162l-200 200l-36 -36l197 -203v-64l149 149v-340zM50 700h602v-700h-602v700zM70 20h562v660h-562v-660z" />
    <glyph glyph-name="AE" unicode="AE" horiz-adv-x="780" 
d="M740 640q0 -23 -17 -41.5t-42 -18.5h-305v-210h240q25 0 42.5 -18t17.5 -42q0 -23 -17.5 -41t-42.5 -18h-240v-131h305q25 0 42 -18.5t17 -41.5t-17 -41.5t-42 -18.5h-365q-25 0 -42.5 17.5t-17.5 42.5v171h-79l-61 -190q-6 -18 -22 -29.5t-33 -11.5q-24 0 -42.5 16
t-18.5 42q0 9 3 21l182 567q7 23 27.5 38.5t43.5 15.5h425q25 0 42 -18.5t17 -41.5zM213 330h43v164z" />
    <glyph glyph-name="ae" unicode="ae" horiz-adv-x="1044" 
d="M591 243q1 -31 14 -58t34 -47t49 -31.5t59 -11.5q50 0 77.5 14.5t45 32.5t30 32.5t33.5 14.5q20 0 38.5 -16t18.5 -41q0 -21 -19 -47.5t-51.5 -50t-77 -39.5t-95.5 -16q-46 0 -87.5 14t-75.5 39q-8 -14 -21.5 -23t-30.5 -9q-24 0 -38 14t-17 25q-72 -60 -159 -60
q-62 0 -112.5 21t-86 58t-55 86.5t-19.5 106.5t21.5 106.5t58.5 86t86.5 58t106.5 21.5t106.5 -21.5t85.5 -58.5q10 -9 22 -24q38 48 93.5 76t121.5 28q47 0 87 -13.5t71.5 -36.5t55 -55t38.5 -69q13 -33 15 -56q0 -21 -15 -35.5t-36 -14.5h-372zM162 251q0 -32 12.5 -60.5
t33.5 -49.5t49.5 -33.5t60.5 -12.5t60.5 11.5t49.5 32.5t33.5 49.5t12.5 62.5q0 32 -12.5 60.5t-33.5 49.5t-49.5 33.5t-60.5 12.5t-60.5 -12.5t-49.5 -33.5t-33.5 -49.5t-12.5 -60.5zM879 344q-38 65 -132 65q-48 0 -81.5 -17t-52.5 -48h266z" />
    <glyph glyph-name="OE" unicode="OE" horiz-adv-x="966" 
d="M866 700q25 0 42.5 -17.5t17.5 -42.5t-17.5 -42.5t-42.5 -17.5h-304v-210h240q25 0 42.5 -17.5t17.5 -42.5t-17.5 -42t-42.5 -17h-240v-131h304q25 0 42.5 -17.5t17.5 -42.5t-17.5 -42.5t-42.5 -17.5h-454q-76 0 -143.5 26t-118.5 72.5t-80.5 110.5t-29.5 141
q0 76 29.5 140.5t80.5 111t118.5 72.5t143.5 26h454zM412 120h15t15 1v457q-8 1 -15 1h-15q-52 0 -97.5 -16.5t-80 -46.5t-54.5 -72.5t-20 -93.5q0 -52 20 -94.5t54.5 -72.5t80 -46.5t97.5 -16.5z" />
    <glyph glyph-name="oe" unicode="oe" horiz-adv-x="1044" 
d="M591 243q1 -31 14 -58t34 -47t49 -31.5t59 -11.5q50 0 77.5 14.5t45 32.5t30 32.5t33.5 14.5q20 0 38.5 -16t18.5 -41q0 -21 -19 -47.5t-51.5 -50t-77 -39.5t-95.5 -16q-66 0 -121.5 28t-93.5 76q-11 -14 -22 -25q-36 -36 -85.5 -57.5t-106.5 -21.5t-106.5 21.5t-86.5 58
t-58.5 86t-21.5 106.5t21.5 106.5t58.5 86t86.5 58t106.5 21.5t106.5 -21.5t85.5 -58.5q10 -9 22 -24q38 48 93.5 76t121.5 28q47 0 87 -13.5t71.5 -36.5t55 -55t38.5 -69q13 -33 15 -56q0 -21 -15 -35.5t-36 -14.5h-372zM162 251q0 -32 12.5 -60.5t33.5 -49.5t49.5 -33.5
t60.5 -12.5t60.5 12.5t49.5 33.5t33.5 49.5t12.5 60.5v8q-1 14 -4.5 26.5t-8.5 25.5q-17 42 -56 69t-87 27q-32 0 -60.5 -12.5t-49.5 -33.5t-33.5 -49.5t-12.5 -60.5zM879 344q-38 65 -132 65q-48 0 -81.5 -17t-52.5 -48h266z" />
    <glyph glyph-name="fi" unicode="fi" horiz-adv-x="479" 
d="M296 306h-60v-247q0 -25 -17 -42t-42 -17t-42 17t-17 42v247q-24 0 -41 17t-17 41t17 41t41 17v152q0 30 11.5 57t31.5 47.5t47 32t58 11.5q30 0 57 -11t47 -30.5t32 -45.5t12 -56q0 -32 -19.5 -47t-39.5 -15q-21 0 -40 15t-19 42q0 12 -8.5 21t-21.5 9t-21.5 -9
t-8.5 -21v-152h120q24 0 41 -17t17 -41v-305q0 -25 -17 -42t-42 -17t-42 17t-17 42v247z" />
    <glyph glyph-name="fl" unicode="fl" horiz-adv-x="499" 
d="M236 422h10q24 0 41 -17t17 -41t-17 -41t-41 -17h-10v-247q0 -25 -17 -42t-42 -17t-42 17t-17 42v247q-24 0 -41 17t-17 41t17 41t41 17v142q0 33 12.5 61.5t34 50t50 34t61.5 12.5t61.5 -12.5t50 -34t34 -50t12.5 -61.5v-505q0 -25 -17 -42t-42 -17t-42 17t-17 42v511
q0 17 -11.5 28.5t-28.5 11.5t-28.5 -11.5t-11.5 -28.5v-148z" />
    <glyph glyph-name=".notdef" horiz-adv-x="702" 
d="M553 551v-410l-52 -52l-51 51v238l-98 -98l-98 99v-238l-52 -52l-51 52v408l40 40l162 -162l162 162zM252 142v239l-49 48v-336zM551 142v406l-160 -162l-200 200l-36 -36l197 -203v-64l149 149v-340zM50 700h602v-700h-602v700zM70 20h562v660h-562v-660z" />
    <glyph glyph-name=".null" horiz-adv-x="0" 
 />
    <glyph glyph-name=".null" horiz-adv-x="0" 
 />
    <glyph glyph-name="nonmarkingreturn" unicode="&#xd;" horiz-adv-x="426" 
 />
    <glyph glyph-name="space" unicode=" " horiz-adv-x="290" 
 />
    <glyph glyph-name="exclam" unicode="!" horiz-adv-x="400" 
d="M229 64q0 -27 -18.5 -45.5t-46.5 -18.5q-27 0 -45.5 18.5t-18.5 45.5q0 28 18.5 46.5t45.5 18.5q28 0 46.5 -18.5t18.5 -46.5zM107 642q0 24 17 41t41 17t41 -17t17 -41v-424q0 -24 -17 -41t-41 -17t-41 17t-17 41v424z" />
    <glyph glyph-name="quotedbl" unicode="&#x22;" horiz-adv-x="400" 
d="M170 651q0 20 14 34.5t34 14.5t34.5 -14.5t14.5 -34.5l-15 -117q-2 -14 -11 -24t-23 -10t-23 10t-11 24zM40 651q0 20 14 34.5t34 14.5t34.5 -14.5t14.5 -34.5l-15 -117q-2 -14 -11 -24t-23 -10t-23 10t-11 24z" />
    <glyph glyph-name="numbersign" unicode="#" horiz-adv-x="650" 
d="M269 660q5 18 20 29t33 11q23 0 39 -16.5t16 -38.5q0 -5 -2 -15l-37 -129h76l45 159q5 18 20 29t33 11q23 0 39 -16.5t16 -38.5q0 -5 -2 -15l-37 -129h15q24 0 41 -17t17 -41t-17 -41t-41 -17h-48l-22 -78h25q24 0 41 -17t17 -41t-17 -41t-41 -17h-58l-42 -151
q-5 -18 -20 -29t-33 -11q-23 0 -39 16.5t-16 38.5q0 5 2 15l34 121h-76l-42 -151q-5 -18 -20 -29t-33 -11q-23 0 -39 16.5t-16 38.5q0 5 2 15l34 121h-18q-24 0 -41 17t-17 41t17 41t41 17h51l22 78h-28q-24 0 -41 17t-17 41t17 41t41 17h61zM283 307h76l22 78h-76z" />
    <glyph glyph-name="percent" unicode="%" 
d="M160 635q0 28 18.5 46.5t45.5 18.5q28 0 46 -18.5t18 -46.5q0 -27 -18 -45.5t-46 -18.5q-27 0 -45.5 18.5t-18.5 45.5zM448 64q0 28 18.5 46.5t45.5 18.5q28 0 46 -18.5t18 -46.5q0 -27 -18 -45.5t-46 -18.5q-27 0 -45.5 18.5t-18.5 45.5zM406 660q6 19 21 29.5t34 10.5
q25 0 42 -17t17 -41q0 -10 -3 -19l-189 -582q-6 -20 -21 -30.5t-34 -10.5q-26 0 -43 17t-17 41q0 10 3 19z" />
    <glyph glyph-name="ampersand" unicode="&#x26;" 
d="M559 321q18 18 42 18q23 0 40.5 -18t17.5 -41q0 -24 -17 -41l-74 -75l64 -70q8 -8 11.5 -16.5t3.5 -21.5q0 -23 -16 -41t-41 -18q-17 0 -27 5.5t-18 14.5l-59 66l-38 -37q-35 -33 -75.5 -51.5t-85.5 -18.5q-43 0 -85 18t-75 51q-30 30 -45 68t-15 80q0 51 23.5 99
t71.5 87l32 26q-27 32 -42 59t-15 62q0 32 12 60t32.5 48.5t48 32.5t59.5 12t60 -12t48.5 -32.5t32.5 -48.5t12 -60q0 -23 -5.5 -41t-15.5 -33.5t-25.5 -30t-34.5 -30.5l128 -140zM409 169l-133 153l-38 -33q-31 -26 -45 -49.5t-14 -46.5q0 -17 8.5 -33t23.5 -32
q33 -33 77 -33q22 0 42 7.5t37 24.5zM253 527q0 -14 10.5 -27t21.5 -23q13 8 26.5 21.5t13.5 27.5q0 15 -10.5 25.5t-25.5 10.5t-25.5 -10.5t-10.5 -24.5z" />
    <glyph glyph-name="quotesingle" unicode="'" horiz-adv-x="250" 
d="M40 651q0 20 14 34.5t34 14.5t34.5 -14.5t14.5 -34.5l-15 -117q-2 -14 -11 -24t-23 -10t-23 10t-11 24z" />
    <glyph glyph-name="parenleft" unicode="(" horiz-adv-x="390" 
d="M100 607q0 75 22.5 118.5t53.5 65t62 27t49 5.5q22 0 37.5 -15.5t15.5 -37.5q0 -20 -11 -33t-25 -17q-21 -6 -37.5 -12t-27.5 -18t-17 -31.5t-6 -51.5v-608q0 -32 6 -51.5t17 -31.5t27.5 -18t37.5 -12q14 -4 25 -17t11 -33q0 -22 -15.5 -37.5t-37.5 -15.5q-18 0 -49 5.5
t-62 27t-53.5 65t-22.5 118.5v608z" />
    <glyph glyph-name="parenright" unicode=")" horiz-adv-x="390" 
d="M290 -1q0 -75 -22.5 -118.5t-53.5 -65t-62 -27t-49 -5.5q-22 0 -37.5 15.5t-15.5 37.5q0 20 11 33t25 17q21 6 37.5 12t27.5 18t17 31.5t6 51.5v608q0 32 -6 51.5t-17 31.5t-27.5 18t-37.5 12q-14 4 -25 17t-11 33q0 22 15.5 37.5t37.5 15.5q18 0 49 -5.5t62 -27
t53.5 -65t22.5 -118.5v-608z" />
    <glyph glyph-name="asterisk" unicode="*" horiz-adv-x="400" 
d="M189 613l-7 66q0 14 9 23.5t23 9.5t23.5 -9.5t9.5 -23.5l-8 -65l53 39q7 4 16 4q13 0 22.5 -9t9.5 -23q0 -8 -4 -16t-12 -13l-60 -25l60 -26q16 -10 16 -29q0 -14 -10 -23t-23 -9q-9 0 -16 4l-52 39l8 -64q0 -14 -9.5 -23t-23.5 -9t-23 9t-9 23l7 64l-52 -39
q-7 -4 -16 -4q-14 0 -23 10t-9 24q0 18 15 27l60 26l-60 25q-16 10 -16 27q0 14 9.5 24t23.5 10q8 0 15 -4z" />
    <glyph glyph-name="plus" unicode="+" horiz-adv-x="558" 
d="M100 322q0 24 17 41t41 17h62v62q0 24 17 41t41 17t41 -17t17 -41v-62h64q24 0 41 -17t17 -41t-17 -41t-41 -17h-64v-64q0 -24 -17 -41t-41 -17t-41 17t-17 41v64h-62q-24 0 -41 17t-17 41z" />
    <glyph glyph-name="comma" unicode="," horiz-adv-x="250" 
d="M0 -107q0 6 1 11.5t4 14.5l48 142q5 14 18 26t37 12t41 -17t17 -41q0 -7 -2 -15q-1 -4 -2 -7l-48 -143q-6 -17 -19 -29t-37 -12t-41 17t-17 41z" />
    <glyph glyph-name="hyphen" unicode="-" horiz-adv-x="518" 
d="M100 261q0 24 17 41t41 17h202q24 0 41 -17t17 -41t-17 -41t-41 -17h-202q-24 0 -41 17t-17 41z" />
    <glyph glyph-name="period" unicode="." horiz-adv-x="250" 
d="M21 62q0 35 24 59.5t59 24.5t59.5 -24.5t24.5 -59.5t-24.5 -59t-59.5 -24t-59 24t-24 59z" />
    <glyph glyph-name="slash" unicode="/" horiz-adv-x="507" 
d="M293 660q6 19 21 29.5t34 10.5q25 0 42 -17t17 -41q0 -10 -3 -19l-189 -582q-6 -20 -21 -30.5t-34 -10.5q-26 0 -43 17t-17 41q0 10 3 19z" />
    <glyph glyph-name="colon" unicode=":" horiz-adv-x="250" 
d="M37 416q0 35 24 59.5t59 24.5t59.5 -24.5t24.5 -59.5t-24.5 -59t-59.5 -24t-59 24t-24 59zM37 62q0 35 24 59.5t59 24.5t59.5 -24.5t24.5 -59.5t-24.5 -59t-59.5 -24t-59 24t-24 59z" />
    <glyph glyph-name="semicolon" unicode=";" horiz-adv-x="250" 
d="M37 416q0 35 24 59.5t59 24.5t59.5 -24.5t24.5 -59.5t-24.5 -59t-59.5 -24t-59 24t-24 59zM0 -107q0 6 1 11.5t4 14.5l48 142q5 14 18 26t37 12t41 -17t17 -41q0 -7 -2 -15q-1 -4 -2 -7l-48 -143q-6 -17 -19 -29t-37 -12t-41 17t-17 41z" />
    <glyph glyph-name="less" unicode="&#x3c;" 
d="M521 460q6 3 12.5 4t12.5 1q24 0 41 -16.5t17 -40.5q0 -17 -9.5 -32t-26.5 -23l-233 -102l233 -101q16 -7 25 -22t9 -32q0 -24 -17.5 -41.5t-41.5 -17.5q-10 0 -22 5l-361 157q-15 7 -27.5 18t-12.5 34q0 24 12.5 35t27.5 18z" />
    <glyph glyph-name="equal" unicode="=" 
d="M111 353q0 24 17 41t41 17h362q24 0 41 -17t17 -41t-17 -41t-41 -17h-362q-24 0 -41 17t-17 41zM111 178q0 24 17 41t41 17h362q24 0 41 -17t17 -41t-17 -41t-41 -17h-362q-24 0 -41 17t-17 41z" />
    <glyph glyph-name="greater" unicode="&#x3e;" 
d="M564 304q15 -7 27.5 -18t12.5 -35q0 -23 -12.5 -34t-27.5 -18l-361 -157q-12 -5 -22 -5q-24 0 -41.5 17.5t-17.5 41.5q0 17 9 32t25 22l233 101l-233 102q-17 8 -26.5 23t-9.5 32q0 24 17 40.5t41 16.5q6 0 12.5 -1t12.5 -4z" />
    <glyph glyph-name="question" unicode="?" horiz-adv-x="650" 
d="M210 260q0 24 17 41t41 17q30 0 55 10.5t43 28.5t28.5 42.5t10.5 52.5t-10.5 52.5t-28.5 42.5t-42.5 28.5t-52.5 10.5q-41 0 -65.5 -14.5t-41.5 -33.5q-10 -11 -18 -21.5t-17 -19t-19 -14t-24 -5.5q-17 0 -31.5 14.5t-14.5 36.5q0 12 4 21q13 33 37 61t54.5 47.5
t65.5 30.5t70 11q51 0 96 -19.5t78.5 -53t53 -79t19.5 -96.5q0 -44 -14.5 -83.5t-40.5 -71t-61 -54t-76 -32.5q0 -24 -17 -41t-41 -17t-41 17t-17 41v49zM333 64q0 -27 -18.5 -45.5t-45.5 -18.5q-28 0 -46 18.5t-18 45.5q0 28 18 46.5t46 18.5q27 0 45.5 -18.5t18.5 -46.5z
" />
    <glyph glyph-name="at" unicode="@" horiz-adv-x="861" 
d="M215 351q0 45 17 84t46 68t68 46t84 17t84 -17t68 -46t46 -68t17 -84v-226q0 -13 9 -21t21 -8q13 0 21 8t8 21v226q0 57 -21.5 107t-58.5 87t-87 58.5t-107 21.5t-107 -21.5t-87 -58.5t-58.5 -87t-21.5 -107t22.5 -106.5t61.5 -86.5t90 -59t108 -24q23 -1 37.5 -14
t14.5 -34q0 -23 -14.5 -35.5t-37.5 -12.5q-75 1 -143 30.5t-120.5 80t-83.5 117.5t-31 144t29 144.5t79 118t117.5 79.5t144.5 29t144.5 -28.5t118 -78.5t79.5 -118t29 -146v-247q0 -26 -10 -49t-27 -40t-40 -26.5t-49 -9.5t-49 9.5t-40 26.5t-26.5 40t-9.5 49v68
q-53 -36 -120 -36q-45 0 -84 17t-68 46t-46 68t-17 84zM309 351q0 -25 9.5 -47t25.5 -38t38 -25.5t47 -9.5t47 9.5t38.5 25.5t26 38t9.5 47t-9.5 47t-26 38.5t-38.5 26t-47 9.5t-47 -9.5t-38 -26t-25.5 -38.5t-9.5 -47z" />
    <glyph glyph-name="A" unicode="A" horiz-adv-x="512" 
d="M333 231h-156l-61 -190q-6 -18 -21.5 -29.5t-35.5 -11.5q-22 0 -40.5 16t-18.5 42q0 9 3 21l182 567q7 23 27.5 38.5t43.5 15.5t43.5 -15.5t27.5 -38.5l182 -569q3 -11 3 -19q0 -25 -18 -41.5t-41 -16.5t-37.5 12.5t-19.5 28.5zM213 330h87l-44 164z" />
    <glyph glyph-name="B" unicode="B" horiz-adv-x="605" 
d="M139 0q-25 0 -42 17t-17 42v582q0 25 17 42t42 17h142q52 0 96 -11.5t75.5 -36t49.5 -61.5t18 -88q0 -38 -11.5 -72t-41.5 -58q25 -9 43.5 -26.5t30.5 -40t18 -48.5t6 -51q0 -56 -20.5 -95t-55 -64t-79 -36.5t-91.5 -11.5h-180zM439 208q0 51 -31 70t-89 19h-119v-176
h119q22 0 43.5 4.5t38.5 15t27.5 27t10.5 40.5zM396 503q-1 24 -11.5 39.5t-26 24t-35.5 12t-40 3.5h-83v-167h110q24 0 40.5 7t26.5 19t14.5 28t4.5 34z" />
    <glyph glyph-name="C" unicode="C" horiz-adv-x="762" 
d="M727 176q0 -26 -25 -60t-68.5 -64.5t-102 -52t-125.5 -21.5q-75 0 -142 30t-116.5 81t-78.5 118.5t-29 142.5q0 76 29 144t79 118.5t117 80t143 29.5q71 0 130 -24t101 -56t65 -66t23 -53q0 -25 -15.5 -39.5t-41.5 -14.5q-12 0 -23 8.5t-24 22t-29 29.5t-38 31
q-26 17 -61 29t-85 12q-51 0 -96.5 -19.5t-80 -53.5t-54.5 -80t-20 -98t20.5 -98t55 -80t80 -54t95.5 -20q55 0 92.5 14t63.5 34q19 14 33 28.5t26 26.5t22.5 20t22.5 8q22 0 39.5 -14.5t17.5 -38.5z" />
    <glyph glyph-name="D" unicode="D" horiz-adv-x="718" 
d="M324 700q73 0 136.5 -29t110.5 -78t74.5 -114.5t27.5 -137.5t-27.5 -134.5t-74.5 -108.5t-110.5 -72t-136.5 -26h-184q-25 0 -42.5 17.5t-17.5 42.5v580q0 25 17.5 42.5t42.5 17.5h184zM324 120q48 0 89.5 16.5t73 46t49.5 70t18 88.5q0 47 -18 90.5t-49.5 76.5t-73 52.5
t-89.5 19.5h-124v-460h124z" />
    <glyph glyph-name="E" unicode="E" horiz-adv-x="604" 
d="M564 640q0 -23 -17 -41.5t-42 -18.5h-305v-210h240q25 0 42.5 -18t17.5 -42q0 -23 -17.5 -41t-42.5 -18h-240v-131h305q25 0 42 -18.5t17 -41.5t-17 -41.5t-42 -18.5h-365q-25 0 -42.5 17.5t-17.5 42.5v580q0 25 17.5 42.5t42.5 17.5h365q25 0 42 -18.5t17 -41.5z" />
    <glyph glyph-name="F" unicode="F" horiz-adv-x="594" 
d="M504 700q26 0 43 -18t17 -44q0 -25 -18.5 -41.5t-41.5 -16.5h-304v-210h240q25 0 42.5 -18t17.5 -41t-17 -41.5t-43 -18.5h-240v-191q0 -26 -18.5 -43t-41.5 -17t-41.5 17t-18.5 43v580q0 25 17.5 42.5t42.5 17.5h364z" />
    <glyph glyph-name="G" unicode="G" horiz-adv-x="783" 
d="M408 -22q-76 0 -143 29.5t-117 80.5t-79 118.5t-29 143.5t29 144t79 118.5t117 80t143 29.5q71 0 130 -24t101 -56t65 -66t23 -53q0 -25 -15.5 -39.5t-41.5 -14.5q-19 0 -37 20.5t-45.5 45.5t-69.5 45.5t-108 20.5q-51 0 -96.5 -19.5t-80 -53.5t-54.5 -80t-20 -98
t20.5 -98t55 -80t80 -54t95.5 -20q63 0 101 15.5t59 38.5t29.5 49.5t11.5 49.5h-132q-25 0 -42 17t-17 42t17 42.5t42 17.5h194q18 0 30 -7.5t18.5 -18t9 -21.5t2.5 -19q0 -97 -29.5 -160t-76.5 -100t-104.5 -51.5t-114.5 -14.5z" />
    <glyph glyph-name="H" unicode="H" horiz-adv-x="644" 
d="M504 700q23 0 41.5 -16t18.5 -43v-582q0 -25 -17.5 -42t-42.5 -17t-42 17t-17 42v192h-245v-192q0 -25 -18.5 -42t-41.5 -17t-41.5 17t-18.5 42v582q0 26 18 42.5t43 16.5q23 0 41 -17t18 -42v-271h245v271q0 26 18 42.5t41 16.5z" />
    <glyph glyph-name="I" unicode="I" horiz-adv-x="280" 
d="M140 700q24 0 42 -17t18 -43v-580q0 -26 -18 -43t-42 -17t-42 17t-18 43v580q0 26 18 43t42 17z" />
    <glyph glyph-name="J" unicode="J" horiz-adv-x="590" 
d="M385 580h-240q-26 0 -43 18t-17 42t17 42t43 18h300q25 0 42.5 -17.5t17.5 -42.5v-400q0 -66 -20 -115.5t-54.5 -82t-80 -48.5t-96.5 -16q-45 0 -87 14.5t-75 46.5t-52.5 83.5t-19.5 125.5q0 26 17.5 42.5t41.5 16.5q23 0 41 -16t18 -43q0 -25 4 -52t16.5 -50t37 -38
t66.5 -15q54 0 88.5 40.5t34.5 106.5v340z" />
    <glyph glyph-name="K" unicode="K" horiz-adv-x="575" 
d="M80 640q0 25 17 42.5t42 17.5t42.5 -17.5t17.5 -42.5v-271l274 310q18 21 43 21q23 0 38.5 -15.5t15.5 -38.5q0 -15 -4.5 -23t-11.5 -16l-204 -231l208 -275q7 -8 12 -17t5 -25q0 -24 -17.5 -41.5t-43.5 -17.5q-14 0 -26 6t-23 20l-196 258l-70 -79v-146q0 -25 -17.5 -42
t-42.5 -17t-42 17t-17 42v581z" />
    <glyph glyph-name="L" unicode="L" horiz-adv-x="564" 
d="M564 60q0 -24 -17 -42t-43 -18h-364q-25 0 -42.5 17.5t-17.5 42.5v580q0 26 18 43t42 17t42 -17t18 -43v-520h304q26 0 43 -18t17 -42z" />
    <glyph glyph-name="M" unicode="M" horiz-adv-x="762" 
d="M205 477v-418q0 -26 -18 -42.5t-42 -16.5t-42 17t-18 43v580q0 25 17.5 42.5t41.5 17.5h17q11 0 24 -5t22 -17l176 -240l177 240q7 8 18 15t28 7h17q25 0 42 -18t17 -43v-580q0 -26 -18 -42.5t-42 -16.5t-42 17t-18 43v420l-131 -178q-5 -6 -16.5 -15t-32.5 -9t-32 8.5
t-16 15.5z" />
    <glyph glyph-name="N" unicode="N" horiz-adv-x="654" 
d="M509 700q24 0 42 -17t18 -43v-580q0 -26 -17.5 -43t-42.5 -17h-15q-18 0 -30.5 10.5t-19.5 21.5l-239 408v-380q0 -26 -18 -43t-43 -17q-23 0 -41 17.5t-18 42.5v580q0 27 18.5 43.5t41.5 16.5h13q13 0 26 -6t26 -23l240 -411v380q0 26 17.5 43t41.5 17z" />
    <glyph glyph-name="O" unicode="O" horiz-adv-x="824" 
d="M40 350q0 76 29.5 144t80.5 118.5t118.5 80t143.5 29.5t144 -29.5t118.5 -80t80 -118.5t29.5 -144q0 -77 -29.5 -144.5t-80 -118t-118.5 -80t-144 -29.5t-143.5 29.5t-118.5 80t-80.5 118t-29.5 144.5zM160 350q0 -52 20 -97.5t54.5 -80t80 -54.5t97.5 -20q51 0 97 20
t80.5 54.5t54.5 80t20 97.5q0 51 -20 97t-54.5 80t-80.5 54t-97 20q-52 0 -97.5 -20t-80 -54t-54.5 -80t-20 -97z" />
    <glyph glyph-name="P" unicode="P" horiz-adv-x="584" 
d="M300 700q54 0 98 -14t75.5 -42t48.5 -70.5t17 -99.5q0 -112 -62 -167.5t-177 -55.5h-100v-191q0 -26 -18 -43t-42 -17t-42 17t-18 43v580q0 25 17.5 42.5t42.5 17.5h160zM423 474q0 31 -9 52t-25.5 33.5t-39 17.5t-48.5 5h-101v-214h101q26 0 48 4.5t38.5 16.5t26 32.5
t9.5 52.5z" />
    <glyph glyph-name="Q" unicode="Q" horiz-adv-x="824" 
d="M40 350q0 77 29.5 144.5t80 118t118 80t144.5 29.5t144.5 -29.5t118 -80t80 -118t29.5 -144.5q0 -52 -13.5 -100t-38.5 -90t-60 -76t-77 -58q7 -2 18 -2.5t22 -0.5q25 0 42.5 -17.5t17.5 -42.5q0 -28 -19 -44t-45 -16q-8 0 -27 2t-42 10t-46.5 24t-39.5 45q-32 -6 -64 -6
q-77 0 -144.5 29.5t-118 80t-80 118t-29.5 144.5zM345 136q0 29 19.5 44.5t45.5 15.5q16 0 36 -3t39.5 -10t36.5 -18t27 -27q52 34 83.5 89.5t31.5 121.5q0 52 -20 98t-54 80t-80 54t-98 20t-98 -20t-80 -54t-54 -80t-20 -98q0 -44 14.5 -84t40.5 -72.5t61 -55t77 -32.5
q-8 14 -8 31z" />
    <glyph glyph-name="R" unicode="R" horiz-adv-x="579" 
d="M300 700q111 0 175 -58.5t64 -164.5q0 -18 -3 -41t-11.5 -46.5t-24 -45.5t-41.5 -37q30 -12 46 -30t23.5 -38.5t8.5 -41.5t1 -38v-99q0 -26 -18 -43t-42 -17t-42 17t-18 43v99q0 31 -12 49t-28.5 27.5t-35.5 12.5t-32 3h-110v-191q0 -26 -18 -43t-42 -17t-42 17t-18 43
v580q0 25 17.5 42.5t42.5 17.5h160zM422 478q0 30 -10.5 50.5t-27.5 33.5t-38.5 18.5t-44.5 5.5h-101v-219h101q24 0 45.5 5.5t38.5 18t27 34t10 53.5z" />
    <glyph glyph-name="S" unicode="S" horiz-adv-x="581" 
d="M25 228q0 25 17.5 42.5t42.5 17.5t42.5 -17.5t17.5 -42.5q0 -22 9.5 -46t27 -43.5t43.5 -32.5t59 -13q60 0 96.5 25.5t36.5 73.5q0 27 -13.5 46.5t-35.5 33.5t-50.5 25t-58.5 21q-32 11 -70 25.5t-70.5 37t-54.5 55t-22 79.5q0 42 20 80t53.5 66t77.5 44.5t92 16.5
q54 0 97 -19.5t73.5 -48t46.5 -60.5t16 -57q0 -15 -13 -33t-42 -18q-22 0 -34 16t-23 36q-14 28 -43 49t-79 21q-55 0 -88 -26t-33 -61q0 -18 9.5 -31t26 -23t38.5 -18t47 -16q43 -17 88 -33t81.5 -41t59.5 -64.5t23 -102.5q0 -51 -20.5 -91t-55.5 -67t-80.5 -41.5
t-94.5 -14.5q-50 0 -96.5 18t-83 50.5t-58.5 78.5t-22 103z" />
    <glyph glyph-name="T" unicode="T" horiz-adv-x="485" 
d="M0 640q0 23 17 41.5t43 18.5h365q25 0 42.5 -17.5t17.5 -42.5t-17.5 -42.5t-42.5 -17.5h-123v-521q0 -25 -17.5 -42t-42.5 -17t-42 17t-17 42v521h-123q-26 0 -43 18.5t-17 41.5z" />
    <glyph glyph-name="U" unicode="U" horiz-adv-x="650" 
d="M200 220q0 -26 9.5 -48t26 -38.5t38.5 -26t48 -9.5t48.5 9.5t39 26t26 38.5t9.5 48v420q0 26 18 43t42 17t42 -17t18 -43v-420q0 -51 -18.5 -95t-51.5 -77t-77.5 -51.5t-95.5 -18.5t-95 18.5t-77 51.5t-51.5 77t-18.5 95v420q0 26 18 43t42 17t42 -17t18 -43v-420z" />
    <glyph glyph-name="V" unicode="V" horiz-adv-x="514" 
d="M60 700q22 0 37 -12t20 -29l140 -432q19 60 38 119t39 119l63 194q8 24 25 32.5t31 8.5q10 0 21 -4t20 -11.5t14.5 -18.5t5.5 -24q0 -9 -3 -19l-187 -582q-6 -20 -23 -30.5t-34 -10.5h-21q-18 0 -34 10.5t-22 30.5l-187 582q-3 10 -3 19q0 26 18.5 42t41.5 16z" />
    <glyph glyph-name="W" unicode="W" horiz-adv-x="727" 
d="M0 640q0 25 17 42.5t42 17.5q23 0 39.5 -16.5t20.5 -39.5l70 -442l128 193q18 27 44 27q28 0 46 -27l129 -193l72 442q4 23 19.5 39.5t39.5 16.5q25 0 42.5 -17.5t17.5 -42.5q0 -2 -0.5 -4.5t-0.5 -5.5q-1 -4 -1 -7l-90 -574q-4 -25 -21.5 -37t-39.5 -12h-19
q-34 0 -54 33l-139 229l-137 -229q-11 -17 -25 -25t-30 -8h-18q-23 0 -40 13t-21 36l-89 574q-1 2 -1 6q-1 2 -1 5.5v5.5z" />
    <glyph glyph-name="X" unicode="X" horiz-adv-x="473" 
d="M0 54q0 9 1.5 14.5t6.5 13.5l158 267l-154 260q-8 14 -8 30q0 26 17.5 43.5t41.5 17.5q20 0 33.5 -10t21.5 -24l125 -210l129 218q15 26 46 26q23 0 39 -16t16 -39q0 -8 -2 -15t-7 -16l-158 -264l152 -254q5 -9 8 -17.5t3 -19.5q0 -24 -17.5 -41.5t-43.5 -17.5
q-18 0 -32 10t-22 24l-125 209l-128 -216q-16 -27 -47 -27q-23 0 -38.5 15.5t-15.5 38.5z" />
    <glyph glyph-name="Y" unicode="Y" horiz-adv-x="498" 
d="M60 700q15 0 29.5 -6.5t23.5 -24.5l136 -264l137 264q9 18 23 24.5t28 6.5q26 0 43.5 -17t17.5 -41q0 -15 -7 -28l-179 -341v-211q0 -26 -18.5 -44t-44.5 -18t-44 18t-18 44v209l-179 343q-8 16 -8 29q0 25 19.5 41t40.5 16z" />
    <glyph glyph-name="Z" unicode="Z" horiz-adv-x="591" 
d="M52 640q0 25 17.5 42.5t42.5 17.5h334q25 0 42.5 -17.5t17.5 -42.5q0 -11 -3 -19t-8 -16l-286 -485h282q25 0 42.5 -17.5t17.5 -42.5t-17.5 -42.5t-42.5 -17.5h-391q-25 0 -42.5 17.5t-17.5 42.5q0 17 9 32l287 488h-224q-25 0 -42.5 17.5t-17.5 42.5z" />
    <glyph glyph-name="bracketleft" unicode="[" horiz-adv-x="380" 
d="M100 765q0 24 17 41t41 17h114q24 0 41 -17t17 -41t-17 -41t-41 -17h-56v-808h56q24 0 41 -17t17 -41t-17 -41t-41 -17h-114q-24 0 -41 17t-17 41v924z" />
    <glyph glyph-name="backslash" unicode="\" horiz-adv-x="507" 
d="M404 77q3 -9 3 -19q0 -24 -17 -41t-43 -17q-19 0 -34 10.5t-21 30.5l-189 582q-3 9 -3 19q0 24 17 41t42 17q19 0 34 -10.5t21 -29.5z" />
    <glyph glyph-name="bracketright" unicode="]" horiz-adv-x="380" 
d="M280 -159q0 -24 -17 -41t-41 -17h-114q-24 0 -41 17t-17 41t17 41t41 17h56v808h-56q-24 0 -41 17t-17 41t17 41t41 17h114q24 0 41 -17t17 -41v-924z" />
    <glyph glyph-name="asciicircum" unicode="^" 
d="M297 678q7 15 18 27.5t35 12.5q23 0 34 -12.5t18 -27.5l157 -361q5 -12 5 -22q0 -24 -17.5 -41.5t-41.5 -17.5q-17 0 -32 9t-22 25l-101 233l-102 -233q-7 -16 -22.5 -26t-32.5 -10q-24 0 -40.5 17t-16.5 41q0 6 1 12.5t4 12.5z" />
    <glyph glyph-name="underscore" unicode="_" horiz-adv-x="703" 
d="M100 58q0 24 17 41t41 17h387q24 0 41 -17t17 -41t-17 -41t-41 -17h-387q-24 0 -41 17t-17 41z" />
    <glyph glyph-name="grave" unicode="`" horiz-adv-x="380" 
d="M280 627q0 -23 -15 -38t-38 -15q-14 0 -25.5 6.5t-19.5 16.5l-68 77q-6 7 -10 16t-4 20q0 23 15.5 38.5t38.5 15.5q24 0 39 -17l72 -82q15 -18 15 -38z" />
    <glyph glyph-name="a" unicode="a" horiz-adv-x="635" 
d="M45 251q0 57 21.5 106.5t58.5 86t86.5 58t106.5 21.5t106.5 -21.5t86 -58t58 -86t21.5 -106.5v-193q0 -24 -17 -41t-41 -17t-38 14t-17 25q-72 -60 -159 -60q-62 0 -112.5 21t-86 58t-55 86.5t-19.5 106.5zM162 251q0 -32 12.5 -60.5t33.5 -49.5t49.5 -33.5t60.5 -12.5
t60.5 11.5t49.5 32.5t33.5 49.5t12.5 62.5q0 32 -12.5 60.5t-33.5 49.5t-49.5 33.5t-60.5 12.5t-60.5 -12.5t-49.5 -33.5t-33.5 -49.5t-12.5 -60.5z" />
    <glyph glyph-name="b" unicode="b" horiz-adv-x="659" 
d="M128 700q24 0 41 -17t17 -41v-178q26 24 69.5 41.5t86.5 17.5q57 0 106.5 -21.5t86 -58t58 -86t21.5 -106.5t-21.5 -106.5t-58 -86t-86 -58t-106.5 -21.5t-106.5 21t-86.5 57.5t-58 86t-21 107.5v391q0 24 17 41t41 17zM186 251q0 -32 12.5 -60.5t33.5 -49.5t49.5 -33.5
t60.5 -12.5t60.5 12.5t49.5 33.5t33.5 49.5t12.5 60.5t-12.5 60.5t-33.5 49.5t-49.5 33.5t-60.5 12.5t-60.5 -12.5t-49.5 -33.5t-33.5 -49.5t-12.5 -60.5z" />
    <glyph glyph-name="c" unicode="c" horiz-adv-x="576" 
d="M162 251q0 -32 12.5 -60.5t33.5 -49.5t49.5 -33.5t60.5 -12.5q77 0 118 48q3 4 8 10t12 12t15.5 10t17.5 4q23 0 40 -17t17 -40q0 -11 -6.5 -24.5t-18 -27t-26.5 -27t-31 -23.5q-33 -21 -70 -31t-76 -10q-57 0 -106.5 21.5t-86.5 58t-58.5 86t-21.5 106.5t21.5 106.5
t58.5 86t86.5 58t106.5 21.5q37 0 74.5 -9.5t70.5 -30.5q34 -21 57 -48.5t23 -48.5q0 -24 -17 -41t-40 -17q-16 0 -29.5 11t-26.5 24q-21 22 -48 33t-64 11q-32 0 -60.5 -12.5t-49.5 -33.5t-33.5 -49.5t-12.5 -60.5z" />
    <glyph glyph-name="d" unicode="d" horiz-adv-x="644" 
d="M531 700q24 0 41 -17t17 -41v-391q0 -58 -21 -107.5t-58 -86t-86.5 -57.5t-106.5 -21t-106.5 21.5t-86 58t-58 86t-21.5 106.5t21.5 106.5t58 86t86 58t106.5 21.5q43 0 86.5 -17.5t69.5 -41.5v178q0 24 17 41t41 17zM473 251q0 32 -12.5 60.5t-33.5 49.5t-49.5 33.5
t-60.5 12.5t-60.5 -12.5t-49.5 -33.5t-33.5 -49.5t-12.5 -60.5t12.5 -60.5t33.5 -49.5t49.5 -33.5t60.5 -12.5t60.5 12.5t49.5 33.5t33.5 49.5t12.5 60.5z" />
    <glyph glyph-name="e" unicode="e" horiz-adv-x="615" 
d="M162 243q1 -31 14 -58t34 -47t49 -31.5t59 -11.5q50 0 77.5 14.5t45 32.5t30 32.5t33.5 14.5q20 0 38.5 -16t18.5 -41q0 -21 -19 -47.5t-51.5 -50t-77 -39.5t-95.5 -16q-57 0 -106.5 21.5t-86.5 58t-58.5 86t-21.5 106.5t21.5 106.5t58.5 86t86.5 58t106.5 21.5
q47 0 87 -13.5t71.5 -36.5t55 -55t38.5 -69q13 -33 15 -56q0 -21 -15 -35.5t-36 -14.5h-372zM460 321q-15 42 -53 71.5t-89 29.5t-89 -29.5t-53 -71.5h284z" />
    <glyph glyph-name="f" unicode="f" horiz-adv-x="414" 
d="M118 306q-24 0 -41 17t-17 41t17 41t41 17v152q0 30 11.5 57t31.5 47.5t47 32t58 11.5q30 0 57 -11t47 -30.5t32 -45.5t12 -56q0 -32 -19.5 -47t-39.5 -15q-21 0 -40 15t-19 42q0 12 -8.5 21t-21.5 9t-21.5 -9t-8.5 -21v-152h57q24 0 41 -17t17 -41t-17 -41t-41 -17h-57
v-247q0 -25 -17 -42t-42 -17t-42 17t-17 42v247z" />
    <glyph glyph-name="g" unicode="g" horiz-adv-x="639" 
d="M317 526q43 0 81.5 -13t77.5 -49q4 11 17.5 23.5t37.5 12.5t41 -17t17 -41v-393q0 -58 -18.5 -107.5t-54 -86t-86 -57.5t-113.5 -21q-42 0 -79 11.5t-68 30.5t-55 44t-42 52q-7 13 -7 25q0 22 15 37t35 15q7 0 17.5 -2.5t21.5 -15.5q67 -81 162 -81q33 0 60 10t46.5 28
t30 42t10.5 52q-32 -20 -68.5 -31.5t-78.5 -11.5q-43 0 -80 12q-43 15 -78 40.5t-60.5 59t-39.5 74.5t-14 86q0 57 21.5 106.5t58 86t86 58t106.5 21.5zM161 254q0 -32 12.5 -60.5t33.5 -49.5t49.5 -33.5t60.5 -12.5t60.5 12.5t49.5 33.5t33.5 49.5t12.5 60.5t-12.5 60.5
t-33.5 49.5t-49.5 33.5t-60.5 12.5t-60.5 -12.5t-49.5 -33.5t-33.5 -49.5t-12.5 -60.5z" />
    <glyph glyph-name="h" unicode="h" horiz-adv-x="595" 
d="M134 700q25 0 42 -17t17 -42v-149q49 31 109 31q51 0 93 -18t72 -49t46.5 -72.5t16.5 -88.5v-237q0 -25 -17 -41.5t-42 -16.5t-42 16.5t-17 41.5v238q0 22 -8.5 42t-23.5 35t-35 23.5t-43 8.5q-21 0 -40.5 -9t-34.5 -24.5t-24 -35.5t-9 -41v-236q0 -25 -17.5 -42
t-42.5 -17t-42 17t-17 42v582q0 25 17 42t42 17z" />
    <glyph glyph-name="i" unicode="i" horiz-adv-x="263" 
d="M75 441q0 25 17 42t42 17t42 -17t17 -42v-382q0 -25 -17 -42t-42 -17t-42 17t-17 42v382zM62 669q0 32 21 53t51 21q32 0 53 -21t21 -53q0 -30 -21 -51t-53 -21q-30 0 -51 21t-21 51z" />
    <glyph glyph-name="j" unicode="j" horiz-adv-x="263" 
d="M62 669q0 32 21 53t51 21q32 0 53 -21t21 -53q0 -30 -21 -51t-53 -21q-30 0 -51 21t-21 51zM193 -28q0 -30 -11.5 -57t-31.5 -47.5t-47 -32t-58 -11.5q-30 0 -57 11t-47 30.5t-32 45.5t-12 56q0 32 19.5 47t39.5 15q21 0 40 -15t19 -42q0 -12 8.5 -21t21.5 -9t21.5 9
t8.5 21v469q0 25 17 42t42 17t42 -17t17 -42v-469z" />
    <glyph glyph-name="k" unicode="k" horiz-adv-x="469" 
d="M75 642q0 24 17 41t41 17t41 -17t17 -41v-318l161 155q8 8 18.5 14.5t25.5 6.5q23 0 38.5 -15.5t15.5 -38.5q0 -14 -4 -22.5t-12 -16.5l-123 -120l145 -190q8 -11 10.5 -18.5t2.5 -19.5q0 -26 -17 -42.5t-43 -16.5q-19 0 -31 8.5t-19 17.5l-135 177l-32 -31v-114
q0 -25 -17 -41.5t-42 -16.5t-41.5 16.5t-16.5 41.5v584z" />
    <glyph glyph-name="l" unicode="l" horiz-adv-x="258" 
d="M75 641q0 25 17 42t42 17t42 -17t17 -42v-582q0 -25 -17 -42t-42 -17t-42 17t-17 42v582z" />
    <glyph glyph-name="m" unicode="m" horiz-adv-x="926" 
d="M129 500q25 0 38.5 -14t17.5 -25q13 19 28 31t30 19t29 9.5t25 2.5q51 0 92.5 -20.5t72.5 -55.5q32 35 76.5 55.5t95.5 20.5q47 0 88.5 -18t72 -49t48.5 -72.5t18 -88.5v-236q0 -25 -17 -42t-42 -17t-42 17t-17 42v236q0 22 -8.5 42t-23.5 35t-35 24t-42 9t-41.5 -9
t-34.5 -24t-23.5 -35t-8.5 -42v-236q0 -25 -17.5 -42t-42.5 -17t-42 17t-17 42v236q0 23 -8.5 43t-23.5 35t-35 23.5t-43 8.5t-42.5 -9t-34.5 -24.5t-23.5 -35.5t-8.5 -41v-236q0 -25 -17 -42t-42 -17t-42 17t-17 42v382q0 25 17 42t42 17z" />
    <glyph glyph-name="n" unicode="n" horiz-adv-x="591" 
d="M407 295q0 50 -32 80t-78 30t-77.5 -30t-31.5 -80v-236q0 -25 -17 -42t-42 -17t-42 17t-17 42v383q0 23 17 40.5t41 17.5t38 -12t19 -27q5 7 14 18t23 20.5t34.5 16.5t49.5 7q45 0 85 -16t70 -46t47.5 -72t17.5 -94v-236q0 -25 -17 -42t-42 -17t-42.5 17t-17.5 42v236z
" />
    <glyph glyph-name="o" unicode="o" horiz-adv-x="635" 
d="M45 251q0 57 21.5 106.5t58.5 86t86.5 58t106.5 21.5t106.5 -21.5t86 -58t58 -86t21.5 -106.5t-21.5 -106.5t-58 -86t-86 -58t-106.5 -21.5t-106.5 21.5t-86.5 58t-58.5 86t-21.5 106.5zM162 251q0 -32 12.5 -60.5t33.5 -49.5t49.5 -33.5t60.5 -12.5t60.5 12.5t49.5 33.5
t33.5 49.5t12.5 60.5t-12.5 60.5t-33.5 49.5t-49.5 33.5t-60.5 12.5t-60.5 -12.5t-49.5 -33.5t-33.5 -49.5t-12.5 -60.5z" />
    <glyph glyph-name="p" unicode="p" horiz-adv-x="659" 
d="M70 250q0 58 21 107.5t58 86t86.5 57.5t106.5 21t106.5 -21.5t86 -58t58 -86t21.5 -106.5t-21.5 -106.5t-58 -86t-86 -58t-106.5 -21.5q-43 0 -86.5 17.5t-69.5 41.5v-177q0 -24 -17 -41t-41 -17t-41 17t-17 41v390zM186 250q0 -32 12.5 -60.5t33.5 -49.5t49.5 -33.5
t60.5 -12.5t60.5 12.5t49.5 33.5t33.5 49.5t12.5 60.5t-12.5 60.5t-33.5 49.5t-49.5 33.5t-60.5 12.5t-60.5 -12.5t-49.5 -33.5t-33.5 -49.5t-12.5 -60.5z" />
    <glyph glyph-name="q" unicode="q" horiz-adv-x="639" 
d="M589 -140q0 -24 -17 -41t-41 -17t-41 17t-17 41v177q-26 -24 -69.5 -41.5t-86.5 -17.5q-57 0 -106.5 21.5t-86 58t-58 86t-21.5 106.5t21.5 106.5t58 86t86 58t106.5 21.5t106.5 -21t86.5 -57.5t58 -86t21 -107.5v-390zM473 250q0 32 -12.5 60.5t-33.5 49.5t-49.5 33.5
t-60.5 12.5t-60.5 -12.5t-49.5 -33.5t-33.5 -49.5t-12.5 -60.5t12.5 -60.5t33.5 -49.5t49.5 -33.5t60.5 -12.5t60.5 12.5t49.5 33.5t33.5 49.5t12.5 60.5z" />
    <glyph glyph-name="r" unicode="r" horiz-adv-x="431" 
d="M128 500q23 0 40.5 -17t17.5 -41v-8q13 18 35.5 34.5t48.5 28.5t52 19t47 7q26 0 44 -18t18 -44t-18 -43.5t-44 -17.5q-35 0 -67.5 -13.5t-58.5 -37t-41.5 -54.5t-15.5 -66v-171q0 -24 -17 -41t-41 -17t-41 17t-17 41v384q0 24 17 41t41 17z" />
    <glyph glyph-name="s" unicode="s" horiz-adv-x="426" 
d="M210 84q25 0 46 17t21 43t-21.5 39t-62.5 24q-29 8 -58 19.5t-52 29.5t-37.5 44.5t-14.5 65.5q0 33 14.5 62t38.5 50t56 33t67 12q37 0 65.5 -12t48.5 -29t30.5 -36.5t10.5 -34.5q0 -20 -12.5 -33t-33.5 -13q-20 0 -29 9l-20 20q-10 11 -24 19.5t-37 8.5t-41.5 -12.5
t-18.5 -35.5q0 -14 7 -22.5t21 -15t33.5 -12.5t45.5 -15q30 -10 56 -24t45.5 -34t30.5 -48t11 -65q0 -38 -15.5 -67.5t-41.5 -50t-60 -31.5t-71 -11q-27 0 -58 10.5t-58 30t-44.5 46t-17.5 59.5q0 23 12.5 38t36.5 15q13 0 22 -5t15.5 -12.5t12 -17.5t11.5 -20q8 -14 25 -26
t45 -12z" />
    <glyph glyph-name="t" unicode="t" horiz-adv-x="386" 
d="M123 642q0 24 17 41t41 17t41 -17t17 -41v-142h59q24 0 41 -17t17 -41t-17 -41t-41 -17h-59v-325q0 -25 -16 -42t-41 -17t-42 17t-17 42v325q-24 0 -41 17t-17 41t17 41t41 17v142z" />
    <glyph glyph-name="u" unicode="u" horiz-adv-x="585" 
d="M404 442q0 24 17 41t41 17t41 -17t17 -41v-235q0 -47 -18 -88t-48.5 -72.5t-72 -49.5t-88.5 -18t-88 18t-72.5 49.5t-49.5 73t-18 88.5v234q0 24 17 41t41 17t41 -17t17 -41v-235q0 -23 9 -43t24 -35t35.5 -23.5t43.5 -8.5q22 0 42.5 8.5t35.5 23.5t24 35t9 43v235z" />
    <glyph glyph-name="v" unicode="v" horiz-adv-x="478" 
d="M366 463q17 37 54 37q25 0 41.5 -18t16.5 -41q0 -12 -5 -25l-158 -360q-4 -9 -8.5 -19t-12.5 -19t-21 -14.5t-35 -5.5q-21 0 -34 5.5t-20.5 14.5t-12 19t-8.5 19l-158 362q-3 8 -4 13.5t-1 11.5q0 23 16.5 40t41.5 17q23 0 35 -10.5t20 -27.5l126 -290z" />
    <glyph glyph-name="w" unicode="w" horiz-adv-x="921" 
d="M65 442q0 24 17 41t41 17t41 -17t17 -41v-235q0 -23 8.5 -43t23.5 -35t35 -24t43 -9q22 0 42.5 9t35.5 24t24 35t9 43v234q0 25 17 42t42 17t42 -17t17 -42v-234q0 -24 8.5 -44.5t23.5 -35.5t34.5 -23t42.5 -8q22 0 42 9t35 24t24 35t9 43v234q0 25 16.5 42t41.5 17
t42 -17t17 -42v-234q0 -47 -18 -88.5t-48.5 -72.5t-72 -49t-88.5 -18q-51 0 -94 20t-75 55q-32 -35 -75 -55t-94 -20q-47 0 -88.5 18t-72 49t-48 72.5t-17.5 88.5v230v5z" />
    <glyph glyph-name="x" unicode="x" horiz-adv-x="427" 
d="M206 147l-75 -121q-16 -26 -47 -26q-23 0 -38.5 15.5t-15.5 38.5q0 17 10 32l102 164l-98 156q-5 8 -7.5 15t-2.5 18q0 26 17.5 43.5t42.5 17.5q14 0 28 -6t24 -23l74 -118l76 121q15 26 46 26q23 0 39 -16t16 -39q0 -9 -2 -16t-8 -16l-103 -163l100 -158q6 -10 7.5 -17
t1.5 -15q0 -25 -18 -42.5t-43 -17.5q-19 0 -31.5 8.5t-21.5 23.5z" />
    <glyph glyph-name="y" unicode="y" horiz-adv-x="585" 
d="M235 -20q-38 12 -69 34t-53.5 50.5t-35 63.5t-12.5 74v239q0 25 16.5 42t41.5 17t42 -17t17 -42v-239q0 -23 8.5 -43t23.5 -35t35 -24t43 -9q22 0 42 8.5t35.5 23.5t24.5 35t9 43v240q0 25 16.5 42t41.5 17t42 -17t17 -42v-239q0 -38 -10 -73.5t-31 -65.5t-52.5 -52
t-74.5 -32v-119q0 -25 -17 -41.5t-42 -16.5t-41.5 16.5t-16.5 41.5v120z" />
    <glyph glyph-name="z" unicode="z" horiz-adv-x="469" 
d="M62 442q0 24 17 41t41 17h239q24 0 41 -17t17 -41q0 -17 -9 -31l-206 -295h179q24 0 41 -17t17 -41t-17 -41t-41 -17h-293q-24 0 -41 17t-17 41q0 10 2 17.5t10 19.5l199 289h-121q-24 0 -41 17t-17 41z" />
    <glyph glyph-name="braceleft" unicode="{" horiz-adv-x="506" 
d="M216 173q0 16 -6 29t-14.5 22t-18.5 14t-19 6q-25 2 -41.5 17.5t-16.5 40.5t16.5 41t41.5 18q12 1 22.5 5t18.5 13t12.5 24.5t4.5 38.5v165q0 75 22.5 118.5t53.5 65t62 27t49 5.5q22 0 37.5 -15.5t15.5 -37.5q0 -20 -11 -33t-25 -17q-21 -6 -37.5 -12t-27.5 -18
t-17 -31.5t-6 -51.5v-199q0 -16 -3 -34t-9.5 -33.5t-16.5 -26.5t-24 -12q14 -1 24 -12.5t16.5 -27.5t9.5 -34t3 -32v-197q0 -32 6 -51.5t17 -31.5t27.5 -18t37.5 -12q14 -4 25 -17t11 -33q0 -22 -15.5 -37.5t-37.5 -15.5q-18 0 -49 5.5t-62 27t-53.5 65t-22.5 118.5v174z
" />
    <glyph glyph-name="bar" unicode="|" horiz-adv-x="316" 
d="M100 765q0 24 17 41t41 17t41 -17t17 -41v-921q0 -24 -17 -41t-41 -17t-41 17t-17 41v921z" />
    <glyph glyph-name="braceright" unicode="}" horiz-adv-x="506" 
d="M290 -1q0 -75 -22.5 -118.5t-53.5 -65t-62 -27t-49 -5.5q-22 0 -37.5 15.5t-15.5 37.5q0 20 11 33t25 17q21 6 37.5 12t27.5 18t17 31.5t6 51.5v197q0 14 3 32t9.5 34t16.5 27.5t24 12.5q-14 1 -24 12t-16.5 26.5t-9.5 33.5t-3 34v199q0 32 -6 51.5t-17 31.5t-27.5 18
t-37.5 12q-14 4 -25 17t-11 33q0 22 15.5 37.5t37.5 15.5q18 0 49 -5.5t62 -27t53.5 -65t22.5 -118.5v-165q0 -23 4.5 -38.5t12.5 -24.5t18.5 -13t22.5 -5q25 -2 41.5 -18t16.5 -41t-16.5 -40.5t-41.5 -17.5q-9 -1 -19 -6t-18.5 -14t-14.5 -22t-6 -29v-174z" />
    <glyph glyph-name="asciitilde" unicode="~" 
d="M126 383q0 25 16.5 42t41.5 17t42 -17t17 -42v-12q0 -15 6 -24t18 -9q18 0 29.5 13.5t26.5 29.5t39 29.5t66 13.5q31 0 57.5 -11.5t46.5 -31t31.5 -46t11.5 -57.5v-12q0 -25 -17 -42t-42 -17t-42 17t-17 42v12q0 19 -9 26.5t-21 7.5q-20 0 -31.5 -13.5t-25.5 -30t-36 -30
t-62 -13.5q-31 0 -57.5 11.5t-46 31t-31 46t-11.5 57.5v12z" />
    <glyph glyph-name="exclamdown" unicode="&#xa1;" horiz-adv-x="400" 
d="M300 437q0 -28 -18.5 -46.5t-46.5 -18.5q-27 0 -45.5 18.5t-18.5 46.5q0 27 18.5 45.5t45.5 18.5q28 0 46.5 -18.5t18.5 -45.5zM178 283q0 24 17 41t41 17t41 -17t17 -41v-424q0 -24 -17 -41t-41 -17t-41 17t-17 41v424z" />
    <glyph glyph-name="section" unicode="&#xa7;" 
d="M370 -108q63 0 97 26t34 60q0 22 -16.5 36.5t-40.5 25t-50.5 18t-45.5 13.5q-42 14 -84.5 30.5t-76.5 42.5t-55.5 65t-21.5 98q0 38 11.5 69t32.5 57q-12 17 -19 37.5t-7 44.5q0 42 20 80t53.5 66t77.5 44.5t92 16.5q54 0 97 -19.5t73.5 -48t46.5 -60.5t16 -57
q0 -15 -13 -33t-42 -18q-22 0 -34 16t-23 36q-14 28 -43 49t-79 21q-55 0 -88 -26t-33 -61q0 -22 14 -36.5t34 -25t43.5 -18t43.5 -13.5q42 -14 84.5 -30.5t76.5 -42.5t55.5 -65t21.5 -98q0 -33 -9 -62t-26 -52q16 -17 25.5 -39t9.5 -48q0 -51 -20.5 -91t-55.5 -67
t-80.5 -41.5t-94.5 -14.5q-50 0 -96.5 18t-83 50.5t-58.5 78.5t-22 103q0 25 17.5 42.5t42.5 17.5t42.5 -17.5t17.5 -42.5q0 -22 9.5 -46t27 -43.5t43.5 -32.5t59 -13zM345 318q-23 8 -49 17.5t-52 23.5q-15 -21 -15 -52q0 -27 13.5 -46.5t35.5 -34t50.5 -25t58.5 -20.5
q23 -8 50 -17t53 -21q13 23 13 49q0 27 -13.5 46.5t-35.5 33.5t-50.5 24.5t-58.5 21.5z" />
    <glyph glyph-name="dieresis" unicode="&#xa8;" horiz-adv-x="521" 
d="M100 639q0 27 18 45.5t46 18.5t46 -18.5t18 -45.5q0 -28 -18 -46.5t-46 -18.5t-46 18.5t-18 46.5zM293 639q0 27 18 45.5t46 18.5t46 -18.5t18 -45.5q0 -28 -18 -46.5t-46 -18.5t-46 18.5t-18 46.5z" />
    <glyph glyph-name="copyright" unicode="&#xa9;" horiz-adv-x="864" 
d="M60 351q0 76 29.5 144t80 118.5t118 80t144.5 29.5q76 0 144 -29.5t118.5 -80t80 -118.5t29.5 -144q0 -77 -29.5 -144.5t-80 -118t-118.5 -80t-144 -29.5q-77 0 -144.5 29.5t-118 80t-80 118t-29.5 144.5zM161 351q0 -56 21.5 -105.5t58.5 -86.5t86.5 -58.5t105.5 -21.5
q55 0 104 21.5t86 58.5t58.5 86.5t21.5 105.5q0 55 -21.5 104t-58.5 86t-86 58.5t-104 21.5q-56 0 -105.5 -21.5t-86.5 -58.5t-58.5 -86t-21.5 -104zM316 350q0 -26 10 -48t27 -38.5t39 -26t45 -9.5q28 0 54 9t41 25q6 6 16 17.5t26 11.5q20 0 33.5 -13.5t13.5 -31.5
t-20 -41.5t-46 -40.5q-25 -17 -55 -25t-63 -8q-46 0 -86 17t-70 46t-47 69t-17 87q0 46 17 86t47 69.5t70 46.5t86 17q64 0 118 -34q26 -17 44.5 -38t18.5 -39q0 -20 -13.5 -33.5t-32.5 -13.5q-9 0 -17 6.5t-18 14.5q-15 13 -37.5 26t-62.5 13q-23 0 -45 -9t-39 -24.5
t-27 -38t-10 -49.5z" />
    <glyph glyph-name="ordfeminine" unicode="&#xaa;" horiz-adv-x="517" 
d="M339 388q-47 -33 -106 -33q-38 0 -71.5 14.5t-58 39t-39 58t-14.5 71.5t14.5 71.5t39 58.5t58 39.5t71.5 14.5t71.5 -14.5t58.5 -39.5t39.5 -58.5t14.5 -71.5v-144q0 -17 -11 -28t-28 -11t-28 10.5t-11 22.5zM128 538q0 -22 8 -41.5t22.5 -34t33.5 -23t41 -8.5t41.5 8.5
t33.5 23t22.5 34t8.5 41.5t-8.5 41.5t-22.5 34.5t-33.5 23.5t-41.5 8.5t-41 -8.5t-33.5 -23.5t-22.5 -34.5t-8 -41.5z" />
    <glyph glyph-name="guillemotleft" unicode="&#xab;" horiz-adv-x="673" 
d="M218 249l137 -129q16 -16 16 -40q0 -23 -16 -40t-40 -17q-23 0 -42 17l-177 169q-16 15 -16 38q0 24 18 42l176 171q8 8 18.5 12t21.5 4q23 0 40.5 -17t17.5 -40q0 -25 -18 -43zM438 249l137 -129q17 -15 17 -40q0 -23 -17 -40.5t-40 -17.5q-22 0 -42 18l-177 169
q-16 15 -16 38q0 24 18 42l176 171q8 8 18.5 12t21.5 4q23 0 41 -17.5t18 -40.5q0 -25 -19 -42z" />
    <glyph glyph-name="logicalnot" unicode="&#xac;" 
d="M170 303q0 24 17 41t41 17h225q24 0 41 -17t17 -41v-123q0 -24 -17 -41t-41 -17t-41 17t-17 41v65h-167q-24 0 -41 17t-17 41z" />
    <glyph glyph-name="registered" unicode="&#xae;" horiz-adv-x="864" 
d="M305 536h131q66 0 104 -27t38 -93q0 -27 -10 -51.5t-29 -35.5q7 -3 14 -12.5t12 -23t8.5 -29.5t3.5 -32q0 -29 -15 -44t-39 -15q-23 0 -38 15t-15 38q0 16 -7 31.5t-27 15.5h-24v-47q0 -23 -15.5 -38t-38.5 -15t-38 15t-15 38v310zM437 377q18 0 26.5 6t8.5 22
q0 17 -10 23t-25 6h-25v-57h25zM60 351q0 76 29.5 144t80 118.5t118 80t144.5 29.5q76 0 144 -29.5t118.5 -80t80 -118.5t29.5 -144q0 -77 -29.5 -144.5t-80 -118t-118.5 -80t-144 -29.5q-77 0 -144.5 29.5t-118 80t-80 118t-29.5 144.5zM161 351q0 -55 21.5 -104.5
t58.5 -86.5t86.5 -58.5t104.5 -21.5t104.5 21.5t86.5 58.5t58.5 86.5t21.5 104.5t-21.5 104.5t-58.5 86.5t-86.5 58.5t-104.5 21.5t-104.5 -21.5t-86.5 -58.5t-58.5 -86.5t-21.5 -104.5z" />
    <glyph glyph-name="degree" unicode="&#xb0;" horiz-adv-x="400" 
d="M100 605q0 19 7.5 36.5t20 30.5t29.5 20.5t37 7.5q19 0 36.5 -7.5t30.5 -20.5t20.5 -30.5t7.5 -36.5q0 -20 -7.5 -37t-20.5 -29.5t-30.5 -20t-36.5 -7.5q-20 0 -37 7.5t-29.5 20t-20 29.5t-7.5 37zM161 605q0 -14 9.5 -23.5t23.5 -9.5t24 9.5t10 23.5t-10 24t-24 10
t-23.5 -10t-9.5 -24z" />
    <glyph glyph-name="plusminus" unicode="&#xb1;" horiz-adv-x="558" 
d="M100 322q0 24 17 41t41 17h62v62q0 24 17 41t41 17t41 -17t17 -41v-62h64q24 0 41 -17t17 -41t-17 -41t-41 -17h-64v-64q0 -24 -17 -41t-41 -17t-41 17t-17 41v64h-62q-24 0 -41 17t-17 41zM100 58q0 24 17 41t41 17h242q24 0 41 -17t17 -41t-17 -41t-41 -17h-242
q-24 0 -41 17t-17 41z" />
    <glyph glyph-name="twosuperior" unicode="&#xb2;" horiz-adv-x="330" 
d="M30 399q0 8 3 14.5t8 11.5l122 150q1 1 3 5q1 2 2 6t1 9q0 15 -9.5 25.5t-24.5 10.5q-20 0 -26.5 -14t-7.5 -30q-1 -15 -11 -25t-25 -10q-14 0 -24.5 9.5t-10.5 29.5q0 22 7.5 41.5t21 34.5t33 24t43.5 9q22 0 41 -8.5t33 -22.5t22.5 -33t8.5 -41q0 -20 -7 -38t-19 -32
l-92 -112h82q15 0 25.5 -10.5t10.5 -25.5t-10.5 -25t-25.5 -10h-139q-15 0 -25 10t-10 25v22z" />
    <glyph glyph-name="threesuperior" unicode="&#xb3;" horiz-adv-x="370" 
d="M115 553q0 11 9 22l43 54h-82q-15 0 -25 10t-10 25t10 25.5t25 10.5h139q15 0 25.5 -10.5t10.5 -25.5v-22q0 -13 -9 -24l-35 -43q29 -17 46.5 -45t17.5 -63q0 -26 -10 -48.5t-27 -39.5t-39.5 -27t-48.5 -10t-48.5 10t-39.5 27t-27 39.5t-10 48.5q0 15 10 25.5t25 10.5
t25 -10.5t11 -28.5q1 -23 16 -38t38 -15t38.5 16.5t15.5 39.5t-15.5 39.5t-38.5 16.5h-10q-13 0 -21.5 8.5t-8.5 21.5z" />
    <glyph glyph-name="acute" unicode="&#xb4;" horiz-adv-x="380" 
d="M100 627q0 20 15 38l72 82q15 17 39 17q23 0 38.5 -15.5t15.5 -38.5q0 -11 -4 -20t-10 -16l-68 -77q-8 -10 -19.5 -16.5t-25.5 -6.5q-23 0 -38 15t-15 38z" />
    <glyph glyph-name="mu" unicode="&#xb5;" 
d="M136 442q0 24 17 41t41 17t41 -17t17 -41v-214q0 -23 9 -43t24 -35t35 -23.5t43 -8.5q22 0 42.5 8.5t35.5 23.5t24 35t9 43v214q0 24 17 41t41 17t41 -17t17 -41v-214q0 -47 -18 -88t-48.5 -72.5t-72 -49.5t-88.5 -18q-61 0 -111 29v-169q0 -24 -17 -41t-41 -17t-41 17
t-17 41v582z" />
    <glyph glyph-name="mu" unicode="&#x3bc;" 
d="M136 442q0 24 17 41t41 17t41 -17t17 -41v-214q0 -23 9 -43t24 -35t35 -23.5t43 -8.5q22 0 42.5 8.5t35.5 23.5t24 35t9 43v214q0 24 17 41t41 17t41 -17t17 -41v-214q0 -47 -18 -88t-48.5 -72.5t-72 -49.5t-88.5 -18q-61 0 -111 29v-169q0 -24 -17 -41t-41 -17t-41 17
t-17 41v582z" />
    <glyph glyph-name="paragraph" unicode="&#xb6;" horiz-adv-x="872" 
d="M325 251h-26q-112 0 -175.5 53t-63.5 170q0 112 63.5 169t175.5 57h453q25 0 42.5 -17.5t17.5 -42.5t-17.5 -42.5t-42.5 -17.5h-103v-718q0 -25 -17.5 -42.5t-42.5 -17.5t-42 17.5t-17 42.5v718h-85v-718q0 -25 -17.5 -42.5t-42.5 -17.5t-42.5 17.5t-17.5 42.5v389z" />
    <glyph glyph-name="periodcentered" unicode="&#xb7;" horiz-adv-x="250" 
d="M43 308q0 35 24 59.5t59 24.5t59.5 -24.5t24.5 -59.5t-24.5 -59t-59.5 -24t-59 24t-24 59z" />
    <glyph glyph-name="cedilla" unicode="&#xb8;" horiz-adv-x="410" 
d="M100 60h116v-113q39 -11 66.5 -43t27.5 -74q0 -26 -10 -47.5t-26.5 -38t-38.5 -25.5t-46 -9h-36q-23 0 -38 15t-15 38t15 38t38 15h26q7 0 10.5 4.5t3.5 9.5t-3.5 9.5t-10.5 4.5h-26q-21 0 -37 15t-16 38v163z" />
    <glyph glyph-name="onesuperior" unicode="&#xb9;" horiz-adv-x="280" 
d="M109 629h-44q-15 0 -25 10t-10 25t10 25.5t25 10.5h89q15 0 25.5 -10.5t10.5 -25.5v-282q0 -17 -12 -28.5t-29 -11.5t-28.5 11.5t-11.5 28.5v247z" />
    <glyph glyph-name="ordmasculine" unicode="&#xba;" horiz-adv-x="517" 
d="M50 538q0 38 14 71.5t39 58.5t58.5 39.5t71.5 14.5t71.5 -14.5t58.5 -39.5t39.5 -58.5t14.5 -71.5t-14.5 -71.5t-39.5 -58.5t-58.5 -39t-71.5 -14t-71.5 14t-58.5 39t-39 58.5t-14 71.5zM128 538q0 -22 8 -41.5t22.5 -34t33.5 -23t41 -8.5t41.5 8.5t33.5 23t22.5 34
t8.5 41.5t-8.5 41.5t-22.5 34.5t-33.5 23.5t-41.5 8.5t-41 -8.5t-33.5 -23.5t-22.5 -34.5t-8 -41.5z" />
    <glyph glyph-name="guillemotright" unicode="&#xbb;" horiz-adv-x="673" 
d="M319 376q-19 17 -19 42q0 23 18 40.5t41 17.5q11 0 21.5 -4t18.5 -12l176 -171q18 -18 18 -42q0 -23 -16 -38l-177 -169q-20 -18 -42 -18q-23 0 -40 17.5t-17 40.5q0 25 17 40l137 129zM99 376q-19 17 -19 42q0 23 18 40.5t41 17.5q11 0 21.5 -4t18.5 -12l176 -171
q18 -18 18 -42q0 -23 -16 -38l-177 -169q-20 -18 -42 -18q-23 0 -40 17.5t-17 40.5q0 25 17 40l137 129z" />
    <glyph glyph-name="questiondown" unicode="&#xbf;" horiz-adv-x="650" 
d="M431 440q0 -24 -17 -41t-41 -17q-30 0 -55 -10.5t-43 -28.5t-28.5 -42.5t-10.5 -52.5t10.5 -52.5t28.5 -42.5t42.5 -28.5t52.5 -10.5q41 0 65.5 14.5t41.5 33.5q10 11 18 21.5t17 19t19 14t24 5.5q17 0 31.5 -14.5t14.5 -36.5q0 -12 -4 -21q-13 -33 -37 -61t-54.5 -47.5
t-65.5 -30.5t-70 -11q-51 0 -96 19.5t-78.5 53t-53 79t-19.5 96.5q0 44 14.5 83.5t40.5 71t61 54t76 32.5q0 24 17 41t41 17t41 -17t17 -41v-49zM308 636q0 27 18.5 45.5t45.5 18.5q28 0 46 -18.5t18 -45.5q0 -28 -18 -46.5t-46 -18.5q-27 0 -45.5 18.5t-18.5 46.5z" />
    <glyph glyph-name="Agrave" unicode="&#xc0;" horiz-adv-x="512" 
d="M333 231h-156l-61 -190q-6 -18 -21.5 -29.5t-35.5 -11.5q-22 0 -40.5 16t-18.5 42q0 9 3 21l182 567q7 23 27.5 38.5t43.5 15.5t43.5 -15.5t27.5 -38.5l182 -569q3 -11 3 -19q0 -25 -18 -41.5t-41 -16.5t-37.5 12.5t-19.5 28.5zM213 330h87l-44 164zM307 825
q0 -23 -15 -38t-38 -15q-14 0 -25.5 6.5t-19.5 16.5l-68 77q-6 7 -10 16t-4 20q0 23 15.5 38.5t38.5 15.5q24 0 39 -17l72 -82q15 -18 15 -38z" />
    <glyph glyph-name="Aacute" unicode="&#xc1;" horiz-adv-x="512" 
d="M333 231h-156l-61 -190q-6 -18 -21.5 -29.5t-35.5 -11.5q-22 0 -40.5 16t-18.5 42q0 9 3 21l182 567q7 23 27.5 38.5t43.5 15.5t43.5 -15.5t27.5 -38.5l182 -569q3 -11 3 -19q0 -25 -18 -41.5t-41 -16.5t-37.5 12.5t-19.5 28.5zM213 330h87l-44 164zM202 825q0 20 15 38
l72 82q15 17 39 17q23 0 38.5 -15.5t15.5 -38.5q0 -11 -4 -20t-10 -16l-68 -77q-8 -10 -19.5 -16.5t-25.5 -6.5q-23 0 -38 15t-15 38z" />
    <glyph glyph-name="Acircumflex" unicode="&#xc2;" horiz-adv-x="512" 
d="M384 858q10 -14 10 -32q0 -23 -15.5 -38.5t-38.5 -15.5t-32.5 9t-11.5 13l-40 57l-41 -57q-2 -4 -11.5 -13t-32.5 -9t-38.5 15.5t-15.5 38.5q0 18 10 32l81 116q4 6 14.5 16.5t33.5 10.5t32.5 -10.5t13.5 -16.5zM333 231h-156l-61 -190q-6 -18 -21.5 -29.5t-35.5 -11.5
q-22 0 -40.5 16t-18.5 42q0 9 3 21l182 567q7 23 27.5 38.5t43.5 15.5t43.5 -15.5t27.5 -38.5l182 -569q3 -11 3 -19q0 -25 -18 -41.5t-41 -16.5t-37.5 12.5t-19.5 28.5zM213 330h87l-44 164z" />
    <glyph glyph-name="Atilde" unicode="&#xc3;" horiz-adv-x="512" 
d="M222 935q23 0 39.5 -7.5t30.5 -15.5q2 0 6 4t10 9t15.5 9t23.5 4q20 0 38 -15.5t18 -42.5q0 -19 -11.5 -35t-28.5 -27.5t-36.5 -18t-34.5 -6.5q-12 0 -23.5 3t-21 7t-16.5 7.5t-10 5.5q-3 0 -7.5 -4t-11 -8.5t-15.5 -8.5t-22 -4q-9 0 -18.5 3.5t-17.5 10.5t-13.5 17.5
t-5.5 24.5q0 17 10 33t26 28t36 19.5t40 7.5zM333 231h-156l-61 -190q-6 -18 -21.5 -29.5t-35.5 -11.5q-22 0 -40.5 16t-18.5 42q0 9 3 21l182 567q7 23 27.5 38.5t43.5 15.5t43.5 -15.5t27.5 -38.5l182 -569q3 -11 3 -19q0 -25 -18 -41.5t-41 -16.5t-37.5 12.5t-19.5 28.5z
M213 330h87l-44 164z" />
    <glyph glyph-name="Adieresis" unicode="&#xc4;" horiz-adv-x="512" 
d="M96 861q0 27 18 45.5t46 18.5t46 -18.5t18 -45.5q0 -28 -18 -46.5t-46 -18.5t-46 18.5t-18 46.5zM289 861q0 27 18 45.5t46 18.5t46 -18.5t18 -45.5q0 -28 -18 -46.5t-46 -18.5t-46 18.5t-18 46.5zM333 231h-156l-61 -190q-6 -18 -21.5 -29.5t-35.5 -11.5q-22 0 -40.5 16
t-18.5 42q0 9 3 21l182 567q7 23 27.5 38.5t43.5 15.5t43.5 -15.5t27.5 -38.5l182 -569q3 -11 3 -19q0 -25 -18 -41.5t-41 -16.5t-37.5 12.5t-19.5 28.5zM213 330h87l-44 164z" />
    <glyph glyph-name="Aring" unicode="&#xc5;" horiz-adv-x="512" 
d="M333 231h-156l-61 -190q-6 -18 -21.5 -29.5t-35.5 -11.5q-22 0 -40.5 16t-18.5 42q0 9 3 21l182 567q7 23 27.5 38.5t43.5 15.5t43.5 -15.5t27.5 -38.5l182 -569q3 -11 3 -19q0 -25 -18 -41.5t-41 -16.5t-37.5 12.5t-19.5 28.5zM213 330h87l-44 164zM223 876
q0 -14 9.5 -23.5t23.5 -9.5t24 9.5t10 23.5t-10 24t-24 10t-23.5 -10t-9.5 -24zM152 876q0 22 8 41t22 33t33 22.5t41 8.5t41 -8.5t33 -22.5t22.5 -33t8.5 -41t-8.5 -41t-22.5 -33t-33 -22t-41 -8q-44 0 -74 30t-30 74z" />
    <glyph glyph-name="Ccedilla" unicode="&#xc7;" horiz-adv-x="762" 
d="M344 -16q-65 11 -120.5 44.5t-96 82.5t-64 110t-23.5 129q0 76 29 144t79 118.5t117 80t143 29.5q71 0 130 -24t101 -56t65 -66t23 -53q0 -25 -15.5 -39.5t-41.5 -14.5q-12 0 -23 8.5t-24 22t-29 29.5t-38 31q-26 17 -61 29t-85 12q-51 0 -96.5 -19.5t-80 -53.5
t-54.5 -80t-20 -98t20.5 -98t55 -80t80 -54t95.5 -20q55 0 92.5 14t63.5 34q19 14 33 28.5t26 26.5t22.5 20t22.5 8q22 0 39.5 -14.5t17.5 -38.5q0 -23 -20.5 -53t-56 -59t-84.5 -51.5t-106 -30.5v-28q39 -11 66.5 -43t27.5 -74q0 -26 -10 -47.5t-26.5 -38t-38.5 -25.5
t-46 -9h-36q-23 0 -38 15t-15 38t15 38t38 15h26q7 0 10.5 4.5t3.5 9.5t-3.5 9.5t-10.5 4.5h-26q-21 0 -37 15t-16 38v80z" />
    <glyph glyph-name="Egrave" unicode="&#xc8;" horiz-adv-x="604" 
d="M564 640q0 -23 -17 -41.5t-42 -18.5h-305v-210h240q25 0 42.5 -18t17.5 -42q0 -23 -17.5 -41t-42.5 -18h-240v-131h305q25 0 42 -18.5t17 -41.5t-17 -41.5t-42 -18.5h-365q-25 0 -42.5 17.5t-17.5 42.5v580q0 25 17.5 42.5t42.5 17.5h365q25 0 42 -18.5t17 -41.5z
M365 825q0 -23 -15 -38t-38 -15q-14 0 -25.5 6.5t-19.5 16.5l-68 77q-6 7 -10 16t-4 20q0 23 15.5 38.5t38.5 15.5q24 0 39 -17l72 -82q15 -18 15 -38z" />
    <glyph glyph-name="Eacute" unicode="&#xc9;" horiz-adv-x="604" 
d="M564 640q0 -23 -17 -41.5t-42 -18.5h-305v-210h240q25 0 42.5 -18t17.5 -42q0 -23 -17.5 -41t-42.5 -18h-240v-131h305q25 0 42 -18.5t17 -41.5t-17 -41.5t-42 -18.5h-365q-25 0 -42.5 17.5t-17.5 42.5v580q0 25 17.5 42.5t42.5 17.5h365q25 0 42 -18.5t17 -41.5z
M248 825q0 20 15 38l72 82q15 17 39 17q23 0 38.5 -15.5t15.5 -38.5q0 -11 -4 -20t-10 -16l-68 -77q-8 -10 -19.5 -16.5t-25.5 -6.5q-23 0 -38 15t-15 38z" />
    <glyph glyph-name="Ecircumflex" unicode="&#xca;" horiz-adv-x="604" 
d="M564 640q0 -23 -17 -41.5t-42 -18.5h-305v-210h240q25 0 42.5 -18t17.5 -42q0 -23 -17.5 -41t-42.5 -18h-240v-131h305q25 0 42 -18.5t17 -41.5t-17 -41.5t-42 -18.5h-365q-25 0 -42.5 17.5t-17.5 42.5v580q0 25 17.5 42.5t42.5 17.5h365q25 0 42 -18.5t17 -41.5z
M447 858q10 -14 10 -32q0 -23 -15.5 -38.5t-38.5 -15.5t-32.5 9t-11.5 13l-40 57l-41 -57q-2 -4 -11.5 -13t-32.5 -9t-38.5 15.5t-15.5 38.5q0 18 10 32l81 116q4 6 14.5 16.5t33.5 10.5t32.5 -10.5t13.5 -16.5z" />
    <glyph glyph-name="Edieresis" unicode="&#xcb;" horiz-adv-x="604" 
d="M564 640q0 -23 -17 -41.5t-42 -18.5h-305v-210h240q25 0 42.5 -18t17.5 -42q0 -23 -17.5 -41t-42.5 -18h-240v-131h305q25 0 42 -18.5t17 -41.5t-17 -41.5t-42 -18.5h-365q-25 0 -42.5 17.5t-17.5 42.5v580q0 25 17.5 42.5t42.5 17.5h365q25 0 42 -18.5t17 -41.5z
M161 858q0 27 18 45.5t46 18.5t46 -18.5t18 -45.5q0 -28 -18 -46.5t-46 -18.5t-46 18.5t-18 46.5zM354 858q0 27 18 45.5t46 18.5t46 -18.5t18 -45.5q0 -28 -18 -46.5t-46 -18.5t-46 18.5t-18 46.5z" />
    <glyph glyph-name="Igrave" unicode="&#xcc;" horiz-adv-x="280" 
d="M140 700q24 0 42 -17t18 -43v-580q0 -26 -18 -43t-42 -17t-42 17t-18 43v580q0 26 18 43t42 17zM194 825q0 -23 -15 -38t-38 -15q-14 0 -25.5 6.5t-19.5 16.5l-68 77q-6 7 -10 16t-4 20q0 23 15.5 38.5t38.5 15.5q24 0 39 -17l72 -82q15 -18 15 -38z" />
    <glyph glyph-name="Iacute" unicode="&#xcd;" horiz-adv-x="280" 
d="M140 700q24 0 42 -17t18 -43v-580q0 -26 -18 -43t-42 -17t-42 17t-18 43v580q0 26 18 43t42 17zM87 825q0 20 15 38l72 82q15 17 39 17q23 0 38.5 -15.5t15.5 -38.5q0 -11 -4 -20t-10 -16l-68 -77q-8 -10 -19.5 -16.5t-25.5 -6.5q-23 0 -38 15t-15 38z" />
    <glyph glyph-name="Icircumflex" unicode="&#xce;" horiz-adv-x="280" 
d="M140 700q24 0 42 -17t18 -43v-580q0 -26 -18 -43t-42 -17t-42 17t-18 43v580q0 26 18 43t42 17zM268 858q10 -14 10 -32q0 -23 -15.5 -38.5t-38.5 -15.5t-32.5 9t-11.5 13l-40 57l-41 -57q-2 -4 -11.5 -13t-32.5 -9t-38.5 15.5t-15.5 38.5q0 18 10 32l81 116
q4 6 14.5 16.5t33.5 10.5t32.5 -10.5t13.5 -16.5z" />
    <glyph glyph-name="Idieresis" unicode="&#xcf;" horiz-adv-x="280" 
d="M140 700q24 0 42 -17t18 -43v-580q0 -26 -18 -43t-42 -17t-42 17t-18 43v580q0 26 18 43t42 17zM-20 859q0 27 18 45.5t46 18.5t46 -18.5t18 -45.5q0 -28 -18 -46.5t-46 -18.5t-46 18.5t-18 46.5zM173 859q0 27 18 45.5t46 18.5t46 -18.5t18 -45.5q0 -28 -18 -46.5
t-46 -18.5t-46 18.5t-18 46.5z" />
    <glyph glyph-name="Eth" unicode="&#xd0;" horiz-adv-x="848" 
d="M90 350q0 25 17.5 42.5t42.5 17.5h60v290h244q72 0 136 -27.5t111 -74.5t74.5 -111t27.5 -136t-27.5 -136t-74.5 -112t-111 -75.5t-136 -27.5h-244v290h-60q-25 0 -42.5 17.5t-17.5 42.5zM329 290v-170h125q47 0 89 18t73 49.5t49 73.5t18 90q0 47 -18 89t-49 73t-73 49
t-89 18h-125v-170h99q25 0 42.5 -17.5t17.5 -42.5t-17.5 -42.5t-42.5 -17.5h-99z" />
    <glyph glyph-name="Ntilde" unicode="&#xd1;" horiz-adv-x="654" 
d="M509 700q24 0 42 -17t18 -43v-580q0 -26 -17.5 -43t-42.5 -17h-15q-18 0 -30.5 10.5t-19.5 21.5l-239 408v-380q0 -26 -18 -43t-43 -17q-23 0 -41 17.5t-18 42.5v580q0 27 18.5 43.5t41.5 16.5h13q13 0 26 -6t26 -23l240 -411v380q0 26 17.5 43t41.5 17zM284 936
q23 0 39.5 -7.5t30.5 -15.5q2 0 6 4t10 9t15.5 9t23.5 4q20 0 38 -15.5t18 -42.5q0 -19 -11.5 -35t-28.5 -27.5t-36.5 -18t-34.5 -6.5q-12 0 -23.5 3t-21 7t-16.5 7.5t-10 5.5q-3 0 -7.5 -4t-11 -8.5t-15.5 -8.5t-22 -4q-9 0 -18.5 3.5t-17.5 10.5t-13.5 17.5t-5.5 24.5
q0 17 10 33t26 28t36 19.5t40 7.5z" />
    <glyph glyph-name="Ograve" unicode="&#xd2;" horiz-adv-x="824" 
d="M40 350q0 76 29.5 144t80.5 118.5t118.5 80t143.5 29.5t144 -29.5t118.5 -80t80 -118.5t29.5 -144q0 -77 -29.5 -144.5t-80 -118t-118.5 -80t-144 -29.5t-143.5 29.5t-118.5 80t-80.5 118t-29.5 144.5zM160 350q0 -52 20 -97.5t54.5 -80t80 -54.5t97.5 -20q51 0 97 20
t80.5 54.5t54.5 80t20 97.5q0 51 -20 97t-54.5 80t-80.5 54t-97 20q-52 0 -97.5 -20t-80 -54t-54.5 -80t-20 -97zM464 825q0 -23 -15 -38t-38 -15q-14 0 -25.5 6.5t-19.5 16.5l-68 77q-6 7 -10 16t-4 20q0 23 15.5 38.5t38.5 15.5q24 0 39 -17l72 -82q15 -18 15 -38z" />
    <glyph glyph-name="Oacute" unicode="&#xd3;" horiz-adv-x="824" 
d="M40 350q0 76 29.5 144t80.5 118.5t118.5 80t143.5 29.5t144 -29.5t118.5 -80t80 -118.5t29.5 -144q0 -77 -29.5 -144.5t-80 -118t-118.5 -80t-144 -29.5t-143.5 29.5t-118.5 80t-80.5 118t-29.5 144.5zM160 350q0 -52 20 -97.5t54.5 -80t80 -54.5t97.5 -20q51 0 97 20
t80.5 54.5t54.5 80t20 97.5q0 51 -20 97t-54.5 80t-80.5 54t-97 20q-52 0 -97.5 -20t-80 -54t-54.5 -80t-20 -97zM358 825q0 20 15 38l72 82q15 17 39 17q23 0 38.5 -15.5t15.5 -38.5q0 -11 -4 -20t-10 -16l-68 -77q-8 -10 -19.5 -16.5t-25.5 -6.5q-23 0 -38 15t-15 38z" />
    <glyph glyph-name="Ocircumflex" unicode="&#xd4;" horiz-adv-x="824" 
d="M40 350q0 76 29.5 144t80.5 118.5t118.5 80t143.5 29.5t144 -29.5t118.5 -80t80 -118.5t29.5 -144q0 -77 -29.5 -144.5t-80 -118t-118.5 -80t-144 -29.5t-143.5 29.5t-118.5 80t-80.5 118t-29.5 144.5zM160 350q0 -52 20 -97.5t54.5 -80t80 -54.5t97.5 -20q51 0 97 20
t80.5 54.5t54.5 80t20 97.5q0 51 -20 97t-54.5 80t-80.5 54t-97 20q-52 0 -97.5 -20t-80 -54t-54.5 -80t-20 -97zM540 858q10 -14 10 -32q0 -23 -15.5 -38.5t-38.5 -15.5t-32.5 9t-11.5 13l-40 57l-41 -57q-2 -4 -11.5 -13t-32.5 -9t-38.5 15.5t-15.5 38.5q0 18 10 32
l81 116q4 6 14.5 16.5t33.5 10.5t32.5 -10.5t13.5 -16.5z" />
    <glyph glyph-name="Otilde" unicode="&#xd5;" horiz-adv-x="824" 
d="M40 350q0 76 29.5 144t80.5 118.5t118.5 80t143.5 29.5t144 -29.5t118.5 -80t80 -118.5t29.5 -144q0 -77 -29.5 -144.5t-80 -118t-118.5 -80t-144 -29.5t-143.5 29.5t-118.5 80t-80.5 118t-29.5 144.5zM160 350q0 -52 20 -97.5t54.5 -80t80 -54.5t97.5 -20q51 0 97 20
t80.5 54.5t54.5 80t20 97.5q0 51 -20 97t-54.5 80t-80.5 54t-97 20q-52 0 -97.5 -20t-80 -54t-54.5 -80t-20 -97zM376 935q23 0 39.5 -7.5t30.5 -15.5q2 0 6 4t10 9t15.5 9t23.5 4q20 0 38 -15.5t18 -42.5q0 -19 -11.5 -35t-28.5 -27.5t-36.5 -18t-34.5 -6.5q-12 0 -23.5 3
t-21 7t-16.5 7.5t-10 5.5q-3 0 -7.5 -4t-11 -8.5t-15.5 -8.5t-22 -4q-9 0 -18.5 3.5t-17.5 10.5t-13.5 17.5t-5.5 24.5q0 17 10 33t26 28t36 19.5t40 7.5z" />
    <glyph glyph-name="Odieresis" unicode="&#xd6;" horiz-adv-x="824" 
d="M40 350q0 76 29.5 144t80.5 118.5t118.5 80t143.5 29.5t144 -29.5t118.5 -80t80 -118.5t29.5 -144q0 -77 -29.5 -144.5t-80 -118t-118.5 -80t-144 -29.5t-143.5 29.5t-118.5 80t-80.5 118t-29.5 144.5zM160 350q0 -52 20 -97.5t54.5 -80t80 -54.5t97.5 -20q51 0 97 20
t80.5 54.5t54.5 80t20 97.5q0 51 -20 97t-54.5 80t-80.5 54t-97 20q-52 0 -97.5 -20t-80 -54t-54.5 -80t-20 -97zM245 859q0 27 18 45.5t46 18.5t46 -18.5t18 -45.5q0 -28 -18 -46.5t-46 -18.5t-46 18.5t-18 46.5zM438 859q0 27 18 45.5t46 18.5t46 -18.5t18 -45.5
q0 -28 -18 -46.5t-46 -18.5t-46 18.5t-18 46.5z" />
    <glyph glyph-name="multiply" unicode="&#xd7;" horiz-adv-x="488" 
d="M158 131q-23 0 -40.5 16.5t-17.5 41.5t17 41l45 45l-44 44q-17 17 -17 41q0 23 17.5 40.5t40.5 17.5q24 0 41 -17l44 -44l44 44q17 17 41 17t40.5 -17t16.5 -41q0 -25 -16 -41l-44 -44l45 -45q17 -17 17 -41q0 -23 -17.5 -40.5t-40.5 -17.5q-24 0 -41 17l-45 45l-45 -45
q-19 -17 -41 -17z" />
    <glyph glyph-name="Oslash" unicode="&#xd8;" horiz-adv-x="824" 
d="M40 350q0 76 29.5 144t80.5 118.5t118.5 80t143.5 29.5q14 0 28.5 -1t28.5 -3l17 52q6 20 21 30t35 10q26 0 42 -18.5t16 -41.5q0 -8 -3 -17l-17 -52q54 -28 94 -69q51 -51 80.5 -118.5t29.5 -143.5q0 -77 -29.5 -144.5t-80 -118t-118.5 -80t-144 -29.5q-15 0 -30 1.5
t-29 3.5l-15 -49q-6 -19 -20.5 -30t-34.5 -11q-28 0 -44 17.5t-16 41.5q0 9 3 18l16 50q-53 28 -92 67q-51 51 -80.5 118t-29.5 145zM589 527q-11 11 -22.5 20t-24.5 17l-151 -466h21q51 0 97 20t80.5 54.5t54.5 80t20 97.5q0 51 -20 97t-55 80zM160 350q0 -52 20 -97.5
t54 -80.5q22 -22 46 -36l151 464q-5 1 -9.5 1h-9.5q-52 0 -97.5 -20t-80 -54t-54.5 -80t-20 -97z" />
    <glyph glyph-name="Ugrave" unicode="&#xd9;" horiz-adv-x="650" 
d="M200 220q0 -26 9.5 -48t26 -38.5t38.5 -26t48 -9.5t48.5 9.5t39 26t26 38.5t9.5 48v420q0 26 18 43t42 17t42 -17t18 -43v-420q0 -51 -18.5 -95t-51.5 -77t-77.5 -51.5t-95.5 -18.5t-95 18.5t-77 51.5t-51.5 77t-18.5 95v420q0 26 18 43t42 17t42 -17t18 -43v-420z
M379 825q0 -23 -15 -38t-38 -15q-14 0 -25.5 6.5t-19.5 16.5l-68 77q-6 7 -10 16t-4 20q0 23 15.5 38.5t38.5 15.5q24 0 39 -17l72 -82q15 -18 15 -38z" />
    <glyph glyph-name="Uacute" unicode="&#xda;" horiz-adv-x="650" 
d="M200 220q0 -26 9.5 -48t26 -38.5t38.5 -26t48 -9.5t48.5 9.5t39 26t26 38.5t9.5 48v420q0 26 18 43t42 17t42 -17t18 -43v-420q0 -51 -18.5 -95t-51.5 -77t-77.5 -51.5t-95.5 -18.5t-95 18.5t-77 51.5t-51.5 77t-18.5 95v420q0 26 18 43t42 17t42 -17t18 -43v-420z
M270 825q0 20 15 38l72 82q15 17 39 17q23 0 38.5 -15.5t15.5 -38.5q0 -11 -4 -20t-10 -16l-68 -77q-8 -10 -19.5 -16.5t-25.5 -6.5q-23 0 -38 15t-15 38z" />
    <glyph glyph-name="Ucircumflex" unicode="&#xdb;" horiz-adv-x="650" 
d="M200 220q0 -26 9.5 -48t26 -38.5t38.5 -26t48 -9.5t48.5 9.5t39 26t26 38.5t9.5 48v420q0 26 18 43t42 17t42 -17t18 -43v-420q0 -51 -18.5 -95t-51.5 -77t-77.5 -51.5t-95.5 -18.5t-95 18.5t-77 51.5t-51.5 77t-18.5 95v420q0 26 18 43t42 17t42 -17t18 -43v-420z
M450 858q10 -14 10 -32q0 -23 -15.5 -38.5t-38.5 -15.5t-32.5 9t-11.5 13l-40 57l-41 -57q-2 -4 -11.5 -13t-32.5 -9t-38.5 15.5t-15.5 38.5q0 18 10 32l81 116q4 6 14.5 16.5t33.5 10.5t32.5 -10.5t13.5 -16.5z" />
    <glyph glyph-name="Udieresis" unicode="&#xdc;" horiz-adv-x="650" 
d="M200 220q0 -26 9.5 -48t26 -38.5t38.5 -26t48 -9.5t48.5 9.5t39 26t26 38.5t9.5 48v420q0 26 18 43t42 17t42 -17t18 -43v-420q0 -51 -18.5 -95t-51.5 -77t-77.5 -51.5t-95.5 -18.5t-95 18.5t-77 51.5t-51.5 77t-18.5 95v420q0 26 18 43t42 17t42 -17t18 -43v-420z
M164 859q0 27 18 45.5t46 18.5t46 -18.5t18 -45.5q0 -28 -18 -46.5t-46 -18.5t-46 18.5t-18 46.5zM357 859q0 27 18 45.5t46 18.5t46 -18.5t18 -45.5q0 -28 -18 -46.5t-46 -18.5t-46 18.5t-18 46.5z" />
    <glyph glyph-name="Yacute" unicode="&#xdd;" horiz-adv-x="498" 
d="M60 700q15 0 29.5 -6.5t23.5 -24.5l136 -264l137 264q9 18 23 24.5t28 6.5q26 0 43.5 -17t17.5 -41q0 -15 -7 -28l-179 -341v-211q0 -26 -18.5 -44t-44.5 -18t-44 18t-18 44v209l-179 343q-8 16 -8 29q0 25 19.5 41t40.5 16zM202 825q0 20 15 38l72 82q15 17 39 17
q23 0 38.5 -15.5t15.5 -38.5q0 -11 -4 -20t-10 -16l-68 -77q-8 -10 -19.5 -16.5t-25.5 -6.5q-23 0 -38 15t-15 38z" />
    <glyph glyph-name="Thorn" unicode="&#xde;" horiz-adv-x="574" 
d="M70 640q0 25 17.5 42.5t42.5 17.5t42.5 -17.5t17.5 -42.5v-51h100q112 0 175.5 -57t63.5 -169q0 -59 -17 -101t-48.5 -69t-75.5 -40t-98 -13h-100v-80q0 -25 -17.5 -42.5t-42.5 -17.5t-42.5 17.5t-17.5 42.5v580zM413 363q0 59 -33.5 83.5t-88.5 24.5h-101v-214h101
q60 0 91 23t31 83z" />
    <glyph glyph-name="germandbls" unicode="&#xdf;" horiz-adv-x="546" 
d="M230 355q1 30 16.5 44.5t35.5 19.5q27 7 43.5 30.5t16.5 58.5q0 41 -24 58.5t-61 17.5q-22 0 -34 -6t-18 -21t-7.5 -40.5t-1.5 -64.5v-394q0 -24 -17 -41t-41 -17t-41 17t-17 41v453q0 38 8 72.5t26.5 60.5t48.5 41t75 15q50 0 91.5 -11t71 -35t45.5 -61t16 -89
q0 -37 -15 -70.5t-35 -49.5q46 -22 70 -66t24 -110q0 -60 -22.5 -100t-56 -64t-71.5 -34t-68 -10q-25 0 -41.5 16.5t-16.5 41.5t15 41.5t39 19.5q13 1 30 4.5t32.5 12.5t26.5 26.5t11 46.5q0 31 -13.5 47.5t-30.5 24.5t-34 9.5t-23 2.5q-8 1 -17 5.5t-17 12t-13.5 18.5
t-5.5 26z" />
    <glyph glyph-name="agrave" unicode="&#xe0;" horiz-adv-x="635" 
d="M45 251q0 57 21.5 106.5t58.5 86t86.5 58t106.5 21.5t106.5 -21.5t86 -58t58 -86t21.5 -106.5v-193q0 -24 -17 -41t-41 -17t-38 14t-17 25q-72 -60 -159 -60q-62 0 -112.5 21t-86 58t-55 86.5t-19.5 106.5zM162 251q0 -32 12.5 -60.5t33.5 -49.5t49.5 -33.5t60.5 -12.5
t60.5 11.5t49.5 32.5t33.5 49.5t12.5 62.5q0 32 -12.5 60.5t-33.5 49.5t-49.5 33.5t-60.5 12.5t-60.5 -12.5t-49.5 -33.5t-33.5 -49.5t-12.5 -60.5zM371 627q0 -23 -15 -38t-38 -15q-14 0 -25.5 6.5t-19.5 16.5l-68 77q-6 7 -10 16t-4 20q0 23 15.5 38.5t38.5 15.5
q24 0 39 -17l72 -82q15 -18 15 -38z" />
    <glyph glyph-name="aacute" unicode="&#xe1;" horiz-adv-x="635" 
d="M45 251q0 57 21.5 106.5t58.5 86t86.5 58t106.5 21.5t106.5 -21.5t86 -58t58 -86t21.5 -106.5v-193q0 -24 -17 -41t-41 -17t-38 14t-17 25q-72 -60 -159 -60q-62 0 -112.5 21t-86 58t-55 86.5t-19.5 106.5zM162 251q0 -32 12.5 -60.5t33.5 -49.5t49.5 -33.5t60.5 -12.5
t60.5 11.5t49.5 32.5t33.5 49.5t12.5 62.5q0 32 -12.5 60.5t-33.5 49.5t-49.5 33.5t-60.5 12.5t-60.5 -12.5t-49.5 -33.5t-33.5 -49.5t-12.5 -60.5zM265 627q0 20 15 38l72 82q15 17 39 17q23 0 38.5 -15.5t15.5 -38.5q0 -11 -4 -20t-10 -16l-68 -77q-8 -10 -19.5 -16.5
t-25.5 -6.5q-23 0 -38 15t-15 38z" />
    <glyph glyph-name="acircumflex" unicode="&#xe2;" horiz-adv-x="635" 
d="M45 251q0 57 21.5 106.5t58.5 86t86.5 58t106.5 21.5t106.5 -21.5t86 -58t58 -86t21.5 -106.5v-193q0 -24 -17 -41t-41 -17t-38 14t-17 25q-72 -60 -159 -60q-62 0 -112.5 21t-86 58t-55 86.5t-19.5 106.5zM162 251q0 -32 12.5 -60.5t33.5 -49.5t49.5 -33.5t60.5 -12.5
t60.5 11.5t49.5 32.5t33.5 49.5t12.5 62.5q0 32 -12.5 60.5t-33.5 49.5t-49.5 33.5t-60.5 12.5t-60.5 -12.5t-49.5 -33.5t-33.5 -49.5t-12.5 -60.5zM446 660q10 -14 10 -32q0 -23 -15.5 -38.5t-38.5 -15.5t-32.5 9t-11.5 13l-40 57l-41 -57q-2 -4 -11.5 -13t-32.5 -9
t-38.5 15.5t-15.5 38.5q0 18 10 32l81 116q4 6 14.5 16.5t33.5 10.5t32.5 -10.5t13.5 -16.5z" />
    <glyph glyph-name="atilde" unicode="&#xe3;" horiz-adv-x="635" 
d="M45 251q0 57 21.5 106.5t58.5 86t86.5 58t106.5 21.5t106.5 -21.5t86 -58t58 -86t21.5 -106.5v-193q0 -24 -17 -41t-41 -17t-38 14t-17 25q-72 -60 -159 -60q-62 0 -112.5 21t-86 58t-55 86.5t-19.5 106.5zM162 251q0 -32 12.5 -60.5t33.5 -49.5t49.5 -33.5t60.5 -12.5
t60.5 11.5t49.5 32.5t33.5 49.5t12.5 62.5q0 32 -12.5 60.5t-33.5 49.5t-49.5 33.5t-60.5 12.5t-60.5 -12.5t-49.5 -33.5t-33.5 -49.5t-12.5 -60.5zM281 738q23 0 39.5 -7.5t30.5 -15.5q2 0 6 4t10 9t15.5 9t23.5 4q20 0 38 -15.5t18 -42.5q0 -19 -11.5 -35t-28.5 -27.5
t-36.5 -18t-34.5 -6.5q-12 0 -23.5 3t-21 7t-16.5 7.5t-10 5.5q-3 0 -7.5 -4t-11 -8.5t-15.5 -8.5t-22 -4q-9 0 -18.5 3.5t-17.5 10.5t-13.5 17.5t-5.5 24.5q0 17 10 33t26 28t36 19.5t40 7.5z" />
    <glyph glyph-name="adieresis" unicode="&#xe4;" horiz-adv-x="635" 
d="M45 251q0 57 21.5 106.5t58.5 86t86.5 58t106.5 21.5t106.5 -21.5t86 -58t58 -86t21.5 -106.5v-193q0 -24 -17 -41t-41 -17t-38 14t-17 25q-72 -60 -159 -60q-62 0 -112.5 21t-86 58t-55 86.5t-19.5 106.5zM162 251q0 -32 12.5 -60.5t33.5 -49.5t49.5 -33.5t60.5 -12.5
t60.5 11.5t49.5 32.5t33.5 49.5t12.5 62.5q0 32 -12.5 60.5t-33.5 49.5t-49.5 33.5t-60.5 12.5t-60.5 -12.5t-49.5 -33.5t-33.5 -49.5t-12.5 -60.5zM157 661q0 27 18 45.5t46 18.5t46 -18.5t18 -45.5q0 -28 -18 -46.5t-46 -18.5t-46 18.5t-18 46.5zM350 661q0 27 18 45.5
t46 18.5t46 -18.5t18 -45.5q0 -28 -18 -46.5t-46 -18.5t-46 18.5t-18 46.5z" />
    <glyph glyph-name="aring" unicode="&#xe5;" horiz-adv-x="635" 
d="M45 251q0 57 21.5 106.5t58.5 86t86.5 58t106.5 21.5t106.5 -21.5t86 -58t58 -86t21.5 -106.5v-193q0 -24 -17 -41t-41 -17t-38 14t-17 25q-72 -60 -159 -60q-62 0 -112.5 21t-86 58t-55 86.5t-19.5 106.5zM162 251q0 -32 12.5 -60.5t33.5 -49.5t49.5 -33.5t60.5 -12.5
t60.5 11.5t49.5 32.5t33.5 49.5t12.5 62.5q0 32 -12.5 60.5t-33.5 49.5t-49.5 33.5t-60.5 12.5t-60.5 -12.5t-49.5 -33.5t-33.5 -49.5t-12.5 -60.5zM285 678q0 -14 9.5 -23.5t23.5 -9.5t24 9.5t10 23.5t-10 24t-24 10t-23.5 -10t-9.5 -24zM214 678q0 22 8 41t22 33t33 22.5
t41 8.5t41 -8.5t33 -22.5t22.5 -33t8.5 -41t-8.5 -41t-22.5 -33t-33 -22t-41 -8q-44 0 -74 30t-30 74z" />
    <glyph glyph-name="ccedilla" unicode="&#xe7;" horiz-adv-x="576" 
d="M255 -14q-11 3 -22 6.5t-22 7.5q-36 16 -66.5 41t-52.5 57.5t-34.5 71t-12.5 81.5q0 57 21.5 106.5t58.5 86t86.5 58t106.5 21.5q37 0 74.5 -9.5t70.5 -30.5q34 -21 57 -48.5t23 -48.5q0 -24 -17 -41t-40 -17q-16 0 -29.5 11t-26.5 24q-21 22 -48 33t-64 11
q-32 0 -60.5 -12.5t-49.5 -33.5t-33.5 -49.5t-12.5 -60.5t12.5 -60.5t33.5 -49.5t49.5 -33.5t60.5 -12.5q77 0 118 48q3 4 8 10t12 12t15.5 10t17.5 4q23 0 40 -17t17 -40q0 -11 -6.5 -24.5t-18 -27t-26.5 -27t-31 -23.5q-32 -20 -70 -31q-13 -4 -23 -5v-37q39 -11 66.5 -43
t27.5 -74q0 -26 -10 -47.5t-26.5 -38t-38.5 -25.5t-46 -9h-36q-23 0 -38 15t-15 38t15 38t38 15h26q7 0 10.5 4.5t3.5 9.5t-3.5 9.5t-10.5 4.5h-26q-21 0 -37 15t-16 38v89z" />
    <glyph glyph-name="egrave" unicode="&#xe8;" horiz-adv-x="615" 
d="M162 243q1 -31 14 -58t34 -47t49 -31.5t59 -11.5q50 0 77.5 14.5t45 32.5t30 32.5t33.5 14.5q20 0 38.5 -16t18.5 -41q0 -21 -19 -47.5t-51.5 -50t-77 -39.5t-95.5 -16q-57 0 -106.5 21.5t-86.5 58t-58.5 86t-21.5 106.5t21.5 106.5t58.5 86t86.5 58t106.5 21.5
q47 0 87 -13.5t71.5 -36.5t55 -55t38.5 -69q13 -33 15 -56q0 -21 -15 -35.5t-36 -14.5h-372zM371 627q0 -23 -15 -38t-38 -15q-14 0 -25.5 6.5t-19.5 16.5l-68 77q-6 7 -10 16t-4 20q0 23 15.5 38.5t38.5 15.5q24 0 39 -17l72 -82q15 -18 15 -38zM460 321q-15 42 -53 71.5
t-89 29.5t-89 -29.5t-53 -71.5h284z" />
    <glyph glyph-name="eacute" unicode="&#xe9;" horiz-adv-x="615" 
d="M162 243q1 -31 14 -58t34 -47t49 -31.5t59 -11.5q50 0 77.5 14.5t45 32.5t30 32.5t33.5 14.5q20 0 38.5 -16t18.5 -41q0 -21 -19 -47.5t-51.5 -50t-77 -39.5t-95.5 -16q-57 0 -106.5 21.5t-86.5 58t-58.5 86t-21.5 106.5t21.5 106.5t58.5 86t86.5 58t106.5 21.5
q47 0 87 -13.5t71.5 -36.5t55 -55t38.5 -69q13 -33 15 -56q0 -21 -15 -35.5t-36 -14.5h-372zM265 627q0 20 15 38l72 82q15 17 39 17q23 0 38.5 -15.5t15.5 -38.5q0 -11 -4 -20t-10 -16l-68 -77q-8 -10 -19.5 -16.5t-25.5 -6.5q-23 0 -38 15t-15 38zM460 321
q-15 42 -53 71.5t-89 29.5t-89 -29.5t-53 -71.5h284z" />
    <glyph glyph-name="ecircumflex" unicode="&#xea;" horiz-adv-x="615" 
d="M162 243q1 -31 14 -58t34 -47t49 -31.5t59 -11.5q50 0 77.5 14.5t45 32.5t30 32.5t33.5 14.5q20 0 38.5 -16t18.5 -41q0 -21 -19 -47.5t-51.5 -50t-77 -39.5t-95.5 -16q-57 0 -106.5 21.5t-86.5 58t-58.5 86t-21.5 106.5t21.5 106.5t58.5 86t86.5 58t106.5 21.5
q47 0 87 -13.5t71.5 -36.5t55 -55t38.5 -69q13 -33 15 -56q0 -21 -15 -35.5t-36 -14.5h-372zM444 660q10 -14 10 -32q0 -23 -15.5 -38.5t-38.5 -15.5t-32.5 9t-11.5 13l-40 57l-41 -57q-2 -4 -11.5 -13t-32.5 -9t-38.5 15.5t-15.5 38.5q0 18 10 32l81 116q4 6 14.5 16.5
t33.5 10.5t32.5 -10.5t13.5 -16.5zM460 321q-15 42 -53 71.5t-89 29.5t-89 -29.5t-53 -71.5h284z" />
    <glyph glyph-name="edieresis" unicode="&#xeb;" horiz-adv-x="615" 
d="M162 243q1 -31 14 -58t34 -47t49 -31.5t59 -11.5q50 0 77.5 14.5t45 32.5t30 32.5t33.5 14.5q20 0 38.5 -16t18.5 -41q0 -21 -19 -47.5t-51.5 -50t-77 -39.5t-95.5 -16q-57 0 -106.5 21.5t-86.5 58t-58.5 86t-21.5 106.5t21.5 106.5t58.5 86t86.5 58t106.5 21.5
q47 0 87 -13.5t71.5 -36.5t55 -55t38.5 -69q13 -33 15 -56q0 -21 -15 -35.5t-36 -14.5h-372zM157 662q0 27 18 45.5t46 18.5t46 -18.5t18 -45.5q0 -28 -18 -46.5t-46 -18.5t-46 18.5t-18 46.5zM350 662q0 27 18 45.5t46 18.5t46 -18.5t18 -45.5q0 -28 -18 -46.5t-46 -18.5
t-46 18.5t-18 46.5zM460 321q-15 42 -53 71.5t-89 29.5t-89 -29.5t-53 -71.5h284z" />
    <glyph glyph-name="igrave" unicode="&#xec;" horiz-adv-x="263" 
d="M75 441q0 25 17 42t42 17t42 -17t17 -42v-382q0 -25 -17 -42t-42 -17t-42 17t-17 42v382zM186 627q0 -23 -15 -38t-38 -15q-14 0 -25.5 6.5t-19.5 16.5l-68 77q-6 7 -10 16t-4 20q0 23 15.5 38.5t38.5 15.5q24 0 39 -17l72 -82q15 -18 15 -38z" />
    <glyph glyph-name="iacute" unicode="&#xed;" horiz-adv-x="263" 
d="M75 441q0 25 17 42t42 17t42 -17t17 -42v-382q0 -25 -17 -42t-42 -17t-42 17t-17 42v382zM81 627q0 20 15 38l72 82q15 17 39 17q23 0 38.5 -15.5t15.5 -38.5q0 -11 -4 -20t-10 -16l-68 -77q-8 -10 -19.5 -16.5t-25.5 -6.5q-23 0 -38 15t-15 38z" />
    <glyph glyph-name="icircumflex" unicode="&#xee;" horiz-adv-x="263" 
d="M262 660q10 -14 10 -32q0 -23 -15.5 -38.5t-38.5 -15.5t-32.5 9t-11.5 13l-40 57l-41 -57q-2 -4 -11.5 -13t-32.5 -9t-38.5 15.5t-15.5 38.5q0 18 10 32l81 116q4 6 14.5 16.5t33.5 10.5t32.5 -10.5t13.5 -16.5zM75 441q0 25 17 42t42 17t42 -17t17 -42v-382
q0 -25 -17 -42t-42 -17t-42 17t-17 42v382z" />
    <glyph glyph-name="idieresis" unicode="&#xef;" horiz-adv-x="263" 
d="M-26 662q0 27 18 45.5t46 18.5t46 -18.5t18 -45.5q0 -28 -18 -46.5t-46 -18.5t-46 18.5t-18 46.5zM167 662q0 27 18 45.5t46 18.5t46 -18.5t18 -45.5q0 -28 -18 -46.5t-46 -18.5t-46 18.5t-18 46.5zM75 441q0 25 17 42t42 17t42 -17t17 -42v-382q0 -25 -17 -42t-42 -17
t-42 17t-17 42v382z" />
    <glyph glyph-name="eth" unicode="&#xf0;" horiz-adv-x="640" 
d="M190 599q-4 -2 -8 -3t-10 -1q-13 0 -21 8t-8 21t6 19.5t14 10.5l91 43q-25 16 -43 23.5t-33 13.5q-11 5 -21.5 15.5t-10.5 30.5t14.5 34.5t34.5 14.5q14 0 35 -7t44 -18t46.5 -25.5t42.5 -29.5l114 54q2 1 7 3t10 2q13 0 21.5 -8.5t8.5 -21.5t-6 -19t-12 -9l-94 -45
q37 -37 70.5 -85.5t58.5 -106.5t39.5 -124t14.5 -138q0 -56 -22.5 -105.5t-60.5 -86.5t-88.5 -58.5t-106.5 -21.5t-105.5 21.5t-86.5 58.5t-58.5 86.5t-21.5 105.5t21.5 105.5t58.5 86.5t86.5 58.5t105.5 21.5q57 0 109 -23q-20 48 -51 87t-66 69zM162 251q0 -32 12.5 -60.5
t33.5 -49.5t49.5 -33.5t60.5 -12.5t60.5 12.5t49.5 33.5t33.5 49.5t12.5 60.5t-12.5 60.5t-33.5 49.5t-49.5 33.5t-60.5 12.5t-60.5 -12.5t-49.5 -33.5t-33.5 -49.5t-12.5 -60.5z" />
    <glyph glyph-name="ntilde" unicode="&#xf1;" horiz-adv-x="591" 
d="M407 295q0 50 -32 80t-78 30t-77.5 -30t-31.5 -80v-236q0 -25 -17 -42t-42 -17t-42 17t-17 42v383q0 23 17 40.5t41 17.5t38 -12t19 -27q5 7 14 18t23 20.5t34.5 16.5t49.5 7q45 0 85 -16t70 -46t47.5 -72t17.5 -94v-236q0 -25 -17 -42t-42 -17t-42.5 17t-17.5 42v236z
M266 738q23 0 39.5 -7.5t30.5 -15.5q2 0 6 4t10 9t15.5 9t23.5 4q20 0 38 -15.5t18 -42.5q0 -19 -11.5 -35t-28.5 -27.5t-36.5 -18t-34.5 -6.5q-12 0 -23.5 3t-21 7t-16.5 7.5t-10 5.5q-3 0 -7.5 -4t-11 -8.5t-15.5 -8.5t-22 -4q-9 0 -18.5 3.5t-17.5 10.5t-13.5 17.5
t-5.5 24.5q0 17 10 33t26 28t36 19.5t40 7.5z" />
    <glyph glyph-name="ograve" unicode="&#xf2;" horiz-adv-x="635" 
d="M45 251q0 57 21.5 106.5t58.5 86t86.5 58t106.5 21.5t106.5 -21.5t86 -58t58 -86t21.5 -106.5t-21.5 -106.5t-58 -86t-86 -58t-106.5 -21.5t-106.5 21.5t-86.5 58t-58.5 86t-21.5 106.5zM162 251q0 -32 12.5 -60.5t33.5 -49.5t49.5 -33.5t60.5 -12.5t60.5 12.5t49.5 33.5
t33.5 49.5t12.5 60.5t-12.5 60.5t-33.5 49.5t-49.5 33.5t-60.5 12.5t-60.5 -12.5t-49.5 -33.5t-33.5 -49.5t-12.5 -60.5zM371 627q0 -23 -15 -38t-38 -15q-14 0 -25.5 6.5t-19.5 16.5l-68 77q-6 7 -10 16t-4 20q0 23 15.5 38.5t38.5 15.5q24 0 39 -17l72 -82q15 -18 15 -38z
" />
    <glyph glyph-name="oacute" unicode="&#xf3;" horiz-adv-x="635" 
d="M45 251q0 57 21.5 106.5t58.5 86t86.5 58t106.5 21.5t106.5 -21.5t86 -58t58 -86t21.5 -106.5t-21.5 -106.5t-58 -86t-86 -58t-106.5 -21.5t-106.5 21.5t-86.5 58t-58.5 86t-21.5 106.5zM162 251q0 -32 12.5 -60.5t33.5 -49.5t49.5 -33.5t60.5 -12.5t60.5 12.5t49.5 33.5
t33.5 49.5t12.5 60.5t-12.5 60.5t-33.5 49.5t-49.5 33.5t-60.5 12.5t-60.5 -12.5t-49.5 -33.5t-33.5 -49.5t-12.5 -60.5zM265 627q0 20 15 38l72 82q15 17 39 17q23 0 38.5 -15.5t15.5 -38.5q0 -11 -4 -20t-10 -16l-68 -77q-8 -10 -19.5 -16.5t-25.5 -6.5q-23 0 -38 15
t-15 38z" />
    <glyph glyph-name="ocircumflex" unicode="&#xf4;" horiz-adv-x="635" 
d="M45 251q0 57 21.5 106.5t58.5 86t86.5 58t106.5 21.5t106.5 -21.5t86 -58t58 -86t21.5 -106.5t-21.5 -106.5t-58 -86t-86 -58t-106.5 -21.5t-106.5 21.5t-86.5 58t-58.5 86t-21.5 106.5zM162 251q0 -32 12.5 -60.5t33.5 -49.5t49.5 -33.5t60.5 -12.5t60.5 12.5t49.5 33.5
t33.5 49.5t12.5 60.5t-12.5 60.5t-33.5 49.5t-49.5 33.5t-60.5 12.5t-60.5 -12.5t-49.5 -33.5t-33.5 -49.5t-12.5 -60.5zM446 660q10 -14 10 -32q0 -23 -15.5 -38.5t-38.5 -15.5t-32.5 9t-11.5 13l-40 57l-41 -57q-2 -4 -11.5 -13t-32.5 -9t-38.5 15.5t-15.5 38.5
q0 18 10 32l81 116q4 6 14.5 16.5t33.5 10.5t32.5 -10.5t13.5 -16.5z" />
    <glyph glyph-name="otilde" unicode="&#xf5;" horiz-adv-x="635" 
d="M45 251q0 57 21.5 106.5t58.5 86t86.5 58t106.5 21.5t106.5 -21.5t86 -58t58 -86t21.5 -106.5t-21.5 -106.5t-58 -86t-86 -58t-106.5 -21.5t-106.5 21.5t-86.5 58t-58.5 86t-21.5 106.5zM162 251q0 -32 12.5 -60.5t33.5 -49.5t49.5 -33.5t60.5 -12.5t60.5 12.5t49.5 33.5
t33.5 49.5t12.5 60.5t-12.5 60.5t-33.5 49.5t-49.5 33.5t-60.5 12.5t-60.5 -12.5t-49.5 -33.5t-33.5 -49.5t-12.5 -60.5zM285 738q23 0 39.5 -7.5t30.5 -15.5q2 0 6 4t10 9t15.5 9t23.5 4q20 0 38 -15.5t18 -42.5q0 -19 -11.5 -35t-28.5 -27.5t-36.5 -18t-34.5 -6.5
q-12 0 -23.5 3t-21 7t-16.5 7.5t-10 5.5q-3 0 -7.5 -4t-11 -8.5t-15.5 -8.5t-22 -4q-9 0 -18.5 3.5t-17.5 10.5t-13.5 17.5t-5.5 24.5q0 17 10 33t26 28t36 19.5t40 7.5z" />
    <glyph glyph-name="odieresis" unicode="&#xf6;" horiz-adv-x="635" 
d="M45 251q0 57 21.5 106.5t58.5 86t86.5 58t106.5 21.5t106.5 -21.5t86 -58t58 -86t21.5 -106.5t-21.5 -106.5t-58 -86t-86 -58t-106.5 -21.5t-106.5 21.5t-86.5 58t-58.5 86t-21.5 106.5zM162 251q0 -32 12.5 -60.5t33.5 -49.5t49.5 -33.5t60.5 -12.5t60.5 12.5t49.5 33.5
t33.5 49.5t12.5 60.5t-12.5 60.5t-33.5 49.5t-49.5 33.5t-60.5 12.5t-60.5 -12.5t-49.5 -33.5t-33.5 -49.5t-12.5 -60.5zM158 661q0 27 18 45.5t46 18.5t46 -18.5t18 -45.5q0 -28 -18 -46.5t-46 -18.5t-46 18.5t-18 46.5zM351 661q0 27 18 45.5t46 18.5t46 -18.5t18 -45.5
q0 -28 -18 -46.5t-46 -18.5t-46 18.5t-18 46.5z" />
    <glyph glyph-name="divide" unicode="&#xf7;" horiz-adv-x="558" 
d="M212 64q0 28 18 46.5t46 18.5t46 -18.5t18 -46.5q0 -27 -18 -45.5t-46 -18.5t-46 18.5t-18 45.5zM212 436q0 27 18 45.5t46 18.5t46 -18.5t18 -45.5q0 -28 -18 -46.5t-46 -18.5t-46 18.5t-18 46.5zM100 248q0 24 17 41t41 17h242q24 0 41 -17t17 -41t-17 -41t-41 -17
h-242q-24 0 -41 17t-17 41z" />
    <glyph glyph-name="oslash" unicode="&#xf8;" horiz-adv-x="635" 
d="M181 15q-62 35 -99 97.5t-37 138.5q0 57 21.5 106.5t58.5 86t86.5 58t106.5 21.5q7 0 14 -0.5t14 -1.5l15 47q6 19 21 29.5t34 10.5q25 0 42 -17t17 -41q0 -10 -3 -19l-15 -46q60 -36 96.5 -97.5t36.5 -136.5q0 -57 -21.5 -106.5t-58 -86t-86 -58t-106.5 -21.5
q-7 0 -13 0.5t-12 0.5l-10 -31q-6 -20 -21 -30.5t-34 -10.5q-26 0 -43 17t-17 41q0 10 3 19zM162 251q0 -36 15.5 -67t41.5 -53l89 276q-30 -2 -57 -15t-46.5 -34t-31 -48.5t-11.5 -58.5zM474 251q0 35 -15 65t-40 52l-89 -273q30 3 56 16t45.5 34t31 48.5t11.5 57.5z" />
    <glyph glyph-name="ugrave" unicode="&#xf9;" horiz-adv-x="585" 
d="M404 442q0 24 17 41t41 17t41 -17t17 -41v-235q0 -47 -18 -88t-48.5 -72.5t-72 -49.5t-88.5 -18t-88 18t-72.5 49.5t-49.5 73t-18 88.5v234q0 24 17 41t41 17t41 -17t17 -41v-235q0 -23 9 -43t24 -35t35.5 -23.5t43.5 -8.5q22 0 42.5 8.5t35.5 23.5t24 35t9 43v235z
M348 627q0 -23 -15 -38t-38 -15q-14 0 -25.5 6.5t-19.5 16.5l-68 77q-6 7 -10 16t-4 20q0 23 15.5 38.5t38.5 15.5q24 0 39 -17l72 -82q15 -18 15 -38z" />
    <glyph glyph-name="uacute" unicode="&#xfa;" horiz-adv-x="585" 
d="M404 442q0 24 17 41t41 17t41 -17t17 -41v-235q0 -47 -18 -88t-48.5 -72.5t-72 -49.5t-88.5 -18t-88 18t-72.5 49.5t-49.5 73t-18 88.5v234q0 24 17 41t41 17t41 -17t17 -41v-235q0 -23 9 -43t24 -35t35.5 -23.5t43.5 -8.5q22 0 42.5 8.5t35.5 23.5t24 35t9 43v235z
M243 627q0 20 15 38l72 82q15 17 39 17q23 0 38.5 -15.5t15.5 -38.5q0 -11 -4 -20t-10 -16l-68 -77q-8 -10 -19.5 -16.5t-25.5 -6.5q-23 0 -38 15t-15 38z" />
    <glyph glyph-name="ucircumflex" unicode="&#xfb;" horiz-adv-x="585" 
d="M404 442q0 24 17 41t41 17t41 -17t17 -41v-235q0 -47 -18 -88t-48.5 -72.5t-72 -49.5t-88.5 -18t-88 18t-72.5 49.5t-49.5 73t-18 88.5v234q0 24 17 41t41 17t41 -17t17 -41v-235q0 -23 9 -43t24 -35t35.5 -23.5t43.5 -8.5q22 0 42.5 8.5t35.5 23.5t24 35t9 43v235z
M421 660q10 -14 10 -32q0 -23 -15.5 -38.5t-38.5 -15.5t-32.5 9t-11.5 13l-40 57l-41 -57q-2 -4 -11.5 -13t-32.5 -9t-38.5 15.5t-15.5 38.5q0 18 10 32l81 116q4 6 14.5 16.5t33.5 10.5t32.5 -10.5t13.5 -16.5z" />
    <glyph glyph-name="udieresis" unicode="&#xfc;" horiz-adv-x="585" 
d="M404 442q0 24 17 41t41 17t41 -17t17 -41v-235q0 -47 -18 -88t-48.5 -72.5t-72 -49.5t-88.5 -18t-88 18t-72.5 49.5t-49.5 73t-18 88.5v234q0 24 17 41t41 17t41 -17t17 -41v-235q0 -23 9 -43t24 -35t35.5 -23.5t43.5 -8.5q22 0 42.5 8.5t35.5 23.5t24 35t9 43v235z
M132 661q0 27 18 45.5t46 18.5t46 -18.5t18 -45.5q0 -28 -18 -46.5t-46 -18.5t-46 18.5t-18 46.5zM325 661q0 27 18 45.5t46 18.5t46 -18.5t18 -45.5q0 -28 -18 -46.5t-46 -18.5t-46 18.5t-18 46.5z" />
    <glyph glyph-name="yacute" unicode="&#xfd;" horiz-adv-x="585" 
d="M235 -20q-38 12 -69 34t-53.5 50.5t-35 63.5t-12.5 74v239q0 25 16.5 42t41.5 17t42 -17t17 -42v-239q0 -23 8.5 -43t23.5 -35t35 -24t43 -9q22 0 42 8.5t35.5 23.5t24.5 35t9 43v240q0 25 16.5 42t41.5 17t42 -17t17 -42v-239q0 -38 -10 -73.5t-31 -65.5t-52.5 -52
t-74.5 -32v-119q0 -25 -17 -41.5t-42 -16.5t-41.5 16.5t-16.5 41.5v120zM240 627q0 20 15 38l72 82q15 17 39 17q23 0 38.5 -15.5t15.5 -38.5q0 -11 -4 -20t-10 -16l-68 -77q-8 -10 -19.5 -16.5t-25.5 -6.5q-23 0 -38 15t-15 38z" />
    <glyph glyph-name="thorn" unicode="&#xfe;" horiz-adv-x="554" 
d="M80 640q0 25 17.5 42.5t42.5 17.5t42.5 -17.5t17.5 -42.5v-191h70q112 0 175.5 -57t63.5 -169q0 -59 -17 -101t-48.5 -69t-75.5 -40t-98 -13h-70v-138q0 -25 -17.5 -42.5t-42.5 -17.5t-42.5 17.5t-17.5 42.5v778zM393 223q0 59 -33.5 83.5t-88.5 24.5h-71v-214h71
q60 0 91 23t31 83z" />
    <glyph glyph-name="ydieresis" unicode="&#xff;" horiz-adv-x="585" 
d="M235 -20q-38 12 -69 34t-53.5 50.5t-35 63.5t-12.5 74v239q0 25 16.5 42t41.5 17t42 -17t17 -42v-239q0 -23 8.5 -43t23.5 -35t35 -24t43 -9q22 0 42 8.5t35.5 23.5t24.5 35t9 43v240q0 25 16.5 42t41.5 17t42 -17t17 -42v-239q0 -38 -10 -73.5t-31 -65.5t-52.5 -52
t-74.5 -32v-119q0 -25 -17 -41.5t-42 -16.5t-41.5 16.5t-16.5 41.5v120zM131 662q0 27 18 45.5t46 18.5t46 -18.5t18 -45.5q0 -28 -18 -46.5t-46 -18.5t-46 18.5t-18 46.5zM324 662q0 27 18 45.5t46 18.5t46 -18.5t18 -45.5q0 -28 -18 -46.5t-46 -18.5t-46 18.5t-18 46.5z
" />
    <glyph glyph-name="aogonek" unicode="&#x105;" horiz-adv-x="635" 
d="M45 251q0 57 21.5 106.5t58.5 86t86.5 58t106.5 21.5t106.5 -21.5t86 -58t58 -86t21.5 -106.5v-193q0 -24 -17 -41t-41 -17t-38 14t-17 25q-45 -38 -100 -52v-90q0 -23 -16 -38t-37 -15h-26q-7 0 -10.5 -4.5t-3.5 -9.5t3.5 -9.5t10.5 -4.5h26q23 0 38 -15t15 -38t-15 -38
t-38 -15h-36q-24 0 -46 9t-38.5 25.5t-26.5 38t-10 47.5q0 42 27.5 74t66.5 43v37q-14 2 -28 6.5t-28 9.5q-75 32 -117.5 98.5t-42.5 152.5zM162 251q0 -32 12.5 -60.5t33.5 -49.5t49.5 -33.5t60.5 -12.5t60.5 11.5t49.5 32.5t33.5 49.5t12.5 62.5q0 32 -12.5 60.5
t-33.5 49.5t-49.5 33.5t-60.5 12.5t-60.5 -12.5t-49.5 -33.5t-33.5 -49.5t-12.5 -60.5z" />
    <glyph glyph-name="Cacute" unicode="&#x106;" horiz-adv-x="762" 
d="M727 176q0 -26 -25 -60t-68.5 -64.5t-102 -52t-125.5 -21.5q-75 0 -142 30t-116.5 81t-78.5 118.5t-29 142.5q0 76 29 144t79 118.5t117 80t143 29.5q71 0 130 -24t101 -56t65 -66t23 -53q0 -25 -15.5 -39.5t-41.5 -14.5q-12 0 -23 8.5t-24 22t-29 29.5t-38 31
q-26 17 -61 29t-85 12q-51 0 -96.5 -19.5t-80 -53.5t-54.5 -80t-20 -98t20.5 -98t55 -80t80 -54t95.5 -20q55 0 92.5 14t63.5 34q19 14 33 28.5t26 26.5t22.5 20t22.5 8q22 0 39.5 -14.5t17.5 -38.5zM354 825q0 20 15 38l72 82q15 17 39 17q23 0 38.5 -15.5t15.5 -38.5
q0 -11 -4 -20t-10 -16l-68 -77q-8 -10 -19.5 -16.5t-25.5 -6.5q-23 0 -38 15t-15 38z" />
    <glyph glyph-name="cacute" unicode="&#x107;" horiz-adv-x="576" 
d="M162 251q0 -32 12.5 -60.5t33.5 -49.5t49.5 -33.5t60.5 -12.5q77 0 118 48q3 4 8 10t12 12t15.5 10t17.5 4q23 0 40 -17t17 -40q0 -11 -6.5 -24.5t-18 -27t-26.5 -27t-31 -23.5q-33 -21 -70 -31t-76 -10q-57 0 -106.5 21.5t-86.5 58t-58.5 86t-21.5 106.5t21.5 106.5
t58.5 86t86.5 58t106.5 21.5q37 0 74.5 -9.5t70.5 -30.5q34 -21 57 -48.5t23 -48.5q0 -24 -17 -41t-40 -17q-16 0 -29.5 11t-26.5 24q-21 22 -48 33t-64 11q-32 0 -60.5 -12.5t-49.5 -33.5t-33.5 -49.5t-12.5 -60.5zM265 627q0 20 15 38l72 82q15 17 39 17q23 0 38.5 -15.5
t15.5 -38.5q0 -11 -4 -20t-10 -16l-68 -77q-8 -10 -19.5 -16.5t-25.5 -6.5q-23 0 -38 15t-15 38z" />
    <glyph glyph-name="Ccircumflex" unicode="&#x108;" horiz-adv-x="762" 
d="M727 176q0 -26 -25 -60t-68.5 -64.5t-102 -52t-125.5 -21.5q-75 0 -142 30t-116.5 81t-78.5 118.5t-29 142.5q0 76 29 144t79 118.5t117 80t143 29.5q71 0 130 -24t101 -56t65 -66t23 -53q0 -25 -15.5 -39.5t-41.5 -14.5q-12 0 -23 8.5t-24 22t-29 29.5t-38 31
q-26 17 -61 29t-85 12q-51 0 -96.5 -19.5t-80 -53.5t-54.5 -80t-20 -98t20.5 -98t55 -80t80 -54t95.5 -20q55 0 92.5 14t63.5 34q19 14 33 28.5t26 26.5t22.5 20t22.5 8q22 0 39.5 -14.5t17.5 -38.5zM539 858q10 -14 10 -32q0 -23 -15.5 -38.5t-38.5 -15.5t-32.5 9t-11.5 13
l-40 57l-41 -57q-2 -4 -11.5 -13t-32.5 -9t-38.5 15.5t-15.5 38.5q0 18 10 32l81 116q4 6 14.5 16.5t33.5 10.5t32.5 -10.5t13.5 -16.5z" />
    <glyph glyph-name="ccircumflex" unicode="&#x109;" horiz-adv-x="576" 
d="M162 251q0 -32 12.5 -60.5t33.5 -49.5t49.5 -33.5t60.5 -12.5q77 0 118 48q3 4 8 10t12 12t15.5 10t17.5 4q23 0 40 -17t17 -40q0 -11 -6.5 -24.5t-18 -27t-26.5 -27t-31 -23.5q-33 -21 -70 -31t-76 -10q-57 0 -106.5 21.5t-86.5 58t-58.5 86t-21.5 106.5t21.5 106.5
t58.5 86t86.5 58t106.5 21.5q37 0 74.5 -9.5t70.5 -30.5q34 -21 57 -48.5t23 -48.5q0 -24 -17 -41t-40 -17q-16 0 -29.5 11t-26.5 24q-21 22 -48 33t-64 11q-32 0 -60.5 -12.5t-49.5 -33.5t-33.5 -49.5t-12.5 -60.5zM446 660q10 -14 10 -32q0 -23 -15.5 -38.5t-38.5 -15.5
t-32.5 9t-11.5 13l-40 57l-41 -57q-2 -4 -11.5 -13t-32.5 -9t-38.5 15.5t-15.5 38.5q0 18 10 32l81 116q4 6 14.5 16.5t33.5 10.5t32.5 -10.5t13.5 -16.5z" />
    <glyph glyph-name="Cdotaccent" unicode="&#x10a;" horiz-adv-x="762" 
d="M727 176q0 -26 -25 -60t-68.5 -64.5t-102 -52t-125.5 -21.5q-75 0 -142 30t-116.5 81t-78.5 118.5t-29 142.5q0 76 29 144t79 118.5t117 80t143 29.5q71 0 130 -24t101 -56t65 -66t23 -53q0 -25 -15.5 -39.5t-41.5 -14.5q-12 0 -23 8.5t-24 22t-29 29.5t-38 31
q-26 17 -61 29t-85 12q-51 0 -96.5 -19.5t-80 -53.5t-54.5 -80t-20 -98t20.5 -98t55 -80t80 -54t95.5 -20q55 0 92.5 14t63.5 34q19 14 33 28.5t26 26.5t22.5 20t22.5 8q22 0 39.5 -14.5t17.5 -38.5zM343 858q0 28 18.5 46t45.5 18q28 0 46 -18t18 -46t-18 -46t-46 -18
q-27 0 -45.5 18t-18.5 46z" />
    <glyph glyph-name="cdotaccent" unicode="&#x10b;" horiz-adv-x="576" 
d="M162 251q0 -32 12.5 -60.5t33.5 -49.5t49.5 -33.5t60.5 -12.5q77 0 118 48q3 4 8 10t12 12t15.5 10t17.5 4q23 0 40 -17t17 -40q0 -11 -6.5 -24.5t-18 -27t-26.5 -27t-31 -23.5q-33 -21 -70 -31t-76 -10q-57 0 -106.5 21.5t-86.5 58t-58.5 86t-21.5 106.5t21.5 106.5
t58.5 86t86.5 58t106.5 21.5q37 0 74.5 -9.5t70.5 -30.5q34 -21 57 -48.5t23 -48.5q0 -24 -17 -41t-40 -17q-16 0 -29.5 11t-26.5 24q-21 22 -48 33t-64 11q-32 0 -60.5 -12.5t-49.5 -33.5t-33.5 -49.5t-12.5 -60.5zM251 660q0 28 18.5 46t45.5 18q28 0 46 -18t18 -46
t-18 -46t-46 -18q-27 0 -45.5 18t-18.5 46z" />
    <glyph glyph-name="Ccaron" unicode="&#x10c;" horiz-adv-x="762" 
d="M727 176q0 -26 -25 -60t-68.5 -64.5t-102 -52t-125.5 -21.5q-75 0 -142 30t-116.5 81t-78.5 118.5t-29 142.5q0 76 29 144t79 118.5t117 80t143 29.5q71 0 130 -24t101 -56t65 -66t23 -53q0 -25 -15.5 -39.5t-41.5 -14.5q-12 0 -23 8.5t-24 22t-29 29.5t-38 31
q-26 17 -61 29t-85 12q-51 0 -96.5 -19.5t-80 -53.5t-54.5 -80t-20 -98t20.5 -98t55 -80t80 -54t95.5 -20q55 0 92.5 14t63.5 34q19 14 33 28.5t26 26.5t22.5 20t22.5 8q22 0 39.5 -14.5t17.5 -38.5zM454 799q-4 -6 -13.5 -16.5t-32.5 -10.5t-33.5 10.5t-14.5 16.5l-81 116
q-10 14 -10 32q0 23 15.5 38.5t38.5 15.5t32.5 -9t11.5 -13l41 -57l40 57q2 4 11.5 13t32.5 9t38.5 -15.5t15.5 -38.5q0 -18 -10 -32z" />
    <glyph glyph-name="ccaron" unicode="&#x10d;" horiz-adv-x="576" 
d="M162 251q0 -32 12.5 -60.5t33.5 -49.5t49.5 -33.5t60.5 -12.5q77 0 118 48q3 4 8 10t12 12t15.5 10t17.5 4q23 0 40 -17t17 -40q0 -11 -6.5 -24.5t-18 -27t-26.5 -27t-31 -23.5q-33 -21 -70 -31t-76 -10q-57 0 -106.5 21.5t-86.5 58t-58.5 86t-21.5 106.5t21.5 106.5
t58.5 86t86.5 58t106.5 21.5q37 0 74.5 -9.5t70.5 -30.5q34 -21 57 -48.5t23 -48.5q0 -24 -17 -41t-40 -17q-16 0 -29.5 11t-26.5 24q-21 22 -48 33t-64 11q-32 0 -60.5 -12.5t-49.5 -33.5t-33.5 -49.5t-12.5 -60.5zM361 601q-4 -6 -13.5 -16.5t-32.5 -10.5t-33.5 10.5
t-14.5 16.5l-81 116q-10 14 -10 32q0 23 15.5 38.5t38.5 15.5t32.5 -9t11.5 -13l41 -57l40 57q2 4 11.5 13t32.5 9t38.5 -15.5t15.5 -38.5q0 -18 -10 -32z" />
    <glyph glyph-name="Dcaron" unicode="&#x10e;" horiz-adv-x="718" 
d="M324 700q73 0 136.5 -29t110.5 -78t74.5 -114.5t27.5 -137.5t-27.5 -134.5t-74.5 -108.5t-110.5 -72t-136.5 -26h-184q-25 0 -42.5 17.5t-17.5 42.5v580q0 25 17.5 42.5t42.5 17.5h184zM324 120q48 0 89.5 16.5t73 46t49.5 70t18 88.5q0 47 -18 90.5t-49.5 76.5t-73 52.5
t-89.5 19.5h-124v-460h124zM382 799q-4 -6 -13.5 -16.5t-32.5 -10.5t-33.5 10.5t-14.5 16.5l-81 116q-10 14 -10 32q0 23 15.5 38.5t38.5 15.5t32.5 -9t11.5 -13l41 -57l40 57q2 4 11.5 13t32.5 9t38.5 -15.5t15.5 -38.5q0 -18 -10 -32z" />
    <glyph glyph-name="Edotaccent" unicode="&#x116;" horiz-adv-x="604" 
d="M564 640q0 -23 -17 -41.5t-42 -18.5h-305v-210h240q25 0 42.5 -18t17.5 -42q0 -23 -17.5 -41t-42.5 -18h-240v-131h305q25 0 42 -18.5t17 -41.5t-17 -41.5t-42 -18.5h-365q-25 0 -42.5 17.5t-17.5 42.5v580q0 25 17.5 42.5t42.5 17.5h365q25 0 42 -18.5t17 -41.5z
M258 858q0 28 18.5 46t45.5 18q28 0 46 -18t18 -46t-18 -46t-46 -18q-27 0 -45.5 18t-18.5 46z" />
    <glyph glyph-name="edotaccent" unicode="&#x117;" horiz-adv-x="615" 
d="M162 243q1 -31 14 -58t34 -47t49 -31.5t59 -11.5q50 0 77.5 14.5t45 32.5t30 32.5t33.5 14.5q20 0 38.5 -16t18.5 -41q0 -21 -19 -47.5t-51.5 -50t-77 -39.5t-95.5 -16q-57 0 -106.5 21.5t-86.5 58t-58.5 86t-21.5 106.5t21.5 106.5t58.5 86t86.5 58t106.5 21.5
q47 0 87 -13.5t71.5 -36.5t55 -55t38.5 -69q13 -33 15 -56q0 -21 -15 -35.5t-36 -14.5h-372zM253 660q0 28 18.5 46t45.5 18q28 0 46 -18t18 -46t-18 -46t-46 -18q-27 0 -45.5 18t-18.5 46zM460 321q-15 42 -53 71.5t-89 29.5t-89 -29.5t-53 -71.5h284z" />
    <glyph glyph-name="Eogonek" unicode="&#x118;" horiz-adv-x="604" 
d="M564 640q0 -23 -17 -41.5t-42 -18.5h-305v-210h240q25 0 42.5 -18t17.5 -42q0 -23 -17.5 -41t-42.5 -18h-240v-131h305q25 0 42 -18.5t17 -41.5t-17 -41.5t-42 -18.5h-123v-103q0 -23 -16 -38t-37 -15h-26q-7 0 -10.5 -4.5t-3.5 -9.5t3.5 -9.5t10.5 -4.5h26q23 0 38 -15
t15 -38t-15 -38t-38 -15h-36q-24 0 -46 9t-38.5 25.5t-26.5 38t-10 47.5q0 42 27.5 74t66.5 43v53h-126q-25 0 -42.5 17.5t-17.5 42.5v580q0 25 17.5 42.5t42.5 17.5h365q25 0 42 -18.5t17 -41.5z" />
    <glyph glyph-name="eogonek" unicode="&#x119;" horiz-adv-x="615" 
d="M162 243q1 -31 14 -58t34 -47t49 -31.5t59 -11.5q50 0 77.5 14.5t45 32.5t30 32.5t33.5 14.5q20 0 38.5 -16t18.5 -41q0 -18 -14 -40t-38.5 -43t-58.5 -38.5t-74 -25.5v-88q0 -23 -16 -38t-37 -15h-26q-7 0 -10.5 -4.5t-3.5 -9.5t3.5 -9.5t10.5 -4.5h26q23 0 38 -15
t15 -38t-15 -38t-38 -15h-36q-24 0 -46 9t-38.5 25.5t-26.5 38t-10 47.5q0 42 27.5 74t66.5 43v38q-46 10 -85.5 34t-68 59.5t-45 79.5t-16.5 93q0 57 21.5 106.5t58.5 86t86.5 58t106.5 21.5q47 0 87 -13.5t71.5 -36.5t55 -55t38.5 -69q13 -33 15 -56q0 -21 -15 -35.5
t-36 -14.5h-372zM460 321q-15 42 -53 71.5t-89 29.5t-89 -29.5t-53 -71.5h284z" />
    <glyph glyph-name="Ecaron" unicode="&#x11a;" horiz-adv-x="604" 
d="M564 640q0 -23 -17 -41.5t-42 -18.5h-305v-210h240q25 0 42.5 -18t17.5 -42q0 -23 -17.5 -41t-42.5 -18h-240v-131h305q25 0 42 -18.5t17 -41.5t-17 -41.5t-42 -18.5h-365q-25 0 -42.5 17.5t-17.5 42.5v580q0 25 17.5 42.5t42.5 17.5h365q25 0 42 -18.5t17 -41.5z
M365 799q-4 -6 -13.5 -16.5t-32.5 -10.5t-33.5 10.5t-14.5 16.5l-81 116q-10 14 -10 32q0 23 15.5 38.5t38.5 15.5t32.5 -9t11.5 -13l41 -57l40 57q2 4 11.5 13t32.5 9t38.5 -15.5t15.5 -38.5q0 -18 -10 -32z" />
    <glyph glyph-name="ecaron" unicode="&#x11b;" horiz-adv-x="615" 
d="M162 243q1 -31 14 -58t34 -47t49 -31.5t59 -11.5q50 0 77.5 14.5t45 32.5t30 32.5t33.5 14.5q20 0 38.5 -16t18.5 -41q0 -21 -19 -47.5t-51.5 -50t-77 -39.5t-95.5 -16q-57 0 -106.5 21.5t-86.5 58t-58.5 86t-21.5 106.5t21.5 106.5t58.5 86t86.5 58t106.5 21.5
q47 0 87 -13.5t71.5 -36.5t55 -55t38.5 -69q13 -33 15 -56q0 -21 -15 -35.5t-36 -14.5h-372zM364 601q-4 -6 -13.5 -16.5t-32.5 -10.5t-33.5 10.5t-14.5 16.5l-81 116q-10 14 -10 32q0 23 15.5 38.5t38.5 15.5t32.5 -9t11.5 -13l41 -57l40 57q2 4 11.5 13t32.5 9t38.5 -15.5
t15.5 -38.5q0 -18 -10 -32zM460 321q-15 42 -53 71.5t-89 29.5t-89 -29.5t-53 -71.5h284z" />
    <glyph glyph-name="Gcircumflex" unicode="&#x11c;" horiz-adv-x="783" 
d="M408 -22q-76 0 -143 29.5t-117 80.5t-79 118.5t-29 143.5t29 144t79 118.5t117 80t143 29.5q71 0 130 -24t101 -56t65 -66t23 -53q0 -25 -15.5 -39.5t-41.5 -14.5q-19 0 -37 20.5t-45.5 45.5t-69.5 45.5t-108 20.5q-51 0 -96.5 -19.5t-80 -53.5t-54.5 -80t-20 -98
t20.5 -98t55 -80t80 -54t95.5 -20q63 0 101 15.5t59 38.5t29.5 49.5t11.5 49.5h-132q-25 0 -42 17t-17 42t17 42.5t42 17.5h194q18 0 30 -7.5t18.5 -18t9 -21.5t2.5 -19q0 -97 -29.5 -160t-76.5 -100t-104.5 -51.5t-114.5 -14.5zM534 858q10 -14 10 -32q0 -23 -15.5 -38.5
t-38.5 -15.5t-32.5 9t-11.5 13l-40 57l-41 -57q-2 -4 -11.5 -13t-32.5 -9t-38.5 15.5t-15.5 38.5q0 18 10 32l81 116q4 6 14.5 16.5t33.5 10.5t32.5 -10.5t13.5 -16.5z" />
    <glyph glyph-name="gcircumflex" unicode="&#x11d;" horiz-adv-x="639" 
d="M317 526q43 0 81.5 -13t77.5 -49q4 11 17.5 23.5t37.5 12.5t41 -17t17 -41v-393q0 -58 -18.5 -107.5t-54 -86t-86 -57.5t-113.5 -21q-42 0 -79 11.5t-68 30.5t-55 44t-42 52q-7 13 -7 25q0 22 15 37t35 15q7 0 17.5 -2.5t21.5 -15.5q67 -81 162 -81q33 0 60 10t46.5 28
t30 42t10.5 52q-32 -20 -68.5 -31.5t-78.5 -11.5q-43 0 -80 12q-43 15 -78 40.5t-60.5 59t-39.5 74.5t-14 86q0 57 21.5 106.5t58 86t86 58t106.5 21.5zM443 660q10 -14 10 -32q0 -23 -15.5 -38.5t-38.5 -15.5t-32.5 9t-11.5 13l-40 57l-41 -57q-2 -4 -11.5 -13t-32.5 -9
t-38.5 15.5t-15.5 38.5q0 18 10 32l81 116q4 6 14.5 16.5t33.5 10.5t32.5 -10.5t13.5 -16.5zM161 254q0 -32 12.5 -60.5t33.5 -49.5t49.5 -33.5t60.5 -12.5t60.5 12.5t49.5 33.5t33.5 49.5t12.5 60.5t-12.5 60.5t-33.5 49.5t-49.5 33.5t-60.5 12.5t-60.5 -12.5t-49.5 -33.5
t-33.5 -49.5t-12.5 -60.5z" />
    <glyph glyph-name="Gdotaccent" unicode="&#x120;" horiz-adv-x="783" 
d="M408 -22q-76 0 -143 29.5t-117 80.5t-79 118.5t-29 143.5t29 144t79 118.5t117 80t143 29.5q71 0 130 -24t101 -56t65 -66t23 -53q0 -25 -15.5 -39.5t-41.5 -14.5q-19 0 -37 20.5t-45.5 45.5t-69.5 45.5t-108 20.5q-51 0 -96.5 -19.5t-80 -53.5t-54.5 -80t-20 -98
t20.5 -98t55 -80t80 -54t95.5 -20q63 0 101 15.5t59 38.5t29.5 49.5t11.5 49.5h-132q-25 0 -42 17t-17 42t17 42.5t42 17.5h194q18 0 30 -7.5t18.5 -18t9 -21.5t2.5 -19q0 -97 -29.5 -160t-76.5 -100t-104.5 -51.5t-114.5 -14.5zM340 858q0 28 18.5 46t45.5 18q28 0 46 -18
t18 -46t-18 -46t-46 -18q-27 0 -45.5 18t-18.5 46z" />
    <glyph glyph-name="Itilde" unicode="&#x128;" horiz-adv-x="280" 
d="M140 700q24 0 42 -17t18 -43v-580q0 -26 -18 -43t-42 -17t-42 17t-18 43v580q0 26 18 43t42 17zM105 936q23 0 39.5 -7.5t30.5 -15.5q2 0 6 4t10 9t15.5 9t23.5 4q20 0 38 -15.5t18 -42.5q0 -19 -11.5 -35t-28.5 -27.5t-36.5 -18t-34.5 -6.5q-12 0 -23.5 3t-21 7
t-16.5 7.5t-10 5.5q-3 0 -7.5 -4t-11 -8.5t-15.5 -8.5t-22 -4q-9 0 -18.5 3.5t-17.5 10.5t-13.5 17.5t-5.5 24.5q0 17 10 33t26 28t36 19.5t40 7.5z" />
    <glyph glyph-name="dotlessi" unicode="&#x131;" horiz-adv-x="263" 
d="M75 441q0 25 17 42t42 17t42 -17t17 -42v-382q0 -25 -17 -42t-42 -17t-42 17t-17 42v382z" />
    <glyph glyph-name="nacute" unicode="&#x144;" horiz-adv-x="591" 
d="M407 295q0 50 -32 80t-78 30t-77.5 -30t-31.5 -80v-236q0 -25 -17 -42t-42 -17t-42 17t-17 42v383q0 23 17 40.5t41 17.5t38 -12t19 -27q5 7 14 18t23 20.5t34.5 16.5t49.5 7q45 0 85 -16t70 -46t47.5 -72t17.5 -94v-236q0 -25 -17 -42t-42 -17t-42.5 17t-17.5 42v236z
M254 627q0 20 15 38l72 82q15 17 39 17q23 0 38.5 -15.5t15.5 -38.5q0 -11 -4 -20t-10 -16l-68 -77q-8 -10 -19.5 -16.5t-25.5 -6.5q-23 0 -38 15t-15 38z" />
    <glyph glyph-name="Ncaron" unicode="&#x147;" horiz-adv-x="654" 
d="M509 700q24 0 42 -17t18 -43v-580q0 -26 -17.5 -43t-42.5 -17h-15q-18 0 -30.5 10.5t-19.5 21.5l-239 408v-380q0 -26 -18 -43t-43 -17q-23 0 -41 17.5t-18 42.5v580q0 27 18.5 43.5t41.5 16.5h13q13 0 26 -6t26 -23l240 -411v380q0 26 17.5 43t41.5 17zM368 799
q-4 -6 -13.5 -16.5t-32.5 -10.5t-33.5 10.5t-14.5 16.5l-81 116q-10 14 -10 32q0 23 15.5 38.5t38.5 15.5t32.5 -9t11.5 -13l41 -57l40 57q2 4 11.5 13t32.5 9t38.5 -15.5t15.5 -38.5q0 -18 -10 -32z" />
    <glyph glyph-name="ncaron" unicode="&#x148;" horiz-adv-x="591" 
d="M407 295q0 50 -32 80t-78 30t-77.5 -30t-31.5 -80v-236q0 -25 -17 -42t-42 -17t-42 17t-17 42v383q0 23 17 40.5t41 17.5t38 -12t19 -27q5 7 14 18t23 20.5t34.5 16.5t49.5 7q45 0 85 -16t70 -46t47.5 -72t17.5 -94v-236q0 -25 -17 -42t-42 -17t-42.5 17t-17.5 42v236z
M350 601q-4 -6 -13.5 -16.5t-32.5 -10.5t-33.5 10.5t-14.5 16.5l-81 116q-10 14 -10 32q0 23 15.5 38.5t38.5 15.5t32.5 -9t11.5 -13l41 -57l40 57q2 4 11.5 13t32.5 9t38.5 -15.5t15.5 -38.5q0 -18 -10 -32z" />
    <glyph glyph-name="Racute" unicode="&#x154;" horiz-adv-x="579" 
d="M300 700q111 0 175 -58.5t64 -164.5q0 -18 -3 -41t-11.5 -46.5t-24 -45.5t-41.5 -37q30 -12 46 -30t23.5 -38.5t8.5 -41.5t1 -38v-99q0 -26 -18 -43t-42 -17t-42 17t-18 43v99q0 31 -12 49t-28.5 27.5t-35.5 12.5t-32 3h-110v-191q0 -26 -18 -43t-42 -17t-42 17t-18 43
v580q0 25 17.5 42.5t42.5 17.5h160zM422 478q0 30 -10.5 50.5t-27.5 33.5t-38.5 18.5t-44.5 5.5h-101v-219h101q24 0 45.5 5.5t38.5 18t27 34t10 53.5zM222 825q0 20 15 38l72 82q15 17 39 17q23 0 38.5 -15.5t15.5 -38.5q0 -11 -4 -20t-10 -16l-68 -77q-8 -10 -19.5 -16.5
t-25.5 -6.5q-23 0 -38 15t-15 38z" />
    <glyph glyph-name="racute" unicode="&#x155;" horiz-adv-x="431" 
d="M128 500q23 0 40.5 -17t17.5 -41v-8q13 18 35.5 34.5t48.5 28.5t52 19t47 7q26 0 44 -18t18 -44t-18 -43.5t-44 -17.5q-35 0 -67.5 -13.5t-58.5 -37t-41.5 -54.5t-15.5 -66v-171q0 -24 -17 -41t-41 -17t-41 17t-17 41v384q0 24 17 41t41 17zM177 627q0 20 15 38l72 82
q15 17 39 17q23 0 38.5 -15.5t15.5 -38.5q0 -11 -4 -20t-10 -16l-68 -77q-8 -10 -19.5 -16.5t-25.5 -6.5q-23 0 -38 15t-15 38z" />
    <glyph glyph-name="Rcaron" unicode="&#x158;" horiz-adv-x="579" 
d="M300 700q111 0 175 -58.5t64 -164.5q0 -18 -3 -41t-11.5 -46.5t-24 -45.5t-41.5 -37q30 -12 46 -30t23.5 -38.5t8.5 -41.5t1 -38v-99q0 -26 -18 -43t-42 -17t-42 17t-18 43v99q0 31 -12 49t-28.5 27.5t-35.5 12.5t-32 3h-110v-191q0 -26 -18 -43t-42 -17t-42 17t-18 43
v580q0 25 17.5 42.5t42.5 17.5h160zM422 478q0 30 -10.5 50.5t-27.5 33.5t-38.5 18.5t-44.5 5.5h-101v-219h101q24 0 45.5 5.5t38.5 18t27 34t10 53.5zM334 799q-4 -6 -13.5 -16.5t-32.5 -10.5t-33.5 10.5t-14.5 16.5l-81 116q-10 14 -10 32q0 23 15.5 38.5t38.5 15.5
t32.5 -9t11.5 -13l41 -57l40 57q2 4 11.5 13t32.5 9t38.5 -15.5t15.5 -38.5q0 -18 -10 -32z" />
    <glyph glyph-name="rcaron" unicode="&#x159;" horiz-adv-x="431" 
d="M271 601q-4 -6 -13.5 -16.5t-32.5 -10.5t-33.5 10.5t-14.5 16.5l-81 116q-10 14 -10 32q0 23 15.5 38.5t38.5 15.5t32.5 -9t11.5 -13l41 -57l40 57q2 4 11.5 13t32.5 9t38.5 -15.5t15.5 -38.5q0 -18 -10 -32zM128 500q23 0 40.5 -17t17.5 -41v-8q13 18 35.5 34.5
t48.5 28.5t52 19t47 7q26 0 44 -18t18 -44t-18 -43.5t-44 -17.5q-35 0 -67.5 -13.5t-58.5 -37t-41.5 -54.5t-15.5 -66v-171q0 -24 -17 -41t-41 -17t-41 17t-17 41v384q0 24 17 41t41 17z" />
    <glyph glyph-name="Sacute" unicode="&#x15a;" horiz-adv-x="581" 
d="M25 228q0 25 17.5 42.5t42.5 17.5t42.5 -17.5t17.5 -42.5q0 -22 9.5 -46t27 -43.5t43.5 -32.5t59 -13q60 0 96.5 25.5t36.5 73.5q0 27 -13.5 46.5t-35.5 33.5t-50.5 25t-58.5 21q-32 11 -70 25.5t-70.5 37t-54.5 55t-22 79.5q0 42 20 80t53.5 66t77.5 44.5t92 16.5
q54 0 97 -19.5t73.5 -48t46.5 -60.5t16 -57q0 -15 -13 -33t-42 -18q-22 0 -34 16t-23 36q-14 28 -43 49t-79 21q-55 0 -88 -26t-33 -61q0 -18 9.5 -31t26 -23t38.5 -18t47 -16q43 -17 88 -33t81.5 -41t59.5 -64.5t23 -102.5q0 -51 -20.5 -91t-55.5 -67t-80.5 -41.5
t-94.5 -14.5q-50 0 -96.5 18t-83 50.5t-58.5 78.5t-22 103zM222 825q0 20 15 38l72 82q15 17 39 17q23 0 38.5 -15.5t15.5 -38.5q0 -11 -4 -20t-10 -16l-68 -77q-8 -10 -19.5 -16.5t-25.5 -6.5q-23 0 -38 15t-15 38z" />
    <glyph glyph-name="sacute" unicode="&#x15b;" horiz-adv-x="426" 
d="M210 84q25 0 46 17t21 43t-21.5 39t-62.5 24q-29 8 -58 19.5t-52 29.5t-37.5 44.5t-14.5 65.5q0 33 14.5 62t38.5 50t56 33t67 12q37 0 65.5 -12t48.5 -29t30.5 -36.5t10.5 -34.5q0 -20 -12.5 -33t-33.5 -13q-20 0 -29 9l-20 20q-10 11 -24 19.5t-37 8.5t-41.5 -12.5
t-18.5 -35.5q0 -14 7 -22.5t21 -15t33.5 -12.5t45.5 -15q30 -10 56 -24t45.5 -34t30.5 -48t11 -65q0 -38 -15.5 -67.5t-41.5 -50t-60 -31.5t-71 -11q-27 0 -58 10.5t-58 30t-44.5 46t-17.5 59.5q0 23 12.5 38t36.5 15q13 0 22 -5t15.5 -12.5t12 -17.5t11.5 -20q8 -14 25 -26
t45 -12zM154 627q0 20 15 38l72 82q15 17 39 17q23 0 38.5 -15.5t15.5 -38.5q0 -11 -4 -20t-10 -16l-68 -77q-8 -10 -19.5 -16.5t-25.5 -6.5q-23 0 -38 15t-15 38z" />
    <glyph glyph-name="Scircumflex" unicode="&#x15c;" horiz-adv-x="581" 
d="M414 858q10 -14 10 -32q0 -23 -15.5 -38.5t-38.5 -15.5t-32.5 9t-11.5 13l-40 57l-41 -57q-2 -4 -11.5 -13t-32.5 -9t-38.5 15.5t-15.5 38.5q0 18 10 32l81 116q4 6 14.5 16.5t33.5 10.5t32.5 -10.5t13.5 -16.5zM25 228q0 25 17.5 42.5t42.5 17.5t42.5 -17.5t17.5 -42.5
q0 -22 9.5 -46t27 -43.5t43.5 -32.5t59 -13q60 0 96.5 25.5t36.5 73.5q0 27 -13.5 46.5t-35.5 33.5t-50.5 25t-58.5 21q-32 11 -70 25.5t-70.5 37t-54.5 55t-22 79.5q0 42 20 80t53.5 66t77.5 44.5t92 16.5q54 0 97 -19.5t73.5 -48t46.5 -60.5t16 -57q0 -15 -13 -33t-42 -18
q-22 0 -34 16t-23 36q-14 28 -43 49t-79 21q-55 0 -88 -26t-33 -61q0 -18 9.5 -31t26 -23t38.5 -18t47 -16q43 -17 88 -33t81.5 -41t59.5 -64.5t23 -102.5q0 -51 -20.5 -91t-55.5 -67t-80.5 -41.5t-94.5 -14.5q-50 0 -96.5 18t-83 50.5t-58.5 78.5t-22 103z" />
    <glyph glyph-name="scircumflex" unicode="&#x15d;" horiz-adv-x="426" 
d="M332 660q10 -14 10 -32q0 -23 -15.5 -38.5t-38.5 -15.5t-32.5 9t-11.5 13l-40 57l-41 -57q-2 -4 -11.5 -13t-32.5 -9t-38.5 15.5t-15.5 38.5q0 18 10 32l81 116q4 6 14.5 16.5t33.5 10.5t32.5 -10.5t13.5 -16.5zM210 84q25 0 46 17t21 43t-21.5 39t-62.5 24
q-29 8 -58 19.5t-52 29.5t-37.5 44.5t-14.5 65.5q0 33 14.5 62t38.5 50t56 33t67 12q37 0 65.5 -12t48.5 -29t30.5 -36.5t10.5 -34.5q0 -20 -12.5 -33t-33.5 -13q-20 0 -29 9l-20 20q-10 11 -24 19.5t-37 8.5t-41.5 -12.5t-18.5 -35.5q0 -14 7 -22.5t21 -15t33.5 -12.5
t45.5 -15q30 -10 56 -24t45.5 -34t30.5 -48t11 -65q0 -38 -15.5 -67.5t-41.5 -50t-60 -31.5t-71 -11q-27 0 -58 10.5t-58 30t-44.5 46t-17.5 59.5q0 23 12.5 38t36.5 15q13 0 22 -5t15.5 -12.5t12 -17.5t11.5 -20q8 -14 25 -26t45 -12z" />
    <glyph glyph-name="Scaron" unicode="&#x160;" horiz-adv-x="581" 
d="M334 799q-4 -6 -13.5 -16.5t-32.5 -10.5t-33.5 10.5t-14.5 16.5l-81 116q-10 14 -10 32q0 23 15.5 38.5t38.5 15.5t32.5 -9t11.5 -13l41 -57l40 57q2 4 11.5 13t32.5 9t38.5 -15.5t15.5 -38.5q0 -18 -10 -32zM25 228q0 25 17.5 42.5t42.5 17.5t42.5 -17.5t17.5 -42.5
q0 -22 9.5 -46t27 -43.5t43.5 -32.5t59 -13q60 0 96.5 25.5t36.5 73.5q0 27 -13.5 46.5t-35.5 33.5t-50.5 25t-58.5 21q-32 11 -70 25.5t-70.5 37t-54.5 55t-22 79.5q0 42 20 80t53.5 66t77.5 44.5t92 16.5q54 0 97 -19.5t73.5 -48t46.5 -60.5t16 -57q0 -15 -13 -33t-42 -18
q-22 0 -34 16t-23 36q-14 28 -43 49t-79 21q-55 0 -88 -26t-33 -61q0 -18 9.5 -31t26 -23t38.5 -18t47 -16q43 -17 88 -33t81.5 -41t59.5 -64.5t23 -102.5q0 -51 -20.5 -91t-55.5 -67t-80.5 -41.5t-94.5 -14.5q-50 0 -96.5 18t-83 50.5t-58.5 78.5t-22 103z" />
    <glyph glyph-name="scaron" unicode="&#x161;" horiz-adv-x="426" 
d="M251 601q-4 -6 -13.5 -16.5t-32.5 -10.5t-33.5 10.5t-14.5 16.5l-81 116q-10 14 -10 32q0 23 15.5 38.5t38.5 15.5t32.5 -9t11.5 -13l41 -57l40 57q2 4 11.5 13t32.5 9t38.5 -15.5t15.5 -38.5q0 -18 -10 -32zM210 84q25 0 46 17t21 43t-21.5 39t-62.5 24q-29 8 -58 19.5
t-52 29.5t-37.5 44.5t-14.5 65.5q0 33 14.5 62t38.5 50t56 33t67 12q37 0 65.5 -12t48.5 -29t30.5 -36.5t10.5 -34.5q0 -20 -12.5 -33t-33.5 -13q-20 0 -29 9l-20 20q-10 11 -24 19.5t-37 8.5t-41.5 -12.5t-18.5 -35.5q0 -14 7 -22.5t21 -15t33.5 -12.5t45.5 -15
q30 -10 56 -24t45.5 -34t30.5 -48t11 -65q0 -38 -15.5 -67.5t-41.5 -50t-60 -31.5t-71 -11q-27 0 -58 10.5t-58 30t-44.5 46t-17.5 59.5q0 23 12.5 38t36.5 15q13 0 22 -5t15.5 -12.5t12 -17.5t11.5 -20q8 -14 25 -26t45 -12z" />
    <glyph glyph-name="Utilde" unicode="&#x168;" horiz-adv-x="650" 
d="M200 220q0 -26 9.5 -48t26 -38.5t38.5 -26t48 -9.5t48.5 9.5t39 26t26 38.5t9.5 48v420q0 26 18 43t42 17t42 -17t18 -43v-420q0 -51 -18.5 -95t-51.5 -77t-77.5 -51.5t-95.5 -18.5t-95 18.5t-77 51.5t-51.5 77t-18.5 95v420q0 26 18 43t42 17t42 -17t18 -43v-420z
M286 935q23 0 39.5 -7.5t30.5 -15.5q2 0 6 4t10 9t15.5 9t23.5 4q20 0 38 -15.5t18 -42.5q0 -19 -11.5 -35t-28.5 -27.5t-36.5 -18t-34.5 -6.5q-12 0 -23.5 3t-21 7t-16.5 7.5t-10 5.5q-3 0 -7.5 -4t-11 -8.5t-15.5 -8.5t-22 -4q-9 0 -18.5 3.5t-17.5 10.5t-13.5 17.5
t-5.5 24.5q0 17 10 33t26 28t36 19.5t40 7.5z" />
    <glyph glyph-name="utilde" unicode="&#x169;" horiz-adv-x="585" 
d="M404 442q0 24 17 41t41 17t41 -17t17 -41v-235q0 -47 -18 -88t-48.5 -72.5t-72 -49.5t-88.5 -18t-88 18t-72.5 49.5t-49.5 73t-18 88.5v234q0 24 17 41t41 17t41 -17t17 -41v-235q0 -23 9 -43t24 -35t35.5 -23.5t43.5 -8.5q22 0 42.5 8.5t35.5 23.5t24 35t9 43v235z
M253 737q23 0 39.5 -7.5t30.5 -15.5q2 0 6 4t10 9t15.5 9t23.5 4q20 0 38 -15.5t18 -42.5q0 -19 -11.5 -35t-28.5 -27.5t-36.5 -18t-34.5 -6.5q-12 0 -23.5 3t-21 7t-16.5 7.5t-10 5.5q-3 0 -7.5 -4t-11 -8.5t-15.5 -8.5t-22 -4q-9 0 -18.5 3.5t-17.5 10.5t-13.5 17.5
t-5.5 24.5q0 17 10 33t26 28t36 19.5t40 7.5z" />
    <glyph glyph-name="ubreve" unicode="&#x16d;" horiz-adv-x="585" 
d="M404 442q0 24 17 41t41 17t41 -17t17 -41v-235q0 -47 -18 -88t-48.5 -72.5t-72 -49.5t-88.5 -18t-88 18t-72.5 49.5t-49.5 73t-18 88.5v234q0 24 17 41t41 17t41 -17t17 -41v-235q0 -23 9 -43t24 -35t35.5 -23.5t43.5 -8.5q22 0 42.5 8.5t35.5 23.5t24 35t9 43v235z" />
    <glyph glyph-name="Wcircumflex" unicode="&#x174;" horiz-adv-x="727" 
d="M490 858q10 -14 10 -32q0 -23 -15.5 -38.5t-38.5 -15.5t-32.5 9t-11.5 13l-40 57l-41 -57q-2 -4 -11.5 -13t-32.5 -9t-38.5 15.5t-15.5 38.5q0 18 10 32l81 116q4 6 14.5 16.5t33.5 10.5t32.5 -10.5t13.5 -16.5zM0 640q0 25 17 42.5t42 17.5q23 0 39.5 -16.5t20.5 -39.5
l70 -442l128 193q18 27 44 27q28 0 46 -27l129 -193l72 442q4 23 19.5 39.5t39.5 16.5q25 0 42.5 -17.5t17.5 -42.5q0 -2 -0.5 -4.5t-0.5 -5.5q-1 -4 -1 -7l-90 -574q-4 -25 -21.5 -37t-39.5 -12h-19q-34 0 -54 33l-139 229l-137 -229q-11 -17 -25 -25t-30 -8h-18
q-23 0 -40 13t-21 36l-89 574q-1 2 -1 6q-1 2 -1 5.5v5.5z" />
    <glyph glyph-name="wcircumflex" unicode="&#x175;" horiz-adv-x="921" 
d="M65 442q0 24 17 41t41 17t41 -17t17 -41v-235q0 -23 8.5 -43t23.5 -35t35 -24t43 -9q22 0 42.5 9t35.5 24t24 35t9 43v234q0 25 17 42t42 17t42 -17t17 -42v-234q0 -24 8.5 -44.5t23.5 -35.5t34.5 -23t42.5 -8q22 0 42 9t35 24t24 35t9 43v234q0 25 16.5 42t41.5 17
t42 -17t17 -42v-234q0 -47 -18 -88.5t-48.5 -72.5t-72 -49t-88.5 -18q-51 0 -94 20t-75 55q-32 -35 -75 -55t-94 -20q-47 0 -88.5 18t-72 49t-48 72.5t-17.5 88.5v230v5zM589 660q10 -14 10 -32q0 -23 -15.5 -38.5t-38.5 -15.5t-32.5 9t-11.5 13l-40 57l-41 -57
q-2 -4 -11.5 -13t-32.5 -9t-38.5 15.5t-15.5 38.5q0 18 10 32l81 116q4 6 14.5 16.5t33.5 10.5t32.5 -10.5t13.5 -16.5z" />
    <glyph glyph-name="Ycircumflex" unicode="&#x176;" horiz-adv-x="498" 
d="M60 700q15 0 29.5 -6.5t23.5 -24.5l136 -264l137 264q9 18 23 24.5t28 6.5q26 0 43.5 -17t17.5 -41q0 -15 -7 -28l-179 -341v-211q0 -26 -18.5 -44t-44.5 -18t-44 18t-18 44v209l-179 343q-8 16 -8 29q0 25 19.5 41t40.5 16zM377 858q10 -14 10 -32q0 -23 -15.5 -38.5
t-38.5 -15.5t-32.5 9t-11.5 13l-40 57l-41 -57q-2 -4 -11.5 -13t-32.5 -9t-38.5 15.5t-15.5 38.5q0 18 10 32l81 116q4 6 14.5 16.5t33.5 10.5t32.5 -10.5t13.5 -16.5z" />
    <glyph glyph-name="Ydieresis" unicode="&#x178;" horiz-adv-x="498" 
d="M60 700q15 0 29.5 -6.5t23.5 -24.5l136 -264l137 264q9 18 23 24.5t28 6.5q26 0 43.5 -17t17.5 -41q0 -15 -7 -28l-179 -341v-211q0 -26 -18.5 -44t-44.5 -18t-44 18t-18 44v209l-179 343q-8 16 -8 29q0 25 19.5 41t40.5 16zM89 859q0 27 18 45.5t46 18.5t46 -18.5
t18 -45.5q0 -28 -18 -46.5t-46 -18.5t-46 18.5t-18 46.5zM282 859q0 27 18 45.5t46 18.5t46 -18.5t18 -45.5q0 -28 -18 -46.5t-46 -18.5t-46 18.5t-18 46.5z" />
    <glyph glyph-name="Zacute" unicode="&#x179;" horiz-adv-x="591" 
d="M52 640q0 25 17.5 42.5t42.5 17.5h334q25 0 42.5 -17.5t17.5 -42.5q0 -11 -3 -19t-8 -16l-286 -485h282q25 0 42.5 -17.5t17.5 -42.5t-17.5 -42.5t-42.5 -17.5h-391q-25 0 -42.5 17.5t-17.5 42.5q0 17 9 32l287 488h-224q-25 0 -42.5 17.5t-17.5 42.5zM222 825
q0 20 15 38l72 82q15 17 39 17q23 0 38.5 -15.5t15.5 -38.5q0 -11 -4 -20t-10 -16l-68 -77q-8 -10 -19.5 -16.5t-25.5 -6.5q-23 0 -38 15t-15 38z" />
    <glyph glyph-name="zacute" unicode="&#x17a;" horiz-adv-x="469" 
d="M62 442q0 24 17 41t41 17h239q24 0 41 -17t17 -41q0 -17 -9 -31l-206 -295h179q24 0 41 -17t17 -41t-17 -41t-41 -17h-293q-24 0 -41 17t-17 41q0 10 2 17.5t10 19.5l199 289h-121q-24 0 -41 17t-17 41zM195 627q0 20 15 38l72 82q15 17 39 17q23 0 38.5 -15.5
t15.5 -38.5q0 -11 -4 -20t-10 -16l-68 -77q-8 -10 -19.5 -16.5t-25.5 -6.5q-23 0 -38 15t-15 38z" />
    <glyph glyph-name="Zdotaccent" unicode="&#x17b;" horiz-adv-x="591" 
d="M221 858q0 28 18.5 46t45.5 18q28 0 46 -18t18 -46t-18 -46t-46 -18q-27 0 -45.5 18t-18.5 46zM52 640q0 25 17.5 42.5t42.5 17.5h334q25 0 42.5 -17.5t17.5 -42.5q0 -11 -3 -19t-8 -16l-286 -485h282q25 0 42.5 -17.5t17.5 -42.5t-17.5 -42.5t-42.5 -17.5h-391
q-25 0 -42.5 17.5t-17.5 42.5q0 17 9 32l287 488h-224q-25 0 -42.5 17.5t-17.5 42.5z" />
    <glyph glyph-name="Zcaron" unicode="&#x17d;" horiz-adv-x="591" 
d="M335 799q-4 -6 -13.5 -16.5t-32.5 -10.5t-33.5 10.5t-14.5 16.5l-81 116q-10 14 -10 32q0 23 15.5 38.5t38.5 15.5t32.5 -9t11.5 -13l41 -57l40 57q2 4 11.5 13t32.5 9t38.5 -15.5t15.5 -38.5q0 -18 -10 -32zM52 640q0 25 17.5 42.5t42.5 17.5h334q25 0 42.5 -17.5
t17.5 -42.5q0 -11 -3 -19t-8 -16l-286 -485h282q25 0 42.5 -17.5t17.5 -42.5t-17.5 -42.5t-42.5 -17.5h-391q-25 0 -42.5 17.5t-17.5 42.5q0 17 9 32l287 488h-224q-25 0 -42.5 17.5t-17.5 42.5z" />
    <glyph glyph-name="zcaron" unicode="&#x17e;" horiz-adv-x="469" 
d="M303 601q-4 -6 -13.5 -16.5t-32.5 -10.5t-33.5 10.5t-14.5 16.5l-81 116q-10 14 -10 32q0 23 15.5 38.5t38.5 15.5t32.5 -9t11.5 -13l41 -57l40 57q2 4 11.5 13t32.5 9t38.5 -15.5t15.5 -38.5q0 -18 -10 -32zM62 442q0 24 17 41t41 17h239q24 0 41 -17t17 -41
q0 -17 -9 -31l-206 -295h179q24 0 41 -17t17 -41t-17 -41t-41 -17h-293q-24 0 -41 17t-17 41q0 10 2 17.5t10 19.5l199 289h-121q-24 0 -41 17t-17 41z" />
    <glyph glyph-name="circumflex" unicode="&#x2c6;" horiz-adv-x="477" 
d="M367 660q10 -14 10 -32q0 -23 -15.5 -38.5t-38.5 -15.5t-32.5 9t-11.5 13l-40 57l-41 -57q-2 -4 -11.5 -13t-32.5 -9t-38.5 15.5t-15.5 38.5q0 18 10 32l81 116q4 6 14.5 16.5t33.5 10.5t32.5 -10.5t13.5 -16.5z" />
    <glyph glyph-name="caron" unicode="&#x2c7;" horiz-adv-x="477" 
d="M285 601q-4 -6 -13.5 -16.5t-32.5 -10.5t-33.5 10.5t-14.5 16.5l-81 116q-10 14 -10 32q0 23 15.5 38.5t38.5 15.5t32.5 -9t11.5 -13l41 -57l40 57q2 4 11.5 13t32.5 9t38.5 -15.5t15.5 -38.5q0 -18 -10 -32z" />
    <glyph glyph-name="dotaccent" unicode="&#x2d9;" horiz-adv-x="328" 
d="M100 638q0 28 18.5 46t45.5 18q28 0 46 -18t18 -46t-18 -46t-46 -18q-27 0 -45.5 18t-18.5 46z" />
    <glyph glyph-name="ring" unicode="&#x2da;" horiz-adv-x="409" 
d="M171 679q0 -14 9.5 -23.5t23.5 -9.5t24 9.5t10 23.5t-10 24t-24 10t-23.5 -10t-9.5 -24zM100 679q0 22 8 41t22 33t33 22.5t41 8.5t41 -8.5t33 -22.5t22.5 -33t8.5 -41t-8.5 -41t-22.5 -33t-33 -22t-41 -8q-44 0 -74 30t-30 74z" />
    <glyph glyph-name="ogonek" unicode="&#x2db;" horiz-adv-x="410" 
d="M310 -103q0 -23 -16 -38t-37 -15h-26q-7 0 -10.5 -4.5t-3.5 -9.5t3.5 -9.5t10.5 -4.5h26q23 0 38 -15t15 -38t-15 -38t-38 -15h-36q-24 0 -46 9t-38.5 25.5t-26.5 38t-10 47.5q0 42 27.5 74t66.5 43v113h116v-163z" />
    <glyph glyph-name="tilde" unicode="&#x2dc;" horiz-adv-x="493" 
d="M212 715q23 0 39.5 -7.5t30.5 -15.5q2 0 6 4t10 9t15.5 9t23.5 4q20 0 38 -15.5t18 -42.5q0 -19 -11.5 -35t-28.5 -27.5t-36.5 -18t-34.5 -6.5q-12 0 -23.5 3t-21 7t-16.5 7.5t-10 5.5q-3 0 -7.5 -4t-11 -8.5t-15.5 -8.5t-22 -4q-9 0 -18.5 3.5t-17.5 10.5t-13.5 17.5
t-5.5 24.5q0 17 10 33t26 28t36 19.5t40 7.5z" />
    <glyph glyph-name="Wgrave" unicode="&#x1e80;" horiz-adv-x="727" 
d="M0 640q0 25 17 42.5t42 17.5q23 0 39.5 -16.5t20.5 -39.5l70 -442l128 193q18 27 44 27q28 0 46 -27l129 -193l72 442q4 23 19.5 39.5t39.5 16.5q25 0 42.5 -17.5t17.5 -42.5q0 -2 -0.5 -4.5t-0.5 -5.5q-1 -4 -1 -7l-90 -574q-4 -25 -21.5 -37t-39.5 -12h-19
q-34 0 -54 33l-139 229l-137 -229q-11 -17 -25 -25t-30 -8h-18q-23 0 -40 13t-21 36l-89 574q-1 2 -1 6q-1 2 -1 5.5v5.5zM417 825q0 -23 -15 -38t-38 -15q-14 0 -25.5 6.5t-19.5 16.5l-68 77q-6 7 -10 16t-4 20q0 23 15.5 38.5t38.5 15.5q24 0 39 -17l72 -82q15 -18 15 -38
z" />
    <glyph glyph-name="wgrave" unicode="&#x1e81;" horiz-adv-x="921" 
d="M65 442q0 24 17 41t41 17t41 -17t17 -41v-235q0 -23 8.5 -43t23.5 -35t35 -24t43 -9q22 0 42.5 9t35.5 24t24 35t9 43v234q0 25 17 42t42 17t42 -17t17 -42v-234q0 -24 8.5 -44.5t23.5 -35.5t34.5 -23t42.5 -8q22 0 42 9t35 24t24 35t9 43v234q0 25 16.5 42t41.5 17
t42 -17t17 -42v-234q0 -47 -18 -88.5t-48.5 -72.5t-72 -49t-88.5 -18q-51 0 -94 20t-75 55q-32 -35 -75 -55t-94 -20q-47 0 -88.5 18t-72 49t-48 72.5t-17.5 88.5v230v5zM514 627q0 -23 -15 -38t-38 -15q-14 0 -25.5 6.5t-19.5 16.5l-68 77q-6 7 -10 16t-4 20
q0 23 15.5 38.5t38.5 15.5q24 0 39 -17l72 -82q15 -18 15 -38z" />
    <glyph glyph-name="Wacute" unicode="&#x1e82;" horiz-adv-x="727" 
d="M0 640q0 25 17 42.5t42 17.5q23 0 39.5 -16.5t20.5 -39.5l70 -442l128 193q18 27 44 27q28 0 46 -27l129 -193l72 442q4 23 19.5 39.5t39.5 16.5q25 0 42.5 -17.5t17.5 -42.5q0 -2 -0.5 -4.5t-0.5 -5.5q-1 -4 -1 -7l-90 -574q-4 -25 -21.5 -37t-39.5 -12h-19
q-34 0 -54 33l-139 229l-137 -229q-11 -17 -25 -25t-30 -8h-18q-23 0 -40 13t-21 36l-89 574q-1 2 -1 6q-1 2 -1 5.5v5.5zM314 825q0 20 15 38l72 82q15 17 39 17q23 0 38.5 -15.5t15.5 -38.5q0 -11 -4 -20t-10 -16l-68 -77q-8 -10 -19.5 -16.5t-25.5 -6.5q-23 0 -38 15
t-15 38z" />
    <glyph glyph-name="wacute" unicode="&#x1e83;" horiz-adv-x="921" 
d="M65 442q0 24 17 41t41 17t41 -17t17 -41v-235q0 -23 8.5 -43t23.5 -35t35 -24t43 -9q22 0 42.5 9t35.5 24t24 35t9 43v234q0 25 17 42t42 17t42 -17t17 -42v-234q0 -24 8.5 -44.5t23.5 -35.5t34.5 -23t42.5 -8q22 0 42 9t35 24t24 35t9 43v234q0 25 16.5 42t41.5 17
t42 -17t17 -42v-234q0 -47 -18 -88.5t-48.5 -72.5t-72 -49t-88.5 -18q-51 0 -94 20t-75 55q-32 -35 -75 -55t-94 -20q-47 0 -88.5 18t-72 49t-48 72.5t-17.5 88.5v230v5zM408 627q0 20 15 38l72 82q15 17 39 17q23 0 38.5 -15.5t15.5 -38.5q0 -11 -4 -20t-10 -16l-68 -77
q-8 -10 -19.5 -16.5t-25.5 -6.5q-23 0 -38 15t-15 38z" />
    <glyph glyph-name="Wdieresis" unicode="&#x1e84;" horiz-adv-x="727" 
d="M202 859q0 27 18 45.5t46 18.5t46 -18.5t18 -45.5q0 -28 -18 -46.5t-46 -18.5t-46 18.5t-18 46.5zM395 859q0 27 18 45.5t46 18.5t46 -18.5t18 -45.5q0 -28 -18 -46.5t-46 -18.5t-46 18.5t-18 46.5zM0 640q0 25 17 42.5t42 17.5q23 0 39.5 -16.5t20.5 -39.5l70 -442
l128 193q18 27 44 27q28 0 46 -27l129 -193l72 442q4 23 19.5 39.5t39.5 16.5q25 0 42.5 -17.5t17.5 -42.5q0 -2 -0.5 -4.5t-0.5 -5.5q-1 -4 -1 -7l-90 -574q-4 -25 -21.5 -37t-39.5 -12h-19q-34 0 -54 33l-139 229l-137 -229q-11 -17 -25 -25t-30 -8h-18q-23 0 -40 13
t-21 36l-89 574q-1 2 -1 6q-1 2 -1 5.5v5.5z" />
    <glyph glyph-name="wdieresis" unicode="&#x1e85;" horiz-adv-x="921" 
d="M65 442q0 24 17 41t41 17t41 -17t17 -41v-235q0 -23 8.5 -43t23.5 -35t35 -24t43 -9q22 0 42.5 9t35.5 24t24 35t9 43v234q0 25 17 42t42 17t42 -17t17 -42v-234q0 -24 8.5 -44.5t23.5 -35.5t34.5 -23t42.5 -8q22 0 42 9t35 24t24 35t9 43v234q0 25 16.5 42t41.5 17
t42 -17t17 -42v-234q0 -47 -18 -88.5t-48.5 -72.5t-72 -49t-88.5 -18q-51 0 -94 20t-75 55q-32 -35 -75 -55t-94 -20q-47 0 -88.5 18t-72 49t-48 72.5t-17.5 88.5v230v5zM302 662q0 27 18 45.5t46 18.5t46 -18.5t18 -45.5q0 -28 -18 -46.5t-46 -18.5t-46 18.5t-18 46.5z
M495 662q0 27 18 45.5t46 18.5t46 -18.5t18 -45.5q0 -28 -18 -46.5t-46 -18.5t-46 18.5t-18 46.5z" />
    <glyph glyph-name="Ygrave" unicode="&#x1ef2;" horiz-adv-x="498" 
d="M60 700q15 0 29.5 -6.5t23.5 -24.5l136 -264l137 264q9 18 23 24.5t28 6.5q26 0 43.5 -17t17.5 -41q0 -15 -7 -28l-179 -341v-211q0 -26 -18.5 -44t-44.5 -18t-44 18t-18 44v209l-179 343q-8 16 -8 29q0 25 19.5 41t40.5 16zM304 825q0 -23 -15 -38t-38 -15
q-14 0 -25.5 6.5t-19.5 16.5l-68 77q-6 7 -10 16t-4 20q0 23 15.5 38.5t38.5 15.5q24 0 39 -17l72 -82q15 -18 15 -38z" />
    <glyph glyph-name="endash" unicode="&#x2013;" 
d="M108 261q0 24 17 41t41 17h368q24 0 41 -17t17 -41t-17 -41t-41 -17h-368q-24 0 -41 17t-17 41z" />
    <glyph glyph-name="emdash" unicode="&#x2014;" 
d="M52 261q0 24 17 41t41 17h481q24 0 41 -17t17 -41t-17 -41t-41 -17h-481q-24 0 -41 17t-17 41z" />
    <glyph glyph-name="quoteleft" unicode="&#x2018;" horiz-adv-x="250" 
d="M210 575q0 -28 -18.5 -46.5t-45.5 -18.5q-28 0 -46.5 18.5t-18.5 46.5v35q0 25 5 41.5t22 30.5q22 18 36 18q8 0 11.5 -6t3.5 -14q0 -6 -1.5 -11.5t-3.5 -8.5t-3.5 -7.5t-1.5 -7.5q0 -5 11 -6q17 -3 27 -10t15 -16t6.5 -19t1.5 -19z" />
    <glyph glyph-name="quoteright" unicode="&#x2019;" horiz-adv-x="250" 
d="M40 635q0 28 18.5 46.5t45.5 18.5q28 0 46.5 -18.5t18.5 -46.5v-35q0 -25 -5 -41.5t-22 -30.5q-22 -18 -36 -18q-8 0 -11.5 6t-3.5 14q0 6 1.5 11.5t3.5 8.5t3.5 7.5t1.5 7.5q0 5 -11 6q-17 3 -27 10t-15 16t-6.5 19t-1.5 19z" />
    <glyph glyph-name="quotesinglbase" unicode="&#x201a;" horiz-adv-x="250" 
d="M40 64q0 28 18.5 46.5t45.5 18.5q28 0 46.5 -18.5t18.5 -46.5v-35q0 -25 -5 -41.5t-22 -30.5q-22 -18 -36 -18q-8 0 -11.5 6t-3.5 14q0 6 1.5 11.5t3.5 8.5t3.5 7.5t1.5 7.5q0 5 -11 6q-17 3 -27 10t-15 16t-6.5 19t-1.5 19z" />
    <glyph glyph-name="quotedblleft" unicode="&#x201c;" horiz-adv-x="400" 
d="M360 575q0 -28 -18.5 -46.5t-45.5 -18.5q-28 0 -46.5 18.5t-18.5 46.5v35q0 25 5 41.5t22 30.5q22 18 36 18q8 0 11.5 -6t3.5 -14q0 -6 -1.5 -11.5t-3.5 -8.5t-3.5 -7.5t-1.5 -7.5q0 -5 11 -6q17 -3 27 -10t15 -16t6.5 -19t1.5 -19zM200 575q0 -28 -18.5 -46.5
t-45.5 -18.5q-28 0 -46.5 18.5t-18.5 46.5v35q0 25 5 41.5t22 30.5q22 18 36 18q8 0 11.5 -6t3.5 -14q0 -6 -1.5 -11.5t-3.5 -8.5t-3.5 -7.5t-1.5 -7.5q0 -5 11 -6q17 -3 27 -10t15 -16t6.5 -19t1.5 -19z" />
    <glyph glyph-name="quotedblright" unicode="&#x201d;" horiz-adv-x="400" 
d="M40 635q0 28 18.5 46.5t45.5 18.5q28 0 46.5 -18.5t18.5 -46.5v-35q0 -25 -5 -41.5t-22 -30.5q-22 -18 -36 -18q-8 0 -11.5 6t-3.5 14q0 6 1.5 11.5t3.5 8.5t3.5 7.5t1.5 7.5q0 5 -11 6q-17 3 -27 10t-15 16t-6.5 19t-1.5 19zM200 635q0 28 18.5 46.5t45.5 18.5
q28 0 46.5 -18.5t18.5 -46.5v-35q0 -25 -5 -41.5t-22 -30.5q-22 -18 -36 -18q-8 0 -11.5 6t-3.5 14q0 6 1.5 11.5t3.5 8.5t3.5 7.5t1.5 7.5q0 5 -11 6q-17 3 -27 10t-15 16t-6.5 19t-1.5 19z" />
    <glyph glyph-name="quotedblbase" unicode="&#x201e;" horiz-adv-x="400" 
d="M40 64q0 28 18.5 46.5t45.5 18.5q28 0 46.5 -18.5t18.5 -46.5v-35q0 -25 -5 -41.5t-22 -30.5q-22 -18 -36 -18q-8 0 -11.5 6t-3.5 14q0 6 1.5 11.5t3.5 8.5t3.5 7.5t1.5 7.5q0 5 -11 6q-17 3 -27 10t-15 16t-6.5 19t-1.5 19zM200 63q0 28 18.5 46.5t45.5 18.5
q28 0 46.5 -18.5t18.5 -46.5v-35q0 -25 -5 -41.5t-22 -30.5q-22 -18 -36 -18q-8 0 -11.5 6t-3.5 14q0 6 1.5 11.5t3.5 8.5t3.5 7.5t1.5 7.5q0 5 -11 6q-17 3 -27 10t-15 16t-6.5 19t-1.5 19z" />
    <glyph glyph-name="dagger" unicode="&#x2020;" 
d="M111 442q0 24 17 41t41 17h122v246q0 24 17 41t41 17t41 -17t17 -41v-246h124q24 0 41 -17t17 -41t-17 -41t-41 -17h-124v-546q0 -24 -17 -41t-41 -17t-41 17t-17 41v546h-122q-24 0 -41 17t-17 41z" />
    <glyph glyph-name="daggerdbl" unicode="&#x2021;" 
d="M111 442q0 24 17 41t41 17h122v246q0 24 17 41t41 17t41 -17t17 -41v-246h124q24 0 41 -17t17 -41t-17 -41t-41 -17h-124v-72h124q24 0 41 -17t17 -41t-17 -41t-41 -17h-124v-358q0 -24 -17 -41t-41 -17t-41 17t-17 41v358h-122q-24 0 -41 17t-17 41t17 41t41 17h122v72
h-122q-24 0 -41 17t-17 41z" />
    <glyph glyph-name="bullet" unicode="&#x2022;" 
d="M247 294q0 45 29 74t74 29t74 -29t29 -74t-29 -74t-74 -29t-74 29t-29 74z" />
    <glyph glyph-name="ellipsis" unicode="&#x2026;" horiz-adv-x="595" 
d="M50 64q0 28 18.5 46.5t45.5 18.5q28 0 46.5 -18.5t18.5 -46.5q0 -27 -18.5 -45.5t-46.5 -18.5q-27 0 -45.5 18.5t-18.5 45.5zM229 64q0 28 18.5 46.5t45.5 18.5q28 0 46 -18.5t18 -46.5q0 -27 -18 -45.5t-46 -18.5q-27 0 -45.5 18.5t-18.5 45.5zM417 64q0 28 18 46.5
t46 18.5t46 -18.5t18 -46.5q0 -27 -18 -45.5t-46 -18.5t-46 18.5t-18 45.5z" />
    <glyph glyph-name="perthousand" unicode="&#x2030;" 
d="M115 637q0 28 18 46t46 18q27 0 45.5 -18t18.5 -46q0 -27 -18.5 -45.5t-45.5 -18.5q-28 0 -46 18.5t-18 45.5zM346 64q0 28 18.5 46.5t45.5 18.5q28 0 46.5 -18.5t18.5 -46.5q0 -27 -18.5 -45.5t-46.5 -18.5q-27 0 -45.5 18.5t-18.5 45.5zM509 64q0 28 18.5 46.5
t45.5 18.5q28 0 46.5 -18.5t18.5 -46.5q0 -27 -18.5 -45.5t-46.5 -18.5q-27 0 -45.5 18.5t-18.5 45.5zM356 660q6 19 21 29.5t34 10.5q25 0 42 -17t17 -41q0 -10 -3 -19l-189 -582q-6 -20 -21 -30.5t-34 -10.5q-26 0 -43 17t-17 41q0 10 3 19z" />
    <glyph glyph-name="guilsinglleft" unicode="&#x2039;" 
d="M307 249l137 -129q16 -16 16 -40q0 -23 -16 -40t-40 -17q-23 0 -42 17l-177 169q-15 16 -15 39q0 24 17 41l176 171q8 8 19 12t22 4q23 0 40 -17t17 -40q0 -25 -18 -43z" />
    <glyph glyph-name="guilsinglright" unicode="&#x203a;" 
d="M257 376q-18 18 -18 43q0 23 17 40t40 17q11 0 22 -4t19 -12l176 -171q17 -17 17 -41q0 -23 -15 -39l-177 -169q-19 -17 -42 -17q-24 0 -40 17t-16 40q0 24 16 40l137 129z" />
    <glyph glyph-name="fraction" unicode="&#x2044;" horiz-adv-x="507" 
d="M293 660q6 19 21 29.5t34 10.5q25 0 42 -17t17 -41q0 -10 -3 -19l-189 -582q-6 -20 -21 -30.5t-34 -10.5q-26 0 -43 17t-17 41q0 10 3 19z" />
    <glyph glyph-name="minus" unicode="&#x2212;" horiz-adv-x="558" 
d="M100 261q0 24 17 41t41 17h242q24 0 41 -17t17 -41t-17 -41t-41 -17h-242q-24 0 -41 17t-17 41z" />
    </font>
</defs>
</svg>
