<?xml version="1.0" standalone="no"?>
<!DOCTYPE svg PUBLIC "-//W3C//DTD SVG 1.1//EN" "http://www.w3.org/Graphics/SVG/1.1/DTD/svg11.dtd" >
<svg xmlns="http://www.w3.org/2000/svg" xmlns:xlink="http://www.w3.org/1999/xlink" version="1.1">
<metadata>
Created by FontForge 20170731 at Mon Aug 31 16:20:52 2020
 By Aleksey,,,
Copyright (c) 2011 by Monocromo s.n.c. All rights reserved.
</metadata>
<defs>
<font id="Opificio-RegularRounded" horiz-adv-x="1638" >
  <font-face 
    font-family="Opificio"
    font-weight="400"
    font-stretch="normal"
    units-per-em="2048"
    panose-1="2 0 5 6 2 0 0 2 0 4"
    ascent="1638"
    descent="-410"
    x-height="1024"
    cap-height="1434"
    bbox="-182 -541 2220 1952"
    underline-thickness="102"
    underline-position="-307"
    unicode-range="U+0020-FB02"
  />
<missing-glyph horiz-adv-x="1437" 
d="M1055 1206l78 -78v-839l-107 -107l-104 105v487l-201 -201l-201 203v-487l-106 -107l-105 107v835l82 82l332 -332zM416 190l100 101v489l-100 99v-689zM1026 188l102 103v831l-327 -331l-410 409l-74 -74l404 -415v-131l305 305v-697zM102 0v1434h1233v-1434h-1233z
M143 1393v-1352h1151v1352h-1151z" />
    <glyph glyph-name="AE" unicode="AE" horiz-adv-x="1574" 
d="M301 557l-162 -510q-19 -47 -67 -47q-29 0 -50.5 21.5t-21.5 50.5q0 6 4 22l399 1252q9 37 38.5 62.5t64.5 25.5h885q29 0 50 -21.5t21 -50.5t-21 -50.5t-50 -21.5h-740v-590h596q29 0 50.5 -21t21.5 -50t-21.5 -50.5t-50.5 -21.5h-596v-414h740q29 0 50 -21t21 -50
t-21 -50.5t-50 -21.5h-811q-29 0 -50.5 21.5t-21.5 50.5v485h-207zM508 1219l-160 -519h160v519z" />
    <glyph glyph-name="ae" unicode="ae" horiz-adv-x="2322" 
d="M2146 557h-895q-2 -6 -2 -61q0 -166 125 -284t295 -118q102 0 193.5 47t148.5 127q30 43 66 43q29 0 50 -21t21 -50q0 -43 -82 -125q-72 -74 -174.5 -119t-222.5 -45q-124 0 -233 49t-187 137v-65q0 -29 -21 -50.5t-50 -21.5t-50.5 21.5t-21.5 50.5v65l-23 -22
q-77 -77 -180 -120.5t-217 -43.5q-153 0 -282.5 75.5t-205 205t-75.5 282.5t75.5 282.5t205 205t282.5 75.5q116 0 218.5 -43.5t178.5 -122.5q53 -53 95 -123q73 131 204 210t287 79q189 0 340.5 -115t202.5 -300q8 -25 8 -41q0 -32 -20.5 -48t-53.5 -16zM1292 700h752
q-51 109 -155 171.5t-220 62.5q-63 0 -130 -21t-137.5 -76t-109.5 -137zM266 514q0 -173 123.5 -296.5t296.5 -123.5t296.5 123.5t123.5 296.5t-123.5 296.5t-296.5 123.5t-296.5 -123.5t-123.5 -296.5z" />
    <glyph glyph-name="OE" unicode="OE" horiz-adv-x="2017" 
d="M889 1434h944q29 0 50.5 -21.5t21.5 -50.5t-21.5 -50.5t-50.5 -21.5h-739v-590h596q29 0 50 -21t21 -50t-21 -50.5t-50 -21.5h-596v-414h739q29 0 50.5 -21t21.5 -50t-21.5 -50.5t-50.5 -21.5h-944q-156 0 -296.5 53.5t-244 147t-164.5 228t-61 288.5t61 288.5t164.5 228
t244 147t296.5 53.5zM889 143q41 0 61 2v1141q-20 2 -61 2q-170 0 -311.5 -71.5t-226.5 -203t-85 -296.5q0 -166 85 -298.5t226.5 -204t311.5 -71.5z" />
    <glyph glyph-name="oe" unicode="oe" horiz-adv-x="2322" 
d="M2146 557h-895q-2 -14 -2 -43q0 -173 123.5 -296.5t296.5 -123.5q102 0 193.5 47t148.5 127q30 43 66 43q29 0 50 -21t21 -50q0 -43 -82 -125q-72 -74 -174.5 -119t-222.5 -45q-156 0 -287 78t-204 209q-42 -70 -95 -123q-77 -77 -180 -120.5t-217 -43.5
q-153 0 -282.5 75.5t-205 205t-75.5 282.5t75.5 282.5t205 205t282.5 75.5q116 0 218.5 -43.5t178.5 -122.5q53 -53 95 -123q73 131 204 210t287 79q189 0 340.5 -115t202.5 -300q8 -25 8 -41q0 -32 -20.5 -48t-53.5 -16zM1292 700h752q-51 109 -155 171.5t-220 62.5
q-63 0 -130 -21t-137.5 -76t-109.5 -137zM266 514q0 -173 123.5 -296.5t296.5 -123.5t296.5 123.5t123.5 296.5t-123.5 296.5t-296.5 123.5t-296.5 -123.5t-123.5 -296.5z" />
    <glyph glyph-name="fi" unicode="fi" horiz-adv-x="1024" 
d="M696 72v649h-262v-649q0 -29 -21.5 -50.5t-50.5 -21.5t-50 21.5t-21 50.5v649h-35q-29 0 -50.5 21.5t-21.5 50.5t21.5 50t50.5 21h35v344q0 114 80 194.5t194 80.5t194.5 -80.5t80.5 -194.5q0 -29 -21.5 -50t-50.5 -21t-50.5 21t-21.5 50q0 54 -38.5 92.5t-92.5 38.5
t-92.5 -38.5t-38.5 -92.5v-344h406v-792q0 -29 -21.5 -50.5t-50.5 -21.5t-50.5 21.5t-21.5 50.5z" />
    <glyph glyph-name="fl" unicode="fl" horiz-adv-x="1024" 
d="M696 72v1136q0 54 -38.5 92.5t-92.5 38.5t-92.5 -38.5t-38.5 -92.5v-344h92q29 0 50.5 -21t21.5 -50t-21.5 -50.5t-50.5 -21.5h-92v-649q0 -29 -21.5 -50.5t-50.5 -21.5t-50 21.5t-21 50.5v649h-35q-29 0 -50.5 21.5t-21.5 50.5t21.5 50t50.5 21h35v344q0 114 80 194.5
t194 80.5t194.5 -80.5t80.5 -194.5v-1136q0 -29 -21.5 -50.5t-50.5 -21.5t-50.5 21.5t-21.5 50.5z" />
    <glyph glyph-name=".notdef" horiz-adv-x="1437" 
d="M1055 1206l78 -78v-839l-107 -107l-104 105v487l-201 -201l-201 203v-487l-106 -107l-105 107v835l82 82l332 -332zM416 190l100 101v489l-100 99v-689zM1026 188l102 103v831l-327 -331l-410 409l-74 -74l404 -415v-131l305 305v-697zM102 0v1434h1233v-1434h-1233z
M143 1393v-1352h1151v1352h-1151z" />
    <glyph glyph-name=".null" horiz-adv-x="0" 
 />
    <glyph glyph-name="nonmarkingreturn" horiz-adv-x="682" 
 />
    <glyph glyph-name="space" unicode=" " horiz-adv-x="675" 
 />
    <glyph glyph-name="space" unicode="&#xa0;" horiz-adv-x="675" 
 />
    <glyph glyph-name="exclam" unicode="!" horiz-adv-x="716" 
d="M377 86q0 -37 -24.5 -61.5t-61.5 -24.5t-61.5 24.5t-24.5 61.5t24.5 61.5t61.5 24.5t61.5 -24.5t24.5 -61.5zM221 340v1022q0 29 21.5 50.5t50.5 21.5t50.5 -21.5t21.5 -50.5v-1022q0 -29 -21.5 -50.5t-50.5 -21.5t-50.5 21.5t-21.5 50.5z" />
    <glyph glyph-name="quotedbl" unicode="&#x22;" horiz-adv-x="716" 
d="M326 1137l-23 237q0 25 16.5 42.5t40.5 17.5q25 0 42.5 -17.5t17.5 -42.5l-21 -237q-2 -15 -12 -26t-25 -11t-24.5 10.5t-11.5 26.5zM125 1137l-23 237q0 25 16.5 42.5t41.5 17.5t42 -17.5t17 -42.5l-20 -237q-2 -15 -12 -26t-25 -11t-25 11t-12 26z" />
    <glyph glyph-name="numbersign" unicode="#" 
d="M874 561h-180l-145 -512q-13 -51 -70 -51q-30 0 -49.5 21t-19.5 51l2 18l135 473h-150q-29 0 -50 21.5t-21 50.5t21 50.5t50 21.5h191l49 176h-170q-29 0 -50.5 21t-21.5 50t21.5 50.5t50.5 21.5h211l104 358q6 23 25.5 38.5t42.5 15.5q34 0 53 -21.5t19 -52.5l-7 -33
l-88 -305h179l104 358q6 23 25.5 38.5t42.5 15.5q34 0 52.5 -21.5t18.5 -52.5l-6 -33l-88 -305h139q29 0 50.5 -21.5t21.5 -50.5t-21.5 -50t-50.5 -21h-180l-51 -176h162q29 0 50 -21.5t21 -50.5t-21 -50.5t-50 -21.5h-203l-145 -512q-13 -51 -70 -51q-30 0 -50 21t-20 51
l2 18zM786 881l-51 -176h180l50 176h-179z" />
    <glyph glyph-name="dollar" unicode="$" 
d="M750 1477v102q0 29 21 50.5t50 21.5t50.5 -21.5t21.5 -50.5v-100q73 -9 129 -35q152 -71 227 -207q37 -66 37 -100q0 -31 -16.5 -51.5t-52.5 -20.5q-8 0 -15 1.5t-13 6.5t-10 8.5t-9.5 12t-8 12.5t-8.5 15.5t-8 15.5q-49 93 -137 149q-51 32 -115 45v-518l47 -14
q82 -26 145.5 -59t121 -83.5t89 -124t31.5 -165.5q0 -143 -86 -245t-223 -142q-67 -20 -125 -25v-107q0 -29 -21.5 -50t-50.5 -21t-50 21t-21 50v109q-61 9 -113 29q-143 53 -234.5 170.5t-91.5 271.5q0 29 21.5 50.5t50.5 21.5t50.5 -21.5t21.5 -50.5q0 -103 63 -185.5
t166 -123.5q44 -15 66 -21v619q-76 27 -144 57q-48 21 -89 48t-80 64.5t-62 87t-23 105.5q0 119 80.5 219t206.5 148q57 23 111 31zM963 113q99 26 160 91t61 163q0 175 -197 262q-77 35 -94 41v-572q19 2 70 15zM702 1319q-86 -31 -143 -91.5t-57 -135.5q0 -38 15.5 -70.5
t37.5 -54.5t59 -43.5t65 -33.5t71 -28v469q-28 -4 -48 -12z" />
    <glyph glyph-name="percent" unicode="%" 
d="M307 1350q0 37 24.5 61.5t61.5 24.5t61.5 -24.5t24.5 -61.5t-24.5 -61.5t-61.5 -24.5t-61.5 24.5t-24.5 61.5zM756 86q0 37 24.5 61.5t61.5 24.5t61.5 -24.5t24.5 -61.5t-24.5 -61.5t-61.5 -24.5t-61.5 24.5t-24.5 61.5zM338 123l418 1261q8 22 26 36t41 14
q29 0 50.5 -21.5t21.5 -50.5l-8 -37l-424 -1276q-8 -22 -26.5 -35.5t-41.5 -13.5q-33 0 -52 21t-19 51z" />
    <glyph glyph-name="ampersand" unicode="&#x26;" 
d="M1423 621q29 0 50.5 -21.5t21.5 -50.5t-20 -49l-179 -183l183 -200q16 -19 16 -45q0 -29 -21.5 -50.5t-50.5 -21.5q-35 0 -59 31l-168 186l-133 -131q-135 -135 -326 -135q-89 0 -173.5 34t-149.5 99q-119 119 -119 291q0 105 49 206.5t143 178.5l127 104l-34 37
q-65 71 -95 126.5t-30 117.5q0 120 83.5 204.5t202.5 84.5q120 0 204.5 -84.5t84.5 -204.5q0 -145 -149 -252l-64 -45l383 -424l166 168q25 29 57 29zM963 186l137 138l-383 440l-131 -111q-158 -134 -158 -272q0 -104 88 -195q92 -92 223 -92q132 0 224 92zM598 1149
q1 -33 19 -67.5t33.5 -52.5t43.5 -46l29 -31l6 4q32 20 47.5 31t46.5 38t46.5 57t15.5 63q0 60 -42 101.5t-102 41.5q-59 0 -101 -40.5t-42 -98.5z" />
    <glyph glyph-name="quotesingle" unicode="'" horiz-adv-x="512" 
d="M125 1137l-23 237q0 25 16.5 42.5t41.5 17.5t42 -17.5t17 -42.5l-20 -237q-2 -15 -12 -26t-25 -11t-25 11t-12 26z" />
    <glyph glyph-name="parenleft" unicode="(" horiz-adv-x="786" 
d="M348 1386v-1529q0 -49 28 -86.5t73 -57.5q24 -9 61 -12q29 0 50.5 -21.5t21.5 -50.5q0 -30 -21.5 -50.5t-56.5 -20.5q-58 0 -113 22q-83 33 -134.5 107.5t-51.5 169.5v1529q0 95 51.5 169.5t134.5 107.5q58 23 119 23q29 0 50.5 -21.5t21.5 -50.5q0 -30 -20.5 -49.5
t-57.5 -22.5q-31 -3 -55 -12q-45 -20 -73 -57.5t-28 -86.5z" />
    <glyph glyph-name="parenright" unicode=")" horiz-adv-x="786" 
d="M438 -143v1529q0 49 -27.5 86.5t-72.5 57.5q-24 9 -55 12q-37 3 -57.5 22.5t-20.5 49.5q0 29 21 50.5t50 21.5q62 0 119 -23q84 -33 135.5 -107.5t51.5 -169.5v-1529q0 -95 -51.5 -169.5t-135.5 -107.5q-55 -22 -112 -22q-35 0 -56.5 20.5t-21.5 50.5q0 29 21 50.5
t50 21.5q38 3 62 12q45 20 72.5 57.5t27.5 86.5z" />
    <glyph glyph-name="asterisk" unicode="*" horiz-adv-x="716" 
d="M180 1176q0 24 21 34l65 37l-61 37q-25 14 -25 35q0 15 11 27t26 12l23 -8l65 -37v82q0 15 11 27t26 12t27 -12t12 -27v-82l68 37q16 8 24 8q15 0 26 -11t11 -28q0 -20 -18 -31l-72 -41l65 -37q23 -9 23 -34q0 -17 -11.5 -27t-27.5 -10l-25 8l-63 37v-82q0 -15 -12 -26
t-27 -11t-26 11t-11 26v82l-63 -37q-13 -8 -25 -8q-15 0 -26 11t-11 26z" />
    <glyph glyph-name="plus" unicode="+" horiz-adv-x="1312" 
d="M653 276q-29 0 -50 21.5t-21 50.5v209h-203q-29 0 -50.5 21.5t-21.5 50.5t21.5 50t50.5 21h203v203q0 29 21 50.5t50 21.5t50.5 -21.5t21.5 -50.5v-203h209q29 0 50.5 -21t21.5 -50t-21.5 -50.5t-50.5 -21.5h-209v-209q0 -29 -21.5 -50.5t-50.5 -21.5z" />
    <glyph glyph-name="comma" unicode="," horiz-adv-x="512" 
d="M51 -260q0 13 8 37l123 366q8 26 28.5 43t47.5 17q32 0 55 -23t23 -55q0 -10 -6 -31l-125 -373q-8 -26 -28.5 -42.5t-47.5 -16.5q-32 0 -55 23t-23 55z" />
    <glyph glyph-name="hyphen" unicode="-" horiz-adv-x="1230" 
d="M307 535q0 29 21.5 50t50.5 21h473q29 0 50.5 -21t21.5 -50t-21.5 -50.5t-50.5 -21.5h-473q-29 0 -50.5 21.5t-21.5 50.5z" />
    <glyph glyph-name="period" unicode="." horiz-adv-x="512" 
d="M102 61q0 46 32.5 79.5t78.5 33.5t79.5 -33.5t33.5 -79.5q0 -45 -33.5 -77.5t-79.5 -32.5t-78.5 32t-32.5 78z" />
    <glyph glyph-name="slash" unicode="/" horiz-adv-x="1185" 
d="M322 123l417 1261q8 22 26.5 36t41.5 14q29 0 50.5 -21.5t21.5 -50.5q0 -6 -2.5 -15.5t-4.5 -15.5l-2 -6l-424 -1276q-8 -22 -26 -35.5t-41 -13.5q-33 0 -52.5 21t-19.5 51q0 5 3.5 18t7.5 23z" />
    <glyph glyph-name="zero" unicode="0" horiz-adv-x="1736" 
d="M102 717q0 155 61 296.5t164 244.5t244.5 164t296.5 61t296.5 -61t244.5 -164t164 -244.5t61 -296.5t-61 -296.5t-164 -244.5t-244.5 -164t-296.5 -61t-296.5 61t-244.5 164t-164 244.5t-61 296.5zM246 717q0 -125 50 -240.5t133.5 -199t198.5 -133.5t240 -50
q124 0 239 50t198.5 133.5t133.5 199t50 240.5q0 166 -84 309t-227.5 227t-309.5 84q-167 0 -310.5 -84t-227.5 -227t-84 -309z" />
    <glyph glyph-name="one" unicode="1" horiz-adv-x="1169" 
d="M369 1362q0 29 21 50.5t50 21.5h207q30 0 51 -22.5t21 -55.5v-1284q0 -29 -21.5 -50.5t-50.5 -21.5t-50.5 21.5t-21.5 50.5v1218h-135q-29 0 -50 21.5t-21 50.5z" />
    <glyph glyph-name="two" unicode="2" horiz-adv-x="1363" 
d="M252 1036q3 96 35 166q35 82 98 146q65 65 149 99t173 34q185 0 321 -133q65 -65 99 -149.5t34 -174.5q0 -190 -133 -317l-594 -564h674q29 0 50.5 -21t21.5 -50t-21.5 -50.5t-50.5 -21.5h-811q-29 0 -50.5 21.5t-21.5 50.5v41q0 28 29 57l674 635q41 38 66.5 98.5
t25.5 120.5q0 132 -92 221q-95 92 -221 92q-128 0 -220 -92q-82 -82 -92 -209q0 -29 -21 -50t-50 -21t-50.5 21t-21.5 50z" />
    <glyph glyph-name="three" unicode="3" horiz-adv-x="1536" 
d="M655 991q0 21 11.5 34.5t38.5 31.5l319 233h-618q-33 0 -55.5 21t-22.5 51t22.5 51t55.5 21h759q29 0 50.5 -21.5t21.5 -50.5v-39q0 -35 -29 -57l-256 -209q19 -4 76 -27q154 -65 249 -205.5t95 -312.5q0 -153 -75.5 -282.5t-205 -205t-282.5 -75.5q-174 0 -313.5 94.5
t-206.5 249.5q-43 101 -43 217q0 29 21 50.5t50 21.5q30 0 51 -22.5t21 -55.5q0 -89 33 -156q50 -115 154.5 -185.5t232.5 -70.5q173 0 296.5 123.5t123.5 296.5q0 84 -32 164t-104.5 145t-172.5 84q-71 15 -164 15h-41q-28 0 -44 20t-16 51z" />
    <glyph glyph-name="four" unicode="4" horiz-adv-x="1343" 
d="M588 1434q32 0 51.5 -17.5t19.5 -48.5l-6 -37l-225 -930h461v181q0 29 21.5 50t50.5 21t50 -21t21 -50v-181h96q29 0 50.5 -21t21.5 -50t-21.5 -50.5t-50.5 -21.5h-96v-186q0 -29 -21 -50.5t-50 -21.5t-50.5 21.5t-21.5 50.5v186h-545q-32 0 -55 23t-23 53l10 49l240 979
q18 72 72 72z" />
    <glyph glyph-name="five" unicode="5" horiz-adv-x="1536" 
d="M354 795q0 8 4 24l111 547q14 68 78 68h575q29 0 50.5 -21.5t21.5 -50.5t-21.5 -50.5t-50.5 -21.5h-526l-57 -297q129 82 290 82q153 0 283 -75.5t205.5 -205t75.5 -282.5t-75.5 -282.5t-205.5 -205t-283 -75.5q-174 0 -313.5 94.5t-206.5 249.5q-43 101 -43 219
q0 29 21.5 50.5t50.5 21.5t50.5 -21.5t21.5 -50.5q0 -96 32 -164q50 -115 154.5 -185.5t232.5 -70.5q173 0 296.5 123.5t123.5 296.5q0 175 -123 297.5t-307 122.5q-101 0 -186 -35t-135 -102q-46 -70 -84 -70q-29 0 -44.5 19.5t-15.5 50.5z" />
    <glyph glyph-name="six" unicode="6" horiz-adv-x="1536" 
d="M225 514v406q0 153 75.5 282.5t205 205t282.5 75.5q114 0 220 -45q95 -42 159 -103q25 -25 25 -57q0 -28 -18 -49q-21 -21 -52 -21q-30 0 -51 21q-48 45 -121 76q-71 32 -162 32q-174 0 -296.5 -121.5t-122.5 -295.5v-31l20 22q166 166 399 166q153 0 283 -75.5
t205.5 -205t75.5 -282.5t-75.5 -282.5t-205.5 -205t-283 -75.5t-282.5 75.5t-205 205t-75.5 282.5zM369 514q0 -116 57 -213t153.5 -152t208.5 -55q173 0 296.5 123.5t123.5 296.5t-123.5 296.5t-296.5 123.5t-296 -123.5t-123 -296.5z" />
    <glyph glyph-name="seven" unicode="7" horiz-adv-x="1320" 
d="M367 72q0 18 6 30l651 1188h-645q-29 0 -50.5 21.5t-21.5 50.5t21.5 50.5t50.5 21.5h768q29 0 50.5 -21.5t21.5 -50.5q0 -7 -2.5 -15.5t-4.5 -12.5l-2 -5l-710 -1294q-21 -35 -62 -35q-29 0 -50 21.5t-21 50.5z" />
    <glyph glyph-name="eight" unicode="8" horiz-adv-x="1400" 
d="M1065 836q152 -152 152 -365t-152 -365q-148 -151 -365 -151q-213 0 -364 151q-152 155 -152 365t152 365q66 66 141 100q-96 93 -96 227q0 131 94.5 225.5t224.5 94.5q131 0 226.5 -95t95.5 -225q0 -134 -96 -227q76 -38 139 -100zM524 1163q0 -72 52 -124t124 -52
q73 0 126 52t53 124q0 73 -52.5 124.5t-126.5 51.5q-72 0 -124 -51.5t-52 -124.5zM700 98q154 0 263.5 109.5t109.5 263.5t-109.5 263.5t-263.5 109.5t-263 -109.5t-109 -263.5t109 -263.5t263 -109.5z" />
    <glyph glyph-name="nine" unicode="9" horiz-adv-x="1536" 
d="M1331 920v-406q0 -153 -75.5 -282.5t-205 -205t-282.5 -75.5q-120 0 -219 45q-99 44 -160 102q-24 24 -24 58q0 31 19 50t50 19q28 0 51 -20q48 -45 121 -76q73 -33 162 -33q174 0 297 122t123 296v31l-21 -23q-166 -166 -399 -166q-153 0 -282.5 75.5t-205 205.5
t-75.5 283t75.5 282.5t205 205t282.5 75.5t282.5 -75.5t205 -205t75.5 -282.5zM1188 920q0 173 -123.5 296t-296.5 123t-296.5 -123t-123.5 -296t123.5 -296.5t296.5 -123.5t296.5 123.5t123.5 296.5z" />
    <glyph glyph-name="colon" unicode=":" horiz-adv-x="563" 
d="M113 911q0 46 32.5 79.5t77.5 33.5q46 0 79.5 -33.5t33.5 -79.5q0 -45 -33.5 -77.5t-79.5 -32.5t-78 32t-32 78zM113 61q0 46 32.5 79.5t77.5 33.5q46 0 79.5 -33.5t33.5 -79.5q0 -45 -33.5 -77.5t-79.5 -32.5t-78 32t-32 78z" />
    <glyph glyph-name="semicolon" unicode=";" horiz-adv-x="563" 
d="M113 911q0 46 32.5 79.5t77.5 33.5q46 0 79.5 -33.5t33.5 -79.5q0 -45 -33.5 -77.5t-79.5 -32.5t-78 32t-32 78zM0 -260q0 13 8 37l123 366q8 26 28.5 43t47.5 17q32 0 55 -23t23 -55q0 -10 -6 -31l-125 -373q-8 -26 -28.5 -42.5t-47.5 -16.5q-32 0 -55 23t-23 55z" />
    <glyph glyph-name="less" unicode="&#x3c;" 
d="M410 514q0 31 13.5 49.5t43.5 30.5l766 332q15 6 31 6q32 0 53.5 -21t21.5 -49q0 -24 -14.5 -42.5t-36.5 -26.5l-639 -279l629 -274q61 -24 61 -72q0 -29 -21 -50.5t-50 -21.5q-9 0 -25 4l-776 336q-57 23 -57 78z" />
    <glyph glyph-name="equal" unicode="=" horiz-adv-x="1433" 
d="M229 657q0 29 21.5 50.5t50.5 21.5h832q29 0 50 -21.5t21 -50.5t-21 -50t-50 -21h-832q-29 0 -50.5 21t-21.5 50zM229 371q0 29 21.5 50t50.5 21h832q29 0 50 -21t21 -50t-21 -50.5t-50 -21.5h-832q-29 0 -50.5 21.5t-21.5 50.5z" />
    <glyph glyph-name="greater" unicode="&#x3e;" 
d="M1339 514q0 -55 -57 -78l-776 -336q-16 -4 -25 -4q-29 0 -50 21.5t-21 50.5q0 48 61 72l629 274l-639 279q-22 8 -36.5 26.5t-14.5 42.5q0 28 21.5 49t53.5 21q16 0 31 -6l766 -332q30 -12 43.5 -30.5t13.5 -49.5z" />
    <glyph glyph-name="question" unicode="?" 
d="M270 1085q-28 0 -46.5 16.5t-18.5 39.5q0 19 12 43q49 94 164 170q121 80 278 80q209 0 357.5 -148.5t148.5 -357.5q0 -192 -126 -333.5t-314 -166.5v-88q0 -29 -21.5 -50.5t-50.5 -21.5t-50 21.5t-21 50.5v147q0 29 21 50.5t50 21.5q81 0 150 29q102 44 163.5 134.5
t61.5 205.5q0 154 -107.5 261t-261.5 107q-105 0 -184 -39.5t-145 -128.5q-30 -43 -60 -43zM741 86q0 -37 -24.5 -61.5t-61.5 -24.5t-61.5 24.5t-24.5 61.5t24.5 61.5t61.5 24.5t61.5 -24.5t24.5 -61.5z" />
    <glyph glyph-name="at" unicode="@" horiz-adv-x="1941" 
d="M1593 166v551q0 126 -49.5 241t-133 198.5t-198.5 133t-241 49.5q-168 0 -311.5 -83.5t-227.5 -227t-84 -311.5t84 -311.5t227.5 -227.5t311.5 -84q29 0 50 -21t21 -50t-21 -50.5t-50 -21.5q-155 0 -296.5 61t-244.5 164t-164 244.5t-61 296.5t61 296.5t164 244.5
t244.5 164t296.5 61t296.5 -61t244.5 -164t164 -244.5t61 -296.5v-551q0 -88 -63 -151.5t-152 -63.5q-90 0 -151.5 63t-61.5 152v209q-61 -61 -152 -101q-82 -36 -186 -36q-199 0 -339 140t-140 339q0 131 64 241.5t174 175t241 64.5q199 0 340 -141t141 -340v-551
q0 -29 20.5 -49.5t49.5 -20.5t50 20.5t21 49.5zM633 717q0 -139 99.5 -238.5t238.5 -99.5t238.5 99.5t99.5 238.5t-99.5 238.5t-238.5 99.5t-238.5 -99.5t-99.5 -238.5z" />
    <glyph glyph-name="A" unicode="A" horiz-adv-x="1013" 
d="M713 557h-412l-162 -510q-19 -47 -67 -47q-29 0 -50.5 21.5t-21.5 50.5q0 6 4 22l399 1252q13 40 39 65t64 25q75 0 104 -90l400 -1252q4 -16 4 -22q0 -29 -21.5 -50.5t-50.5 -21.5q-49 0 -68 47zM508 1219l-160 -519h320z" />
    <glyph glyph-name="B" unicode="B" horiz-adv-x="1273" 
d="M205 72v1290q0 29 21 50.5t50 21.5h314q224 0 348 -103q123 -102 123 -284q0 -174 -123 -285l-8 -6q46 -17 102 -58q65 -62 97 -133t32 -166q0 -181 -129 -295q-131 -104 -358 -104h-398q-29 0 -50 21.5t-21 50.5zM915 213q89 74 89 188q0 122 -89 193q-80 68 -239 68
h-328v-517h328q159 0 239 68zM825 866q82 64 82 181q0 112 -82 182q-89 65 -231 65h-246v-493h307q93 0 170 65z" />
    <glyph glyph-name="C" unicode="C" horiz-adv-x="1673" 
d="M276 717q0 -125 50 -240.5t133.5 -199t199 -133.5t240.5 -50t237.5 48t198.5 134q41 41 97 123q22 29 57 29q29 0 50.5 -21.5t21.5 -50.5q0 -10 -9 -32q-38 -74 -112 -148q-106 -106 -246 -165.5t-295 -59.5t-296.5 61t-244.5 164t-164 244.5t-61 296.5t61 296.5
t164 244.5t244.5 164t296.5 61t294.5 -59.5t246.5 -166.5q79 -79 114 -151q7 -17 7 -29q0 -29 -21.5 -50t-50.5 -21q-21 0 -34.5 11t-33.5 38q-49 64 -86 98q-86 88 -198 136t-238 48q-125 0 -240.5 -49.5t-199 -133t-133.5 -198.5t-50 -239z" />
    <glyph glyph-name="D" unicode="D" horiz-adv-x="1533" 
d="M205 72v1290q0 29 21 50.5t50 21.5h410q146 0 278 -56.5t228 -152.5t152.5 -228t56.5 -278t-56.5 -279t-152.5 -229.5t-228.5 -153.5t-277.5 -57h-410q-29 0 -50 21.5t-21 50.5zM348 143h338q155 0 286.5 77.5t208 210t76.5 288.5q0 155 -76.5 286.5t-208 208
t-286.5 76.5h-338v-1147z" />
    <glyph glyph-name="E" unicode="E" horiz-adv-x="1271" 
d="M205 72v1290q0 29 21 50.5t50 21.5h811q29 0 50.5 -21.5t21.5 -50.5t-21.5 -50.5t-50.5 -21.5h-739v-590h596q29 0 50.5 -21t21.5 -50t-21.5 -50.5t-50.5 -21.5h-596v-414h739q29 0 50.5 -21t21.5 -50t-21.5 -50.5t-50.5 -21.5h-811q-29 0 -50 21.5t-21 50.5z" />
    <glyph glyph-name="F" unicode="F" horiz-adv-x="1241" 
d="M205 72v1290q0 29 21 50.5t50 21.5h811q29 0 50.5 -21.5t21.5 -50.5t-21.5 -50.5t-50.5 -21.5h-739v-590h596q29 0 50.5 -21t21.5 -50t-21.5 -50.5t-50.5 -21.5h-596v-485q0 -29 -21.5 -50.5t-50.5 -21.5t-50 21.5t-21 50.5z" />
    <glyph glyph-name="G" unicode="G" horiz-adv-x="1634" 
d="M881 629q0 29 21 50t50 21h500q34 0 52 -24t18 -62q0 -158 -15.5 -249.5t-66.5 -167.5q-90 -134 -242 -193q-145 -53 -299 -53q-155 0 -296.5 61t-244.5 164t-164 244.5t-61 296.5t61 296.5t164 244.5t244.5 164t296.5 61t294.5 -59.5t246.5 -166.5q76 -67 76 -116
q0 -29 -21 -48.5t-51 -19.5q-29 0 -60 31l-49 49q-86 88 -198 136t-238 48q-125 0 -240.5 -49.5t-199 -133t-133.5 -198.5t-50 -239q0 -125 50 -240.5t133.5 -199t199 -133.5t240.5 -50q292 0 418 185q61 90 61 278h-426q-29 0 -50 21.5t-21 50.5z" />
    <glyph glyph-name="H" unicode="H" horiz-adv-x="1363" 
d="M205 72v1290q0 29 21 50.5t50 21.5t50.5 -21.5t21.5 -50.5v-662h668v662q0 29 21 50.5t50 21.5t50.5 -21.5t21.5 -50.5v-1290q0 -29 -21.5 -50.5t-50.5 -21.5t-50 21.5t-21 50.5v485h-668v-485q0 -29 -21.5 -50.5t-50.5 -21.5t-50 21.5t-21 50.5z" />
    <glyph glyph-name="I" unicode="I" horiz-adv-x="593" 
d="M225 72v1290q0 29 21.5 50.5t50.5 21.5t50.5 -21.5t21.5 -50.5v-1290q0 -29 -21.5 -50.5t-50.5 -21.5t-50.5 21.5t-21.5 50.5z" />
    <glyph glyph-name="J" unicode="J" horiz-adv-x="1384" 
d="M276 1362q0 29 21.5 50.5t50.5 21.5h739q29 0 50.5 -21.5t21.5 -50.5v-934q0 -196 -140.5 -336.5t-336.5 -140.5t-336.5 140.5t-140.5 336.5q0 29 21 50.5t50 21.5t50.5 -21.5t21.5 -50.5q0 -70 25 -131q41 -91 123.5 -147t185.5 -56q138 0 236 98t98 236v862h-668
q-29 0 -50.5 21.5t-21.5 50.5z" />
    <glyph glyph-name="K" unicode="K" horiz-adv-x="1253" 
d="M225 72v1290q0 29 21.5 50.5t50.5 21.5t50.5 -21.5t21.5 -50.5v-694l755 743q23 23 52 23t49 -20.5t20 -49.5t-24 -53l-576 -566l588 -624q20 -23 20 -51q0 -29 -20 -49.5t-49 -20.5q-9 0 -17 2t-14 5t-12 7.5t-8.5 7.5t-6.5 7l-4 4l-577 614l-176 -174v-401
q0 -29 -21.5 -50.5t-50.5 -21.5t-50.5 21.5t-21.5 50.5z" />
    <glyph glyph-name="L" unicode="L" horiz-adv-x="1159" 
d="M205 72v1292q0 28 21 49t50 21t50.5 -21.5t21.5 -50.5v-1219h739q29 0 50.5 -21t21.5 -50q0 -31 -20.5 -51.5t-57.5 -20.5h-805q-29 0 -50 21.5t-21 50.5z" />
    <glyph glyph-name="M" unicode="M" horiz-adv-x="1613" 
d="M1266 72v1120l-400 -539q-30 -37 -61 -37q-39 0 -62 33l-395 541v-1118q0 -29 -21.5 -50.5t-50.5 -21.5t-50 21.5t-21 50.5v1290q0 29 21 50.5t50 21.5h37q33 0 58 -29l434 -596l438 596q22 29 57 29h37q29 0 50.5 -21.5t21.5 -50.5v-1290q0 -29 -21.5 -50.5t-50.5 -21.5
t-50 21.5t-21 50.5z" />
    <glyph glyph-name="N" unicode="N" horiz-adv-x="1363" 
d="M205 72v1290q0 29 21 50.5t50 21.5h31q41 0 62 -35l647 -1112v1075q0 29 21 50.5t50 21.5q30 0 51 -21.5t21 -54.5v-1286q0 -30 -21.5 -51t-54.5 -21h-26q-44 0 -64 39l-645 1108v-1075q0 -29 -21.5 -50.5t-50.5 -21.5t-50 21.5t-21 50.5z" />
    <glyph glyph-name="O" unicode="O" horiz-adv-x="1777" 
d="M123 717q0 155 61 296.5t164 244.5t244.5 164t296.5 61t296.5 -61t244.5 -164t164 -244.5t61 -296.5t-61 -296.5t-164 -244.5t-244.5 -164t-296.5 -61t-296.5 61t-244.5 164t-164 244.5t-61 296.5zM266 717q0 -125 50 -240.5t133.5 -199t199 -133.5t240.5 -50
q124 0 239 50t198.5 133.5t133 199t49.5 240.5q0 166 -84 309t-227 227t-309 84q-125 0 -240.5 -49.5t-199 -133t-133.5 -198.5t-50 -239z" />
    <glyph glyph-name="P" unicode="P" horiz-adv-x="1234" 
d="M205 72v1290q0 29 21 50.5t50 21.5h355q224 0 348 -103q123 -102 123 -334q0 -150 -33 -217q-31 -73 -90 -123q-117 -100 -348 -100h-283v-485q0 -29 -21.5 -50.5t-50.5 -21.5t-50 21.5t-21 50.5zM866 762q82 64 82 235q0 162 -82 232q-89 65 -231 65h-287v-598h287
q140 0 231 66z" />
    <glyph glyph-name="Q" unicode="Q" horiz-adv-x="1777" 
d="M123 717q0 155 61 296.5t164 244.5t244.5 164t296.5 61t296.5 -61t244.5 -164t164 -244.5t61 -296.5t-59.5 -295t-165.5 -246q-101 -101 -230 -158q10 -33 35 -55q38 -35 88 -35q29 0 50.5 -21t21.5 -50t-21.5 -50.5t-52.5 -21.5q-56 0 -102 20q-99 43 -140 142
q-8 16 -10 26q-93 -22 -180 -22q-155 0 -296.5 61t-244.5 164t-164 244.5t-61 296.5zM862 242q0 30 22.5 50.5t55.5 20.5q52 -3 96 -20q52 -22 84 -57q31 -27 51 -72q92 50 154 112q88 88 136 201.5t48 239.5q0 166 -84 309t-227 227t-309 84q-125 0 -240.5 -49.5t-199 -133
t-133.5 -198.5t-50 -239q0 -125 50 -240.5t133.5 -199t199 -133.5t240.5 -50q73 0 151 19l-18 22q-38 35 -88 35q-29 0 -50.5 21.5t-21.5 50.5z" />
    <glyph glyph-name="R" unicode="R" horiz-adv-x="1245" 
d="M205 72v1290q0 29 21 50.5t50 21.5h355q209 0 342 -103q62 -59 95.5 -146t33.5 -186q0 -223 -129 -337q-24 -18 -58 -39q21 -12 56 -35q129 -114 129 -295v-221q0 -29 -21.5 -50.5t-50.5 -21.5t-50.5 21.5t-21.5 50.5v221q0 116 -90 194q-76 70 -213 70h-305v-485
q0 -29 -21.5 -50.5t-50.5 -21.5t-50 21.5t-21 50.5zM866 762q90 78 90 239q0 162 -90 234q-82 70 -233 70h-285v-613h285q151 0 233 70z" />
    <glyph glyph-name="S" unicode="S" horiz-adv-x="1271" 
d="M133 428q0 29 21.5 50.5t50.5 21.5t50 -21.5t21 -50.5q0 -136 109.5 -240t257.5 -104q96 0 176.5 30.5t133.5 96.5t53 156q0 57 -22 104.5t-55.5 80.5t-87.5 62.5t-104.5 48t-120.5 39.5q-442 129 -442 377q0 107 66.5 200.5t177 148.5t233.5 55q149 0 257.5 -73.5
t162.5 -172.5q37 -67 37 -102q0 -28 -20 -49t-50 -21q-9 0 -17.5 3.5t-13.5 6.5t-12 12.5t-9.5 14t-9.5 18t-9 17.5q-55 100 -141 155.5t-183 55.5q-77 0 -151 -35t-122 -95.5t-48 -127.5q0 -42 19.5 -77.5t46 -59t78 -48t88.5 -38t105 -36.5q183 -61 259 -101
q181 -96 219 -258q12 -49 12 -105q0 -127 -70.5 -223.5t-182.5 -144.5t-245 -48q-99 0 -192.5 35t-165.5 96t-116 151.5t-44 194.5z" />
    <glyph glyph-name="T" unicode="T" horiz-adv-x="954" 
d="M0 1362q0 29 21.5 50.5t50.5 21.5h811q29 0 50 -21.5t21 -50.5t-20.5 -50.5t-48.5 -21.5h-336v-1218q0 -29 -21.5 -50.5t-50.5 -21.5t-50 21.5t-21 50.5v1218h-334q-29 0 -50.5 21.5t-21.5 50.5z" />
    <glyph glyph-name="U" unicode="U" horiz-adv-x="1343" 
d="M1016 428v934q0 29 21 50.5t50 21.5t50.5 -21.5t21.5 -50.5v-934q0 -201 -138 -339t-339 -138t-339 138t-138 339v928q0 33 20.5 55.5t50.5 22.5q29 0 50.5 -21.5t21.5 -50.5v-934q0 -141 96.5 -237.5t237.5 -96.5t237.5 96.5t96.5 237.5z" />
    <glyph glyph-name="V" unicode="V" horiz-adv-x="1017" 
d="M414 59l-406 1264q-8 23 -8 39q0 29 21.5 50.5t50.5 21.5q52 0 69 -54l369 -1144l369 1150q6 20 25 34t42 14q29 0 50.5 -22t21.5 -50l-8 -39l-406 -1266q-8 -26 -26 -41.5t-43 -15.5h-50q-51 0 -71 59z" />
    <glyph glyph-name="W" unicode="W" horiz-adv-x="1507" 
d="M0 1362q0 29 20.5 50.5t49.5 21.5q27 0 46.5 -18.5t24.5 -45.5l185 -1169l370 579q22 37 56 37q33 0 55 -37l375 -579l184 1167q5 29 23 47.5t47 18.5t50 -21.5t21 -50.5l-2 -19l-200 -1280q-4 -31 -25.5 -47t-46.5 -16h-43q-25 0 -40.5 12t-31.5 39l-366 574l-369 -582
q-25 -43 -66 -43h-49q-24 0 -42.5 17.5t-22.5 48.5l-201 1277q-2 13 -2 19z" />
    <glyph glyph-name="X" unicode="X" horiz-adv-x="1003" 
d="M872 37l-376 565l-369 -563q-24 -39 -61 -39q-29 0 -47.5 18.5t-18.5 47.5q0 21 18 51l398 604l-398 598q-14 21 -14 45q0 29 19.5 49.5t48.5 20.5q18 0 32 -7.5t19.5 -14.5t13.5 -21l369 -553l368 561q0 1 4 6t6.5 7.5t8 7.5t10.5 7.5t13.5 4.5t17.5 2q29 0 49.5 -20.5
t20.5 -49.5q0 -10 -3 -19.5t-5 -13.5l-3 -4l-403 -616l403 -605q11 -16 11 -36q0 -29 -20.5 -49.5t-49.5 -20.5q-36 0 -62 37z" />
    <glyph glyph-name="Y" unicode="Y" horiz-adv-x="974" 
d="M416 72v487l-404 762q-12 30 -12 41q0 29 21.5 50.5t50.5 21.5q21 0 35.5 -8.5t19 -15t10.5 -19.5l350 -689l353 693q20 39 63 39q29 0 50.5 -21.5t21.5 -50.5q0 -17 -12 -39l-404 -760v-491q0 -29 -21.5 -50.5t-50.5 -21.5t-50 21.5t-21 50.5z" />
    <glyph glyph-name="Z" unicode="Z" horiz-adv-x="1284" 
d="M154 1362q0 29 21 50.5t50 21.5h813q29 0 50.5 -21.5t21.5 -50.5q0 -9 -3 -18.5t-5.5 -14.5t-9 -14.5t-7.5 -11.5l-763 -1160h778q29 0 50 -21t21 -50t-21 -50.5t-50 -21.5h-916q-29 0 -50 21.5t-21 50.5q0 20 10 37l776 1181h-674q-29 0 -50 21.5t-21 50.5z" />
    <glyph glyph-name="bracketleft" unicode="[" horiz-adv-x="768" 
d="M205 -375v1991q0 29 21 50.5t50 21.5h216q29 0 50 -21.5t21 -50.5t-21 -50.5t-50 -21.5h-144v-1847h144q29 0 50 -21.5t21 -50.5t-21 -50t-50 -21h-216q-29 0 -50 21t-21 50z" />
    <glyph glyph-name="backslash" unicode="\" horiz-adv-x="1179" 
d="M307 1366q0 29 21 48.5t51 19.5q25 0 43.5 -17t26.5 -43l419 -1280q4 -16 4 -22q0 -29 -21 -50.5t-50 -21.5q-26 0 -45 16t-27 43l-414 1268q-8 24 -8 39z" />
    <glyph glyph-name="bracketright" unicode="]" horiz-adv-x="768" 
d="M563 1616v-1991q0 -29 -21 -50t-50 -21h-216q-29 0 -50 21t-21 50t21 50.5t50 21.5h144v1847h-144q-29 0 -50 21.5t-21 50.5t21 50.5t50 21.5h216q29 0 50 -21.5t21 -50.5z" />
    <glyph glyph-name="asciicircum" unicode="^" horiz-adv-x="1196" 
d="M205 692q0 14 6 29l301 688q7 19 15 31t26 22.5t45 10.5q23 0 40 -5.5t27 -17.5t13.5 -19.5t9.5 -21.5l299 -692q4 -9 4 -23q0 -29 -20 -51t-51 -22q-44 0 -64 38l-258 592l-252 -573q-24 -57 -70 -57q-29 0 -50 21t-21 50z" />
    <glyph glyph-name="underscore" unicode="_" horiz-adv-x="1441" 
d="M205 72q0 29 21 50t50 21h889q29 0 50.5 -21t21.5 -50t-21.5 -50.5t-50.5 -21.5h-889q-29 0 -50 21.5t-21 50.5z" />
    <glyph glyph-name="grave" unicode="`" horiz-adv-x="702" 
d="M205 1382q0 27 18.5 46.5t46.5 19.5q27 0 43 -16l162 -150q23 -23 23 -51q0 -26 -17.5 -45t-46.5 -19q-30 0 -53 23l-154 143q-22 19 -22 49z" />
    <glyph glyph-name="a" unicode="a" horiz-adv-x="1392" 
d="M1106 72v65l-23 -22q-77 -77 -180 -120.5t-217 -43.5q-153 0 -282.5 75.5t-205 205t-75.5 282.5t75.5 282.5t205 205t282.5 75.5t282.5 -75.5t205 -205t75.5 -282.5v-442q0 -29 -21 -50.5t-50 -21.5t-50.5 21.5t-21.5 50.5zM266 514q0 -173 123.5 -296.5t296.5 -123.5
t296.5 123.5t123.5 296.5t-123.5 296.5t-296.5 123.5t-296.5 -123.5t-123.5 -296.5z" />
    <glyph glyph-name="b" unicode="b" horiz-adv-x="1433" 
d="M184 514v848q0 29 21.5 50.5t50.5 21.5t50.5 -21.5t21.5 -50.5v-481q61 73 180 133q120 63 240 63q153 0 282.5 -75.5t205 -205t75.5 -282.5t-75.5 -282.5t-205 -205t-282.5 -75.5t-283 75.5t-205.5 205t-75.5 282.5zM328 514q0 -173 123.5 -296.5t296.5 -123.5
t296 123.5t123 296.5t-123 296.5t-296 123.5t-296.5 -123.5t-123.5 -296.5z" />
    <glyph glyph-name="c" unicode="c" horiz-adv-x="1247" 
d="M1020 276q15 22 24 32.5t26 21t36 10.5q25 0 42 -19t17 -45q0 -50 -59 -122q-165 -203 -420 -203q-153 0 -282.5 75.5t-205 205t-75.5 282.5t75.5 282.5t205 205t282.5 75.5q243 0 416 -190q63 -77 63 -131q0 -62 -59 -62q-14 0 -27.5 7.5t-20 15t-20 25.5t-18.5 24
q-69 85 -146 126.5t-188 41.5q-173 0 -296.5 -123.5t-123.5 -296.5t123.5 -296.5t296.5 -123.5q92 0 181.5 45.5t152.5 136.5z" />
    <glyph glyph-name="d" unicode="d" horiz-adv-x="1392" 
d="M1249 1362v-848q0 -153 -75.5 -282.5t-205 -205t-282.5 -75.5t-282.5 75.5t-205 205t-75.5 282.5t75.5 282.5t205 205t282.5 75.5q120 0 240 -63q119 -60 180 -133v481q0 29 21.5 50.5t50.5 21.5t50 -21.5t21 -50.5zM1106 514q0 173 -123.5 296.5t-296.5 123.5
t-296.5 -123.5t-123.5 -296.5t123.5 -296.5t296.5 -123.5t296.5 123.5t123.5 296.5z" />
    <glyph glyph-name="e" unicode="e" horiz-adv-x="1339" 
d="M1163 557h-895q-2 -14 -2 -43q0 -173 123.5 -296.5t296.5 -123.5q102 0 193.5 47t148.5 127q30 43 66 43q29 0 50 -21t21 -50q0 -43 -82 -125q-72 -74 -174.5 -119t-222.5 -45q-153 0 -282.5 75.5t-205 205t-75.5 282.5t75.5 282.5t205 205t282.5 75.5q189 0 340.5 -115
t202.5 -300q8 -25 8 -41q0 -32 -20.5 -48t-53.5 -16zM309 700h752q-51 109 -155 171.5t-220 62.5q-63 0 -130 -21t-137.5 -76t-109.5 -137z" />
    <glyph glyph-name="f" unicode="f" horiz-adv-x="839" 
d="M696 1208q0 54 -38.5 92.5t-92.5 38.5t-92.5 -38.5t-38.5 -92.5v-344h191q29 0 50 -21t21 -50t-21 -50.5t-50 -21.5h-191v-649q0 -29 -21.5 -50.5t-50.5 -21.5t-50 21.5t-21 50.5v649h-35q-29 0 -50.5 21.5t-21.5 50.5t21.5 50t50.5 21h35v344q0 114 80 194.5t194 80.5
t194.5 -80.5t80.5 -194.5q0 -29 -21.5 -50t-50.5 -21t-50.5 21t-21.5 50z" />
    <glyph glyph-name="g" unicode="g" horiz-adv-x="1433" 
d="M197 -152q0 29 21 50.5t50 21.5q39 0 64 -41q21 -33 57 -69q123 -123 297 -123q173 0 296.5 123t123.5 296v31l-23 -22q-77 -77 -180 -120.5t-217 -43.5q-153 0 -282.5 75.5t-205 205t-75.5 282.5t75.5 282.5t205 205t282.5 75.5q116 0 218.5 -43.5t178.5 -122.5
q15 -11 23 -22v63q0 29 21.5 50.5t50.5 21.5t50 -21.5t21 -50.5v-846q0 -153 -75.5 -282.5t-205 -205t-282.5 -75.5q-233 0 -399 166q-40 39 -74 92q-16 22 -16 47zM266 514q0 -173 123.5 -296.5t296.5 -123.5t296.5 123.5t123.5 296.5t-123.5 296.5t-296.5 123.5
t-296.5 -123.5t-123.5 -296.5z" />
    <glyph glyph-name="h" unicode="h" horiz-adv-x="1304" 
d="M205 72v1290q0 29 21 50.5t50 21.5q30 0 51 -22.5t21 -55.5v-422q49 64 134.5 103.5t176.5 39.5q93 0 178 -37t147 -99t99 -147t37 -178v-544q0 -29 -21 -50.5t-50 -21.5t-50.5 21.5t-21.5 50.5v544q-8 132 -98.5 223t-219.5 91q-123 0 -217 -96.5t-94 -219.5v-542
q0 -29 -21.5 -50.5t-50.5 -21.5t-50 21.5t-21 50.5z" />
    <glyph glyph-name="i" unicode="i" horiz-adv-x="573" 
d="M213 1290q0 37 24.5 61.5t61.5 24.5t61.5 -24.5t24.5 -61.5t-24.5 -61.5t-61.5 -24.5t-61.5 24.5t-24.5 61.5zM225 72v880q0 29 21.5 50.5t50.5 21.5t50.5 -21.5t21.5 -50.5v-880q0 -29 -21.5 -50.5t-50.5 -21.5t-50.5 21.5t-21.5 50.5z" />
    <glyph glyph-name="j" unicode="j" horiz-adv-x="573" 
d="M211 1290q0 37 24.5 61.5t61.5 24.5t61.5 -24.5t24.5 -61.5t-24.5 -61.5t-61.5 -24.5t-61.5 24.5t-24.5 61.5zM-182 -129q0 29 21 50.5t50 21.5t50.5 -21.5t21.5 -50.5q5 -55 42.5 -92t90.5 -37q54 0 92.5 37.5t38.5 91.5v1081q0 29 21.5 50.5t50.5 21.5t50.5 -21.5
t21.5 -50.5v-1081q0 -115 -80.5 -194.5t-196.5 -79.5t-195 79.5t-79 194.5z" />
    <glyph glyph-name="k" unicode="k" horiz-adv-x="1032" 
d="M205 72v1290q0 29 21 50.5t50 21.5t50.5 -21.5t21.5 -50.5v-860l553 499q27 23 51 23q26 0 46 -20t20 -46q0 -30 -25 -51l-391 -350l410 -438q20 -20 20 -49t-20 -49.5t-49 -20.5t-54 25l-413 440l-148 -133v-260q0 -29 -21.5 -50.5t-50.5 -21.5t-50 21.5t-21 50.5z" />
    <glyph glyph-name="l" unicode="l" horiz-adv-x="552" 
d="M225 72v1290q0 29 21.5 50.5t50.5 21.5t50.5 -21.5t21.5 -50.5v-1290q0 -29 -21.5 -50.5t-50.5 -21.5t-50.5 21.5t-21.5 50.5z" />
    <glyph glyph-name="m" unicode="m" horiz-adv-x="2076" 
d="M205 72v880q0 29 21 50.5t50 21.5t50.5 -21.5t21.5 -50.5v-20q50 66 134.5 105.5t176.5 39.5q119 0 216.5 -56.5t162.5 -156.5q62 98 168 155.5t228 57.5q187 0 320.5 -136t133.5 -327v-542q0 -29 -21 -50.5t-50 -21.5t-50.5 21.5t-21.5 50.5v542q0 131 -91 223.5
t-220 92.5q-96 0 -173.5 -53t-115.5 -140q-27 -68 -27 -114v-551q0 -29 -21 -50.5t-50 -21.5t-50.5 21.5t-21.5 50.5v542q-12 138 -100 227t-216 89q-93 0 -171.5 -56t-114.5 -143q-22 -52 -25 -102v-557q0 -29 -21.5 -50.5t-50.5 -21.5t-50 21.5t-21 50.5z" />
    <glyph glyph-name="n" unicode="n" horiz-adv-x="1284" 
d="M205 72v880q0 29 21 50.5t50 21.5t50.5 -21.5t21.5 -50.5v-22q40 66 130 106.5t186 40.5q186 0 321 -136.5t135 -326.5v-542q0 -29 -21 -50.5t-50 -21.5t-50.5 21.5t-21.5 50.5v542q0 130 -92 223t-221 93q-94 0 -173 -56t-118 -143q-22 -56 -25 -102v-557
q0 -29 -21.5 -50.5t-50.5 -21.5t-50 21.5t-21 50.5z" />
    <glyph glyph-name="o" unicode="o" horiz-adv-x="1372" 
d="M123 514q0 153 75.5 282.5t205 205t282.5 75.5t282.5 -75.5t205 -205t75.5 -282.5t-75.5 -282.5t-205 -205t-282.5 -75.5t-282.5 75.5t-205 205t-75.5 282.5zM266 514q0 -173 123.5 -296.5t296.5 -123.5t296.5 123.5t123.5 296.5t-123.5 296.5t-296.5 123.5
t-296.5 -123.5t-123.5 -296.5z" />
    <glyph glyph-name="p" unicode="p" horiz-adv-x="1392" 
d="M143 -336v850q0 153 75.5 282.5t205.5 205t283 75.5t282.5 -75.5t205 -205t75.5 -282.5t-75.5 -282.5t-205 -205t-282.5 -75.5q-118 0 -240 61q-120 63 -180 135v-483q0 -29 -21.5 -50.5t-50.5 -21.5t-50.5 21.5t-21.5 50.5zM287 514q0 -173 123.5 -296.5t296.5 -123.5
t296 123.5t123 296.5t-123 296.5t-296 123.5t-296.5 -123.5t-123.5 -296.5z" />
    <glyph glyph-name="q" unicode="q" horiz-adv-x="1474" 
d="M1270 514v-850q0 -29 -21.5 -50.5t-50.5 -21.5t-50.5 21.5t-21.5 50.5v483q-60 -72 -180 -135q-122 -61 -239 -61q-153 0 -283 75.5t-205.5 205t-75.5 282.5t75.5 282.5t205.5 205t283 75.5t282.5 -75.5t205 -205t75.5 -282.5zM1126 514q0 173 -123 296.5t-296 123.5
t-296.5 -123.5t-123.5 -296.5t123.5 -296.5t296.5 -123.5t296 123.5t123 296.5z" />
    <glyph glyph-name="r" unicode="r" horiz-adv-x="892" 
d="M225 72v880q0 29 21.5 50.5t50.5 21.5t50.5 -21.5t21.5 -50.5v-123q56 93 176 170.5t248 77.5q34 0 56.5 -23t22.5 -57t-24.5 -55.5t-61.5 -21.5q-88 0 -167.5 -41.5t-133 -108t-85 -149t-31.5 -164.5v-385q0 -29 -21.5 -50.5t-50.5 -21.5t-50.5 21.5t-21.5 50.5z" />
    <glyph glyph-name="s" unicode="s" horiz-adv-x="1042" 
d="M164 238q0 31 18.5 51t48.5 20q41 0 58 -43q40 -94 99.5 -134t148.5 -40q37 0 72.5 8.5t68 26.5t52.5 52.5t20 80.5q0 31 -7.5 56.5t-17.5 43.5t-31 34.5t-36 26t-46.5 21t-48 16.5t-53.5 15q-56 16 -96.5 30.5t-86.5 40t-75 56t-48.5 77t-19.5 103.5q0 119 106 208
t245 89q59 0 111 -15.5t83.5 -38t49.5 -40t24 -29.5q22 -36 22 -67q0 -28 -16.5 -46t-48.5 -18q-46 0 -70 45q-45 78 -155 78q-83 0 -145 -49.5t-62 -112.5q0 -29 14 -54t33 -41.5t53 -32.5t58 -24.5t65 -21.5q66 -20 113 -39.5t94 -49t76 -64t47 -85t18 -112.5
q0 -141 -105 -225t-259 -84q-180 0 -299 141q-72 87 -72 146z" />
    <glyph glyph-name="t" unicode="t" horiz-adv-x="864" 
d="M289 1024v338q0 29 21 50.5t50 21.5t50.5 -21.5t21.5 -50.5v-338h197q29 0 50 -21.5t21 -50.5t-21 -50t-50 -21h-197v-809q0 -29 -21.5 -50.5t-50.5 -21.5t-50 21.5t-21 50.5v809h-33q-29 0 -50.5 21t-21.5 50t21.5 50.5t50.5 21.5h33z" />
    <glyph glyph-name="u" unicode="u" horiz-adv-x="1232" 
d="M164 412v540q0 29 21.5 50.5t50.5 21.5t50 -21.5t21 -50.5v-540q0 -130 92.5 -222t221.5 -92q131 0 223 92t92 222v540q0 29 21.5 50.5t50.5 21.5t50 -21.5t21 -50.5v-540q0 -124 -61 -230t-166.5 -168.5t-230.5 -62.5q-191 0 -324 135.5t-133 325.5z" />
    <glyph glyph-name="v" unicode="v" horiz-adv-x="1054" 
d="M111 1024q20 0 38 -11t25 -28l350 -805l353 807q16 37 63 37q29 0 51.5 -21.5t22.5 -50.5l-4 -20l-385 -883q-8 -22 -25.5 -35.5t-40.5 -13.5h-72q-39 0 -63 49l-377 873q-6 14 -6 30q0 30 19.5 51t50.5 21z" />
    <glyph glyph-name="w" unicode="w" horiz-adv-x="2004" 
d="M164 414v538q0 29 21.5 50.5t50.5 21.5t50 -21.5t21 -50.5v-538q0 -131 92 -223.5t222 -92.5q129 0 223 93t94 223v538q0 29 21.5 50.5t50.5 21.5t50 -21.5t21 -50.5v-538q0 -136 92 -226t222 -90t221.5 92.5t91.5 223.5v538q0 29 21.5 50.5t50.5 21.5t50 -21.5t21 -50.5
v-538q0 -125 -60 -231.5t-165 -169t-231 -62.5q-122 0 -223.5 57t-163.5 156q-64 -100 -165.5 -156.5t-221.5 -56.5q-190 0 -323.5 136t-133.5 327z" />
    <glyph glyph-name="x" unicode="x" horiz-adv-x="956" 
d="M739 37l-266 364l-270 -372q-22 -29 -58 -29q-26 0 -44.5 18.5t-18.5 44.5q0 20 14 43l297 404l-291 397q-16 21 -16 47q0 29 19.5 49.5t48.5 20.5q37 0 61 -33l270 -370l265 368q1 1 5 6.5t6.5 8t8 7t10.5 7t12.5 4.5t16.5 2q28 0 46.5 -19t18.5 -47q0 -21 -20 -49
l-291 -395l283 -387q24 -30 24 -57q0 -29 -20 -49.5t-49 -20.5q-34 0 -62 37z" />
    <glyph glyph-name="y" unicode="y" horiz-adv-x="1234" 
d="M551 -336v287q-46 7 -107 33q-126 55 -203 169t-77 255v544q0 29 21.5 50.5t50.5 21.5t50 -21.5t21 -50.5v-544q0 -130 92.5 -222t223.5 -92t223 92t92 222v544q0 29 21.5 50.5t50.5 21.5t50 -21.5t21 -50.5v-544q0 -141 -77 -255t-203 -169q-66 -26 -107 -33v-287
q0 -29 -21 -50.5t-50 -21.5t-50.5 21.5t-21.5 50.5z" />
    <glyph glyph-name="z" unicode="z" horiz-adv-x="1038" 
d="M180 952q0 29 21.5 50.5t50.5 21.5h606q29 0 50.5 -21.5t21.5 -50.5q0 -20 -17 -45l-569 -764h541q29 0 50 -21t21 -50t-21 -50.5t-50 -21.5h-690q-29 0 -50.5 21.5t-21.5 50.5q0 24 12 39l574 770h-457q-29 0 -50.5 21t-21.5 50z" />
    <glyph glyph-name="braceleft" unicode="{" horiz-adv-x="1019" 
d="M205 623q0 29 21 50t50 21q67 5 114.5 49t47.5 109v534q0 125 90 212.5t215 87.5q29 0 50.5 -21.5t21.5 -50.5t-21.5 -50.5t-50.5 -21.5q-65 0 -113 -45.5t-48 -110.5v-534q0 -136 -107 -229q49 -43 78 -102t29 -126v-538q0 -65 48 -110.5t113 -45.5q29 0 50.5 -21.5
t21.5 -50.5q0 -30 -21 -50.5t-57 -20.5q-57 0 -112 22q-84 33 -135.5 107.5t-51.5 169.5v538q0 63 -47.5 109.5t-114.5 46.5q-29 0 -50 21.5t-21 50.5z" />
    <glyph glyph-name="bar" unicode="|" horiz-adv-x="757" 
d="M307 -369v1987q0 29 21.5 50.5t50.5 21.5t50.5 -21.5t21.5 -50.5v-1987q0 -29 -21.5 -50t-50.5 -21t-50.5 21t-21.5 50z" />
    <glyph glyph-name="braceright" unicode="}" horiz-adv-x="1019" 
d="M815 623q0 -29 -21.5 -50.5t-50.5 -21.5q-67 0 -114 -46t-47 -110v-538q0 -95 -51.5 -169.5t-135.5 -107.5q-55 -22 -112 -22q-36 0 -57 20.5t-21 50.5q0 29 21 50.5t50 21.5q65 0 113.5 45.5t48.5 110.5v538q0 67 29 126t78 102q-107 93 -107 229v534q0 65 -48.5 110.5
t-113.5 45.5q-29 0 -50 21.5t-21 50.5t21 50.5t50 21.5q125 0 215.5 -87.5t90.5 -212.5v-534q0 -66 47 -109.5t114 -48.5q29 0 50.5 -21t21.5 -50z" />
    <glyph glyph-name="asciitilde" unicode="~" 
d="M365 791v28q0 29 21 50.5t50 21.5t50.5 -21.5t21.5 -50.5v-28q2 -54 39.5 -91.5t91.5 -37.5q33 0 64 19.5t58.5 47t58.5 55t76.5 47t98.5 19.5q116 0 194.5 -79.5t78.5 -195.5v-28q0 -29 -21.5 -50.5t-50.5 -21.5t-50.5 21.5t-21.5 50.5v28q-2 54 -39.5 92t-91.5 38
q-33 0 -64 -19.5t-58 -47.5t-57.5 -55.5t-76 -47t-100.5 -19.5q-116 0 -194 79.5t-78 195.5z" />
    <glyph glyph-name="exclamdown" unicode="&#xa1;" horiz-adv-x="716" 
d="M512 1348q0 -37 -24.5 -61.5t-61.5 -24.5t-61.5 24.5t-24.5 61.5t24.5 61.5t61.5 24.5t61.5 -24.5t24.5 -61.5zM356 72v1022q0 29 21.5 50t50.5 21t50.5 -21t21.5 -50v-1022q0 -29 -21.5 -50.5t-50.5 -21.5t-50.5 21.5t-21.5 50.5z" />
    <glyph glyph-name="cent" unicode="&#xa2;" 
d="M776 1071v293q0 29 21.5 50.5t50.5 21.5t50.5 -21.5t21.5 -50.5v-291q87 -10 153 -41q104 -44 197 -145q63 -77 63 -131q0 -28 -16 -45t-43 -17q-15 0 -26.5 4.5t-23 16t-17 18.5t-17.5 25q-65 95 -160 137q-59 24 -110 33v-830q44 8 104 35q100 47 164 143
q12 18 17.5 25t17 18.5t23 16t26.5 4.5q25 0 43 -17.5t18 -46.5q0 -52 -63 -131q-81 -101 -197 -149q-80 -33 -153 -41v-295q0 -29 -21.5 -50.5t-50.5 -21.5t-50.5 21.5t-21.5 50.5v297q-63 8 -141 39q-154 65 -249 205.5t-95 312.5t95 312.5t249 205.5q78 31 141 39z
M690 901q-115 -50 -185.5 -154.5t-70.5 -232.5t70.5 -232.5t185.5 -154.5q41 -18 86 -27v826q-39 -7 -86 -25z" />
    <glyph glyph-name="sterling" unicode="&#xa3;" horiz-adv-x="1433" 
d="M901 1208q0 54 -38.5 91.5t-92.5 37.5t-91.5 -37.5t-37.5 -91.5v-458h193q29 0 50 -21.5t21 -50.5t-21 -50.5t-50 -21.5h-193v-463h330q29 0 50 -21t21 -50t-21 -50.5t-50 -21.5h-477v606h-33q-29 0 -50.5 21.5t-21.5 50.5t21.5 50.5t50.5 21.5h33v458q0 116 79.5 195.5
t194.5 79.5q85 0 154 -46t100 -122q19 -41 22 -107q0 -29 -21 -50t-50 -21t-50.5 21t-21.5 50z" />
    <glyph glyph-name="yen" unicode="&#xa5;" 
d="M285 633q0 29 21 50.5t50 21.5h267l-326 616q-12 30 -12 41q0 29 21 50.5t50 21.5q44 0 66 -43l350 -686l352 690q20 39 64 39q29 0 50.5 -21.5t21.5 -50.5q0 -16 -13 -39l-329 -618h270q29 0 50.5 -21.5t21.5 -50.5t-21.5 -50.5t-50.5 -21.5h-344v-147h344
q29 0 50.5 -21.5t21.5 -50.5t-21.5 -50.5t-50.5 -21.5h-344v-198q0 -29 -21.5 -50.5t-50.5 -21.5t-50.5 21.5t-21.5 50.5v198h-344q-29 0 -50 21.5t-21 50.5t21 50.5t50 21.5h344v147h-344q-29 0 -50 21.5t-21 50.5z" />
    <glyph glyph-name="section" unicode="&#xa7;" 
d="M1210 1061q-32 0 -50 19.5t-32 56.5q-37 96 -121.5 149t-187.5 53q-120 0 -219.5 -73t-99.5 -174q0 -35 11 -64t35 -53t48.5 -41.5t66 -35.5t72 -29t80.5 -27q181 -59 258 -98q205 -104 244 -282q10 -45 10 -95q0 -136 -76 -234q78 -85 78 -186q0 -96 -40 -174
t-108.5 -127.5t-158 -76t-191.5 -26.5q-99 0 -192.5 35t-165.5 96t-116 151.5t-44 194.5q0 29 21.5 50.5t50.5 21.5t50.5 -21.5t21.5 -50.5q0 -134 109.5 -233.5t264.5 -99.5q145 0 247 66.5t102 180.5q0 41 -18.5 76t-44 58t-72.5 46.5t-82.5 36.5t-96.5 33
q-181 59 -258 98q-205 104 -244 282q-10 45 -10 95q0 133 74 232q-76 82 -76 188q0 107 66.5 200.5t177 148.5t233.5 55q103 0 193.5 -38.5t146 -94t87.5 -113t32 -100.5q0 -33 -21.5 -54.5t-54.5 -21.5zM741 721q-125 40 -202 84q-43 -58 -43 -146q0 -61 27.5 -112
t61 -82.5t103 -65t110.5 -48t126 -42.5q4 -1 6.5 -2t5.5 -2q128 -42 201 -84q45 61 45 146q0 44 -13.5 82.5t-35.5 67.5t-55.5 55t-69 45.5t-80.5 38t-85.5 32l-88.5 29.5q-9 3 -13 4z" />
    <glyph glyph-name="dieresis" unicode="&#xa8;" horiz-adv-x="909" 
d="M205 1290q0 37 24.5 61.5t61.5 24.5t61.5 -24.5t24.5 -61.5t-24.5 -61.5t-61.5 -24.5t-61.5 24.5t-24.5 61.5zM532 1290q0 37 24.5 61.5t61.5 24.5t62 -24.5t25 -61.5t-25 -61.5t-62 -24.5t-61.5 24.5t-24.5 61.5z" />
    <glyph glyph-name="copyright" unicode="&#xa9;" horiz-adv-x="1941" 
d="M205 717q0 155 61 296.5t164 244.5t244.5 164t296.5 61t296.5 -61t244.5 -164t164 -244.5t61 -296.5t-61 -296.5t-164 -244.5t-244.5 -164t-296.5 -61t-296.5 61t-244.5 164t-164 244.5t-61 296.5zM348 717q0 -125 50 -240.5t133.5 -199t199 -133.5t240.5 -50
q124 0 239 50t198.5 133.5t133 199t49.5 240.5q0 166 -84 309t-227 227t-309 84q-125 0 -240.5 -49.5t-199 -133t-133.5 -198.5t-50 -239zM1276 504q33 57 74 57q22 0 37.5 -14.5t15.5 -42.5l-4 -27q-7 -27 -51 -84q-79 -95 -168.5 -135.5t-198.5 -40.5q-134 0 -248 67
t-181 181t-67 248q0 136 67 250.5t181 180.5t248 66q216 0 367 -168q46 -55 55 -92q2 -12 2 -22q0 -24 -14 -40t-37 -16q-39 0 -76 58q-56 80 -134.5 116.5t-162.5 36.5q-154 0 -261.5 -107t-107.5 -261t107.5 -262.5t261.5 -108.5q173 0 295 160z" />
    <glyph glyph-name="ordfeminine" unicode="&#xaa;" horiz-adv-x="1058" 
d="M735 791v43q-111 -103 -258 -103q-155 0 -265 110t-110 265q0 157 110 267t265 110q157 0 267 -110t110 -267v-315q0 -25 -17 -42.5t-42 -17.5t-42.5 17.5t-17.5 42.5zM221 1106q0 -109 73.5 -185.5t182.5 -76.5t183.5 77t74.5 185q0 109 -74.5 186.5t-183.5 77.5
t-182.5 -77.5t-73.5 -186.5z" />
    <glyph glyph-name="guillemotleft" unicode="&#xab;" 
d="M838 70q0 -29 -20.5 -49.5t-49.5 -20.5q-28 0 -49 18l-440 441q-23 23 -23 51q0 31 27 55l432 430q29 29 55 29q29 0 49.5 -21.5t20.5 -50.5q0 -28 -19 -47l-391 -395l387 -389q21 -25 21 -51zM1165 70q0 -29 -20 -49.5t-49 -20.5q-28 0 -49 18l-441 441q-22 22 -22 51
q0 32 26 55l432 430q29 29 56 29q29 0 49 -21t20 -51q0 -29 -18 -47l-391 -395l387 -389q20 -23 20 -51z" />
    <glyph glyph-name="logicalnot" unicode="&#xac;" horiz-adv-x="1433" 
d="M348 567q0 29 21.5 50.5t50.5 21.5h555q29 0 50.5 -21.5t21.5 -50.5v-207q0 -29 -21.5 -50t-50.5 -21t-50.5 21t-21.5 50v136h-483q-29 0 -50.5 21t-21.5 50z" />
    <glyph glyph-name="registered" unicode="&#xae;" horiz-adv-x="1941" 
d="M205 717q0 155 61 296.5t164 244.5t244.5 164t296.5 61t296.5 -61t244.5 -164t164 -244.5t61 -296.5t-61 -296.5t-164 -244.5t-244.5 -164t-296.5 -61t-296.5 61t-244.5 164t-164 244.5t-61 296.5zM348 717q0 -125 50 -240.5t133.5 -199t199 -133.5t240.5 -50
q124 0 239 50t198.5 133.5t133 199t49.5 240.5q0 166 -84 309t-227 227t-309 84q-125 0 -240.5 -49.5t-199 -133t-133.5 -198.5t-50 -239zM698 322v911h265q193 0 278 -88q86 -89 86 -201q0 -115 -63 -166q-61 -49 -105 -55q36 -3 101 -53q65 -53 65 -174v-174
q0 -29 -21.5 -50.5t-50.5 -21.5t-50 21.5t-21 50.5v159q0 105 -66 140q-62 36 -131 36h-143v-335q0 -29 -21.5 -50.5t-50.5 -21.5t-50.5 21.5t-21.5 50.5zM1182 940v12q0 67 -50.5 109.5t-166.5 42.5h-123v-311h123q115 0 165.5 31.5t51.5 115.5z" />
    <glyph glyph-name="degree" unicode="&#xb0;" horiz-adv-x="716" 
d="M102 1239q0 80 57 137.5t136 57.5t136.5 -57.5t57.5 -137.5q0 -79 -57 -135.5t-137 -56.5t-136.5 56.5t-56.5 135.5zM201 1239q0 -40 27 -67t67 -27t68 27t28 67t-28 68t-68 28t-67 -28t-27 -68z" />
    <glyph glyph-name="plusminus" unicode="&#xb1;" horiz-adv-x="1312" 
d="M307 72q0 29 21.5 50t50.5 21h555q29 0 50.5 -21t21.5 -50t-21.5 -50.5t-50.5 -21.5h-555q-29 0 -50.5 21.5t-21.5 50.5zM653 975q29 0 50.5 -21.5t21.5 -50.5v-203h209q29 0 50.5 -21t21.5 -50t-21.5 -50.5t-50.5 -21.5h-209v-209q0 -29 -21.5 -50.5t-50.5 -21.5
t-50 21.5t-21 50.5v209h-203q-29 0 -50.5 21.5t-21.5 50.5t21.5 50t50.5 21h203v203q0 29 21 50.5t50 21.5z" />
    <glyph glyph-name="twosuperior" unicode="&#xb2;" horiz-adv-x="737" 
d="M102 756v35q0 23 17 40l268 318q27 33 27 76q0 40 -28.5 68t-68.5 28q-43 0 -66 -21.5t-32 -74.5q-5 -25 -20.5 -41.5t-38.5 -16.5q-24 0 -41 17t-17 41q0 85 63 147t152 62t152 -63t63 -152q0 -79 -51 -140l-227 -266h221q23 0 40 -17t17 -40t-17 -39.5t-40 -16.5h-317
q-23 0 -39.5 16.5t-16.5 39.5z" />
    <glyph glyph-name="threesuperior" unicode="&#xb3;" horiz-adv-x="819" 
d="M276 1155q0 24 21 45l125 121h-223q-23 0 -39.5 16t-16.5 39t16.5 40.5t39.5 17.5h317q23 0 40 -17.5t17 -40.5v-33q0 -22 -14 -36l-106 -113q72 -30 116.5 -95t44.5 -143q0 -106 -75 -181t-181 -75t-181 75t-75 181q0 23 16.5 40.5t39.5 17.5q22 0 38 -17t19 -41
q6 -59 46.5 -101t96.5 -42q57 0 97.5 43t40.5 100q0 58 -41 101t-97 43h-28q-23 0 -38.5 16t-15.5 39z" />
    <glyph glyph-name="acute" unicode="&#xb4;" horiz-adv-x="702" 
d="M498 1382q0 -29 -23 -49l-153 -143q-23 -23 -54 -23q-29 0 -46 19t-17 45q0 29 22 51l162 150q16 16 43 16q29 0 47.5 -19.5t18.5 -46.5z" />
    <glyph glyph-name="mu" unicode="&#xb5;" 
d="M379 -338v1290q0 29 21.5 50.5t50.5 21.5t50 -21.5t21 -50.5v-508q3 -54 25 -106q37 -86 115 -138.5t174 -52.5q131 0 223 92t92 222v491q0 29 21.5 50.5t50.5 21.5t50 -21.5t21 -50.5v-491q0 -124 -61 -230t-166.5 -168.5t-230.5 -62.5q-98 0 -179 37q-81 36 -135 88
v-463q0 -29 -21 -50.5t-50 -21.5t-50.5 21.5t-21.5 50.5z" />
    <glyph glyph-name="paragraph" unicode="&#xb6;" 
d="M745 -336v893h-69q-220 0 -345.5 113t-125.5 327q0 213 126 325t345 112h721q29 0 50 -21.5t21 -50.5t-21 -50.5t-50 -21.5h-191v-1626q0 -29 -21 -50.5t-50 -21.5t-50.5 21.5t-21.5 50.5v1626h-174v-1626q0 -29 -21.5 -50.5t-50.5 -21.5t-50.5 21.5t-21.5 50.5z" />
    <glyph glyph-name="periodcentered" unicode="&#xb7;" horiz-adv-x="512" 
d="M145 645q0 46 32.5 79.5t78.5 33.5t79.5 -33.5t33.5 -79.5q0 -45 -33.5 -77.5t-79.5 -32.5t-78.5 32t-32.5 78z" />
    <glyph glyph-name="cedilla" unicode="&#xb8;" horiz-adv-x="768" 
d="M205 -184v225h143v-154q88 0 151.5 -63t63.5 -152q0 -90 -63 -151.5t-152 -61.5h-72q-29 0 -50 21.5t-21 50.5t21 50.5t50 21.5h72q29 0 49.5 20t20.5 49t-20.5 50.5t-49.5 21.5h-72q-29 0 -50 21.5t-21 50.5z" />
    <glyph glyph-name="onesuperior" unicode="&#xb9;" horiz-adv-x="585" 
d="M262 760v561h-104q-23 0 -39.5 16t-16.5 39q0 24 17.5 41t44.5 17h160q23 0 40 -17.5t17 -40.5v-616q0 -25 -17 -42.5t-42 -17.5t-42.5 17.5t-17.5 42.5z" />
    <glyph glyph-name="ordmasculine" unicode="&#xba;" horiz-adv-x="1058" 
d="M221 1106q0 -109 73.5 -185.5t182.5 -76.5t183.5 77t74.5 185q0 109 -74.5 186.5t-183.5 77.5t-182.5 -77.5t-73.5 -186.5zM102 1106q0 157 109 267t266 110t267 -110t110 -267t-110 -266t-267 -109t-266 109t-109 266z" />
    <glyph glyph-name="guillemotright" unicode="&#xbb;" 
d="M801 70q0 28 20 51l387 389l-391 395q-18 18 -18 47q0 30 20 51t49 21q27 0 56 -29l432 -430q26 -23 26 -55q0 -29 -22 -51l-440 -441q-21 -18 -50 -18t-49 20.5t-20 49.5zM473 70q0 26 21 51l387 389l-392 395q-18 18 -18 47t20.5 50.5t49.5 21.5q26 0 55 -29l432 -430
q27 -24 27 -55q0 -28 -23 -51l-440 -441q-21 -18 -49 -18q-29 0 -49.5 20.5t-20.5 49.5z" />
    <glyph glyph-name="questiondown" unicode="&#xbf;" 
d="M1368 348q29 0 47.5 -16.5t18.5 -38.5q0 -17 -13 -43q-49 -94 -164 -170q-121 -80 -278 -80q-209 0 -357.5 148.5t-148.5 357.5q0 192 126 333.5t314 166.5v88q0 29 21.5 50t50.5 21t50.5 -21t21.5 -50v-148q0 -29 -21.5 -50.5t-50.5 -21.5q-82 0 -149 -28
q-102 -44 -164 -134.5t-62 -205.5q0 -154 107.5 -261.5t261.5 -107.5q105 0 184.5 39.5t145.5 128.5q30 43 59 43zM897 1348q0 37 24.5 61.5t61.5 24.5t61.5 -24.5t24.5 -61.5t-24.5 -61.5t-61.5 -24.5t-61.5 24.5t-24.5 61.5z" />
    <glyph glyph-name="Agrave" unicode="&#xc0;" horiz-adv-x="1013" 
d="M713 557h-412l-162 -510q-19 -47 -67 -47q-29 0 -50.5 21.5t-21.5 50.5q0 6 4 22l399 1252q13 40 39 65t64 25q75 0 104 -90l400 -1252q4 -16 4 -22q0 -29 -21.5 -50.5t-50.5 -21.5q-49 0 -68 47zM508 1219l-160 -519h320zM281 1784q0 27 18 46t47 19q27 0 43 -16
l162 -150q22 -22 22 -51q0 -26 -17 -44.5t-46 -18.5q-31 0 -53 22l-154 144q-22 19 -22 49z" />
    <glyph glyph-name="Aacute" unicode="&#xc1;" horiz-adv-x="1013" 
d="M713 557h-412l-162 -510q-19 -47 -67 -47q-29 0 -50.5 21.5t-21.5 50.5q0 6 4 22l399 1252q13 40 39 65t64 25q75 0 104 -90l400 -1252q4 -16 4 -22q0 -29 -21.5 -50.5t-50.5 -21.5q-49 0 -68 47zM508 1219l-160 -519h320zM737 1784q0 -30 -22 -49l-154 -144
q-22 -22 -53 -22q-29 0 -46.5 18.5t-17.5 44.5q0 28 23 51l162 150q16 16 43 16q29 0 47 -19t18 -46z" />
    <glyph glyph-name="Acircumflex" unicode="&#xc2;" horiz-adv-x="1013" 
d="M713 557h-412l-162 -510q-19 -47 -67 -47q-29 0 -50.5 21.5t-21.5 50.5q0 6 4 22l399 1252q13 40 39 65t64 25q75 0 104 -90l400 -1252q4 -16 4 -22q0 -29 -21.5 -50.5t-50.5 -21.5q-49 0 -68 47zM508 1219l-160 -519h320zM264 1645q0 25 17 45l118 147q1 2 8.5 10.5
t12.5 15t15.5 15.5t20.5 14.5t23.5 10t28.5 4.5t29 -4.5t23.5 -9.5t21 -15t16 -14.5t14.5 -15.5l9 -11l118 -145q17 -21 17 -43q0 -29 -21 -51.5t-51 -22.5q-32 0 -59 31l-117 141l-117 -145q-21 -27 -57 -27q-29 0 -49.5 20.5t-20.5 49.5z" />
    <glyph glyph-name="Atilde" unicode="&#xc3;" horiz-adv-x="1013" 
d="M713 557h-412l-162 -510q-19 -47 -67 -47q-29 0 -50.5 21.5t-21.5 50.5q0 6 4 22l399 1252q13 40 39 65t64 25q75 0 104 -90l400 -1252q4 -16 4 -22q0 -29 -21.5 -50.5t-50.5 -21.5q-49 0 -68 47zM508 1219l-160 -519h320zM328 1604q-30 0 -51 20.5t-21 48.5q0 49 65 86
t128 37q56 0 110 -31q24 -16 49 -16q23 0 43 20q26 29 58 29q29 0 50 -21.5t21 -50.5q0 -35 -33 -64t-73.5 -42.5t-73.5 -13.5q-63 0 -117 32q-27 17 -45 17q-30 0 -63 -33q-18 -18 -47 -18z" />
    <glyph glyph-name="Adieresis" unicode="&#xc4;" horiz-adv-x="1013" 
d="M713 557h-412l-162 -510q-19 -47 -67 -47q-29 0 -50.5 21.5t-21.5 50.5q0 6 4 22l399 1252q13 40 39 65t64 25q75 0 104 -90l400 -1252q4 -16 4 -22q0 -29 -21.5 -50.5t-50.5 -21.5q-49 0 -68 47zM508 1219l-160 -519h320zM258 1692q0 37 24.5 61.5t61.5 24.5t61.5 -24.5
t24.5 -61.5t-24.5 -61.5t-61.5 -24.5t-61.5 24.5t-24.5 61.5zM586 1692q0 37 24.5 61.5t61.5 24.5t61.5 -24.5t24.5 -61.5t-24.5 -61.5t-61.5 -24.5t-61.5 24.5t-24.5 61.5z" />
    <glyph glyph-name="Aring" unicode="&#xc5;" horiz-adv-x="1013" 
d="M713 557h-412l-162 -510q-19 -47 -67 -47q-29 0 -50.5 21.5t-21.5 50.5q0 6 4 22l399 1252q13 40 39 65t64 25q75 0 104 -90l400 -1252q4 -16 4 -22q0 -29 -21.5 -50.5t-50.5 -21.5q-49 0 -68 47zM508 1219l-160 -519h320zM420 1763q0 -37 24.5 -61.5t61.5 -24.5
t61.5 24.5t24.5 61.5t-24.5 61.5t-61.5 24.5t-61.5 -24.5t-24.5 -61.5zM317 1763q0 82 53.5 135.5t135.5 53.5t135 -53.5t53 -135.5t-53 -135t-135 -53t-135.5 53t-53.5 135z" />
    <glyph glyph-name="Ccedilla" unicode="&#xc7;" horiz-adv-x="1673" 
d="M813 -184v139q-110 12 -211 55q-283 125 -409 410q-60 140 -60 297t60 297q93 210 283 339.5t423 129.5q155 0 294.5 -59.5t246.5 -166.5q79 -79 114 -151q7 -17 7 -29q0 -29 -21.5 -50t-50.5 -21q-21 0 -34.5 11t-33.5 38q-49 64 -86 98q-86 88 -198 136t-238 48
q-125 0 -240.5 -49.5t-199 -133t-133.5 -198.5t-50 -239q0 -125 50 -240.5t133.5 -199t199 -133.5t240.5 -50t237.5 48t198.5 134q41 41 97 123q22 29 57 29q29 0 50.5 -21.5t21.5 -50.5q0 -10 -9 -32q-38 -74 -112 -148q-103 -103 -244 -166q-118 -48 -240 -57v-66
q88 0 151.5 -63t63.5 -152q0 -90 -63 -151.5t-152 -61.5h-71q-29 0 -50.5 21.5t-21.5 50.5t21.5 50.5t50.5 21.5h71q29 0 49.5 20t20.5 49t-20.5 50.5t-49.5 21.5h-71q-29 0 -50.5 21.5t-21.5 50.5z" />
    <glyph glyph-name="Egrave" unicode="&#xc8;" horiz-adv-x="1271" 
d="M205 72v1290q0 29 21 50.5t50 21.5h811q29 0 50.5 -21.5t21.5 -50.5t-21.5 -50.5t-50.5 -21.5h-739v-590h596q29 0 50.5 -21t21.5 -50t-21.5 -50.5t-50.5 -21.5h-596v-414h739q29 0 50.5 -21t21.5 -50t-21.5 -50.5t-50.5 -21.5h-811q-29 0 -50 21.5t-21 50.5zM465 1784
q0 27 18 46t47 19q27 0 43 -16l162 -150q23 -23 23 -51q0 -26 -17.5 -44.5t-46.5 -18.5q-31 0 -53 22l-154 144q-22 19 -22 49z" />
    <glyph glyph-name="Eacute" unicode="&#xc9;" horiz-adv-x="1271" 
d="M205 72v1290q0 29 21 50.5t50 21.5h811q29 0 50.5 -21.5t21.5 -50.5t-21.5 -50.5t-50.5 -21.5h-739v-590h596q29 0 50.5 -21t21.5 -50t-21.5 -50.5t-50.5 -21.5h-596v-414h739q29 0 50.5 -21t21.5 -50t-21.5 -50.5t-50.5 -21.5h-811q-29 0 -50 21.5t-21 50.5zM848 1784
q0 -29 -23 -49l-153 -144q-22 -22 -54 -22q-29 0 -46 18.5t-17 44.5q0 28 23 51l161 150q16 16 43 16q29 0 47.5 -19t18.5 -46z" />
    <glyph glyph-name="Ecircumflex" unicode="&#xca;" horiz-adv-x="1271" 
d="M205 72v1290q0 29 21 50.5t50 21.5h811q29 0 50.5 -21.5t21.5 -50.5t-21.5 -50.5t-50.5 -21.5h-739v-590h596q29 0 50.5 -21t21.5 -50t-21.5 -50.5t-50.5 -21.5h-596v-414h739q29 0 50.5 -21t21.5 -50t-21.5 -50.5t-50.5 -21.5h-811q-29 0 -50 21.5t-21 50.5zM418 1645
q0 26 16 45l119 147q1 2 8.5 10.5t12.5 15t15.5 15.5t20.5 14.5t23.5 10t28.5 4.5t29 -4.5t23.5 -9.5t20.5 -14.5t16 -15t13.5 -15.5t9.5 -11l119 -145q16 -20 16 -43q0 -29 -20.5 -51.5t-50.5 -22.5q-33 0 -60 31l-116 141l-117 -145q-21 -27 -58 -27q-29 0 -49 20.5
t-20 49.5z" />
    <glyph glyph-name="Edieresis" unicode="&#xcb;" horiz-adv-x="1271" 
d="M205 72v1290q0 29 21 50.5t50 21.5h811q29 0 50.5 -21.5t21.5 -50.5t-21.5 -50.5t-50.5 -21.5h-739v-590h596q29 0 50.5 -21t21.5 -50t-21.5 -50.5t-50.5 -21.5h-596v-414h739q29 0 50.5 -21t21.5 -50t-21.5 -50.5t-50.5 -21.5h-811q-29 0 -50 21.5t-21 50.5zM430 1692
q0 37 24.5 61.5t61.5 24.5t61.5 -24.5t24.5 -61.5t-24.5 -61.5t-61.5 -24.5t-61.5 24.5t-24.5 61.5zM758 1692q0 37 24.5 61.5t61.5 24.5t61.5 -24.5t24.5 -61.5t-24.5 -61.5t-61.5 -24.5t-61.5 24.5t-24.5 61.5z" />
    <glyph glyph-name="Igrave" unicode="&#xcc;" horiz-adv-x="593" 
d="M225 72v1290q0 29 21.5 50.5t50.5 21.5t50.5 -21.5t21.5 -50.5v-1290q0 -29 -21.5 -50.5t-50.5 -21.5t-50.5 21.5t-21.5 50.5zM68 1784q0 27 18 46t47 19q27 0 43 -16l162 -150q22 -22 22 -51q0 -26 -17 -44.5t-46 -18.5q-31 0 -53 22l-154 144q-22 19 -22 49z" />
    <glyph glyph-name="Iacute" unicode="&#xcd;" horiz-adv-x="593" 
d="M225 72v1290q0 29 21.5 50.5t50.5 21.5t50.5 -21.5t21.5 -50.5v-1290q0 -29 -21.5 -50.5t-50.5 -21.5t-50.5 21.5t-21.5 50.5zM526 1784q0 -30 -22 -49l-154 -144q-22 -22 -53 -22q-29 0 -46.5 18.5t-17.5 44.5q0 28 23 51l162 150q16 16 43 16q29 0 47 -19t18 -46z" />
    <glyph glyph-name="Icircumflex" unicode="&#xce;" horiz-adv-x="593" 
d="M225 72v1290q0 29 21.5 50.5t50.5 21.5t50.5 -21.5t21.5 -50.5v-1290q0 -29 -21.5 -50.5t-50.5 -21.5t-50.5 21.5t-21.5 50.5zM53 1645q0 25 17 45l118 147q1 2 8.5 10.5t12.5 15t15.5 15.5t20.5 14.5t23.5 10t28.5 4.5t29 -4.5t23.5 -9.5t21 -15t16 -14.5t13.5 -15.5
l10 -11l118 -145q17 -21 17 -43q0 -29 -21 -51.5t-51 -22.5q-32 0 -59 31l-117 141l-117 -145q-21 -27 -57 -27q-29 0 -49.5 20.5t-20.5 49.5z" />
    <glyph glyph-name="Idieresis" unicode="&#xcf;" horiz-adv-x="593" 
d="M225 72v1290q0 29 21.5 50.5t50.5 21.5t50.5 -21.5t21.5 -50.5v-1290q0 -29 -21.5 -50.5t-50.5 -21.5t-50.5 21.5t-21.5 50.5zM47 1692q0 37 24.5 61.5t61.5 24.5t61.5 -24.5t24.5 -61.5t-24.5 -61.5t-61.5 -24.5t-61.5 24.5t-24.5 61.5zM375 1692q0 37 24.5 61.5
t61.5 24.5t61.5 -24.5t24.5 -61.5t-24.5 -61.5t-61.5 -24.5t-61.5 24.5t-24.5 61.5z" />
    <glyph glyph-name="Eth" unicode="&#xd0;" horiz-adv-x="1781" 
d="M412 72v571h-176q-29 0 -50.5 21.5t-21.5 50.5t21.5 50t50.5 21h176v576q0 29 21 50.5t50 21.5h410q146 0 278 -56.5t228 -152.5t152.5 -228t56.5 -278t-56.5 -279t-152.5 -229.5t-228.5 -153.5t-277.5 -57h-410q-29 0 -50 21.5t-21 50.5zM555 143h338q155 0 286.5 77.5
t208 210t76.5 288.5q0 155 -76.5 286.5t-208 208t-286.5 76.5h-338v-504h236q29 0 50 -21t21 -50t-21 -50.5t-50 -21.5h-236v-500z" />
    <glyph glyph-name="Ntilde" unicode="&#xd1;" horiz-adv-x="1363" 
d="M205 72v1290q0 29 21 50.5t50 21.5h31q41 0 62 -35l647 -1112v1075q0 29 21 50.5t50 21.5q30 0 51 -21.5t21 -54.5v-1286q0 -30 -21.5 -51t-54.5 -21h-26q-44 0 -64 39l-645 1108v-1075q0 -29 -21.5 -50.5t-50.5 -21.5t-50 21.5t-21 50.5zM494 1604q-30 0 -51 20.5
t-21 48.5q0 49 64.5 86t127.5 37q57 0 111 -31q24 -16 49 -16q23 0 43 20q26 29 57 29q29 0 50.5 -21.5t21.5 -50.5q0 -35 -33 -64t-73.5 -42.5t-73.5 -13.5q-63 0 -117 32q-27 17 -45 17q-30 0 -63 -33q-18 -18 -47 -18z" />
    <glyph glyph-name="Ograve" unicode="&#xd2;" horiz-adv-x="1777" 
d="M123 717q0 155 61 296.5t164 244.5t244.5 164t296.5 61t296.5 -61t244.5 -164t164 -244.5t61 -296.5t-61 -296.5t-164 -244.5t-244.5 -164t-296.5 -61t-296.5 61t-244.5 164t-164 244.5t-61 296.5zM266 717q0 -125 50 -240.5t133.5 -199t199 -133.5t240.5 -50
q124 0 239 50t198.5 133.5t133 199t49.5 240.5q0 166 -84 309t-227 227t-309 84q-125 0 -240.5 -49.5t-199 -133t-133.5 -198.5t-50 -239zM659 1784q0 27 18.5 46t47.5 19q27 0 43 -16l162 -150q22 -22 22 -51q0 -26 -17 -44.5t-46 -18.5q-31 0 -53 22l-154 144
q-23 20 -23 49z" />
    <glyph glyph-name="Oacute" unicode="&#xd3;" horiz-adv-x="1777" 
d="M123 717q0 155 61 296.5t164 244.5t244.5 164t296.5 61t296.5 -61t244.5 -164t164 -244.5t61 -296.5t-61 -296.5t-164 -244.5t-244.5 -164t-296.5 -61t-296.5 61t-244.5 164t-164 244.5t-61 296.5zM266 717q0 -125 50 -240.5t133.5 -199t199 -133.5t240.5 -50
q124 0 239 50t198.5 133.5t133 199t49.5 240.5q0 166 -84 309t-227 227t-309 84q-125 0 -240.5 -49.5t-199 -133t-133.5 -198.5t-50 -239zM1118 1784q0 -30 -22 -49l-154 -144q-22 -22 -53 -22q-29 0 -46.5 18.5t-17.5 44.5q0 28 23 51l162 150q16 16 43 16q29 0 47 -19
t18 -46z" />
    <glyph glyph-name="Ocircumflex" unicode="&#xd4;" horiz-adv-x="1777" 
d="M123 717q0 155 61 296.5t164 244.5t244.5 164t296.5 61t296.5 -61t244.5 -164t164 -244.5t61 -296.5t-61 -296.5t-164 -244.5t-244.5 -164t-296.5 -61t-296.5 61t-244.5 164t-164 244.5t-61 296.5zM266 717q0 -125 50 -240.5t133.5 -199t199 -133.5t240.5 -50
q124 0 239 50t198.5 133.5t133 199t49.5 240.5q0 166 -84 309t-227 227t-309 84q-125 0 -240.5 -49.5t-199 -133t-133.5 -198.5t-50 -239zM645 1645q0 25 17 45l118 147q1 2 8.5 10.5t12.5 15t15.5 15.5t20.5 14.5t23.5 10t28.5 4.5t29 -4.5t23.5 -9.5t20.5 -14.5t16 -15
t13.5 -15.5t9.5 -11l119 -145q17 -21 17 -43q0 -29 -21 -51.5t-51 -22.5q-32 0 -59 31l-117 141l-117 -145q-21 -27 -57 -27q-29 0 -49.5 20.5t-20.5 49.5z" />
    <glyph glyph-name="Otilde" unicode="&#xd5;" horiz-adv-x="1777" 
d="M123 717q0 155 61 296.5t164 244.5t244.5 164t296.5 61t296.5 -61t244.5 -164t164 -244.5t61 -296.5t-61 -296.5t-164 -244.5t-244.5 -164t-296.5 -61t-296.5 61t-244.5 164t-164 244.5t-61 296.5zM266 717q0 -125 50 -240.5t133.5 -199t199 -133.5t240.5 -50
q124 0 239 50t198.5 133.5t133 199t49.5 240.5q0 166 -84 309t-227 227t-309 84q-125 0 -240.5 -49.5t-199 -133t-133.5 -198.5t-50 -239zM711 1604q-30 0 -51 20.5t-21 48.5q0 49 64.5 86t127.5 37q57 0 111 -31q24 -16 49 -16q23 0 43 20q26 29 58 29q29 0 50 -21.5
t21 -50.5q0 -35 -33 -64t-73.5 -42.5t-73.5 -13.5q-63 0 -117 32q-27 17 -45 17q-30 0 -63 -33q-18 -18 -47 -18z" />
    <glyph glyph-name="Odieresis" unicode="&#xd6;" horiz-adv-x="1777" 
d="M123 717q0 155 61 296.5t164 244.5t244.5 164t296.5 61t296.5 -61t244.5 -164t164 -244.5t61 -296.5t-61 -296.5t-164 -244.5t-244.5 -164t-296.5 -61t-296.5 61t-244.5 164t-164 244.5t-61 296.5zM266 717q0 -125 50 -240.5t133.5 -199t199 -133.5t240.5 -50
q124 0 239 50t198.5 133.5t133 199t49.5 240.5q0 166 -84 309t-227 227t-309 84q-125 0 -240.5 -49.5t-199 -133t-133.5 -198.5t-50 -239zM639 1692q0 37 24.5 61.5t61.5 24.5t61.5 -24.5t24.5 -61.5t-24.5 -61.5t-61.5 -24.5t-61.5 24.5t-24.5 61.5zM967 1692
q0 37 24.5 61.5t61.5 24.5t61.5 -24.5t24.5 -61.5t-24.5 -61.5t-61.5 -24.5t-61.5 24.5t-24.5 61.5z" />
    <glyph glyph-name="multiply" unicode="&#xd7;" horiz-adv-x="1148" 
d="M307 766q0 28 21 50t51 22q27 0 51 -21l143 -143l148 147q21 21 49 21q30 0 51 -21t21 -51t-21 -51l-147 -148l147 -147q21 -21 21 -51q0 -29 -21.5 -50.5t-50.5 -21.5q-31 0 -49 21l-148 149l-143 -143q-23 -23 -51 -23q-29 0 -50.5 21.5t-21.5 50.5q0 30 21 51l143 143
l-143 144q-21 18 -21 51z" />
    <glyph glyph-name="Oslash" unicode="&#xd8;" horiz-adv-x="1777" 
d="M123 717q0 155 61 296.5t164 244.5t244.5 164t296.5 61q80 0 164 -19l49 146q7 23 26 36t43 13q30 0 50 -21.5t20 -50.5l-6 -26l-47 -140q135 -60 242 -164q106 -106 165.5 -245.5t59.5 -294.5t-61 -296.5t-164 -244.5t-244.5 -164t-296.5 -61q-91 0 -184 22l-48 -145
q-17 -49 -71 -49q-29 0 -48.5 21.5t-19.5 49.5q0 7 4 23l49 147q-133 62 -223 156q-106 106 -165.5 246t-59.5 295zM1325 1153q-79 79 -182 129l-391 -1173q65 -15 137 -15q124 0 239 50t198.5 133.5t133 199t49.5 240.5q0 126 -48 238t-136 198zM266 717q0 -125 48.5 -239
t134.5 -202q71 -71 167 -118l392 1167q-59 12 -119 12q-125 0 -240.5 -49.5t-199 -133t-133.5 -198.5t-50 -239z" />
    <glyph glyph-name="Ugrave" unicode="&#xd9;" horiz-adv-x="1343" 
d="M1016 428v934q0 29 21 50.5t50 21.5t50.5 -21.5t21.5 -50.5v-934q0 -201 -138 -339t-339 -138t-339 138t-138 339v928q0 33 20.5 55.5t50.5 22.5q29 0 50.5 -21.5t21.5 -50.5v-934q0 -141 96.5 -237.5t237.5 -96.5t237.5 96.5t96.5 237.5zM453 1784q0 27 18 46t47 19
q27 0 43 -16l162 -150q22 -22 22 -51q0 -26 -17 -44.5t-46 -18.5q-31 0 -53 22l-154 144q-22 19 -22 49z" />
    <glyph glyph-name="Uacute" unicode="&#xda;" horiz-adv-x="1343" 
d="M1016 428v934q0 29 21 50.5t50 21.5t50.5 -21.5t21.5 -50.5v-934q0 -201 -138 -339t-339 -138t-339 138t-138 339v928q0 33 20.5 55.5t50.5 22.5q29 0 50.5 -21.5t21.5 -50.5v-934q0 -141 96.5 -237.5t237.5 -96.5t237.5 96.5t96.5 237.5zM911 1784q0 -30 -22 -49
l-154 -144q-22 -22 -53 -22q-29 0 -46.5 18.5t-17.5 44.5q0 28 23 51l162 150q16 16 43 16q29 0 47 -19t18 -46z" />
    <glyph glyph-name="Ucircumflex" unicode="&#xdb;" horiz-adv-x="1343" 
d="M1016 428v934q0 29 21 50.5t50 21.5t50.5 -21.5t21.5 -50.5v-934q0 -201 -138 -339t-339 -138t-339 138t-138 339v928q0 33 20.5 55.5t50.5 22.5q29 0 50.5 -21.5t21.5 -50.5v-934q0 -141 96.5 -237.5t237.5 -96.5t237.5 96.5t96.5 237.5zM438 1645q0 25 17 45l118 147
q1 2 8.5 10.5t12.5 15t15.5 15.5t20.5 14.5t23.5 10t28.5 4.5t29 -4.5t23.5 -9.5t21 -15t16 -14.5t14.5 -15.5l9 -11l118 -145q17 -21 17 -43q0 -29 -21 -51.5t-51 -22.5q-32 0 -59 31l-117 141l-117 -145q-21 -27 -57 -27q-29 0 -49.5 20.5t-20.5 49.5z" />
    <glyph glyph-name="Udieresis" unicode="&#xdc;" horiz-adv-x="1343" 
d="M1016 428v934q0 29 21 50.5t50 21.5t50.5 -21.5t21.5 -50.5v-934q0 -201 -138 -339t-339 -138t-339 138t-138 339v928q0 33 20.5 55.5t50.5 22.5q29 0 50.5 -21.5t21.5 -50.5v-934q0 -141 96.5 -237.5t237.5 -96.5t237.5 96.5t96.5 237.5zM436 1692q0 37 24.5 61.5
t61.5 24.5t61.5 -24.5t24.5 -61.5t-24.5 -61.5t-61.5 -24.5t-61.5 24.5t-24.5 61.5zM764 1692q0 37 24.5 61.5t61.5 24.5t61.5 -24.5t24.5 -61.5t-24.5 -61.5t-61.5 -24.5t-61.5 24.5t-24.5 61.5z" />
    <glyph glyph-name="Yacute" unicode="&#xdd;" horiz-adv-x="974" 
d="M416 72v487l-404 762q-12 30 -12 41q0 29 21.5 50.5t50.5 21.5q21 0 35.5 -8.5t19 -15t10.5 -19.5l350 -689l353 693q20 39 63 39q29 0 50.5 -21.5t21.5 -50.5q0 -17 -12 -39l-404 -760v-491q0 -29 -21.5 -50.5t-50.5 -21.5t-50 21.5t-21 50.5zM717 1784q0 -29 -23 -49
l-153 -144q-22 -22 -54 -22q-29 0 -46 18.5t-17 44.5q0 29 22 51l162 150q16 16 43 16q29 0 47.5 -19t18.5 -46z" />
    <glyph glyph-name="Thorn" unicode="&#xde;" horiz-adv-x="1163" 
d="M143 72v1290q0 29 21.5 50.5t50.5 21.5t50.5 -21.5t21.5 -50.5v-156h282q227 0 349 -102q122 -101 122 -334q0 -124 -30 -204t-92 -136q-124 -100 -349 -100h-282v-258q0 -29 -21.5 -50.5t-50.5 -21.5t-50.5 21.5t-21.5 50.5zM805 535q82 85 82 235q0 161 -82 231
q-91 66 -232 66h-286v-598h286q141 0 232 66z" />
    <glyph glyph-name="germandbls" unicode="&#xdf;" horiz-adv-x="1171" 
d="M500 72q0 29 21 50t50 21q160 0 242 70q88 73 88 188q0 125 -88 195q-81 63 -242 63q-29 0 -50 21.5t-21 50.5t21 50.5t50 21.5q94 0 164 73.5t70 170.5q0 247 -289 247q-168 0 -168 -274v-948q0 -29 -21.5 -50.5t-50.5 -21.5t-50 21.5t-21 50.5v975q0 387 323 387
q198 0 314 -98t116 -289q0 -181 -131 -291q110 -45 171 -136.5t61 -220.5q0 -187 -129 -295q-124 -104 -359 -104q-29 0 -50 21.5t-21 50.5z" />
    <glyph glyph-name="agrave" unicode="&#xe0;" horiz-adv-x="1392" 
d="M1106 72v65l-23 -22q-77 -77 -180 -120.5t-217 -43.5q-153 0 -282.5 75.5t-205 205t-75.5 282.5t75.5 282.5t205 205t282.5 75.5t282.5 -75.5t205 -205t75.5 -282.5v-442q0 -29 -21 -50.5t-50 -21.5t-50.5 21.5t-21.5 50.5zM266 514q0 -173 123.5 -296.5t296.5 -123.5
t296.5 123.5t123.5 296.5t-123.5 296.5t-296.5 123.5t-296.5 -123.5t-123.5 -296.5zM457 1382q0 27 18.5 46.5t46.5 19.5q27 0 43 -16l162 -150q23 -23 23 -51q0 -26 -17.5 -45t-46.5 -19q-30 0 -53 23l-154 143q-22 19 -22 49z" />
    <glyph glyph-name="aacute" unicode="&#xe1;" horiz-adv-x="1392" 
d="M1106 72v65l-23 -22q-77 -77 -180 -120.5t-217 -43.5q-153 0 -282.5 75.5t-205 205t-75.5 282.5t75.5 282.5t205 205t282.5 75.5t282.5 -75.5t205 -205t75.5 -282.5v-442q0 -29 -21 -50.5t-50 -21.5t-50.5 21.5t-21.5 50.5zM266 514q0 -173 123.5 -296.5t296.5 -123.5
t296.5 123.5t123.5 296.5t-123.5 296.5t-296.5 123.5t-296.5 -123.5t-123.5 -296.5zM913 1382q0 -30 -22 -49l-154 -143q-23 -23 -53 -23q-29 0 -46 19t-17 45q0 29 22 51l162 150q16 16 43 16q28 0 46.5 -19.5t18.5 -46.5z" />
    <glyph glyph-name="acircumflex" unicode="&#xe2;" horiz-adv-x="1392" 
d="M1106 72v65l-23 -22q-77 -77 -180 -120.5t-217 -43.5q-153 0 -282.5 75.5t-205 205t-75.5 282.5t75.5 282.5t205 205t282.5 75.5t282.5 -75.5t205 -205t75.5 -282.5v-442q0 -29 -21 -50.5t-50 -21.5t-50.5 21.5t-21.5 50.5zM449 1243q0 26 16 45l119 148q1 2 8.5 10.5
t12.5 14.5t15 15t20 15t23.5 10t28.5 4q13 0 24.5 -2.5t22 -8t18.5 -10.5t16.5 -13.5t12.5 -13t11 -12.5t8 -9l119 -146q16 -20 16 -43q0 -29 -21 -51t-51 -22q-33 0 -59 30l-117 142l-117 -146q-20 -26 -57 -26q-29 0 -49 20t-20 49zM266 514q0 -173 123.5 -296.5
t296.5 -123.5t296.5 123.5t123.5 296.5t-123.5 296.5t-296.5 123.5t-296.5 -123.5t-123.5 -296.5z" />
    <glyph glyph-name="atilde" unicode="&#xe3;" horiz-adv-x="1392" 
d="M1106 72v65l-23 -22q-77 -77 -180 -120.5t-217 -43.5q-153 0 -282.5 75.5t-205 205t-75.5 282.5t75.5 282.5t205 205t282.5 75.5t282.5 -75.5t205 -205t75.5 -282.5v-442q0 -29 -21 -50.5t-50 -21.5t-50.5 21.5t-21.5 50.5zM502 1204q-30 0 -51 21t-21 49q0 49 65 86
t128 37q56 0 110 -31q24 -16 49 -16q23 0 43 20q26 29 58 29q29 0 50 -21.5t21 -50.5q0 -52 -62.5 -86.5t-117.5 -34.5q-61 0 -117 33q-26 16 -45 16q-31 0 -63 -32q-19 -19 -47 -19zM266 514q0 -173 123.5 -296.5t296.5 -123.5t296.5 123.5t123.5 296.5t-123.5 296.5
t-296.5 123.5t-296.5 -123.5t-123.5 -296.5z" />
    <glyph glyph-name="adieresis" unicode="&#xe4;" horiz-adv-x="1392" 
d="M1106 72v65l-23 -22q-77 -77 -180 -120.5t-217 -43.5q-153 0 -282.5 75.5t-205 205t-75.5 282.5t75.5 282.5t205 205t282.5 75.5t282.5 -75.5t205 -205t75.5 -282.5v-442q0 -29 -21 -50.5t-50 -21.5t-50.5 21.5t-21.5 50.5zM438 1292q0 37 24.5 61.5t61.5 24.5
t61.5 -24.5t24.5 -61.5t-24.5 -61.5t-61.5 -24.5t-61.5 24.5t-24.5 61.5zM766 1292q0 37 24.5 61.5t61.5 24.5t61.5 -24.5t24.5 -61.5t-24.5 -61.5t-61.5 -24.5t-61.5 24.5t-24.5 61.5zM266 514q0 -173 123.5 -296.5t296.5 -123.5t296.5 123.5t123.5 296.5t-123.5 296.5
t-296.5 123.5t-296.5 -123.5t-123.5 -296.5z" />
    <glyph glyph-name="aring" unicode="&#xe5;" horiz-adv-x="1392" 
d="M1106 72v65l-23 -22q-77 -77 -180 -120.5t-217 -43.5q-153 0 -282.5 75.5t-205 205t-75.5 282.5t75.5 282.5t205 205t282.5 75.5t282.5 -75.5t205 -205t75.5 -282.5v-442q0 -29 -21 -50.5t-50 -21.5t-50.5 21.5t-21.5 50.5zM266 514q0 -173 123.5 -296.5t296.5 -123.5
t296.5 123.5t123.5 296.5t-123.5 296.5t-296.5 123.5t-296.5 -123.5t-123.5 -296.5zM598 1362q0 -37 24.5 -61.5t61.5 -24.5t61.5 24.5t24.5 61.5t-24.5 61.5t-61.5 24.5t-61.5 -24.5t-24.5 -61.5zM496 1362q0 82 53 135t135 53t135 -53t53 -135t-53 -135t-135 -53t-135 53
t-53 135z" />
    <glyph glyph-name="ccedilla" unicode="&#xe7;" horiz-adv-x="1247" 
d="M604 -184v141q-206 31 -343.5 188t-137.5 369q0 153 75.5 282.5t205 205t282.5 75.5q243 0 416 -190q63 -77 63 -131q0 -62 -59 -62q-14 0 -27.5 7.5t-20 15t-20 25.5t-18.5 24q-69 85 -146 126.5t-188 41.5q-173 0 -296.5 -123.5t-123.5 -296.5t123.5 -296.5
t296.5 -123.5q92 0 181.5 45.5t152.5 136.5q15 22 24 32.5t26 21t36 10.5q25 0 42 -19t17 -45q0 -50 -59 -122q-141 -177 -358 -199v-68q88 0 151.5 -63t63.5 -152q0 -90 -63 -151.5t-152 -61.5h-72q-29 0 -50.5 21.5t-21.5 50.5t21.5 50.5t50.5 21.5h72q29 0 49 20t20 49
q0 30 -20 51t-49 21h-72q-29 0 -50.5 21.5t-21.5 50.5z" />
    <glyph glyph-name="egrave" unicode="&#xe8;" horiz-adv-x="1339" 
d="M1163 557h-895q-2 -14 -2 -43q0 -173 123.5 -296.5t296.5 -123.5q102 0 193.5 47t148.5 127q30 43 66 43q29 0 50 -21t21 -50q0 -43 -82 -125q-72 -74 -174.5 -119t-222.5 -45q-153 0 -282.5 75.5t-205 205t-75.5 282.5t75.5 282.5t205 205t282.5 75.5q189 0 340.5 -115
t202.5 -300q8 -25 8 -41q0 -32 -20.5 -48t-53.5 -16zM309 700h752q-51 109 -155 171.5t-220 62.5q-63 0 -130 -21t-137.5 -76t-109.5 -137zM455 1382q0 27 18.5 46.5t46.5 19.5q27 0 43 -16l162 -150q23 -23 23 -51q0 -26 -17.5 -45t-46.5 -19q-30 0 -53 23l-154 143
q-22 19 -22 49z" />
    <glyph glyph-name="eacute" unicode="&#xe9;" horiz-adv-x="1339" 
d="M1163 557h-895q-2 -14 -2 -43q0 -173 123.5 -296.5t296.5 -123.5q102 0 193.5 47t148.5 127q30 43 66 43q29 0 50 -21t21 -50q0 -43 -82 -125q-72 -74 -174.5 -119t-222.5 -45q-153 0 -282.5 75.5t-205 205t-75.5 282.5t75.5 282.5t205 205t282.5 75.5q189 0 340.5 -115
t202.5 -300q8 -25 8 -41q0 -32 -20.5 -48t-53.5 -16zM309 700h752q-51 109 -155 171.5t-220 62.5q-63 0 -130 -21t-137.5 -76t-109.5 -137zM913 1382q0 -30 -22 -49l-154 -143q-23 -23 -53 -23q-29 0 -46 19t-17 45q0 29 22 51l162 150q16 16 43 16q28 0 46.5 -19.5
t18.5 -46.5z" />
    <glyph glyph-name="ecircumflex" unicode="&#xea;" horiz-adv-x="1339" 
d="M1163 557h-895q-2 -14 -2 -43q0 -173 123.5 -296.5t296.5 -123.5q102 0 193.5 47t148.5 127q30 43 66 43q29 0 50 -21t21 -50q0 -43 -82 -125q-72 -74 -174.5 -119t-222.5 -45q-153 0 -282.5 75.5t-205 205t-75.5 282.5t75.5 282.5t205 205t282.5 75.5q189 0 340.5 -115
t202.5 -300q8 -25 8 -41q0 -32 -20.5 -48t-53.5 -16zM309 700h752q-51 109 -155 171.5t-220 62.5q-63 0 -130 -21t-137.5 -76t-109.5 -137zM442 1243q0 25 17 45l119 148q1 2 8.5 10.5t12.5 14.5t15 15t20 15t23.5 10t28.5 4q13 0 24.5 -2.5t22 -8t18.5 -10.5t16.5 -13.5
t12.5 -13t11 -12.5t8 -9l119 -146q16 -20 16 -43q0 -29 -21 -51t-51 -22q-33 0 -59 30l-117 142l-117 -146q-20 -26 -57 -26q-29 0 -49.5 20t-20.5 49z" />
    <glyph glyph-name="edieresis" unicode="&#xeb;" horiz-adv-x="1339" 
d="M1163 557h-895q-2 -14 -2 -43q0 -173 123.5 -296.5t296.5 -123.5q102 0 193.5 47t148.5 127q30 43 66 43q29 0 50 -21t21 -50q0 -43 -82 -125q-72 -74 -174.5 -119t-222.5 -45q-153 0 -282.5 75.5t-205 205t-75.5 282.5t75.5 282.5t205 205t282.5 75.5q189 0 340.5 -115
t202.5 -300q8 -25 8 -41q0 -32 -20.5 -48t-53.5 -16zM309 700h752q-51 109 -155 171.5t-220 62.5q-63 0 -130 -21t-137.5 -76t-109.5 -137zM434 1290q0 37 24.5 61.5t61.5 24.5t61.5 -24.5t24.5 -61.5t-24.5 -61.5t-61.5 -24.5t-61.5 24.5t-24.5 61.5zM762 1290
q0 37 24.5 61.5t61.5 24.5t61.5 -24.5t24.5 -61.5t-24.5 -61.5t-61.5 -24.5t-61.5 24.5t-24.5 61.5z" />
    <glyph glyph-name="igrave" unicode="&#xec;" horiz-adv-x="573" 
d="M225 72v880q0 29 21.5 50.5t50.5 21.5t50.5 -21.5t21.5 -50.5v-880q0 -29 -21.5 -50.5t-50.5 -21.5t-50.5 21.5t-21.5 50.5zM63 1382q0 27 18.5 46.5t47.5 19.5q27 0 43 -16l162 -150q22 -22 22 -51q0 -26 -17 -45t-46 -19q-30 0 -53 23l-154 143q-23 20 -23 49z" />
    <glyph glyph-name="iacute" unicode="&#xed;" horiz-adv-x="573" 
d="M225 72v880q0 29 21.5 50.5t50.5 21.5t50.5 -21.5t21.5 -50.5v-880q0 -29 -21.5 -50.5t-50.5 -21.5t-50.5 21.5t-21.5 50.5zM526 1382q0 -30 -22 -49l-154 -143q-23 -23 -53 -23q-29 0 -46.5 19t-17.5 45q0 28 23 51l162 150q16 16 43 16q28 0 46.5 -19.5t18.5 -46.5z
" />
    <glyph glyph-name="icircumflex" unicode="&#xee;" horiz-adv-x="573" 
d="M225 72v880q0 29 21.5 50.5t50.5 21.5t50.5 -21.5t21.5 -50.5v-880q0 -29 -21.5 -50.5t-50.5 -21.5t-50.5 21.5t-21.5 50.5zM47 1243q0 26 16 45l119 148q1 1 8.5 10.5t12.5 15t15.5 14.5t20.5 14.5t23.5 10t28.5 4.5t29 -4.5t23.5 -9t21 -14.5t16 -15t13.5 -16l9 -10
l119 -146q17 -21 17 -43q0 -29 -21 -51t-51 -22q-33 0 -59 30l-117 142l-117 -146q-20 -26 -57 -26q-29 0 -49.5 20t-20.5 49z" />
    <glyph glyph-name="idieresis" unicode="&#xef;" horiz-adv-x="573" 
d="M225 72v880q0 29 21.5 50.5t50.5 21.5t50.5 -21.5t21.5 -50.5v-880q0 -29 -21.5 -50.5t-50.5 -21.5t-50.5 21.5t-21.5 50.5zM47 1290q0 37 24.5 61.5t61.5 24.5t61.5 -24.5t24.5 -61.5t-24.5 -61.5t-61.5 -24.5t-61.5 24.5t-24.5 61.5zM375 1290q0 37 24.5 61.5
t61.5 24.5t61.5 -24.5t24.5 -61.5t-24.5 -61.5t-61.5 -24.5t-61.5 24.5t-24.5 61.5z" />
    <glyph glyph-name="eth" unicode="&#xf0;" horiz-adv-x="1372" 
d="M627 1421l-275 -121q-20 -8 -28 -8q-22 0 -37 14.5t-15 36.5q0 19 11 31t22 17l225 100q-110 68 -161 96q-39 22 -39 62q0 28 18.5 46.5t46.5 18.5q33 0 123.5 -48.5t169.5 -104.5l213 94q28 14 39 14q22 0 36.5 -14.5t14.5 -36.5q0 -32 -26 -45l-187 -84
q213 -188 342 -443.5t129 -531.5q0 -153 -75.5 -282.5t-205 -205t-282.5 -75.5t-282.5 75.5t-205 205t-75.5 282.5t75.5 282.5t205 205t282.5 75.5q163 0 297 -86q-118 247 -356 430zM266 514q0 -173 123.5 -296.5t296.5 -123.5t296.5 123.5t123.5 296.5t-123.5 296.5
t-296.5 123.5t-296.5 -123.5t-123.5 -296.5z" />
    <glyph glyph-name="ntilde" unicode="&#xf1;" horiz-adv-x="1284" 
d="M205 72v880q0 29 21 50.5t50 21.5t50.5 -21.5t21.5 -50.5v-22q40 66 130 106.5t186 40.5q186 0 321 -136.5t135 -326.5v-542q0 -29 -21 -50.5t-50 -21.5t-50.5 21.5t-21.5 50.5v542q0 130 -92 223t-221 93q-94 0 -173 -56t-118 -143q-22 -56 -25 -102v-557
q0 -29 -21.5 -50.5t-50.5 -21.5t-50 21.5t-21 50.5zM473 1202q-30 0 -51 21t-21 49q0 49 65 86t128 37q57 0 111 -31q24 -16 49 -16q23 0 43 20q26 29 57 29q29 0 50.5 -21.5t21.5 -50.5q0 -35 -33 -64.5t-74 -43t-74 -13.5q-60 0 -116 33q-26 16 -45 16q-32 0 -64 -32
q-19 -19 -47 -19z" />
    <glyph glyph-name="ograve" unicode="&#xf2;" horiz-adv-x="1372" 
d="M123 514q0 153 75.5 282.5t205 205t282.5 75.5t282.5 -75.5t205 -205t75.5 -282.5t-75.5 -282.5t-205 -205t-282.5 -75.5t-282.5 75.5t-205 205t-75.5 282.5zM266 514q0 -173 123.5 -296.5t296.5 -123.5t296.5 123.5t123.5 296.5t-123.5 296.5t-296.5 123.5
t-296.5 -123.5t-123.5 -296.5zM455 1382q0 27 18.5 46.5t46.5 19.5q27 0 43 -16l162 -150q23 -23 23 -51q0 -26 -17.5 -45t-46.5 -19q-30 0 -53 23l-154 143q-22 19 -22 49z" />
    <glyph glyph-name="oacute" unicode="&#xf3;" horiz-adv-x="1372" 
d="M123 514q0 153 75.5 282.5t205 205t282.5 75.5t282.5 -75.5t205 -205t75.5 -282.5t-75.5 -282.5t-205 -205t-282.5 -75.5t-282.5 75.5t-205 205t-75.5 282.5zM266 514q0 -173 123.5 -296.5t296.5 -123.5t296.5 123.5t123.5 296.5t-123.5 296.5t-296.5 123.5
t-296.5 -123.5t-123.5 -296.5zM915 1382q0 -30 -22 -49l-154 -143q-23 -23 -53 -23q-29 0 -46 19t-17 45q0 29 22 51l162 150q16 16 43 16q28 0 46.5 -19.5t18.5 -46.5z" />
    <glyph glyph-name="ocircumflex" unicode="&#xf4;" horiz-adv-x="1372" 
d="M123 514q0 153 75.5 282.5t205 205t282.5 75.5t282.5 -75.5t205 -205t75.5 -282.5t-75.5 -282.5t-205 -205t-282.5 -75.5t-282.5 75.5t-205 205t-75.5 282.5zM266 514q0 -173 123.5 -296.5t296.5 -123.5t296.5 123.5t123.5 296.5t-123.5 296.5t-296.5 123.5
t-296.5 -123.5t-123.5 -296.5zM442 1243q0 25 17 45l119 148q1 2 8.5 10.5t12.5 14.5t15 15t20 15t23.5 10t28.5 4q13 0 24.5 -2.5t22 -8t18.5 -10.5t16.5 -13.5t12.5 -13t11 -12.5t8 -9l119 -146q16 -20 16 -43q0 -29 -21 -51t-51 -22q-33 0 -59 30l-117 142l-117 -146
q-20 -26 -57 -26q-29 0 -49.5 20t-20.5 49z" />
    <glyph glyph-name="otilde" unicode="&#xf5;" horiz-adv-x="1372" 
d="M123 514q0 153 75.5 282.5t205 205t282.5 75.5t282.5 -75.5t205 -205t75.5 -282.5t-75.5 -282.5t-205 -205t-282.5 -75.5t-282.5 75.5t-205 205t-75.5 282.5zM266 514q0 -173 123.5 -296.5t296.5 -123.5t296.5 123.5t123.5 296.5t-123.5 296.5t-296.5 123.5
t-296.5 -123.5t-123.5 -296.5zM502 1204q-30 0 -51 21t-21 49q0 49 65 86t128 37q56 0 110 -31q24 -16 49 -16q23 0 43 20q26 29 58 29q29 0 50 -21.5t21 -50.5q0 -52 -62.5 -86.5t-117.5 -34.5q-61 0 -117 33q-26 16 -45 16q-31 0 -63 -32q-19 -19 -47 -19z" />
    <glyph glyph-name="odieresis" unicode="&#xf6;" horiz-adv-x="1372" 
d="M123 514q0 153 75.5 282.5t205 205t282.5 75.5t282.5 -75.5t205 -205t75.5 -282.5t-75.5 -282.5t-205 -205t-282.5 -75.5t-282.5 75.5t-205 205t-75.5 282.5zM266 514q0 -173 123.5 -296.5t296.5 -123.5t296.5 123.5t123.5 296.5t-123.5 296.5t-296.5 123.5
t-296.5 -123.5t-123.5 -296.5zM436 1290q0 37 24.5 61.5t61.5 24.5t61.5 -24.5t24.5 -61.5t-24.5 -61.5t-61.5 -24.5t-61.5 24.5t-24.5 61.5zM764 1290q0 37 24.5 61.5t61.5 24.5t61.5 -24.5t24.5 -61.5t-24.5 -61.5t-61.5 -24.5t-61.5 24.5t-24.5 61.5z" />
    <glyph glyph-name="divide" unicode="&#xf7;" horiz-adv-x="1312" 
d="M307 512q0 29 21.5 50.5t50.5 21.5h555q29 0 50.5 -21.5t21.5 -50.5t-21.5 -50.5t-50.5 -21.5h-555q-29 0 -50.5 21.5t-21.5 50.5zM569 86q0 37 24.5 61.5t61.5 24.5t61.5 -24.5t24.5 -61.5t-24.5 -61.5t-61.5 -24.5t-61.5 24.5t-24.5 61.5zM569 938q0 37 24.5 61.5
t61.5 24.5t61.5 -24.5t24.5 -61.5t-24.5 -61.5t-61.5 -24.5t-61.5 24.5t-24.5 61.5z" />
    <glyph glyph-name="oslash" unicode="&#xf8;" horiz-adv-x="1372" 
d="M420 -78l26 82q-146 68 -234.5 205.5t-88.5 304.5q0 153 75.5 282.5t205 205t282.5 75.5q58 0 113 -12l39 119q8 22 26 35.5t41 13.5q29 0 50.5 -21.5t21.5 -50.5l-8 -37l-35 -104q142 -70 228.5 -206.5t86.5 -299.5q0 -153 -75.5 -282.5t-205 -205t-282.5 -75.5
q-49 0 -104 10l-37 -113q-8 -22 -26.5 -35.5t-41.5 -13.5q-33 0 -52 21t-19 51zM266 514q0 -119 62 -218.5t164 -154.5l262 787q-34 6 -68 6q-173 0 -296.5 -123.5t-123.5 -296.5zM1106 514q0 117 -59.5 214.5t-159.5 152.5l-260 -783q20 -4 59 -4q173 0 296.5 123.5
t123.5 296.5z" />
    <glyph glyph-name="ugrave" unicode="&#xf9;" horiz-adv-x="1232" 
d="M164 412v540q0 29 21.5 50.5t50.5 21.5t50 -21.5t21 -50.5v-540q0 -130 92.5 -222t221.5 -92q131 0 223 92t92 222v540q0 29 21.5 50.5t50.5 21.5t50 -21.5t21 -50.5v-540q0 -124 -61 -230t-166.5 -168.5t-230.5 -62.5q-191 0 -324 135.5t-133 325.5zM391 1382
q0 27 18.5 46.5t47.5 19.5q27 0 43 -16l162 -150q22 -22 22 -51q0 -26 -17 -45t-46 -19q-31 0 -54 23l-153 143q-23 20 -23 49z" />
    <glyph glyph-name="uacute" unicode="&#xfa;" horiz-adv-x="1232" 
d="M164 412v540q0 29 21.5 50.5t50.5 21.5t50 -21.5t21 -50.5v-540q0 -130 92.5 -222t221.5 -92q131 0 223 92t92 222v540q0 29 21.5 50.5t50.5 21.5t50 -21.5t21 -50.5v-540q0 -124 -61 -230t-166.5 -168.5t-230.5 -62.5q-191 0 -324 135.5t-133 325.5zM850 1382
q0 -29 -23 -49l-153 -143q-23 -23 -53 -23q-29 0 -46.5 19t-17.5 45q0 28 23 51l161 150q16 16 43 16q29 0 47.5 -19.5t18.5 -46.5z" />
    <glyph glyph-name="ucircumflex" unicode="&#xfb;" horiz-adv-x="1232" 
d="M164 412v540q0 29 21.5 50.5t50.5 21.5t50 -21.5t21 -50.5v-540q0 -130 92.5 -222t221.5 -92q131 0 223 92t92 222v540q0 29 21.5 50.5t50.5 21.5t50 -21.5t21 -50.5v-540q0 -124 -61 -230t-166.5 -168.5t-230.5 -62.5q-191 0 -324 135.5t-133 325.5zM375 1243
q0 26 16 45l119 148q1 2 8.5 10.5t12.5 14.5t15 15t20 15t23.5 10t28.5 4q13 0 24.5 -2.5t22 -8t18.5 -10.5t16.5 -13.5t12.5 -13t11 -12.5t8 -9l119 -146q16 -20 16 -43q0 -29 -20.5 -51t-50.5 -22q-34 0 -60 30l-117 142l-116 -146q-20 -26 -58 -26q-29 0 -49 20t-20 49z
" />
    <glyph glyph-name="udieresis" unicode="&#xfc;" horiz-adv-x="1232" 
d="M164 412v540q0 29 21.5 50.5t50.5 21.5t50 -21.5t21 -50.5v-540q0 -130 92.5 -222t221.5 -92q131 0 223 92t92 222v540q0 29 21.5 50.5t50.5 21.5t50 -21.5t21 -50.5v-540q0 -124 -61 -230t-166.5 -168.5t-230.5 -62.5q-191 0 -324 135.5t-133 325.5zM371 1290
q0 37 24.5 61.5t61.5 24.5t61.5 -24.5t24.5 -61.5t-24.5 -61.5t-61.5 -24.5t-61.5 24.5t-24.5 61.5zM698 1290q0 37 24.5 61.5t61.5 24.5t61.5 -24.5t24.5 -61.5t-24.5 -61.5t-61.5 -24.5t-61.5 24.5t-24.5 61.5z" />
    <glyph glyph-name="yacute" unicode="&#xfd;" horiz-adv-x="1234" 
d="M551 -336v287q-46 7 -107 33q-126 55 -203 169t-77 255v544q0 29 21.5 50.5t50.5 21.5t50 -21.5t21 -50.5v-544q0 -130 92.5 -222t223.5 -92t223 92t92 222v544q0 29 21.5 50.5t50.5 21.5t50 -21.5t21 -50.5v-544q0 -141 -77 -255t-203 -169q-66 -26 -107 -33v-287
q0 -29 -21 -50.5t-50 -21.5t-50.5 21.5t-21.5 50.5zM852 1382q0 -29 -23 -49l-153 -143q-23 -23 -53 -23q-29 0 -46.5 19t-17.5 45q0 28 23 51l161 150q16 16 43 16q29 0 47.5 -19.5t18.5 -46.5z" />
    <glyph glyph-name="thorn" unicode="&#xfe;" horiz-adv-x="1163" 
d="M205 -336v1698q0 29 21 50.5t50 21.5t50.5 -21.5t21.5 -50.5v-485h221q225 0 349 -103q122 -101 122 -334q0 -152 -32 -217q-31 -73 -90 -123q-117 -100 -349 -100h-221v-336q0 -29 -21.5 -50.5t-50.5 -21.5t-50 21.5t-21 50.5zM805 205q82 64 82 235q0 162 -82 232
q-89 65 -232 65h-225v-598h225q141 0 232 66z" />
    <glyph glyph-name="ydieresis" unicode="&#xff;" horiz-adv-x="1234" 
d="M551 -336v287q-46 7 -107 33q-126 55 -203 169t-77 255v544q0 29 21.5 50.5t50.5 21.5t50 -21.5t21 -50.5v-544q5 -131 95.5 -222.5t220.5 -91.5q131 0 223 92t92 222v544q0 29 21.5 50.5t50.5 21.5t50 -21.5t21 -50.5v-544q0 -141 -77 -255t-203 -169q-66 -26 -107 -33
v-287q0 -29 -21 -50.5t-50 -21.5t-50.5 21.5t-21.5 50.5zM373 1292q0 37 24.5 61.5t61.5 24.5t61.5 -24.5t24.5 -61.5t-24.5 -61.5t-61.5 -24.5t-61.5 24.5t-24.5 61.5zM700 1292q0 37 24.5 61.5t61.5 24.5t61.5 -24.5t24.5 -61.5t-24.5 -61.5t-61.5 -24.5t-61.5 24.5
t-24.5 61.5z" />
    <glyph glyph-name="aogonek" unicode="&#x105;" horiz-adv-x="1392" 
d="M1106 72v65l-23 -22q-136 -136 -331 -160v-139q0 -29 -21.5 -50.5t-50.5 -21.5h-72q-29 0 -49 -21t-20 -51q0 -29 20 -49t49 -20h72q29 0 50.5 -21.5t21.5 -50.5t-21.5 -50.5t-50.5 -21.5h-72q-89 0 -152 61.5t-63 151.5q0 89 63.5 152t151.5 63v70q-207 28 -346 186.5
t-139 370.5q0 153 75.5 282.5t205 205t282.5 75.5t282.5 -75.5t205 -205t75.5 -282.5v-442q0 -29 -21 -50.5t-50 -21.5t-50.5 21.5t-21.5 50.5zM266 514q0 -173 123.5 -296.5t296.5 -123.5t296.5 123.5t123.5 296.5t-123.5 296.5t-296.5 123.5t-296.5 -123.5t-123.5 -296.5z
" />
    <glyph glyph-name="Cacute" unicode="&#x106;" horiz-adv-x="1673" 
d="M276 717q0 -125 50 -240.5t133.5 -199t199 -133.5t240.5 -50t237.5 48t198.5 134q41 41 97 123q22 29 57 29q29 0 50.5 -21.5t21.5 -50.5q0 -10 -9 -32q-38 -74 -112 -148q-106 -106 -246 -165.5t-295 -59.5t-296.5 61t-244.5 164t-164 244.5t-61 296.5t61 296.5
t164 244.5t244.5 164t296.5 61t294.5 -59.5t246.5 -166.5q79 -79 114 -151q7 -17 7 -29q0 -29 -21.5 -50t-50.5 -21q-21 0 -34.5 11t-33.5 38q-49 64 -86 98q-86 88 -198 136t-238 48q-125 0 -240.5 -49.5t-199 -133t-133.5 -198.5t-50 -239zM1126 1784q0 -30 -22 -49
l-154 -144q-22 -22 -53 -22q-29 0 -46 18.5t-17 44.5q0 29 22 51l162 150q16 16 43 16q29 0 47 -19t18 -46z" />
    <glyph glyph-name="cacute" unicode="&#x107;" horiz-adv-x="1247" 
d="M1020 276q15 22 24 32.5t26 21t36 10.5q25 0 42 -19t17 -45q0 -50 -59 -122q-165 -203 -420 -203q-153 0 -282.5 75.5t-205 205t-75.5 282.5t75.5 282.5t205 205t282.5 75.5q243 0 416 -190q63 -77 63 -131q0 -62 -59 -62q-14 0 -27.5 7.5t-20 15t-20 25.5t-18.5 24
q-69 85 -146 126.5t-188 41.5q-173 0 -296.5 -123.5t-123.5 -296.5t123.5 -296.5t296.5 -123.5q92 0 181.5 45.5t152.5 136.5zM915 1382q0 -30 -22 -49l-154 -143q-23 -23 -53 -23q-29 0 -46 19t-17 45q0 29 22 51l162 150q16 16 43 16q28 0 46.5 -19.5t18.5 -46.5z" />
    <glyph glyph-name="Ccircumflex" unicode="&#x108;" horiz-adv-x="1673" 
d="M276 717q0 -125 50 -240.5t133.5 -199t199 -133.5t240.5 -50t237.5 48t198.5 134q41 41 97 123q22 29 57 29q29 0 50.5 -21.5t21.5 -50.5q0 -10 -9 -32q-38 -74 -112 -148q-106 -106 -246 -165.5t-295 -59.5t-296.5 61t-244.5 164t-164 244.5t-61 296.5t61 296.5
t164 244.5t244.5 164t296.5 61t294.5 -59.5t246.5 -166.5q79 -79 114 -151q7 -17 7 -29q0 -29 -21.5 -50t-50.5 -21q-21 0 -34.5 11t-33.5 38q-49 64 -86 98q-86 88 -198 136t-238 48q-125 0 -240.5 -49.5t-199 -133t-133.5 -198.5t-50 -239zM651 1645q0 25 17 45l118 147
q1 2 8.5 10.5t12.5 15t15.5 15.5t20.5 14.5t23.5 10t28.5 4.5t29 -4.5t23.5 -9.5t21 -15t16 -14.5t13.5 -15.5l10 -11l118 -145q17 -21 17 -43q0 -29 -21 -51.5t-51 -22.5q-32 0 -59 31l-117 141l-117 -145q-21 -27 -57 -27q-29 0 -49.5 20.5t-20.5 49.5z" />
    <glyph glyph-name="ccircumflex" unicode="&#x109;" horiz-adv-x="1247" 
d="M1020 276q15 22 24 32.5t26 21t36 10.5q25 0 42 -19t17 -45q0 -50 -59 -122q-165 -203 -420 -203q-153 0 -282.5 75.5t-205 205t-75.5 282.5t75.5 282.5t205 205t282.5 75.5q243 0 416 -190q63 -77 63 -131q0 -62 -59 -62q-14 0 -27.5 7.5t-20 15t-20 25.5t-18.5 24
q-69 85 -146 126.5t-188 41.5q-173 0 -296.5 -123.5t-123.5 -296.5t123.5 -296.5t296.5 -123.5q92 0 181.5 45.5t152.5 136.5zM436 1243q0 25 17 45l118 148q1 1 8.5 10.5t12.5 15t15.5 14.5t20.5 14.5t23.5 10t28.5 4.5q13 0 24.5 -2.5t22 -8t18.5 -10.5t16.5 -13.5
t12.5 -13t11 -12.5t8 -9l118 -146q17 -21 17 -43q0 -29 -21 -51t-51 -22q-33 0 -59 30l-117 142l-117 -146q-20 -26 -57 -26q-29 0 -49.5 20t-20.5 49z" />
    <glyph glyph-name="Cdotaccent" unicode="&#x10a;" horiz-adv-x="1673" 
d="M276 717q0 -125 50 -240.5t133.5 -199t199 -133.5t240.5 -50t237.5 48t198.5 134q41 41 97 123q22 29 57 29q29 0 50.5 -21.5t21.5 -50.5q0 -10 -9 -32q-38 -74 -112 -148q-106 -106 -246 -165.5t-295 -59.5t-296.5 61t-244.5 164t-164 244.5t-61 296.5t61 296.5
t164 244.5t244.5 164t296.5 61t294.5 -59.5t246.5 -166.5q79 -79 114 -151q7 -17 7 -29q0 -29 -21.5 -50t-50.5 -21q-21 0 -34.5 11t-33.5 38q-49 64 -86 98q-86 88 -198 136t-238 48q-125 0 -240.5 -49.5t-199 -133t-133.5 -198.5t-50 -239zM805 1692q0 37 24.5 61.5
t61.5 24.5t61.5 -24.5t24.5 -61.5t-24.5 -61.5t-61.5 -24.5t-61.5 24.5t-24.5 61.5z" />
    <glyph glyph-name="cdotaccent" unicode="&#x10b;" horiz-adv-x="1247" 
d="M1020 276q15 22 24 32.5t26 21t36 10.5q25 0 42 -19t17 -45q0 -50 -59 -122q-165 -203 -420 -203q-153 0 -282.5 75.5t-205 205t-75.5 282.5t75.5 282.5t205 205t282.5 75.5q243 0 416 -190q63 -77 63 -131q0 -62 -59 -62q-14 0 -27.5 7.5t-20 15t-20 25.5t-18.5 24
q-69 85 -146 126.5t-188 41.5q-173 0 -296.5 -123.5t-123.5 -296.5t123.5 -296.5t296.5 -123.5q92 0 181.5 45.5t152.5 136.5zM588 1290q0 37 24.5 61.5t61.5 24.5t61.5 -24.5t24.5 -61.5t-24.5 -61.5t-61.5 -24.5t-61.5 24.5t-24.5 61.5z" />
    <glyph glyph-name="Ccaron" unicode="&#x10c;" horiz-adv-x="1673" 
d="M276 717q0 -125 50 -240.5t133.5 -199t199 -133.5t240.5 -50t237.5 48t198.5 134q41 41 97 123q22 29 57 29q29 0 50.5 -21.5t21.5 -50.5q0 -10 -9 -32q-38 -74 -112 -148q-106 -106 -246 -165.5t-295 -59.5t-296.5 61t-244.5 164t-164 244.5t-61 296.5t61 296.5
t164 244.5t244.5 164t296.5 61t294.5 -59.5t246.5 -166.5q79 -79 114 -151q7 -17 7 -29q0 -29 -21.5 -50t-50.5 -21q-21 0 -34.5 11t-33.5 38q-49 64 -86 98q-86 88 -198 136t-238 48q-125 0 -240.5 -49.5t-199 -133t-133.5 -198.5t-50 -239zM653 1825q0 29 20.5 49t49.5 20
q37 0 57 -26l117 -146l117 142q26 30 59 30q30 0 51 -22t21 -51q0 -22 -17 -43l-118 -146q-1 -1 -8 -9t-11 -12.5t-12.5 -13t-16.5 -13.5t-18.5 -10.5t-22 -8t-24.5 -2.5q-15 0 -28.5 4.5t-23.5 10t-20.5 14.5t-15.5 14.5t-12.5 15t-8.5 10.5l-118 148q-17 20 -17 45z" />
    <glyph glyph-name="ccaron" unicode="&#x10d;" horiz-adv-x="1247" 
d="M1020 276q15 22 24 32.5t26 21t36 10.5q25 0 42 -19t17 -45q0 -50 -59 -122q-165 -203 -420 -203q-153 0 -282.5 75.5t-205 205t-75.5 282.5t75.5 282.5t205 205t282.5 75.5q243 0 416 -190q63 -77 63 -131q0 -62 -59 -62q-14 0 -27.5 7.5t-20 15t-20 25.5t-18.5 24
q-69 85 -146 126.5t-188 41.5q-173 0 -296.5 -123.5t-123.5 -296.5t123.5 -296.5t296.5 -123.5q92 0 181.5 45.5t152.5 136.5zM436 1421q0 29 20.5 49.5t49.5 20.5q36 0 57 -27l117 -145l117 141q27 31 59 31q30 0 51 -22.5t21 -51.5q0 -22 -17 -43l-118 -145l-9 -11
q-10 -11 -14.5 -15.5t-16 -14.5t-21 -15t-23.5 -9.5t-29 -4.5t-28.5 4.5t-23.5 10t-20.5 14.5t-15.5 15.5t-12.5 15t-8.5 10.5l-118 147q-17 20 -17 45z" />
    <glyph glyph-name="Dcaron" unicode="&#x10e;" horiz-adv-x="1533" 
d="M205 72v1290q0 29 21 50.5t50 21.5h410q146 0 278 -56.5t228 -152.5t152.5 -228t56.5 -278t-56.5 -279t-152.5 -229.5t-228.5 -153.5t-277.5 -57h-410q-29 0 -50 21.5t-21 50.5zM348 143h338q155 0 286.5 77.5t208 210t76.5 288.5q0 155 -76.5 286.5t-208 208
t-286.5 76.5h-338v-1147zM442 1825q0 29 20.5 49t49.5 20q37 0 57 -26l117 -146l117 142q26 30 59 30q30 0 51 -22t21 -51q0 -23 -16 -43l-119 -146q-1 -1 -8 -9t-11 -12.5t-12.5 -13t-16.5 -13.5t-18.5 -10.5t-22 -8t-24.5 -2.5q-15 0 -28.5 4t-23.5 10t-20 15t-15 15
t-12.5 14.5t-8.5 10.5l-119 148q-17 20 -17 45z" />
    <glyph glyph-name="Edotaccent" unicode="&#x116;" horiz-adv-x="1271" 
d="M205 72v1290q0 29 21 50.5t50 21.5h811q29 0 50.5 -21.5t21.5 -50.5t-21.5 -50.5t-50.5 -21.5h-739v-590h596q29 0 50.5 -21t21.5 -50t-21.5 -50.5t-50.5 -21.5h-596v-414h739q29 0 50.5 -21t21.5 -50t-21.5 -50.5t-50.5 -21.5h-811q-29 0 -50 21.5t-21 50.5zM594 1692
q0 37 24.5 61.5t61.5 24.5t61.5 -24.5t24.5 -61.5t-24.5 -61.5t-61.5 -24.5t-61.5 24.5t-24.5 61.5z" />
    <glyph glyph-name="edotaccent" unicode="&#x117;" horiz-adv-x="1339" 
d="M1163 557h-895q-2 -14 -2 -43q0 -173 123.5 -296.5t296.5 -123.5q102 0 193.5 47t148.5 127q30 43 66 43q29 0 50 -21t21 -50q0 -43 -82 -125q-72 -74 -174.5 -119t-222.5 -45q-153 0 -282.5 75.5t-205 205t-75.5 282.5t75.5 282.5t205 205t282.5 75.5q189 0 340.5 -115
t202.5 -300q8 -25 8 -41q0 -32 -20.5 -48t-53.5 -16zM309 700h752q-51 109 -155 171.5t-220 62.5q-63 0 -130 -21t-137.5 -76t-109.5 -137zM598 1292q0 37 24.5 61.5t61.5 24.5t61.5 -24.5t24.5 -61.5t-24.5 -61.5t-61.5 -24.5t-61.5 24.5t-24.5 61.5z" />
    <glyph glyph-name="Eogonek" unicode="&#x118;" horiz-adv-x="1271" 
d="M205 72v1290q0 29 21 50.5t50 21.5h811q29 0 50.5 -21.5t21.5 -50.5t-21.5 -50.5t-50.5 -21.5h-739v-590h596q29 0 50.5 -21t21.5 -50t-21.5 -50.5t-50.5 -21.5h-596v-414h739q29 0 50.5 -21t21.5 -50t-21.5 -50.5t-50.5 -21.5h-323v-184q0 -29 -21.5 -50.5t-50.5 -21.5
h-71q-29 0 -49.5 -21.5t-20.5 -50.5t20.5 -49t49.5 -20h71q29 0 50.5 -21.5t21.5 -50.5t-21.5 -50.5t-50.5 -21.5h-71q-89 0 -152 61.5t-63 151.5q0 89 63.5 152t151.5 63v113h-345q-29 0 -50 21.5t-21 50.5z" />
    <glyph glyph-name="eogonek" unicode="&#x119;" horiz-adv-x="1339" 
d="M1163 557h-895q-2 -14 -2 -43q0 -173 123.5 -296.5t296.5 -123.5q102 0 193.5 47t148.5 127q30 43 66 43q29 0 50 -21t21 -50q0 -43 -82 -125q-132 -135 -321 -158v-141q0 -29 -21.5 -50.5t-50.5 -21.5h-72q-29 0 -49 -21t-20 -51q0 -29 20 -49t49 -20h72
q29 0 50.5 -21.5t21.5 -50.5t-21.5 -50.5t-50.5 -21.5h-72q-89 0 -152 61.5t-63 151.5q0 89 63.5 152t151.5 63v68q-139 17 -252 95t-178 200t-65 264q0 153 75.5 282.5t205 205t282.5 75.5q189 0 340.5 -115t202.5 -300q8 -25 8 -41q0 -32 -20.5 -48t-53.5 -16zM309 700
h752q-51 109 -155 171.5t-220 62.5q-63 0 -130 -21t-137.5 -76t-109.5 -137z" />
    <glyph glyph-name="Ecaron" unicode="&#x11a;" horiz-adv-x="1271" 
d="M205 72v1290q0 29 21 50.5t50 21.5h811q29 0 50.5 -21.5t21.5 -50.5t-21.5 -50.5t-50.5 -21.5h-739v-590h596q29 0 50.5 -21t21.5 -50t-21.5 -50.5t-50.5 -21.5h-596v-414h739q29 0 50.5 -21t21.5 -50t-21.5 -50.5t-50.5 -21.5h-811q-29 0 -50 21.5t-21 50.5zM418 1825
q0 29 20 49t49 20q38 0 58 -26l117 -146l116 142q26 30 60 30q30 0 50.5 -22t20.5 -51q0 -23 -16 -43l-119 -146l-9 -10q-9 -11 -13.5 -16t-16 -15t-21 -14.5t-23.5 -9t-29 -4.5t-28.5 4.5t-23.5 10t-20.5 14.5t-15.5 14.5t-12.5 15t-8.5 10.5l-119 148q-16 19 -16 45z" />
    <glyph glyph-name="ecaron" unicode="&#x11b;" horiz-adv-x="1339" 
d="M1163 557h-895q-2 -14 -2 -43q0 -173 123.5 -296.5t296.5 -123.5q102 0 193.5 47t148.5 127q30 43 66 43q29 0 50 -21t21 -50q0 -43 -82 -125q-72 -74 -174.5 -119t-222.5 -45q-153 0 -282.5 75.5t-205 205t-75.5 282.5t75.5 282.5t205 205t282.5 75.5q189 0 340.5 -115
t202.5 -300q8 -25 8 -41q0 -32 -20.5 -48t-53.5 -16zM309 700h752q-51 109 -155 171.5t-220 62.5q-63 0 -130 -21t-137.5 -76t-109.5 -137zM436 1421q0 29 20.5 49.5t49.5 20.5q36 0 57 -27l117 -145l117 141q27 31 59 31q30 0 51 -22.5t21 -51.5q0 -22 -17 -43l-118 -145
l-9 -11q-10 -11 -14.5 -15.5t-16 -14.5t-21 -15t-23.5 -9.5t-29 -4.5t-28.5 4.5t-23.5 10t-20.5 14.5t-15.5 15.5t-12.5 15t-8.5 10.5l-118 147q-17 20 -17 45z" />
    <glyph glyph-name="Gcircumflex" unicode="&#x11c;" horiz-adv-x="1634" 
d="M881 629q0 29 21 50t50 21h500q34 0 52 -24t18 -62q0 -158 -15.5 -249.5t-66.5 -167.5q-90 -134 -242 -193q-145 -53 -299 -53q-155 0 -296.5 61t-244.5 164t-164 244.5t-61 296.5t61 296.5t164 244.5t244.5 164t296.5 61t294.5 -59.5t246.5 -166.5q76 -67 76 -116
q0 -29 -21 -48.5t-51 -19.5q-29 0 -60 31l-49 49q-86 88 -198 136t-238 48q-125 0 -240.5 -49.5t-199 -133t-133.5 -198.5t-50 -239q0 -125 50 -240.5t133.5 -199t199 -133.5t240.5 -50q292 0 418 185q61 90 61 278h-426q-29 0 -50 21.5t-21 50.5zM631 1645q0 26 16 45
l119 147q0 1 10 13t17 19t20 17.5t28.5 15.5t32.5 5q15 0 29 -4.5t23.5 -9.5t21 -15t16 -14.5t14.5 -15.5l9 -11l119 -145q16 -20 16 -43q0 -29 -20.5 -51.5t-50.5 -22.5q-33 0 -60 31l-117 141l-116 -145q-21 -27 -58 -27q-29 0 -49 20.5t-20 49.5z" />
    <glyph glyph-name="gcircumflex" unicode="&#x11d;" horiz-adv-x="1433" 
d="M197 -152q0 29 21 50.5t50 21.5q39 0 64 -41q21 -33 57 -69q123 -123 297 -123q173 0 296.5 123t123.5 296v31l-23 -22q-77 -77 -180 -120.5t-217 -43.5q-153 0 -282.5 75.5t-205 205t-75.5 282.5t75.5 282.5t205 205t282.5 75.5q116 0 218.5 -43.5t178.5 -122.5
q15 -11 23 -22v63q0 29 21.5 50.5t50.5 21.5t50 -21.5t21 -50.5v-846q0 -153 -75.5 -282.5t-205 -205t-282.5 -75.5q-233 0 -399 166q-40 39 -74 92q-16 22 -16 47zM438 1243q0 25 17 45l118 148q1 1 8.5 10.5t12.5 15t15.5 14.5t20.5 14.5t23.5 10t28.5 4.5q13 0 24.5 -2.5
t22 -8t18.5 -10.5t16.5 -13.5t12.5 -13t11 -12.5t8 -9l118 -146q17 -21 17 -43q0 -29 -21 -51t-51 -22q-33 0 -59 30l-117 142l-117 -146q-20 -26 -57 -26q-29 0 -49.5 20t-20.5 49zM266 514q0 -173 123.5 -296.5t296.5 -123.5t296.5 123.5t123.5 296.5t-123.5 296.5
t-296.5 123.5t-296.5 -123.5t-123.5 -296.5z" />
    <glyph glyph-name="Gdotaccent" unicode="&#x120;" horiz-adv-x="1634" 
d="M881 629q0 29 21 50t50 21h500q34 0 52 -24t18 -62q0 -158 -15.5 -249.5t-66.5 -167.5q-90 -134 -242 -193q-145 -53 -299 -53q-155 0 -296.5 61t-244.5 164t-164 244.5t-61 296.5t61 296.5t164 244.5t244.5 164t296.5 61t294.5 -59.5t246.5 -166.5q76 -67 76 -116
q0 -29 -21 -48.5t-51 -19.5q-29 0 -60 31l-49 49q-86 88 -198 136t-238 48q-125 0 -240.5 -49.5t-199 -133t-133.5 -198.5t-50 -239q0 -125 50 -240.5t133.5 -199t199 -133.5t240.5 -50q292 0 418 185q61 90 61 278h-426q-29 0 -50 21.5t-21 50.5zM795 1692q0 37 24.5 61.5
t61.5 24.5t61.5 -24.5t24.5 -61.5t-24.5 -61.5t-61.5 -24.5t-61.5 24.5t-24.5 61.5z" />
    <glyph glyph-name="Itilde" unicode="&#x128;" horiz-adv-x="593" 
d="M225 72v1290q0 29 21.5 50.5t50.5 21.5t50.5 -21.5t21.5 -50.5v-1290q0 -29 -21.5 -50.5t-50.5 -21.5t-50.5 21.5t-21.5 50.5zM106 1606q-30 0 -50.5 20.5t-20.5 48.5q0 49 64.5 86t127.5 37q57 0 111 -31q24 -16 49 -16q22 0 43 21q25 28 57 28q29 0 50.5 -21t21.5 -50
q0 -52 -62.5 -86.5t-117.5 -34.5q-63 0 -117 32q-27 17 -45 17q-30 0 -63 -33q-18 -18 -48 -18z" />
    <glyph glyph-name="dotlessi" unicode="&#x131;" horiz-adv-x="573" 
d="M225 72v880q0 29 21.5 50.5t50.5 21.5t50.5 -21.5t21.5 -50.5v-880q0 -29 -21.5 -50.5t-50.5 -21.5t-50.5 21.5t-21.5 50.5z" />
    <glyph glyph-name="nacute" unicode="&#x144;" horiz-adv-x="1284" 
d="M205 72v880q0 29 21 50.5t50 21.5t50.5 -21.5t21.5 -50.5v-22q40 66 130 106.5t186 40.5q186 0 321 -136.5t135 -326.5v-542q0 -29 -21 -50.5t-50 -21.5t-50.5 21.5t-21.5 50.5v542q0 130 -92 223t-221 93q-94 0 -173 -56t-118 -143q-22 -56 -25 -102v-557
q0 -29 -21.5 -50.5t-50.5 -21.5t-50 21.5t-21 50.5zM893 1382q0 -29 -23 -49l-153 -143q-23 -23 -53 -23q-29 0 -46.5 19t-17.5 45q0 28 23 51l161 150q16 16 43 16q29 0 47.5 -19.5t18.5 -46.5z" />
    <glyph glyph-name="Ncaron" unicode="&#x147;" horiz-adv-x="1363" 
d="M205 72v1290q0 29 21 50.5t50 21.5h31q41 0 62 -35l647 -1112v1075q0 29 21 50.5t50 21.5q30 0 51 -21.5t21 -54.5v-1286q0 -30 -21.5 -51t-54.5 -21h-26q-44 0 -64 39l-645 1108v-1075q0 -29 -21.5 -50.5t-50.5 -21.5t-50 21.5t-21 50.5zM438 1825q0 29 20.5 49t49.5 20
q37 0 57 -26l117 -146l117 142q26 30 59 30q30 0 51 -22t21 -51q0 -22 -17 -43l-118 -146q-1 -1 -8 -9t-11 -12.5t-12.5 -13t-16.5 -13.5t-18.5 -10.5t-22 -8t-24.5 -2.5q-15 0 -28.5 4.5t-23.5 10t-20.5 14.5t-15.5 14.5t-12.5 15t-8.5 10.5l-118 148q-17 20 -17 45z" />
    <glyph glyph-name="ncaron" unicode="&#x148;" horiz-adv-x="1284" 
d="M205 72v880q0 29 21 50.5t50 21.5t50.5 -21.5t21.5 -50.5v-22q40 66 130 106.5t186 40.5q186 0 321 -136.5t135 -326.5v-542q0 -29 -21 -50.5t-50 -21.5t-50.5 21.5t-21.5 50.5v542q0 130 -92 223t-221 93q-94 0 -173 -56t-118 -143q-22 -56 -25 -102v-557
q0 -29 -21.5 -50.5t-50.5 -21.5t-50 21.5t-21 50.5zM422 1421q0 29 20.5 49.5t49.5 20.5q36 0 57 -27l117 -145l116 141q27 31 60 31q30 0 50.5 -22.5t20.5 -51.5q0 -23 -16 -43l-119 -145q-1 -1 -9.5 -11t-13.5 -15.5t-16 -15t-20.5 -14.5t-23.5 -9.5t-29 -4.5t-28.5 4.5
t-23.5 10t-20.5 14.5t-15.5 15.5t-12.5 15t-8.5 10.5l-119 147q-16 19 -16 45z" />
    <glyph glyph-name="Racute" unicode="&#x154;" horiz-adv-x="1245" 
d="M205 72v1290q0 29 21 50.5t50 21.5h355q222 0 342 -103q64 -55 96.5 -142.5t32.5 -189.5q0 -223 -129 -337q-24 -18 -58 -39q21 -12 56 -35q129 -114 129 -295v-221q0 -29 -21.5 -50.5t-50.5 -21.5t-50.5 21.5t-21.5 50.5v221q0 116 -90 194q-76 70 -213 70h-305v-485
q0 -29 -21.5 -50.5t-50.5 -21.5t-50 21.5t-21 50.5zM866 762q90 78 90 239q0 162 -90 234q-82 70 -233 70h-285v-613h285q151 0 233 70zM819 1784q0 -30 -22 -49l-154 -144q-22 -22 -53 -22q-29 0 -46.5 18.5t-17.5 44.5q0 28 23 51l162 150q16 16 43 16q29 0 47 -19t18 -46
z" />
    <glyph glyph-name="racute" unicode="&#x155;" horiz-adv-x="892" 
d="M225 72v880q0 29 21.5 50.5t50.5 21.5t50.5 -21.5t21.5 -50.5v-123q56 93 176 170.5t248 77.5q34 0 56.5 -23t22.5 -57t-24.5 -55.5t-61.5 -21.5q-88 0 -167.5 -41.5t-133 -108t-85 -149t-31.5 -164.5v-385q0 -29 -21.5 -50.5t-50.5 -21.5t-50.5 21.5t-21.5 50.5z
M727 1382q0 -30 -22 -49l-154 -143q-23 -23 -53 -23q-29 0 -46.5 19t-17.5 45q0 28 23 51l161 150q16 16 44 16t46.5 -19.5t18.5 -46.5z" />
    <glyph glyph-name="Rcaron" unicode="&#x158;" horiz-adv-x="1245" 
d="M205 72v1290q0 29 21 50.5t50 21.5h355q209 0 342 -103q62 -59 95.5 -146t33.5 -186q0 -223 -129 -337q-24 -18 -58 -39q21 -12 56 -35q129 -114 129 -295v-221q0 -29 -21.5 -50.5t-50.5 -21.5t-50.5 21.5t-21.5 50.5v221q0 116 -90 194q-76 70 -213 70h-305v-485
q0 -29 -21.5 -50.5t-50.5 -21.5t-50 21.5t-21 50.5zM866 762q90 78 90 239q0 162 -90 234q-82 70 -233 70h-285v-613h285q151 0 233 70zM354 1825q0 29 20.5 49t49.5 20q37 0 57 -26l117 -146l117 142q26 30 59 30q30 0 51 -22t21 -51q0 -22 -17 -43l-118 -146q-1 -1 -8 -9
t-11 -12.5t-12.5 -13t-16.5 -13.5t-18.5 -10.5t-22 -8t-24.5 -2.5q-15 0 -28.5 4.5t-23.5 10t-20.5 14.5t-15.5 14.5t-12.5 15t-8.5 10.5l-118 148q-17 20 -17 45z" />
    <glyph glyph-name="rcaron" unicode="&#x159;" horiz-adv-x="892" 
d="M268 1421q0 29 20.5 49.5t49.5 20.5q36 0 57 -27l117 -145l117 141q27 31 59 31q30 0 51 -22.5t21 -51.5q0 -22 -17 -43l-118 -145l-9 -11q-10 -11 -14.5 -15.5t-16 -14.5t-21 -15t-23.5 -9.5t-29 -4.5t-28.5 4.5t-23.5 10t-20.5 14.5t-15.5 15.5t-12.5 15t-8.5 10.5
l-118 147q-17 20 -17 45zM225 72v880q0 29 21.5 50.5t50.5 21.5t50.5 -21.5t21.5 -50.5v-123q56 93 176 170.5t248 77.5q34 0 56.5 -23t22.5 -57t-24.5 -55.5t-61.5 -21.5q-88 0 -167.5 -41.5t-133 -108t-85 -149t-31.5 -164.5v-385q0 -29 -21.5 -50.5t-50.5 -21.5
t-50.5 21.5t-21.5 50.5z" />
    <glyph glyph-name="Sacute" unicode="&#x15a;" horiz-adv-x="1271" 
d="M133 428q0 29 21.5 50.5t50.5 21.5t50 -21.5t21 -50.5q0 -136 109.5 -240t257.5 -104q96 0 176.5 30.5t133.5 96.5t53 156q0 57 -22 104.5t-55.5 80.5t-87.5 62.5t-104.5 48t-120.5 39.5q-442 129 -442 377q0 107 66.5 200.5t177 148.5t233.5 55q149 0 257.5 -73.5
t162.5 -172.5q37 -67 37 -102q0 -28 -20 -49t-50 -21q-9 0 -17.5 3.5t-13.5 6.5t-12 12.5t-9.5 14t-9.5 18t-9 17.5q-55 100 -141 155.5t-183 55.5q-77 0 -151 -35t-122 -95.5t-48 -127.5q0 -42 19.5 -77.5t46 -59t78 -48t88.5 -38t105 -36.5q183 -61 259 -101
q181 -96 219 -258q12 -49 12 -105q0 -127 -70.5 -223.5t-182.5 -144.5t-245 -48q-99 0 -192.5 35t-165.5 96t-116 151.5t-44 194.5zM881 1784q0 -29 -23 -49l-153 -144q-22 -22 -54 -22q-29 0 -46 18.5t-17 44.5q0 29 22 51l162 150q16 16 43 16q29 0 47.5 -19t18.5 -46z
" />
    <glyph glyph-name="sacute" unicode="&#x15b;" horiz-adv-x="1042" 
d="M164 238q0 31 18.5 51t48.5 20q41 0 58 -43q40 -94 99.5 -134t148.5 -40q37 0 72.5 8.5t68 26.5t52.5 52.5t20 80.5q0 31 -7.5 56.5t-17.5 43.5t-31 34.5t-36 26t-46.5 21t-48 16.5t-53.5 15q-56 16 -96.5 30.5t-86.5 40t-75 56t-48.5 77t-19.5 103.5q0 119 106 208
t245 89q59 0 111 -15.5t83.5 -38t49.5 -40t24 -29.5q22 -36 22 -67q0 -28 -16.5 -46t-48.5 -18q-46 0 -70 45q-45 78 -155 78q-83 0 -145 -49.5t-62 -112.5q0 -29 14 -54t33 -41.5t53 -32.5t58 -24.5t65 -21.5q66 -20 113 -39.5t94 -49t76 -64t47 -85t18 -112.5
q0 -141 -105 -225t-259 -84q-180 0 -299 141q-72 87 -72 146zM727 1382q0 -30 -22 -49l-154 -143q-23 -23 -53 -23q-29 0 -46.5 19t-17.5 45q0 28 23 51l161 150q16 16 44 16t46.5 -19.5t18.5 -46.5z" />
    <glyph glyph-name="Scircumflex" unicode="&#x15c;" horiz-adv-x="1271" 
d="M133 428q0 29 21.5 50.5t50.5 21.5t50 -21.5t21 -50.5q0 -136 109.5 -240t257.5 -104q96 0 176.5 30.5t133.5 96.5t53 156q0 57 -22 104.5t-55.5 80.5t-87.5 62.5t-104.5 48t-120.5 39.5q-442 129 -442 377q0 107 66.5 200.5t177 148.5t233.5 55q149 0 257.5 -73.5
t162.5 -172.5q37 -67 37 -102q0 -28 -20 -49t-50 -21q-9 0 -17.5 3.5t-13.5 6.5t-12 12.5t-9.5 14t-9.5 18t-9 17.5q-55 100 -141 155.5t-183 55.5q-77 0 -151 -35t-122 -95.5t-48 -127.5q0 -42 19.5 -77.5t46 -59t78 -48t88.5 -38t105 -36.5q183 -61 259 -101
q181 -96 219 -258q12 -49 12 -105q0 -127 -70.5 -223.5t-182.5 -144.5t-245 -48q-99 0 -192.5 35t-165.5 96t-116 151.5t-44 194.5zM401 1645q0 25 17 45l119 147q0 1 10 13t17 19t20 17.5t28.5 15.5t32.5 5q15 0 29 -4.5t23.5 -9.5t21 -15t16 -14.5t13.5 -15.5l10 -11
l119 -145q16 -20 16 -43q0 -29 -21 -51.5t-51 -22.5q-32 0 -59 31l-117 141l-117 -145q-21 -27 -57 -27q-29 0 -49.5 20.5t-20.5 49.5z" />
    <glyph glyph-name="scircumflex" unicode="&#x15d;" horiz-adv-x="1042" 
d="M164 238q0 31 18.5 51t48.5 20q41 0 58 -43q40 -94 99.5 -134t148.5 -40q37 0 72.5 8.5t68 26.5t52.5 52.5t20 80.5q0 31 -7.5 56.5t-17.5 43.5t-31 34.5t-36 26t-46.5 21t-48 16.5t-53.5 15q-56 16 -96.5 30.5t-86.5 40t-75 56t-48.5 77t-19.5 103.5q0 119 106 208
t245 89q59 0 111 -15.5t83.5 -38t49.5 -40t24 -29.5q22 -36 22 -67q0 -28 -16.5 -46t-48.5 -18q-46 0 -70 45q-45 78 -155 78q-83 0 -145 -49.5t-62 -112.5q0 -29 14 -54t33 -41.5t53 -32.5t58 -24.5t65 -21.5q66 -20 113 -39.5t94 -49t76 -64t47 -85t18 -112.5
q0 -141 -105 -225t-259 -84q-180 0 -299 141q-72 87 -72 146zM289 1243q0 26 16 45l119 148q1 2 8.5 10.5t12.5 14.5t15 15t20 15t23.5 10t28.5 4q13 0 24.5 -2.5t22 -8t18.5 -10.5t16.5 -13.5t12.5 -13t11 -12.5t8 -9l119 -146q16 -20 16 -43q0 -29 -20.5 -51t-50.5 -22
q-34 0 -60 30l-117 142l-116 -146q-20 -26 -58 -26q-29 0 -49 20t-20 49z" />
    <glyph glyph-name="Scaron" unicode="&#x160;" horiz-adv-x="1271" 
d="M133 428q0 29 21.5 50.5t50.5 21.5t50 -21.5t21 -50.5q0 -136 109.5 -240t257.5 -104q96 0 176.5 30.5t133.5 96.5t53 156q0 57 -22 104.5t-55.5 80.5t-87.5 62.5t-104.5 48t-120.5 39.5q-442 129 -442 377q0 107 66.5 200.5t177 148.5t233.5 55q149 0 257.5 -73.5
t162.5 -172.5q37 -67 37 -102q0 -28 -20 -49t-50 -21q-9 0 -17.5 3.5t-13.5 6.5t-12 12.5t-9.5 14t-9.5 18t-9 17.5q-55 100 -141 155.5t-183 55.5q-77 0 -151 -35t-122 -95.5t-48 -127.5q0 -42 19.5 -77.5t46 -59t78 -48t88.5 -38t105 -36.5q183 -61 259 -101
q181 -96 219 -258q12 -49 12 -105q0 -127 -70.5 -223.5t-182.5 -144.5t-245 -48q-99 0 -192.5 35t-165.5 96t-116 151.5t-44 194.5zM403 1825q0 29 20.5 49t49.5 20q37 0 57 -26l117 -146l117 142q26 30 59 30q30 0 51 -22t21 -51q0 -23 -16 -43l-119 -146q-1 -1 -8 -9
t-11 -12.5t-12.5 -13t-16.5 -13.5t-18.5 -10.5t-22 -8t-24.5 -2.5q-15 0 -28.5 4t-23.5 10t-20 15t-15 15t-12.5 14.5t-8.5 10.5l-119 148q-17 20 -17 45z" />
    <glyph glyph-name="scaron" unicode="&#x161;" horiz-adv-x="1042" 
d="M164 238q0 31 18.5 51t48.5 20q41 0 58 -43q40 -94 99.5 -134t148.5 -40q37 0 72.5 8.5t68 26.5t52.5 52.5t20 80.5q0 31 -7.5 56.5t-17.5 43.5t-31 34.5t-36 26t-46.5 21t-48 16.5t-53.5 15q-56 16 -96.5 30.5t-86.5 40t-75 56t-48.5 77t-19.5 103.5q0 119 106 208
t245 89q59 0 111 -15.5t83.5 -38t49.5 -40t24 -29.5q22 -36 22 -67q0 -28 -16.5 -46t-48.5 -18q-46 0 -70 45q-45 78 -155 78q-83 0 -145 -49.5t-62 -112.5q0 -29 14 -54t33 -41.5t53 -32.5t58 -24.5t65 -21.5q66 -20 113 -39.5t94 -49t76 -64t47 -85t18 -112.5
q0 -141 -105 -225t-259 -84q-180 0 -299 141q-72 87 -72 146zM287 1421q0 29 20 49.5t49 20.5q37 0 58 -27l116 -145l117 141q27 31 60 31q30 0 50.5 -22.5t20.5 -51.5q0 -23 -16 -43l-119 -145l-9 -11q-10 -11 -14.5 -15.5t-16 -14.5t-21 -15t-23.5 -9.5t-29 -4.5
q-17 0 -32.5 5t-28.5 15.5t-20 17.5t-17 19t-10 13l-119 147q-16 19 -16 45z" />
    <glyph glyph-name="Utilde" unicode="&#x168;" horiz-adv-x="1343" 
d="M1016 428v934q0 29 21 50.5t50 21.5t50.5 -21.5t21.5 -50.5v-934q0 -201 -138 -339t-339 -138t-339 138t-138 339v928q0 33 20.5 55.5t50.5 22.5q29 0 50.5 -21.5t21.5 -50.5v-934q0 -141 96.5 -237.5t237.5 -96.5t237.5 96.5t96.5 237.5zM500 1606q-30 0 -51 20.5
t-21 48.5q0 49 65 86t128 37q56 0 110 -31q24 -16 49 -16q22 0 43 21q25 28 58 28q29 0 50 -21t21 -50q0 -52 -62.5 -86.5t-117.5 -34.5q-63 0 -117 32q-27 17 -45 17q-30 0 -63 -33q-18 -18 -47 -18z" />
    <glyph glyph-name="utilde" unicode="&#x169;" horiz-adv-x="1232" 
d="M164 412v540q0 29 21.5 50.5t50.5 21.5t50 -21.5t21 -50.5v-540q0 -130 92.5 -222t221.5 -92q131 0 223 92t92 222v540q0 29 21.5 50.5t50.5 21.5t50 -21.5t21 -50.5v-540q0 -124 -61 -230t-166.5 -168.5t-230.5 -62.5q-191 0 -324 135.5t-133 325.5zM434 1206
q-30 0 -51 21t-21 49q0 49 65 86t128 37q57 0 111 -31q24 -16 49 -16q23 0 43 20q26 29 57 29q29 0 50.5 -21.5t21.5 -50.5q0 -52 -62.5 -86.5t-117.5 -34.5q-61 0 -117 33q-26 16 -45 16q-32 0 -64 -32q-19 -19 -47 -19z" />
    <glyph glyph-name="Wcircumflex" unicode="&#x174;" horiz-adv-x="1507" 
d="M508 1645q0 26 16 45l119 147q1 2 8.5 10.5t12.5 15t15.5 15.5t20.5 14.5t23.5 10t28.5 4.5t29 -4.5t23.5 -9.5t20.5 -14.5t16 -15t13.5 -15.5t9.5 -11l119 -145q16 -20 16 -43q0 -29 -20.5 -51.5t-50.5 -22.5q-33 0 -60 31l-116 141l-117 -145q-21 -27 -57 -27
q-29 0 -49.5 20.5t-20.5 49.5zM0 1362q0 29 20.5 50.5t49.5 21.5q27 0 46.5 -18.5t24.5 -45.5l185 -1169l370 579q22 37 56 37q33 0 55 -37l375 -579l184 1167q5 29 23 47.5t47 18.5t50 -21.5t21 -50.5l-2 -19l-200 -1280q-4 -31 -25.5 -47t-46.5 -16h-43q-25 0 -40.5 12
t-31.5 39l-366 574l-369 -582q-25 -43 -66 -43h-49q-24 0 -42.5 17.5t-22.5 48.5l-201 1277q-2 13 -2 19z" />
    <glyph glyph-name="wcircumflex" unicode="&#x175;" horiz-adv-x="2004" 
d="M164 414v538q0 29 21.5 50.5t50.5 21.5t50 -21.5t21 -50.5v-538q0 -131 92 -223.5t222 -92.5q129 0 223 93t94 223v538q0 29 21.5 50.5t50.5 21.5t50 -21.5t21 -50.5v-538q0 -136 92 -226t222 -90t221.5 92.5t91.5 223.5v538q0 29 21.5 50.5t50.5 21.5t50 -21.5t21 -50.5
v-538q0 -125 -60 -231.5t-165 -169t-231 -62.5q-122 0 -223.5 57t-163.5 156q-64 -100 -165.5 -156.5t-221.5 -56.5q-190 0 -323.5 136t-133.5 327zM764 1243q0 26 16 45l119 148q1 1 8.5 10.5t12.5 15t15.5 14.5t20.5 14.5t23.5 10t28.5 4.5t29 -4.5t23.5 -9t21 -14.5
t16 -15t13.5 -16l9 -10l119 -146q16 -20 16 -43q0 -29 -20.5 -51t-50.5 -22q-34 0 -60 30l-116 142l-117 -146q-20 -26 -57 -26q-29 0 -49.5 20t-20.5 49z" />
    <glyph glyph-name="Ycircumflex" unicode="&#x176;" horiz-adv-x="974" 
d="M416 72v487l-404 762q-12 30 -12 41q0 29 21.5 50.5t50.5 21.5q21 0 35.5 -8.5t19 -15t10.5 -19.5l350 -689l353 693q20 39 63 39q29 0 50.5 -21.5t21.5 -50.5q0 -17 -12 -39l-404 -760v-491q0 -29 -21.5 -50.5t-50.5 -21.5t-50 21.5t-21 50.5zM244 1645q0 26 16 45
l119 147q0 1 10 13t17 19t20 17.5t28.5 15.5t32.5 5q15 0 29 -4.5t23.5 -9.5t21 -15t16 -14.5t13.5 -15.5l10 -11l119 -145q16 -20 16 -43q0 -29 -20.5 -51.5t-50.5 -22.5q-33 0 -60 31l-117 141l-116 -145q-21 -27 -58 -27q-29 0 -49 20.5t-20 49.5z" />
    <glyph glyph-name="Ydieresis" unicode="&#x178;" horiz-adv-x="974" 
d="M416 72v487l-404 762q-12 30 -12 41q0 29 21.5 50.5t50.5 21.5q21 0 35.5 -8.5t19 -15t10.5 -19.5l350 -689l353 693q20 39 63 39q29 0 50.5 -21.5t21.5 -50.5q0 -17 -12 -39l-404 -760v-491q0 -29 -21.5 -50.5t-50.5 -21.5t-50 21.5t-21 50.5zM238 1692q0 37 24.5 61.5
t61.5 24.5t61.5 -24.5t24.5 -61.5t-24.5 -61.5t-61.5 -24.5t-61.5 24.5t-24.5 61.5zM565 1692q0 37 24.5 61.5t61.5 24.5t61.5 -24.5t24.5 -61.5t-24.5 -61.5t-61.5 -24.5t-61.5 24.5t-24.5 61.5z" />
    <glyph glyph-name="Zacute" unicode="&#x179;" horiz-adv-x="1284" 
d="M154 1362q0 29 21 50.5t50 21.5h813q29 0 50.5 -21.5t21.5 -50.5q0 -9 -3 -18.5t-5.5 -14.5t-9 -14.5t-7.5 -11.5l-763 -1160h778q29 0 50 -21t21 -50t-21 -50.5t-50 -21.5h-916q-29 0 -50 21.5t-21 50.5q0 20 10 37l776 1181h-674q-29 0 -50 21.5t-21 50.5zM819 1784
q0 -30 -22 -49l-154 -144q-22 -22 -53 -22q-29 0 -46.5 18.5t-17.5 44.5q0 28 23 51l162 150q16 16 43 16q29 0 47 -19t18 -46z" />
    <glyph glyph-name="zacute" unicode="&#x17a;" horiz-adv-x="1038" 
d="M180 952q0 29 21.5 50.5t50.5 21.5h606q29 0 50.5 -21.5t21.5 -50.5q0 -20 -17 -45l-569 -764h541q29 0 50 -21t21 -50t-21 -50.5t-50 -21.5h-690q-29 0 -50.5 21.5t-21.5 50.5q0 24 12 39l574 770h-457q-29 0 -50.5 21t-21.5 50zM766 1382q0 -29 -23 -49l-153 -143
q-23 -23 -53 -23q-29 0 -46.5 19t-17.5 45q0 28 23 51l161 150q16 16 43 16q29 0 47.5 -19.5t18.5 -46.5z" />
    <glyph glyph-name="Zdotaccent" unicode="&#x17b;" horiz-adv-x="1284" 
d="M565 1692q0 37 24.5 61.5t61.5 24.5t61.5 -24.5t24.5 -61.5t-24.5 -61.5t-61.5 -24.5t-61.5 24.5t-24.5 61.5zM154 1362q0 29 21 50.5t50 21.5h813q29 0 50.5 -21.5t21.5 -50.5q0 -9 -3 -18.5t-5.5 -14.5t-9 -14.5t-7.5 -11.5l-763 -1160h778q29 0 50 -21t21 -50
t-21 -50.5t-50 -21.5h-916q-29 0 -50 21.5t-21 50.5q0 20 10 37l776 1181h-674q-29 0 -50 21.5t-21 50.5z" />
    <glyph glyph-name="Zcaron" unicode="&#x17d;" horiz-adv-x="1284" 
d="M410 1825q0 29 20 49t49 20q38 0 58 -26l116 -146l117 142q26 30 59 30q30 0 51 -22t21 -51q0 -23 -16 -43l-119 -146q-1 -1 -8 -9t-11 -12.5t-12.5 -13t-16.5 -13.5t-18.5 -10.5t-22 -8t-24.5 -2.5q-15 0 -28.5 4t-23.5 10t-20 15t-15 15t-12.5 14.5t-8.5 10.5l-119 148
q-16 19 -16 45zM154 1362q0 29 21 50.5t50 21.5h813q29 0 50.5 -21.5t21.5 -50.5q0 -9 -3 -18.5t-5.5 -14.5t-9 -14.5t-7.5 -11.5l-763 -1160h778q29 0 50 -21t21 -50t-21 -50.5t-50 -21.5h-916q-29 0 -50 21.5t-21 50.5q0 20 10 37l776 1181h-674q-29 0 -50 21.5t-21 50.5z
" />
    <glyph glyph-name="zcaron" unicode="&#x17e;" horiz-adv-x="1038" 
d="M328 1421q0 29 20 49.5t49 20.5q37 0 58 -27l116 -145l117 141q27 31 60 31q30 0 50.5 -22.5t20.5 -51.5q0 -23 -16 -43l-119 -145l-10 -11q-9 -11 -13.5 -15.5t-16 -14.5t-21 -15t-23.5 -9.5t-29 -4.5q-17 0 -32.5 5t-28.5 15.5t-20 17.5t-17 19t-10 13l-119 147
q-16 19 -16 45zM180 952q0 29 21.5 50.5t50.5 21.5h606q29 0 50.5 -21.5t21.5 -50.5q0 -20 -17 -45l-569 -764h541q29 0 50 -21t21 -50t-21 -50.5t-50 -21.5h-690q-29 0 -50.5 21.5t-21.5 50.5q0 24 12 39l574 770h-457q-29 0 -50.5 21t-21.5 50z" />
    <glyph glyph-name="florin" unicode="&#x192;" 
d="M1098 1159q-2 52 -38 90.5t-89 38.5q-54 0 -91.5 -37.5t-37.5 -91.5v-457h190q31 0 52.5 -21t21.5 -52t-21.5 -52.5t-52.5 -21.5h-190v-684q0 -115 -82.5 -194.5t-198.5 -79.5q-115 0 -194.5 79.5t-79.5 194.5q0 31 21 52.5t52 21.5t52.5 -21.5t21.5 -52.5
q0 -54 37.5 -91.5t91.5 -37.5t92.5 37.5t38.5 91.5v684h-30q-31 0 -52.5 21.5t-21.5 52.5t21.5 52t52.5 21h30v457q0 115 80 195t195 80q85 0 154 -46t100 -122q19 -41 22 -107q0 -31 -21.5 -52.5t-52.5 -21.5t-52 21.5t-21 52.5z" />
    <glyph glyph-name="circumflex" unicode="&#x2c6;" horiz-adv-x="901" 
d="M205 1217q0 26 16 45l119 147q1 2 8.5 10.5t12.5 15t15.5 15.5t20.5 14.5t23.5 10t28.5 4.5t29 -4.5t23.5 -9.5t20.5 -14.5t16 -15t13.5 -15.5t9.5 -11l119 -145q16 -20 16 -43q0 -29 -20.5 -51.5t-50.5 -22.5q-33 0 -60 31l-116 141l-117 -145q-21 -27 -58 -27
q-29 0 -49 20.5t-20 49.5z" />
    <glyph glyph-name="caron" unicode="&#x2c7;" horiz-adv-x="901" 
d="M205 1364q0 29 20 49.5t49 20.5q37 0 58 -27l117 -145l116 141q27 31 60 31q30 0 50.5 -22.5t20.5 -51.5q0 -23 -16 -43l-119 -146l-9 -11l-13.5 -15t-16 -15t-21 -14.5t-23.5 -9t-29 -4.5t-28.5 4.5t-23.5 10t-20.5 14.5t-15.5 14.5t-12.5 15t-8.5 10.5l-119 148
q-16 19 -16 45z" />
    <glyph glyph-name="dotaccent" unicode="&#x2d9;" horiz-adv-x="581" 
d="M205 1290q0 37 24.5 61.5t61.5 24.5t61.5 -24.5t24.5 -61.5t-24.5 -61.5t-61.5 -24.5t-61.5 24.5t-24.5 61.5z" />
    <glyph glyph-name="ring" unicode="&#x2da;" horiz-adv-x="786" 
d="M307 1362q0 -37 24.5 -61.5t61.5 -24.5t61.5 24.5t24.5 61.5t-24.5 61.5t-61.5 24.5t-61.5 -24.5t-24.5 -61.5zM205 1362q0 82 53 135t135 53t135.5 -53t53.5 -135t-53.5 -135t-135.5 -53t-135 53t-53 135z" />
    <glyph glyph-name="ogonek" unicode="&#x2db;" horiz-adv-x="768" 
d="M563 41v-225q0 -29 -21 -50.5t-50 -21.5h-72q-29 0 -49.5 -21.5t-20.5 -50.5t20.5 -49t49.5 -20h72q29 0 50 -21.5t21 -50.5t-21 -50.5t-50 -21.5h-72q-89 0 -152 61.5t-63 151.5q0 89 63.5 152t151.5 63v154h143z" />
    <glyph glyph-name="tilde" unicode="&#x2dc;" horiz-adv-x="933" 
d="M276 1202q-30 0 -50.5 21t-20.5 49q0 49 64.5 86t127.5 37q57 0 111 -31q24 -16 49 -16q23 0 43 20q26 29 57 29q29 0 50.5 -21.5t21.5 -50.5q0 -52 -62.5 -86.5t-117.5 -34.5q-61 0 -117 33q-26 16 -45 16q-31 0 -63 -32q-19 -19 -48 -19z" />
    <glyph glyph-name="Wgrave" unicode="&#x1e80;" horiz-adv-x="1507" 
d="M0 1362q0 29 20.5 50.5t49.5 21.5q27 0 46.5 -18.5t24.5 -45.5l185 -1169l370 579q22 37 56 37q33 0 55 -37l375 -579l184 1167q5 29 23 47.5t47 18.5t50 -21.5t21 -50.5l-2 -19l-200 -1280q-4 -31 -25.5 -47t-46.5 -16h-43q-25 0 -40.5 12t-31.5 39l-366 574l-369 -582
q-25 -43 -66 -43h-49q-24 0 -42.5 17.5t-22.5 48.5l-201 1277q-2 13 -2 19zM522 1784q0 27 18.5 46t47.5 19q27 0 43 -16l162 -150q22 -22 22 -51q0 -26 -17 -44.5t-46 -18.5q-32 0 -54 22l-153 144q-23 20 -23 49z" />
    <glyph glyph-name="wgrave" unicode="&#x1e81;" horiz-adv-x="2004" 
d="M164 414v538q0 29 21.5 50.5t50.5 21.5t50 -21.5t21 -50.5v-538q0 -131 92 -223.5t222 -92.5q129 0 223 93t94 223v538q0 29 21.5 50.5t50.5 21.5t50 -21.5t21 -50.5v-538q0 -136 92 -226t222 -90t221.5 92.5t91.5 223.5v538q0 29 21.5 50.5t50.5 21.5t50 -21.5t21 -50.5
v-538q0 -125 -60 -231.5t-165 -169t-231 -62.5q-122 0 -223.5 57t-163.5 156q-64 -100 -165.5 -156.5t-221.5 -56.5q-190 0 -323.5 136t-133.5 327zM780 1382q0 27 18.5 46.5t47.5 19.5q27 0 43 -16l162 -150q22 -22 22 -51q0 -26 -17 -45t-46 -19q-31 0 -54 23l-153 143
q-23 20 -23 49z" />
    <glyph glyph-name="Wacute" unicode="&#x1e82;" horiz-adv-x="1507" 
d="M0 1362q0 29 20.5 50.5t49.5 21.5q27 0 46.5 -18.5t24.5 -45.5l185 -1169l370 579q22 37 56 37q33 0 55 -37l375 -579l184 1167q5 29 23 47.5t47 18.5t50 -21.5t21 -50.5l-2 -19l-200 -1280q-4 -31 -25.5 -47t-46.5 -16h-43q-25 0 -40.5 12t-31.5 39l-366 574l-369 -582
q-25 -43 -66 -43h-49q-24 0 -42.5 17.5t-22.5 48.5l-201 1277q-2 13 -2 19zM981 1784q0 -29 -23 -49l-153 -144q-22 -22 -53 -22q-29 0 -46.5 18.5t-17.5 44.5q0 28 23 51l161 150q16 16 43 16q29 0 47.5 -19t18.5 -46z" />
    <glyph glyph-name="wacute" unicode="&#x1e83;" horiz-adv-x="2004" 
d="M164 414v538q0 29 21.5 50.5t50.5 21.5t50 -21.5t21 -50.5v-538q0 -131 92 -223.5t222 -92.5q129 0 223 93t94 223v538q0 29 21.5 50.5t50.5 21.5t50 -21.5t21 -50.5v-538q0 -136 92 -226t222 -90t221.5 92.5t91.5 223.5v538q0 29 21.5 50.5t50.5 21.5t50 -21.5t21 -50.5
v-538q0 -125 -60 -231.5t-165 -169t-231 -62.5q-122 0 -223.5 57t-163.5 156q-64 -100 -165.5 -156.5t-221.5 -56.5q-190 0 -323.5 136t-133.5 327zM1239 1382q0 -30 -22 -49l-154 -143q-23 -23 -53 -23q-29 0 -46.5 19t-17.5 45q0 28 23 51l161 150q16 16 44 16t46.5 -19.5
t18.5 -46.5z" />
    <glyph glyph-name="Wdieresis" unicode="&#x1e84;" horiz-adv-x="1507" 
d="M506 1692q0 37 24.5 61.5t61.5 24.5t61.5 -24.5t24.5 -61.5t-24.5 -61.5t-61.5 -24.5t-61.5 24.5t-24.5 61.5zM834 1692q0 37 24.5 61.5t61.5 24.5t61.5 -24.5t24.5 -61.5t-24.5 -61.5t-61.5 -24.5t-61.5 24.5t-24.5 61.5zM0 1362q0 29 20.5 50.5t49.5 21.5
q27 0 46.5 -18.5t24.5 -45.5l185 -1169l370 579q22 37 56 37q33 0 55 -37l375 -579l184 1167q5 29 23 47.5t47 18.5t50 -21.5t21 -50.5l-2 -19l-200 -1280q-4 -31 -25.5 -47t-46.5 -16h-43q-25 0 -40.5 12t-31.5 39l-366 574l-369 -582q-25 -43 -66 -43h-49
q-24 0 -42.5 17.5t-22.5 48.5l-201 1277q-2 13 -2 19z" />
    <glyph glyph-name="wdieresis" unicode="&#x1e85;" horiz-adv-x="2004" 
d="M164 414v538q0 29 21.5 50.5t50.5 21.5t50 -21.5t21 -50.5v-538q0 -131 92 -223.5t222 -92.5q129 0 223 93t94 223v538q0 29 21.5 50.5t50.5 21.5t50 -21.5t21 -50.5v-538q0 -136 92 -226t222 -90t221.5 92.5t91.5 223.5v538q0 29 21.5 50.5t50.5 21.5t50 -21.5t21 -50.5
v-538q0 -125 -60 -231.5t-165 -169t-231 -62.5q-122 0 -223.5 57t-163.5 156q-64 -100 -165.5 -156.5t-221.5 -56.5q-190 0 -323.5 136t-133.5 327zM760 1292q0 37 24.5 61.5t61.5 24.5t61.5 -24.5t24.5 -61.5t-24.5 -61.5t-61.5 -24.5t-61.5 24.5t-24.5 61.5zM1087 1292
q0 37 25 61.5t62 24.5t61.5 -24.5t24.5 -61.5t-24.5 -61.5t-61.5 -24.5t-62 24.5t-25 61.5z" />
    <glyph glyph-name="Ygrave" unicode="&#x1ef2;" horiz-adv-x="974" 
d="M416 72v487l-404 762q-12 30 -12 41q0 29 21.5 50.5t50.5 21.5q21 0 35.5 -8.5t19 -15t10.5 -19.5l350 -689l353 693q20 39 63 39q29 0 50.5 -21.5t21.5 -50.5q0 -17 -12 -39l-404 -760v-491q0 -29 -21.5 -50.5t-50.5 -21.5t-50 21.5t-21 50.5zM258 1784q0 27 18.5 46
t47.5 19q27 0 43 -16l161 -150q23 -23 23 -51q0 -26 -17.5 -44.5t-46.5 -18.5q-31 0 -53 22l-153 144q-23 20 -23 49z" />
    <glyph glyph-name="endash" unicode="&#x2013;" 
d="M342 535q0 29 21.5 50t50.5 21h811q29 0 50 -21t21 -50t-21 -50.5t-50 -21.5h-811q-29 0 -50.5 21.5t-21.5 50.5z" />
    <glyph glyph-name="emdash" unicode="&#x2014;" 
d="M217 535q0 29 21.5 50t50.5 21h1061q29 0 50 -21t21 -50t-21 -50.5t-50 -21.5h-1061q-29 0 -50.5 21.5t-21.5 50.5z" />
    <glyph glyph-name="quoteleft" unicode="&#x2018;" horiz-adv-x="512" 
d="M410 1239q0 -37 -24.5 -61.5t-61.5 -24.5t-61.5 24.5t-24.5 61.5v80q0 65 51 98q30 15 47 15q24 0 24 -17q0 -13 -14 -24q-39 -22 -39 -48q0 -6 4 -18q99 0 99 -86z" />
    <glyph glyph-name="quoteright" unicode="&#x2019;" horiz-adv-x="512" 
d="M102 1348q0 37 24.5 61.5t61.5 24.5t61.5 -24.5t24.5 -61.5v-80q0 -66 -51 -99q-28 -14 -47 -14q-24 0 -24 16q0 14 14 25q39 22 39 47q0 7 -4 19q-99 0 -99 86z" />
    <glyph glyph-name="quotesinglbase" unicode="&#x201a;" horiz-adv-x="512" 
d="M102 86q0 37 24.5 61.5t61.5 24.5t61.5 -24.5t24.5 -61.5v-39q0 -41 -27.5 -68.5t-68.5 -27.5q-18 0 -24 4q34 6 34 45q-37 0 -61.5 24.5t-24.5 61.5z" />
    <glyph glyph-name="quotedblleft" unicode="&#x201c;" horiz-adv-x="716" 
d="M614 1239q0 -37 -24.5 -61.5t-61.5 -24.5t-61.5 24.5t-24.5 61.5v80q0 65 52 98q30 15 47 15q24 0 24 -17q0 -13 -14 -24q-39 -22 -39 -48q0 -6 4 -18q98 0 98 -86zM348 1239q0 -37 -24.5 -61.5t-61.5 -24.5t-61.5 24.5t-24.5 61.5v80q0 65 51 98q30 15 47 15
q25 0 25 -17q0 -13 -14 -24q-39 -22 -39 -48q0 -6 4 -18q98 0 98 -86z" />
    <glyph glyph-name="quotedblright" unicode="&#x201d;" horiz-adv-x="716" 
d="M102 1348q0 37 24.5 61.5t61.5 24.5t61.5 -24.5t24.5 -61.5v-80q0 -66 -51 -99q-28 -14 -47 -14q-24 0 -24 16q0 14 14 25q39 22 39 47q0 7 -4 19q-99 0 -99 86zM369 1348q0 37 24.5 61.5t61.5 24.5t61.5 -24.5t24.5 -61.5v-80q0 -66 -52 -99q-28 -14 -47 -14
q-24 0 -24 16q0 14 14 25q39 22 39 47q0 7 -4 19q-98 0 -98 86z" />
    <glyph glyph-name="quotedblbase" unicode="&#x201e;" horiz-adv-x="716" 
d="M102 86q0 37 24.5 61.5t61.5 24.5t61.5 -24.5t24.5 -61.5v-80q0 -65 -51 -98q-28 -14 -47 -14q-24 0 -24 16q0 13 14 24q39 22 39 48q0 6 -4 18q-99 0 -99 86zM369 86q0 37 24.5 61.5t61.5 24.5t61.5 -24.5t24.5 -61.5v-80q0 -65 -52 -98q-28 -14 -47 -14q-24 0 -24 16
q0 13 14 24q39 22 39 48q0 6 -4 18q-98 0 -98 86z" />
    <glyph glyph-name="dagger" unicode="&#x2020;" 
d="M745 -369v1250h-342q-29 0 -50 21t-21 50t21 50.5t50 21.5h342v592q0 29 21.5 50.5t50.5 21.5t50.5 -21.5t21.5 -50.5v-592h346q29 0 50.5 -21.5t21.5 -50.5t-21.5 -50t-50.5 -21h-346v-1250q0 -29 -21.5 -50t-50.5 -21t-50.5 21t-21.5 50z" />
    <glyph glyph-name="daggerdbl" unicode="&#x2021;" 
d="M332 522q0 29 21 50.5t50 21.5h342v287h-342q-29 0 -50 21t-21 50t21 50.5t50 21.5h342v592q0 29 21.5 50.5t50.5 21.5t50.5 -21.5t21.5 -50.5v-592h346q29 0 50.5 -21.5t21.5 -50.5t-21.5 -50t-50.5 -21h-346v-287h346q29 0 50.5 -21.5t21.5 -50.5t-21.5 -50t-50.5 -21
h-346v-820q0 -29 -21.5 -50t-50.5 -21t-50.5 21t-21.5 50v820h-342q-29 0 -50 21t-21 50z" />
    <glyph glyph-name="bullet" unicode="&#x2022;" 
d="M635 612q0 75 50 125.5t124 50.5q75 0 125.5 -50.5t50.5 -125.5q0 -74 -50.5 -124t-125.5 -50q-73 0 -123.5 50t-50.5 124z" />
    <glyph glyph-name="ellipsis" unicode="&#x2026;" horiz-adv-x="802" 
d="M102 86q0 37 24.5 61.5t61.5 24.5t61.5 -24.5t24.5 -61.5t-24.5 -61.5t-61.5 -24.5t-61.5 24.5t-24.5 61.5zM315 86q0 37 24.5 61.5t61.5 24.5t61.5 -24.5t24.5 -61.5t-24.5 -61.5t-61.5 -24.5t-61.5 24.5t-24.5 61.5zM528 86q0 37 24.5 61.5t61.5 24.5t61.5 -24.5
t24.5 -61.5t-24.5 -61.5t-61.5 -24.5t-61.5 24.5t-24.5 61.5z" />
    <glyph glyph-name="perthousand" unicode="&#x2030;" 
d="M307 1350q0 37 24.5 61.5t61.5 24.5t61.5 -24.5t24.5 -61.5t-24.5 -61.5t-61.5 -24.5t-61.5 24.5t-24.5 61.5zM756 86q0 37 24.5 61.5t61.5 24.5t61.5 -24.5t24.5 -61.5t-24.5 -61.5t-61.5 -24.5t-61.5 24.5t-24.5 61.5zM1022 86q0 37 24.5 61.5t61.5 24.5t61.5 -24.5
t24.5 -61.5t-24.5 -61.5t-61.5 -24.5t-61.5 24.5t-24.5 61.5zM338 123l418 1261q8 22 26 36t41 14q29 0 50.5 -21.5t21.5 -50.5l-8 -37l-424 -1276q-8 -22 -26.5 -35.5t-41.5 -13.5q-33 0 -52 21t-19 51z" />
    <glyph glyph-name="guilsinglleft" unicode="&#x2039;" 
d="M1036 70q0 -29 -20 -49.5t-49 -20.5q-28 0 -49 18l-441 441q-22 22 -22 51q0 32 26 55l432 430q29 29 56 29q29 0 49 -21t20 -51q0 -29 -18 -47l-391 -395l387 -389q20 -23 20 -51z" />
    <glyph glyph-name="guilsinglright" unicode="&#x203a;" 
d="M602 70q0 26 21 51l387 389l-392 395q-18 18 -18 47t20.5 50.5t49.5 21.5q26 0 55 -29l432 -430q27 -24 27 -55q0 -28 -23 -51l-440 -441q-21 -18 -49 -18q-29 0 -49.5 20.5t-20.5 49.5z" />
    <glyph glyph-name="fraction" unicode="&#x2044;" horiz-adv-x="1185" 
d="M322 123l417 1261q8 22 26.5 36t41.5 14q29 0 50.5 -21.5t21.5 -50.5q0 -6 -2.5 -15.5t-4.5 -15.5l-2 -6l-424 -1276q-8 -22 -26 -35.5t-41 -13.5q-33 0 -52.5 21t-19.5 51q0 5 3.5 18t7.5 23z" />
    <glyph glyph-name="Euro" unicode="&#x20ac;" horiz-adv-x="2072" 
d="M205 559q0 29 21 50.5t50 21.5h168q-4 58 -4 86q0 39 2 57h-166q-29 0 -50 21.5t-21 50.5t21 50.5t50 21.5h191q12 50 33 96q93 210 283 339.5t423 129.5q155 0 294.5 -59.5t246.5 -166.5q81 -81 115 -151q6 -15 6 -29q0 -29 -21.5 -50t-50.5 -21q-15 0 -27 7t-19 15
t-21 27q-47 61 -87 98q-86 88 -198 136t-238 48q-189 0 -344.5 -105.5t-228.5 -275.5l-17 -38h492q29 0 50.5 -21.5t21.5 -50.5t-21.5 -50.5t-50.5 -21.5h-522q-2 -18 -2 -57q0 -45 6 -86h518q29 0 50.5 -21.5t21.5 -50.5t-21.5 -50.5t-50.5 -21.5h-481l6 -12
q73 -170 228.5 -275.5t344.5 -105.5q125 0 237.5 48t198.5 134q41 41 97 123q22 29 57 29q29 0 50.5 -21.5t21.5 -50.5q0 -12 -8 -32q-37 -72 -113 -148q-106 -106 -246 -165.5t-295 -59.5q-233 0 -423 129.5t-283 339.5q-19 43 -25 67h-199q-29 0 -50 21.5t-21 50.5z" />
    <glyph glyph-name="minus" unicode="&#x2212;" horiz-adv-x="1433" 
d="M369 535q0 29 21 50t50 21h555q29 0 50.5 -21t21.5 -50t-21.5 -50.5t-50.5 -21.5h-555q-29 0 -50 21.5t-21 50.5z" />
    <glyph glyph-name="CR" horiz-adv-x="872" 
 />
    </font>
</defs>
</svg>
