<svg id="Calque_1" data-name="Calque 1" xmlns="http://www.w3.org/2000/svg" width="275.872mm" height="103.752mm" viewBox="0 0 782 294.1"><defs><style>.cls-1{fill:#a57b26;}.cls-2{fill:#fcbe37;}</style></defs><g id="Calque_2" data-name="Calque 2"><g id="Ñëîé_1" data-name="Ñëîé 1"><path class="cls-1" d="M713.911,294.1h53.557a14.174,14.174,0,0,0,14.174-14.149L782,66.416a14.173,14.173,0,0,0-4.8-10.658L713.911,0Z"/><path class="cls-2" d="M782,66.173V279.927A14.174,14.174,0,0,1,767.827,294.1H27.037a14.173,14.173,0,0,1-11.656-22.236L81,169,15.4,74.241A14.174,14.174,0,0,1,27.051,52H767.827A14.174,14.174,0,0,1,782,66.173Z"/></g></g></svg>