<svg id="Layer_1" data-name="Layer 1" xmlns="http://www.w3.org/2000/svg" width="15.875mm" height="15.875mm" viewBox="0 0 45 45"><defs><style>.cls-1{fill:#4bb750;}</style></defs><path class="cls-1" d="M22.5,0A22.5,22.5,0,1,0,45,22.5,22.5,22.5,0,0,0,22.5,0ZM34.491,16.725a8.87,8.87,0,0,1-.761.8q-6.5,6.505-13,13.006c-1.213,1.213-2.207,1.214-3.424,0q-3.234-3.228-6.465-6.461a2.01,2.01,0,0,1-.66-2.145,1.919,1.919,0,0,1,3.157-.9c1.165,1.077,2.268,2.223,3.389,3.347.742.744,1.469,1.5,2.253,2.307.224-.212.373-.346.514-.488q5.9-5.895,11.8-11.783a3.223,3.223,0,0,1,1.178-.773,1.852,1.852,0,0,1,2.122.81A1.908,1.908,0,0,1,34.491,16.725Z" transform="translate(0.001 0.001)"/></svg>